<svg width="175" height="209" viewBox="0 0 175 209" fill="none" xmlns="http://www.w3.org/2000/svg">
<g clip-path="url(#clip0)">
<path d="M42.6543 7.81893C42.6543 7.81893 35.8218 6.38748 33.7206 10.6528C31.6525 14.9124 34.55 25.2396 33.2667 23.1305C32.2623 21.453 31.1549 20.1701 30.6405 20.1555C29.8162 20.1256 33.1295 27.5042 33.6939 28.6063C34.2527 29.6751 33.9353 32.4013 33.9353 32.4013C33.9353 32.4013 30.1548 31.8508 28.7512 31.0297C26.4377 29.6795 24.2775 28.0291 22.6788 25.8712C21.0184 23.5527 20.1938 20.3373 19.7419 17.5032C19.347 15.0019 19.5044 12.3374 20.7259 10.1069C22.8351 6.28555 27.6074 4.06265 31.8088 3.68462C33.8597 3.50414 35.4258 3.68083 37.3817 4.33875C38.3236 4.65676 39.6153 5.22306 40.4313 5.80242C40.9034 6.16676 42.2932 7.50408 42.6543 7.81893Z" fill="#231F20"/>
<path d="M43.7605 32.5659C43.7605 32.5659 43.0251 37.8301 44.7698 41.4358C45.1331 42.1613 48.0806 45.2182 48.3377 45.7222C49.3763 47.5993 36.005 49.0362 32.6429 44.9543C32.6429 44.9543 33.4223 37.5589 32.7073 35.181C31.9923 32.8031 31.4349 30.9462 29.5478 29.6942C27.6607 28.4422 43.005 27.763 43.7605 32.5659Z" fill="#C69E8D"/>
<path d="M48.6041 26.1861C48.6041 26.1861 48.5748 28.9999 48.6557 29.6711C48.7367 30.3423 43.5869 29.1703 42.907 28.1908C41.898 26.6854 45.9553 26.2636 46.7178 26.1328C47.5078 25.963 48.6041 26.1861 48.6041 26.1861Z" fill="#7A2742"/>
<path d="M43.4258 27.2455C43.4258 27.2455 44.4008 27.5578 45.2319 27.8263C45.9189 28.051 46.6162 28.1369 47.3239 28.0841L48.6786 28.023L48.6036 26.3917L43.4258 27.2455Z" fill="white"/>
<path d="M33.7288 5.51349C36.2887 4.32085 39.2781 4.83577 41.3456 6.74192C43.0131 8.30563 44.9869 10.2621 45.5845 11.3585C46.5568 13.247 47.9148 22.1598 48.4512 25.2877C48.4798 25.454 48.7415 25.7859 48.8249 25.8744C48.914 25.9961 48.9369 26.1292 48.9322 26.3013C48.9437 26.3678 48.9276 26.4733 48.8727 26.5513C48.7469 26.8126 48.4588 26.725 48.2542 26.7258C47.8506 26.7608 43.7213 27.1607 43.1577 27.2574C45.6342 30.1553 48.5828 29.2385 48.6491 29.2272C48.7817 29.2044 48.8651 29.2929 48.9211 29.4203C48.9325 29.4868 48.9496 29.5867 48.961 29.6532C48.9564 29.8253 48.9518 29.9973 48.8363 30.1199C48.8089 30.1589 48.7483 30.2035 48.7208 30.2425C48.6442 30.3926 48.6898 30.6588 48.7127 30.7919C48.7469 30.9916 48.8306 34.2656 47.9365 34.6244C44.686 35.9698 36.4146 33.3122 34.2027 32.3556C31.1484 31.064 30.2984 29.2916 27.9463 26.9205C25.7554 24.6929 24.867 20.9061 25.2051 17.9023C25.8057 12.2502 28.8396 8.64702 30.7068 7.1964C31.4455 6.72718 32.526 6.06231 33.7288 5.51349Z" fill="#E4B69D"/>
<path d="M47.0761 18.6726C47.0761 18.6726 50.9171 23.3575 50.4929 23.67C50.0687 23.9825 48.0531 24.568 48.0531 24.568L47.0761 18.6726Z" fill="#E4B69D"/>
<path d="M44.8065 18.3768C44.7424 18.7988 44.878 20.3855 45.391 21.1881C45.3853 21.1548 45.0149 21.1841 44.9818 21.1898C44.3953 21.1533 43.8752 21.1055 43.3539 20.8524C43.1322 20.7534 42.9047 20.6211 42.7047 20.4499C42.5104 20.312 42.283 20.1797 42.2156 19.9858C42.0876 19.8364 43.3648 18.7268 44.8065 18.3768Z" fill="white"/>
<path d="M45.681 20.4875C45.5655 20.6101 45.4443 20.6994 45.2842 20.7611L45.681 20.4875Z" fill="black"/>
<path d="M44.8906 19.6639C44.805 19.1648 44.9629 18.6924 45.3094 18.3247C45.1597 18.2477 45.0156 18.2039 44.8441 18.199C44.2485 18.5067 43.9145 19.1463 44.0286 19.8118C44.1427 20.4773 44.7039 20.9634 45.3349 21.0607C45.495 20.999 45.6105 20.8764 45.7317 20.7871C45.3214 20.5834 44.9762 20.1631 44.8906 19.6639Z" fill="#404041"/>
<path d="M45.3077 18.325C44.9886 18.6537 44.8033 19.165 44.8889 19.6642C44.9745 20.1633 45.2808 20.5561 45.73 20.7873C46.049 20.4586 46.2401 19.9805 46.1488 19.4481C46.0632 18.949 45.7237 18.5619 45.3077 18.325Z" fill="#231F20"/>
<path d="M44.3644 20.3709C44.2317 20.3936 44.0763 20.2833 44.0535 20.1502C44.0306 20.0171 44.1404 19.8612 44.273 19.8385C44.4057 19.8157 44.5611 19.9261 44.5839 20.0592C44.6068 20.1923 44.5301 20.3424 44.3644 20.3709Z" fill="white"/>
<path d="M45.0456 19.7743C45.2653 19.7367 45.4128 19.5273 45.3749 19.3068C45.3371 19.0863 45.1283 18.9381 44.9086 18.9757C44.6889 19.0134 44.5414 19.2227 44.5792 19.4433C44.617 19.6638 44.8258 19.812 45.0456 19.7743Z" fill="white"/>
<path d="M45.5149 14.3503C45.5149 14.3503 42.3027 13.5311 40.87 14.5304C39.4373 15.5297 38.7876 17.114 38.7876 17.114C38.7876 17.114 39.9001 16.2382 41.0149 15.7729C42.1296 15.3077 45.8473 15.4922 45.8473 15.4922C45.8473 15.4922 46.434 14.5352 45.5149 14.3503Z" fill="#231F20"/>
<path d="M42.3263 20.2407C42.3045 20.313 43.1299 20.5482 43.2019 20.5701C43.562 20.6796 43.922 20.7891 44.3096 20.8597C44.6251 20.9083 44.9406 20.957 45.2447 20.9391C45.4162 20.9439 45.5488 20.9212 45.7145 20.8927C45.8472 20.87 46.0129 20.8416 46.1456 20.8188C46.1456 20.8188 45.8515 21.6913 45.2719 21.8935C44.6865 22.0624 43.4369 22.1397 42.7489 21.7097C42.0494 21.2131 42.3263 20.2407 42.3263 20.2407Z" fill="#E4B69D"/>
<path d="M44.1255 16.1986C44.5644 16.5686 44.9702 16.9443 45.3542 17.3923L45.4879 17.5749L45.5713 17.6633L45.6102 17.6909L45.6159 17.7242C45.6216 17.7575 45.6216 17.7575 45.6273 17.7907C45.6227 17.9628 45.5621 18.0074 45.5015 18.0521C45.4409 18.0967 45.386 18.1747 45.3254 18.2193C45.0829 18.3979 44.8348 18.5432 44.5421 18.6277C44.0231 18.7852 43.5714 19.1367 43.1472 19.4492C42.6956 19.8007 42.2828 20.1798 41.8311 20.5313C42.1993 20.0913 42.5676 19.6514 42.9804 19.2723C43.3932 18.8932 43.8723 18.5028 44.4188 18.3063C44.6726 18.1942 44.9264 18.0822 45.1471 17.9758C45.2077 17.9312 45.274 17.9198 45.3346 17.8752C45.3952 17.8305 45.4226 17.7916 45.4226 17.7916L45.4169 17.7583L45.3781 17.7307L45.3667 17.6642L45.233 17.4816C44.9153 17.0222 44.5038 16.6133 44.1255 16.1986Z" fill="black"/>
<path d="M41.6824 20.865C41.7512 20.2709 42.0749 19.7701 42.4762 19.3245C42.8833 18.9121 43.3681 18.5549 43.8701 18.2976C44.372 18.0402 44.9185 17.8437 45.4764 17.7138C46.0344 17.5839 46.5819 17.5927 47.1399 17.4628C46.6825 17.781 46.1246 17.9109 45.6169 18.135C45.1036 18.3258 44.6348 18.5775 44.166 18.8291C43.7029 19.1141 43.273 19.3933 42.8488 19.7059C42.4303 20.0517 42.045 20.3918 41.6824 20.865Z" fill="black"/>
<path d="M32.9474 19.2803C33.4135 20.6048 35.2302 24.2324 36.4278 25.8424C36.4278 25.8424 35.5199 26.7175 35.1576 26.1973C34.5051 25.1788 32.7316 22.4002 32.0381 20.9434C31.7753 20.4062 31.5514 19.8965 31.3389 19.4534C31.372 19.4478 32.9417 19.2471 32.9474 19.2803Z" fill="#231F20"/>
<path d="M40.3883 5.74145C39.5722 5.16209 38.2863 4.62906 37.3387 4.27778C35.416 3.61417 33.8167 3.44317 31.7657 3.62365C27.5644 4.00168 22.3406 5.58267 20.3413 9.24818C19.1198 11.4787 19.5693 14.8954 19.732 17.4366C19.9755 21.6423 22.8203 28.2791 27.1733 29.3823C28.1378 30.8268 28.9631 31.062 30.3542 31.6113C31.9283 32.2319 32.9058 31.9615 32.9058 31.9615C32.0772 31.1102 31.6454 29.9854 31.6454 29.9854L32.9302 30.3131C32.2924 29.9772 32.0367 28.6852 32.0367 28.6852L32.6848 28.8823C32.518 28.7054 32.3728 28.4563 32.222 28.1738C32.7068 27.8167 33.2191 27.4205 33.7085 26.8913C33.9395 26.6461 29.8007 20.0257 30.6249 20.0556C31.1393 20.0701 32.2467 21.3531 33.2512 23.0305C34.5344 25.1397 31.6038 14.8182 33.705 10.5528C35.7731 6.29323 42.6387 7.719 42.6387 7.719C42.2833 7.43742 40.8935 6.10011 40.3883 5.74145Z" fill="#231F20"/>
<path d="M31.1022 19.4599C31.1022 19.4599 28.9855 17.6649 28.73 19.5584C28.5077 21.4463 29.5211 23.773 30.5326 24.6956C31.5498 25.6515 33.4322 27.0756 33.8964 26.996C34.3606 26.9164 34.6796 26.5877 35.0307 26.0479L31.1022 19.4599Z" fill="#E4B69D"/>
<path d="M31.6989 20.5563C31.6989 20.5563 30.2657 19.3634 30.1064 20.6239C29.9472 21.8843 30.6247 23.4466 31.3138 24.0819C32.003 24.7173 33.2637 25.7 33.5621 25.6488C33.8605 25.5976 34.0972 25.3858 34.3385 25.0019L31.6989 20.5563Z" fill="#C69E8D"/>
<path d="M23.5818 6.05481C23.5818 6.05481 18.8445 5.49714 18.1233 13.4307C17.4811 20.6314 20.5675 30.0699 31.9544 31.9876C31.9544 31.9876 24.3384 15.2421 24.6868 12.0995C25.0352 8.9569 23.5818 6.05481 23.5818 6.05481Z" fill="#231F20"/>
<path d="M23.5815 6.0549C23.5815 6.0549 24.1141 2.19563 33.8357 2.96032C41.9637 3.58728 44.4861 9.9369 44.4861 9.9369C44.4861 9.9369 40.5812 4.68072 32.032 5.97571C27.0143 6.76778 23.5815 6.0549 23.5815 6.0549Z" fill="#231F20"/>
<path d="M44.4923 9.97005C44.4923 9.97005 29.8416 7.92702 35.0591 16.6575C35.0591 16.6575 34.1251 16.7834 33.8052 15.9134C33.8052 15.9134 33.7123 17.1625 34.6928 18.5015C34.6928 18.5015 32.8492 17.105 32.1122 15.7928C31.4426 14.6745 26.1316 5.00093 38.3031 5.72223C40.2728 5.86396 42.4639 7.09809 44.4923 9.97005Z" fill="#231F20"/>
<path d="M23.6521 6.86488C22.3987 8.31297 21.7832 10.097 21.4832 11.9296C21.2163 13.7566 21.265 15.6322 21.6063 17.4234C21.7604 18.3218 21.9808 19.2088 22.3006 20.0788C22.3737 20.3061 22.4411 20.5 22.5474 20.7216C22.6205 20.9488 22.721 21.1371 22.7941 21.3643C23.0009 21.7742 23.1803 22.223 23.3814 22.5995C24.2418 24.2331 25.356 25.7547 26.6852 27.1367C25.0758 26.1111 23.6746 24.7072 22.6371 23.0355C21.5777 21.4359 20.9095 19.5296 20.5122 17.611C20.3467 16.646 20.2806 15.664 20.2809 14.6706C20.3201 13.7048 20.4198 12.6943 20.6693 11.7609C20.913 10.7943 21.2345 9.88279 21.7389 9.0427C22.2433 8.20262 22.8974 7.43961 23.6521 6.86488Z" fill="#404041"/>
<path d="M22.3737 6.77582C21.7905 7.35539 21.285 7.99014 20.8904 8.67438C20.4627 9.36431 20.1732 10.0648 19.9227 10.7928C19.4604 12.2765 19.3137 13.8088 19.4104 15.3679C19.5072 16.927 19.8085 18.4852 20.2094 20.0264C20.6102 21.5676 21.1494 23.1193 21.6611 24.71C20.62 23.4156 19.7882 21.9484 19.1438 20.3804C18.4995 18.8125 18.0758 17.1382 17.9562 15.4461C17.8641 13.7149 18.1035 11.9269 18.8585 10.3588C19.6191 8.82391 20.845 7.41478 22.3737 6.77582Z" fill="#404041"/>
<path d="M24.3819 6.73965C24.4172 7.14464 24.3199 7.57237 24.3221 7.98304C24.2911 8.3994 24.2544 8.78248 24.2235 9.19884C24.1558 9.99828 24.1544 10.7863 24.1531 11.5744C24.1503 13.1506 24.3134 14.6983 24.6148 16.2565C24.7792 17.0161 24.9768 17.7701 25.2075 18.5184C25.4382 19.2666 25.7352 20.0035 26.0266 20.7071C26.6481 22.142 27.4354 23.5484 28.3221 24.9377C26.9951 23.9664 25.8877 22.6834 25.0284 21.2551C24.5988 20.541 24.2297 19.7822 23.9213 18.9787C23.6128 18.1753 23.4095 17.3881 23.2337 16.5619C22.9152 14.9038 22.8619 13.2003 23.0579 11.5567C23.153 10.7183 23.3201 9.90183 23.5593 9.10723C23.6954 8.70709 23.7984 8.31263 23.9403 7.94576L24.1805 7.3565C24.2457 7.13979 24.3167 6.95636 24.3819 6.73965Z" fill="#404041"/>
<path d="M25.2001 6.73636L25.5672 10.27C25.7007 11.446 25.8616 12.5831 26.0556 13.7144C26.2496 14.8458 26.51 15.9657 26.776 17.119C27.0695 18.2333 27.4625 19.3305 27.8612 20.461C27.06 19.5708 26.435 18.5134 26.0031 17.3886C25.5382 16.2694 25.2001 15.0943 24.9947 13.8964C24.7892 12.6985 24.7221 11.5111 24.7213 10.3124C24.7536 9.10794 24.8911 7.91973 25.2001 6.73636Z" fill="#404041"/>
<path d="M43.7866 9.44023C42.7063 9.1117 41.6375 8.84971 40.5309 8.76547C39.4518 8.64227 38.368 8.69113 37.3516 8.93395C36.3353 9.17678 35.3086 9.55838 34.3653 10.0284C33.4552 10.4928 32.6068 11.1179 32.1298 11.919C31.614 12.6926 31.4423 13.6811 31.4866 14.7354C31.5252 15.7564 31.7798 16.8431 32.0619 17.8908C32.6592 19.9806 33.6544 22.0022 34.6827 24.018C33.1639 22.3261 31.8486 20.4279 30.9963 18.2448C30.5702 17.1533 30.2436 16.0447 30.1376 14.8297C30.068 14.2251 30.0979 13.6034 30.2272 12.9646C30.3566 12.3259 30.5911 11.7034 30.9422 11.1636C31.6388 10.0508 32.7078 9.31935 33.8169 8.82086C34.8985 8.36133 36.0361 8.02921 37.2022 7.86347C37.8047 7.79439 38.3797 7.76427 38.9662 7.80071C39.5526 7.83714 40.1173 7.94581 40.6877 8.08776C41.7954 8.37733 42.8596 8.81138 43.7866 9.44023Z" fill="#404041"/>
<path d="M41.5461 6.33052C40.5596 5.95165 39.5732 5.57278 38.5706 5.29942C37.5681 5.02606 36.577 4.81925 35.5984 4.88433C34.6198 4.9494 33.6755 5.21413 32.7425 5.5454C31.8153 5.90995 30.8938 6.30778 30.1002 6.85492C29.3067 7.40206 28.6355 8.06525 28.1642 8.89965C27.9286 9.31685 27.7319 9.76164 27.6014 10.1951C27.4767 10.6617 27.352 11.1284 27.3324 11.6113C27.1878 13.5544 27.9178 15.6214 29.4355 17.108C28.4925 16.5847 27.7085 15.7943 27.1669 14.8253C26.6253 13.8564 26.2986 12.7478 26.2704 11.588C26.2478 10.4615 26.4573 9.29516 26.9938 8.24405C27.5302 7.19294 28.333 6.30167 29.2809 5.65955C30.2288 5.01743 31.2384 4.53599 32.3039 4.18197C33.3695 3.82795 34.4967 3.63462 35.6422 3.74645C36.7819 3.825 37.8347 4.1925 38.8326 4.63792C39.7699 5.12799 40.6855 5.69029 41.5461 6.33052Z" fill="#404041"/>
<path d="M43.0166 7.92811C41.5752 7.28473 40.1018 6.85236 38.6191 6.76412C38.2373 6.72685 37.8611 6.72284 37.5182 6.71316C37.1478 6.74243 36.766 6.70515 36.4013 6.7677C35.6604 6.82625 34.9368 6.98462 34.2462 7.13731C33.8872 7.23313 33.5282 7.32895 33.2138 7.48564C32.8548 7.58147 32.5461 7.77143 32.1985 7.9338C31.5754 8.28045 30.9191 8.63279 30.3519 9.10685C29.7791 9.54764 29.2896 10.0769 29.0608 10.7327C28.7931 11.3609 28.7586 12.1547 29.1883 12.8688C28.8774 12.6481 28.61 12.2829 28.4695 11.8617C28.329 11.4405 28.3211 10.9966 28.3521 10.5802C28.5078 9.69716 28.9904 8.92931 29.5679 8.31646C29.7109 8.15493 29.8595 8.02668 30.0025 7.86515C30.1511 7.73689 30.3329 7.60295 30.4816 7.47469L30.724 7.2961L30.9995 7.11183C31.1871 7.01116 31.3357 6.8829 31.5232 6.78223C32.2401 6.38525 33.0347 6.04345 33.8522 5.83474C34.6696 5.62603 35.4985 5.48388 36.317 5.48051C36.7206 5.44555 37.1413 5.51041 37.5505 5.50873C37.9712 5.57359 38.3862 5.60518 38.7794 5.70901C40.3958 5.97984 41.8989 6.78392 43.0166 7.92811Z" fill="#404041"/>
</g>
<ellipse cx="87.5" cy="188" rx="87.5" ry="21" fill="#E1F2EC"/>
<path d="M92.1424 81.3891L94.1369 83.0222C94.1369 83.0222 99.5862 81.0482 100.833 87.5803C100.833 87.5803 101.153 90.3619 99.4081 90.3619C97.6629 90.3619 98.3752 90.0568 95.8999 90.1286C93.4246 90.2004 91.3589 88.8903 91.0027 86.8625L89.8096 85.1397L92.1424 81.3891Z" fill="#EA8E50"/>
<path d="M91.9109 84.8885C93.4958 83.2196 93.3712 81.9813 93.3712 81.9813C93.3712 81.9813 74.9399 66.7815 73.0701 65.5433C71.7879 64.6998 58.2182 52.5687 51.8785 45.1931C48.7265 41.5322 44.8266 42.9499 40.3746 44.242L36.7061 45.3008C32.2719 46.5749 31.1144 52.8379 34.765 55.8707C45.0046 64.4307 62.0647 74.0494 65.2523 76.0593C73.1769 81.0841 88.6699 87.042 88.6699 87.042C88.6699 87.042 90.5397 86.3242 91.9109 84.8885Z" fill="#E8E8E8"/>
<path d="M112.942 178.295C112.942 178.295 117.412 181.669 124.268 179.892C124.268 179.892 129.788 178.618 130.999 181.399C130.999 181.399 122.523 185.742 120.386 186.927C118.765 187.824 117.091 189.224 115.898 190.318C114.954 191.18 113.476 191.072 112.675 190.067C112.301 189.6 111.874 189.062 111.411 188.416C110.111 186.639 107.065 180.861 107.065 180.861L112.942 178.295Z" fill="#204272"/>
<path d="M115.576 176.572C115.576 176.572 112.852 182.907 106.566 181.74C106.566 181.74 93.7437 171.063 84.9466 159.972C82.0973 156.365 79.6576 152.722 78.233 149.385C72.392 135.764 56.6497 115.468 46.6416 105.185L71.6975 96.0505C71.6975 96.0505 79.7289 112.309 90.3958 132.3C98.0711 146.693 107.135 163.023 115.576 176.572Z" fill="#0D8284"/>
<path d="M90.3793 132.3L84.93 159.972C82.0807 156.365 79.641 152.722 78.2164 149.385C72.3754 135.764 56.6331 115.468 46.625 105.185L71.6809 96.0505C71.663 96.0505 79.6945 112.327 90.3793 132.3Z" fill="#077577"/>
<path d="M69.9 181.956C69.9 181.956 69.6329 186.998 75.7055 187.68C75.7055 187.68 79.4629 187.77 79.4807 190.982H61.1919C61.1919 190.982 61.0317 189.672 60.907 186.891C60.818 184.755 62.9549 179.192 62.9549 179.192L69.9 181.956Z" fill="#204272"/>
<path d="M63.4548 96.0505C63.4548 96.0505 74.6204 108.415 81.6902 130.667C85.5367 142.781 74.6204 173.234 72.5012 183.804C72.5012 183.804 65.1821 184.432 60.1603 182.476C60.1603 182.476 59.7863 160.618 62.7068 143.786C64.3452 134.364 48.0152 123.633 40.8742 106.585C36.0126 94.9917 41.9249 95.1891 49.1906 94.92L63.4548 96.0505Z" fill="#3CAEB0"/>
<path d="M73.3373 95.4224C73.3373 96.5171 72.0729 97.0555 71.8058 97.1093C69.2949 97.5759 62.3142 100.304 56.0101 100.932C50.7034 101.488 45.7883 100.968 40.3747 99.8729C39.6624 99.7293 37.9706 99.2628 37.8638 98.5808C37.7213 97.8092 16.9928 56.0141 33.109 38.0507C33.483 37.638 36.6706 38.3917 39.5734 39.0915C42.2624 39.7376 44.7199 39.3787 46.9281 38.4814L49.6527 39.935C53.0006 41.8193 59.3402 48.495 60.0704 53.7351C60.4443 56.4089 61.958 58.3829 62.4032 60.7159C62.5635 61.5772 62.7237 62.4386 62.9018 63.2641C63.2402 64.8792 63.5785 66.4225 63.9169 67.894C64.8607 71.86 65.858 75.2696 66.8374 78.2127C67.8881 81.3352 68.9031 83.9553 69.8291 86.1267C71.0223 88.9441 72.0195 91.0617 72.6428 92.6768C73.088 93.8073 73.3373 94.6867 73.3373 95.4224Z" fill="#F0F8F5"/>
<path d="M72.643 92.6588C43.4023 78.787 33.2695 52.12 33.2695 52.12C33.2695 52.12 57.0254 60.9492 62.8842 63.2462C63.2226 64.8613 63.5609 66.4046 63.8993 67.8761C64.8431 71.8421 65.8404 75.2517 66.8198 78.1948C67.8705 81.3173 68.8855 83.9373 69.8116 86.1087C71.0225 88.9441 72.0197 91.0437 72.643 92.6588Z" fill="#E8E8E8"/>
<g clip-path="url(#clip1)">
<path d="M101.544 86.7116C118.745 84.295 130.961 68.079 128.831 50.4921C126.701 32.9052 111.031 20.6073 93.8304 23.0238C76.6301 25.4404 64.4134 41.6564 66.5436 59.2433C68.6737 76.8302 84.3442 89.1281 101.544 86.7116Z" fill="#EAB726"/>
<path d="M91.4843 86.5212C91.0348 86.4736 90.5843 86.4182 90.1337 86.3509C89.9812 86.3275 89.8288 86.304 89.6785 86.2777C89.3337 86.2206 88.9921 86.1591 88.65 86.0925C72.3517 82.8336 61.4388 66.9531 64.0927 49.8972C66.6228 33.629 80.6132 21.9984 96.2629 22.4058C97.5115 22.4375 98.7696 22.5469 100.033 22.736C100.487 22.803 100.937 22.8821 101.382 22.9686C101.816 23.0528 102.246 23.1466 102.673 23.2489C103.979 23.5626 105.246 23.9584 106.473 24.4309C108.298 25.1307 110.032 25.9963 111.659 27.0128C116.706 30.1615 120.732 34.7225 123.305 40.0931C126.035 45.7897 127.131 52.3952 126.073 59.1886C123.411 76.2918 108.087 88.2706 91.4843 86.5212Z" fill="#FFEB4D"/>
<path d="M77.7613 77.9022C75.6916 76.2779 73.8383 74.3423 72.2568 72.1271C67.85 65.9577 66.0756 58.3687 67.2601 50.757C68.4446 43.1452 72.4467 36.421 78.5293 31.8246C84.6118 27.2283 92.0454 25.3094 99.4617 26.4212C114.774 28.716 125.24 43.3681 122.794 59.0825C120.347 74.7969 105.903 85.7144 90.5921 83.4182C85.8372 82.7027 81.4545 80.8006 77.7613 77.9022ZM111.81 32.563C108.29 29.801 104.053 27.8931 99.3415 27.186C92.1249 26.1041 84.8914 27.9711 78.9731 32.4428C73.0547 36.9145 69.1611 43.4587 68.0085 50.8655C66.8559 58.2722 68.5824 65.657 72.8697 71.6598C77.157 77.6626 83.4948 81.5638 90.7114 82.6457C105.61 84.8786 119.665 74.2569 122.044 58.9661C123.671 48.512 119.423 38.5377 111.81 32.563Z" fill="#EAB726"/>
<path d="M95.9478 39.978L88.5627 67.1218C87.9046 69.5406 85.4703 70.9782 83.1179 70.3373C80.7655 69.6964 79.3955 67.2223 80.0535 64.8035L87.4387 37.6597C88.0968 35.241 90.5311 33.8033 92.8835 34.4442C95.2358 35.0851 96.6059 37.5593 95.9478 39.978Z" fill="#EAB726"/>
<path d="M95.215 58.4939L93.3654 51.9921L93.5401 51.35C95.0879 51.05 96.4462 50.5862 97.6878 49.9782L95.215 58.4939Z" fill="#EAB726"/>
<path d="M97.612 49.9735C101.089 48.2586 103.486 45.3515 105.82 41.3043C106.798 39.5984 108.756 38.7684 110.6 39.2708C113.373 40.0264 114.578 43.3376 112.996 45.8255C109.391 51.4508 105.939 53.7656 102.353 55.3066L106.984 70.1037C107.966 73.258 105.118 76.331 101.981 75.4765C100.616 75.1046 99.552 74.0288 99.1614 72.6555L95.1287 58.4703L97.612 49.9735Z" fill="#EAB726"/>
</g>
<path d="M87.9289 82.9388L90.4576 83.8719C90.4576 83.8719 95.5151 80.2649 98.6671 86.1331C98.6671 86.1331 99.8068 88.6993 98.0082 89.2556C96.2096 89.8119 96.8685 89.2915 94.322 90.1349C91.7932 90.9783 89.2823 90.3682 88.3385 88.5557L86.6289 87.2816L87.9289 82.9388Z" fill="#FFB07B"/>
<path d="M91.8397 88.2263C92.7657 85.7678 93.1931 84.6552 93.1931 84.6552C93.1931 84.6552 74.103 68.9708 72.1441 67.6249C70.8263 66.7097 57.6128 56.7679 51.1841 49.0154C47.9964 45.1751 42.9568 43.4164 38.0952 44.4393L34.0884 45.2828C29.2446 46.3057 27.6775 52.4789 31.435 55.7271C42.013 64.8613 59.8388 75.4671 63.1689 77.6564C71.4318 83.1298 89.685 90.7925 89.685 90.7925C89.685 90.7925 91.0918 90.1465 91.8397 88.2263Z" fill="#F0F8F5"/>
<defs>
<clipPath id="clip0">
<rect width="30.9474" height="46.4211" fill="white" transform="translate(16 5.23134) rotate(-9.73199)"/>
</clipPath>
<clipPath id="clip1">
<rect width="65.6965" height="65.7352" fill="white" transform="matrix(0.964833 0.262864 -0.262531 0.964924 73.3809 14.3251)"/>
</clipPath>
</defs>
</svg>
