<svg width="228" height="76" viewBox="0 0 228 76" fill="none" xmlns="http://www.w3.org/2000/svg">
<mask id="mask0" mask-type="alpha" maskUnits="userSpaceOnUse" x="0" y="0" width="96" height="76">
<rect width="96" height="76" rx="10" fill="#E1F2EC"/>
</mask>
<g mask="url(#mask0)">
<path d="M67.912 63.163L62.8409 58.0508L57.864 53.0341C57.6218 52.7395 57.5738 52.4419 57.6582 52.1456C57.9224 51.2137 59.4865 50.2906 60.4019 49.5154L60.4937 49.4364C61.6995 48.4135 63.5068 48.574 64.5092 49.7924L70.5854 57.1749L70.5863 57.1749L72.3882 59.3643C73.3915 60.5836 73.2259 62.4179 72.021 63.44L71.9292 63.519C70.7225 64.5419 68.9152 64.3822 67.912 63.163Z" fill="#FFBD80"/>
<path d="M69.7322 30.3781C69.6684 31.026 68.94 32.0688 67.6415 32.221C61.0805 32.9954 57.0116 30.8876 56.8213 30.8898C51.8363 30.901 48.3198 29.0507 47.2448 30.001C47.2052 30.0355 47.2161 30.1111 47.2715 30.218C48.2364 32.1435 63.277 44.9697 63.4877 46.3892C63.7102 47.8878 35.299 54.8632 35.299 54.8632C35.299 54.8632 31.1249 52.203 26.4558 48.7138C24.0871 46.9465 21.5928 44.9663 19.4498 43.0102C17.2885 41.0425 15.483 39.0952 14.5226 37.4204C14.5209 37.4168 14.5192 37.4133 14.5174 37.4088C14.3718 37.1586 14.248 36.9138 14.1453 36.6744C14.128 36.637 14.1133 36.6023 14.1012 36.5711C13.3539 34.7617 12.0712 33.167 10.6099 31.8074C6.82465 28.2867 1.84111 26.3446 1.84111 26.3446L22.7432 15.1269C22.7432 15.1269 41.8531 17.4548 44.9003 19.3457C49.342 22.1035 58.6663 24.1403 60.4556 25.2091C61.7848 26.0012 68.7955 28.5789 69.3068 28.8087C69.5262 28.9115 69.8147 29.5683 69.7322 30.3781Z" fill="#FFBD80"/>
<path d="M16.3292 11.8983C16.3292 11.8983 16.3237 11.941 16.3117 12.0219L16.3117 12.0228C16.2223 12.6588 15.7715 15.6422 14.781 19.0442L14.781 19.045C14.7442 19.1704 14.7065 19.2976 14.6688 19.4238C14.6688 19.4238 14.6688 19.4238 14.6688 19.4247C14.6518 19.4807 14.6338 19.5385 14.6168 19.5954L14.6168 19.5963C13.3861 23.6338 11.3981 28.1053 8.36508 29.9023L8.3642 29.9023C8.19071 30.0051 8.01289 30.0989 7.8325 30.1847C7.41278 30.3811 6.97322 30.5276 6.51565 30.6144C6.1775 30.6811 5.82993 30.7139 5.47119 30.7129C5.47119 30.7129 2.82361 30.3824 -1.13765 29.8819C-1.35412 29.8546 -1.57496 29.8255 -1.80019 29.7964C-8.96111 28.8891 -19.9053 27.4835 -27.5371 26.4263C-27.5367 26.2394 -27.5319 26.0552 -27.521 25.872C-26.7202 12.1086 -17.8064 3.23741 -6.08864 -1.84835C0.0915209 1.93319 5.88029 5.48316 10.0286 8.02829C10.0295 8.02829 10.0312 8.0283 10.0321 8.02919C10.0356 8.03187 10.0391 8.03277 10.0417 8.03545C10.3064 8.19815 10.5658 8.35728 10.8165 8.51015L10.8322 8.51998C14.2249 10.6056 16.3292 11.8983 16.3292 11.8983Z" fill="#FF912B"/>
<path d="M17.7184 27.8729C17.727 27.8916 17.7392 27.9086 17.7426 27.9282C19.6226 40.5141 26.839 38.4577 26.839 38.4577L26.5005 48.7989C24.1261 47.0271 21.6256 45.0419 19.4774 43.0808C17.3108 41.108 15.5009 39.1558 14.5382 37.4767C14.5364 37.4732 14.5347 37.4696 14.533 37.4651C14.3654 37.1528 14.2396 36.9037 14.1599 36.7288C14.1426 36.6914 14.1279 36.6566 14.1158 36.6253C13.3666 34.8113 12.0808 33.2125 10.6159 31.8495C11.3918 30.5225 12.2972 29.0158 13.1919 27.5394C14.2811 25.7453 16.9243 25.9322 17.7184 27.8729Z" fill="#FA9D65"/>
<path d="M9.99501 7.97994C9.99501 7.97994 3.22463 13.8692 0.42523 18.0127L2.41127 21.5531L-1.00428 21.2181C-1.00428 21.2181 -2.78665 27.6219 -1.85593 29.7884L7.45784 30.7025L18.3149 13.29L9.99501 7.97994Z" fill="#FC7600"/>
<path d="M-1.26066 31.2331C-1.51955 28.6623 0.971457 23.4209 0.971457 23.4209L9.22353 25.1153L2.90678 18.2964C4.36294 15.2847 7.83749 10.6917 9.98538 7.97128C11.0558 6.61731 11.7965 5.72661 11.7965 5.72661C17.8846 10.4612 23.5504 15.1786 23.5504 15.1786C21.046 16.1538 18.6913 18.814 16.7272 21.7549C13.4632 26.6416 11.2768 32.3052 11.2768 32.3052C6.31996 31.8167 -1.26066 31.2331 -1.26066 31.2331Z" fill="#80D8D8"/>
<path d="M-1.26002 31.2506C-1.5191 28.6786 0.974076 23.4344 0.974076 23.4344L9.23308 25.1296L2.91109 18.3074C4.36851 15.2941 7.84605 10.6986 9.99578 7.97684C10.0555 15.4986 16.7431 21.7665 16.7431 21.7665C13.4763 26.6557 11.288 32.3223 11.288 32.3223C6.32698 31.8344 -1.26002 31.2506 -1.26002 31.2506Z" fill="#6EB7B7"/>
<path d="M8.05333 14.6795C8.60863 14.7398 9.00915 15.2449 8.9484 15.8086C8.88678 16.3723 8.38723 16.7807 7.83192 16.7213C7.27662 16.6611 6.8761 16.1559 6.93685 15.5923C6.99848 15.0277 7.49803 14.6193 8.05333 14.6795Z" fill="#FF912B"/>
<path d="M79.0609 21.3246L19.7422 38.4545L27.3308 66.348L86.6496 49.2181L79.0609 21.3246Z" fill="#5EAB90"/>
<path d="M83.5087 25.4362L22.9766 36.5721L28.0147 65.2413L88.5468 54.1053L83.5087 25.4362Z" fill="#69BEA0"/>
<path d="M85.5217 49.6596L82.9514 35.528L82.9506 35.5227L81.6855 28.5641L81.0204 28.6814L69.6138 30.7014L69.6129 30.7014L69.4828 30.725L60.9386 32.2365L59.8451 32.4299L59.8443 32.4299L50.6834 34.0521L26.6 38.3149L26.5956 38.3157L26.5798 38.3191L26.1707 38.3908L26.1584 38.3916L26.1487 38.3942L25.5356 38.5023L26.4509 43.536L27.5212 49.4219L29.8339 62.1358L42.9954 59.806L43.5813 59.7021L45.7637 59.3154L46.2493 59.2292L46.8897 59.1161L47.4747 59.0122L48.591 58.8146L51.3136 58.3324L52.0868 58.1965L53.1582 58.0065L54.0933 57.841L59.5595 56.8732L59.5604 56.8732L60.6705 56.6765L61.5449 56.522L69.1127 55.1827L75.9125 53.9794L78.3975 53.5394L85.9829 52.1967L85.5217 49.6596ZM82.1346 51.8431L69.8316 54.0209L69.829 54.0209L68.3599 54.281L68.3591 54.281L60.6629 55.6439L59.9486 55.7706L54.5193 56.7316L52.8013 57.0356L51.6982 57.2315L50.9091 57.3717L48.3405 57.826L47.2779 58.0135L46.6322 58.1292L46.0191 58.2373L45.5274 58.3234L43.3528 58.7093L42.7362 58.8191L33.3167 60.486C31.845 60.747 30.4347 59.7619 30.1658 58.286L28.7102 50.2793L27.2049 42.0063C26.936 40.5304 27.9113 39.1221 29.383 38.8612L51.613 34.927L62.0212 33.0844L64.9839 32.5591L64.9865 32.5591L68.7137 31.8996L68.8351 31.8776L68.8359 31.8776L78.2008 30.22C79.6725 29.9591 81.0829 30.9442 81.3517 32.4201L84.3127 48.6998C84.3954 49.1576 84.3593 49.6093 84.2266 50.0214C83.9294 50.9371 83.1506 51.6623 82.1346 51.8431Z" fill="#A5D8C6"/>
<path d="M56.8821 52.3513C52.9901 52.9807 49.3259 50.3077 48.6978 46.38C48.0696 42.4522 50.7147 38.758 54.6067 38.1286C58.4987 37.4992 62.1629 40.1722 62.791 44.1C63.4191 48.0277 60.7732 51.7219 56.8821 52.3513Z" fill="#A5D8C6"/>
<path d="M42.0925 50.6958C40.6529 50.9246 39.2951 49.9371 39.0595 48.4901C38.8239 47.043 39.7997 45.6845 41.2392 45.4558C42.6787 45.2271 44.0366 46.2144 44.2722 47.6615C44.5077 49.1086 43.532 50.4671 42.0925 50.6958Z" fill="#A5D8C6"/>
<path d="M70.3111 45.3921C68.8715 45.6208 67.5137 44.6333 67.2781 43.1862C67.0426 41.7391 68.0184 40.3807 69.4579 40.152C70.8975 39.9233 72.2553 40.9108 72.4908 42.3579C72.7264 43.805 71.7506 45.1634 70.3111 45.3921Z" fill="#A5D8C6"/>
<path d="M49.0662 63.8938L48.8416 63.2812L47.3295 59.1632C47.2942 59.0671 47.2643 58.9692 47.2406 58.8713C46.9024 57.5103 47.6371 56.0795 48.9756 55.5917L49.1332 55.5343C50.5683 55.0118 52.1744 55.7638 52.7037 57.2062L54.1128 61.0455L54.2158 61.3242L54.4404 61.9368C54.9697 63.3792 54.2293 64.9858 52.7943 65.5083L52.6366 65.5657C51.2025 66.0882 49.5955 65.3362 49.0662 63.8938Z" fill="#FFBD80"/>
<path d="M49.028 60.5608C48.7764 59.8742 48.3314 58.6318 48.2424 57.9695C48.217 57.7822 48.3219 57.4389 48.6759 57.1232C48.8874 56.9332 49.189 56.7537 49.6046 56.6229C49.7999 56.5614 49.9953 56.5114 50.1959 56.4926C50.431 56.4704 50.6652 56.481 50.8975 56.5254C51.106 56.566 51.2957 56.7128 51.3943 56.9229C51.3952 56.9238 51.3952 56.9256 51.3961 56.9256C51.7236 57.6331 52.1223 58.5869 52.3418 59.4204C52.4945 59.9972 52.2364 60.5735 51.7342 60.748L51.4999 60.8304L50.2983 61.2506C49.7979 61.4251 49.232 61.121 49.028 60.5608Z" fill="#FFD0B1"/>
<path d="M49.0283 60.5656C48.7765 59.8787 48.3311 58.6356 48.2421 57.973C48.2167 57.7856 48.3217 57.4421 48.676 57.1262C48.7556 57.093 48.8406 57.0626 48.9308 57.034C49.1264 56.9725 49.3219 56.9225 49.5227 56.9036C49.758 56.8814 49.9923 56.8921 50.2248 56.9364C50.4344 56.977 50.6234 57.1231 50.7221 57.3342C50.723 57.3351 50.723 57.3368 50.7238 57.3368C51.0516 58.0448 51.4506 58.9991 51.6703 59.8331C51.7678 60.203 51.6974 60.5716 51.5023 60.8354L50.2998 61.2558C49.7989 61.4304 49.2325 61.1262 49.0283 60.5656Z" fill="#F9CA9E"/>
<path d="M43.4205 61.9898L42.5947 58.8193C42.3435 57.8556 42.9229 56.8656 43.8824 56.6201L44.2395 56.5288C45.199 56.2824 46.1895 56.8692 46.4399 57.8329L47.2657 61.0034C47.517 61.9672 46.9375 62.9571 45.978 63.2026L45.621 63.2939C44.6614 63.5403 43.6718 62.9535 43.4205 61.9898Z" fill="#FFBD80"/>
<path d="M43.6033 60.2809C43.4549 59.6985 43.1922 58.6467 43.1675 58.0972C43.1581 57.8974 43.3304 57.4994 43.8562 57.2469C43.9836 57.1848 44.1305 57.1318 44.3013 57.0923C44.4561 57.0562 44.6092 57.0298 44.764 57.0292C44.9471 57.0279 45.1257 57.0541 45.3016 57.1078C45.4598 57.156 45.5958 57.2902 45.6574 57.4699C45.6583 57.4717 45.6583 57.4725 45.6592 57.4726C45.8651 58.0776 46.1105 58.8887 46.2252 59.5889C46.3048 60.0723 46.0697 60.5266 45.6715 60.6337L45.3874 60.7105L44.5344 60.9401C44.1407 61.0472 43.7246 60.7566 43.6033 60.2809Z" fill="#FFD0B1"/>
<path d="M43.6041 60.284C43.4555 59.7012 43.1925 58.6487 43.1677 58.0988C43.1584 57.8989 43.3308 57.5006 43.8573 57.2479C44.0017 57.2152 44.1461 57.1914 44.2923 57.1908C44.4747 57.1895 44.6545 57.2157 44.8306 57.2694C44.9882 57.3177 45.1252 57.4519 45.1869 57.6317C45.1878 57.6335 45.1878 57.6344 45.1886 57.6344C45.3948 58.2399 45.6405 59.0516 45.7544 59.7523C45.821 60.1533 45.6698 60.534 45.3905 60.714L44.5364 60.9438C44.1421 61.0509 43.7255 60.7601 43.6041 60.284Z" fill="#F9CA9E"/>
<path d="M55.0173 63.8333C55.0094 63.811 55.0023 63.7879 54.9953 63.7647L53.9756 59.6102C53.5268 57.7833 54.5268 55.9171 56.1968 55.4621L57.0521 55.2291C58.6557 54.7923 60.3185 55.81 60.8445 57.5097L61.1809 58.8812L61.8633 61.6642C62.3122 63.4911 61.3122 65.3574 59.6422 65.8123L58.7868 66.0454C57.2054 66.4761 55.5673 65.4914 55.0173 63.8333Z" fill="#FFBD80"/>
<path d="M56.1983 61.9482L55.3175 59.9301C55.3166 59.9275 55.3157 59.9231 55.3148 59.9177C55.2938 59.8371 55.2781 59.7555 55.2676 59.6749C55.2624 59.6413 55.2598 59.6067 55.2563 59.5731C55.2546 59.5589 55.2555 59.5447 55.2564 59.5306C55.2656 59.3103 55.5003 59.1625 55.7082 59.2606C56.1169 59.4566 56.592 59.515 57.0612 59.3947L57.2358 59.35C57.2376 59.35 57.2393 59.3492 57.2411 59.3483L57.8091 59.2021C58.2624 59.0861 58.6428 58.8297 58.9193 58.4929C58.9528 58.4524 58.9846 58.4102 59.0147 58.368C59.2922 57.9763 59.9099 58.0862 60.0343 58.5527C60.0361 58.5571 60.0361 58.5606 60.0378 58.5651L60.3488 60.77C60.4907 61.3161 60.0694 61.8333 59.5261 61.9734L58.8788 62.1402L57.4985 62.4952C56.9526 62.6327 56.341 62.4944 56.1983 61.9482Z" fill="#FFD0B1"/>
<path d="M56.1995 61.9546L55.318 59.9348C55.3171 59.9321 55.3162 59.9277 55.3154 59.9223C55.3066 59.8753 55.2839 59.7281 55.256 59.5348C55.2652 59.3144 55.5001 59.1665 55.7082 59.2646C56.1172 59.4608 56.5926 59.5193 57.0622 59.3988L57.2369 59.3541C57.2387 59.3541 57.2405 59.3533 57.2422 59.3524L57.8106 59.2061C58.2643 59.09 58.645 58.8334 58.9217 58.4963C59.0248 58.5688 59.1049 58.6757 59.1426 58.815C59.1443 58.8186 59.1443 58.823 59.1461 58.8274L59.4573 61.0342C59.5774 61.4948 59.2961 61.9337 58.8811 62.1449L57.4999 62.5003C56.9544 62.6396 56.3424 62.5012 56.1995 61.9546Z" fill="#F9CA9E"/>
<path d="M42.7697 25.2807C42.7697 25.2807 41.798 17.3743 44.8546 19.2639C49.3078 22.0184 58.6492 24.0679 60.4443 25.1347C61.7762 25.926 68.8031 28.5082 69.3148 28.7398C69.5356 28.84 69.9586 29.7123 69.5433 30.5598C69.259 31.1411 68.5522 32.21 67.3309 32.6811C62.9511 34.371 57.01 30.7732 56.8195 30.774C51.8279 30.7719 46.9802 30.1853 45.5695 30.3813C45.0785 30.4486 42.7697 25.2807 42.7697 25.2807Z" fill="#FFBD80"/>
<path d="M69.7888 28.8349L64.8563 27.0019C64.8563 27.0019 64.3705 27.9875 64.605 28.6109C64.8386 29.2333 69.4096 30.3513 69.7888 28.8349Z" fill="#FFBD8F"/>
</g>
<mask id="mask1" mask-type="alpha" maskUnits="userSpaceOnUse" x="132" y="0" width="96" height="76">
<rect width="96" height="76" rx="10" transform="matrix(-1 0 0 1 228 0)" fill="#E1F2EC"/>
</mask>
<g mask="url(#mask1)">
<path d="M160.088 63.163L165.159 58.0508L170.136 53.0341C170.378 52.7395 170.426 52.4419 170.342 52.1456C170.078 51.2137 168.513 50.2906 167.598 49.5154L167.506 49.4364C166.3 48.4135 164.493 48.574 163.491 49.7924L157.415 57.1749L157.414 57.1749L155.612 59.3643C154.609 60.5836 154.774 62.4179 155.979 63.44L156.071 63.519C157.277 64.5419 159.085 64.3822 160.088 63.163Z" fill="#FFBD80"/>
<path d="M158.268 30.3781C158.332 31.026 159.06 32.0688 160.358 32.221C166.919 32.9954 170.988 30.8876 171.179 30.8898C176.164 30.901 179.68 29.0507 180.755 30.001C180.795 30.0355 180.784 30.1111 180.729 30.218C179.764 32.1435 164.723 44.9697 164.512 46.3892C164.29 47.8878 192.701 54.8632 192.701 54.8632C192.701 54.8632 196.875 52.203 201.544 48.7138C203.913 46.9465 206.407 44.9663 208.55 43.0102C210.711 41.0425 212.517 39.0952 213.477 37.4204C213.479 37.4168 213.481 37.4133 213.483 37.4088C213.628 37.1586 213.752 36.9138 213.855 36.6744C213.872 36.637 213.887 36.6023 213.899 36.5711C214.646 34.7617 215.929 33.167 217.39 31.8074C221.175 28.2867 226.159 26.3446 226.159 26.3446L205.257 15.1269C205.257 15.1269 186.147 17.4548 183.1 19.3457C178.658 22.1035 169.334 24.1403 167.544 25.2091C166.215 26.0012 159.205 28.5789 158.693 28.8087C158.474 28.9115 158.185 29.5683 158.268 30.3781Z" fill="#FFBD80"/>
<path d="M211.671 11.8983C211.671 11.8983 211.676 11.941 211.688 12.0219L211.688 12.0228C211.778 12.6588 212.229 15.6422 213.219 19.0442L213.219 19.045C213.256 19.1704 213.294 19.2976 213.331 19.4238C213.331 19.4238 213.331 19.4238 213.331 19.4247C213.348 19.4807 213.366 19.5385 213.383 19.5954L213.383 19.5963C214.614 23.6338 216.602 28.1053 219.635 29.9023L219.636 29.9023C219.809 30.0051 219.987 30.0989 220.168 30.1847C220.587 30.3811 221.027 30.5276 221.484 30.6144C221.822 30.6811 222.17 30.7139 222.529 30.7129C222.529 30.7129 225.176 30.3824 229.138 29.8819C229.354 29.8546 229.575 29.8255 229.8 29.7964C236.961 28.8891 247.905 27.4835 255.537 26.4263C255.537 26.2394 255.532 26.0552 255.521 25.872C254.72 12.1086 245.806 3.23741 234.089 -1.84835C227.908 1.93319 222.12 5.48316 217.971 8.02829C217.971 8.02829 217.969 8.0283 217.968 8.02919C217.964 8.03187 217.961 8.03277 217.958 8.03545C217.694 8.19815 217.434 8.35728 217.183 8.51015L217.168 8.51998C213.775 10.6056 211.671 11.8983 211.671 11.8983Z" fill="#FF912B"/>
<path d="M210.282 27.8729C210.273 27.8916 210.261 27.9086 210.257 27.9282C208.377 40.5141 201.161 38.4577 201.161 38.4577L201.499 48.7989C203.874 47.0271 206.374 45.0419 208.523 43.0808C210.689 41.108 212.499 39.1558 213.462 37.4767C213.464 37.4732 213.465 37.4696 213.467 37.4651C213.635 37.1528 213.76 36.9037 213.84 36.7288C213.857 36.6914 213.872 36.6566 213.884 36.6253C214.633 34.8113 215.919 33.2125 217.384 31.8495C216.608 30.5225 215.703 29.0158 214.808 27.5394C213.719 25.7453 211.076 25.9322 210.282 27.8729Z" fill="#FA9D65"/>
<path d="M218.005 7.97994C218.005 7.97994 224.775 13.8692 227.575 18.0127L225.589 21.5531L229.004 21.2181C229.004 21.2181 230.787 27.6219 229.856 29.7884L220.542 30.7025L209.685 13.29L218.005 7.97994Z" fill="#FC7600"/>
<path d="M229.261 31.2331C229.52 28.6623 227.029 23.4209 227.029 23.4209L218.776 25.1153L225.093 18.2964C223.637 15.2847 220.163 10.6917 218.015 7.97128C216.944 6.61731 216.203 5.72661 216.203 5.72661C210.115 10.4612 204.45 15.1786 204.45 15.1786C206.954 16.1538 209.309 18.814 211.273 21.7549C214.537 26.6416 216.723 32.3052 216.723 32.3052C221.68 31.8167 229.261 31.2331 229.261 31.2331Z" fill="#80D8D8"/>
<path d="M229.26 31.2506C229.519 28.6786 227.026 23.4344 227.026 23.4344L218.767 25.1296L225.089 18.3074C223.631 15.2941 220.154 10.6986 218.004 7.97684C217.945 15.4986 211.257 21.7665 211.257 21.7665C214.524 26.6557 216.712 32.3223 216.712 32.3223C221.673 31.8344 229.26 31.2506 229.26 31.2506Z" fill="#6EB7B7"/>
<path d="M219.947 14.6795C219.391 14.7398 218.991 15.2449 219.052 15.8086C219.113 16.3723 219.613 16.7807 220.168 16.7213C220.723 16.6611 221.124 16.1559 221.063 15.5923C221.002 15.0277 220.502 14.6193 219.947 14.6795Z" fill="#FF912B"/>
<path d="M148.939 21.3246L208.258 38.4545L200.669 66.348L141.35 49.2181L148.939 21.3246Z" fill="#5EAB90"/>
<path d="M144.491 25.4362L205.023 36.5721L199.985 65.2413L139.453 54.1053L144.491 25.4362Z" fill="#69BEA0"/>
<path d="M142.478 49.6596L145.049 35.528L145.049 35.5227L146.315 28.5641L146.98 28.6814L158.386 30.7014L158.387 30.7014L158.517 30.725L167.061 32.2365L168.155 32.4299L168.156 32.4299L177.317 34.0521L201.4 38.3149L201.404 38.3157L201.42 38.3191L201.829 38.3908L201.842 38.3916L201.851 38.3942L202.464 38.5023L201.549 43.536L200.479 49.4219L198.166 62.1358L185.005 59.806L184.419 59.7021L182.236 59.3154L181.751 59.2292L181.11 59.1161L180.525 59.0122L179.409 58.8146L176.686 58.3324L175.913 58.1965L174.842 58.0065L173.907 57.841L168.44 56.8732L168.44 56.8732L167.329 56.6765L166.455 56.522L158.887 55.1827L152.088 53.9794L149.602 53.5394L142.017 52.1967L142.478 49.6596ZM145.865 51.8431L158.168 54.0209L158.171 54.0209L159.64 54.281L159.641 54.281L167.337 55.6439L168.051 55.7706L173.481 56.7316L175.199 57.0356L176.302 57.2315L177.091 57.3717L179.659 57.826L180.722 58.0135L181.368 58.1292L181.981 58.2373L182.473 58.3234L184.647 58.7093L185.264 58.8191L194.683 60.486C196.155 60.747 197.565 59.7619 197.834 58.286L199.29 50.2793L200.795 42.0063C201.064 40.5304 200.089 39.1221 198.617 38.8612L176.387 34.927L165.979 33.0844L163.016 32.5591L163.013 32.5591L159.286 31.8996L159.165 31.8776L159.164 31.8776L149.799 30.22C148.327 29.9591 146.917 30.9442 146.648 32.4201L143.687 48.6998C143.605 49.1576 143.641 49.6093 143.773 50.0214C144.071 50.9371 144.849 51.6623 145.865 51.8431Z" fill="#A5D8C6"/>
<path d="M171.118 52.3513C175.01 52.9807 178.674 50.3077 179.302 46.38C179.93 42.4522 177.285 38.758 173.393 38.1286C169.501 37.4992 165.837 40.1722 165.209 44.1C164.581 48.0277 167.227 51.7219 171.118 52.3513Z" fill="#A5D8C6"/>
<path d="M185.908 50.6958C187.347 50.9246 188.705 49.9371 188.941 48.4901C189.176 47.043 188.2 45.6845 186.761 45.4558C185.321 45.2271 183.963 46.2144 183.728 47.6615C183.492 49.1086 184.468 50.4671 185.908 50.6958Z" fill="#A5D8C6"/>
<path d="M157.689 45.3921C159.128 45.6208 160.486 44.6333 160.722 43.1862C160.957 41.7391 159.982 40.3807 158.542 40.152C157.103 39.9233 155.745 40.9108 155.509 42.3579C155.274 43.805 156.249 45.1634 157.689 45.3921Z" fill="#A5D8C6"/>
<path d="M178.934 63.8938L179.158 63.2812L180.671 59.1632C180.706 59.0671 180.736 58.9692 180.759 58.8713C181.098 57.5103 180.363 56.0795 179.024 55.5917L178.867 55.5343C177.432 55.0118 175.826 55.7638 175.296 57.2062L173.887 61.0455L173.784 61.3242L173.56 61.9368C173.03 63.3792 173.771 64.9858 175.206 65.5083L175.363 65.5657C176.797 66.0882 178.404 65.3362 178.934 63.8938Z" fill="#FFBD80"/>
<path d="M178.972 60.5608C179.224 59.8742 179.669 58.6318 179.758 57.9695C179.783 57.7822 179.678 57.4389 179.324 57.1232C179.113 56.9332 178.811 56.7537 178.395 56.6229C178.2 56.5614 178.005 56.5114 177.804 56.4926C177.569 56.4704 177.335 56.481 177.103 56.5254C176.894 56.566 176.704 56.7128 176.606 56.9229C176.605 56.9238 176.605 56.9256 176.604 56.9256C176.276 57.6331 175.878 58.5869 175.658 59.4204C175.505 59.9972 175.764 60.5735 176.266 60.748L176.5 60.8304L177.702 61.2506C178.202 61.4251 178.768 61.121 178.972 60.5608Z" fill="#FFD0B1"/>
<path d="M178.972 60.5656C179.223 59.8787 179.669 58.6356 179.758 57.973C179.783 57.7856 179.678 57.4421 179.324 57.1262C179.244 57.093 179.159 57.0626 179.069 57.034C178.874 56.9725 178.678 56.9225 178.477 56.9036C178.242 56.8814 178.008 56.8921 177.775 56.9364C177.566 56.977 177.377 57.1231 177.278 57.3342C177.277 57.3351 177.277 57.3368 177.276 57.3368C176.948 58.0448 176.549 58.9991 176.33 59.8331C176.232 60.203 176.303 60.5716 176.498 60.8354L177.7 61.2558C178.201 61.4304 178.767 61.1262 178.972 60.5656Z" fill="#F9CA9E"/>
<path d="M184.579 61.9898L185.405 58.8193C185.657 57.8556 185.077 56.8656 184.118 56.6201L183.761 56.5288C182.801 56.2824 181.81 56.8692 181.56 57.8329L180.734 61.0034C180.483 61.9672 181.062 62.9571 182.022 63.2026L182.379 63.2939C183.339 63.5403 184.328 62.9535 184.579 61.9898Z" fill="#FFBD80"/>
<path d="M184.397 60.2809C184.545 59.6985 184.808 58.6467 184.833 58.0972C184.842 57.8974 184.67 57.4994 184.144 57.2469C184.016 57.1848 183.869 57.1318 183.699 57.0923C183.544 57.0562 183.391 57.0298 183.236 57.0292C183.053 57.0279 182.874 57.0541 182.698 57.1078C182.54 57.156 182.404 57.2902 182.343 57.4699C182.342 57.4717 182.342 57.4725 182.341 57.4726C182.135 58.0776 181.89 58.8887 181.775 59.5889C181.695 60.0723 181.93 60.5266 182.329 60.6337L182.613 60.7105L183.466 60.9401C183.859 61.0472 184.275 60.7566 184.397 60.2809Z" fill="#FFD0B1"/>
<path d="M184.396 60.284C184.545 59.7012 184.808 58.6487 184.832 58.0988C184.842 57.8989 184.669 57.5006 184.143 57.2479C183.998 57.2152 183.854 57.1914 183.708 57.1908C183.525 57.1895 183.346 57.2157 183.169 57.2694C183.012 57.3177 182.875 57.4519 182.813 57.6317C182.812 57.6335 182.812 57.6344 182.811 57.6344C182.605 58.2399 182.359 59.0516 182.246 59.7523C182.179 60.1533 182.33 60.534 182.609 60.714L183.464 60.9438C183.858 61.0509 184.274 60.7601 184.396 60.284Z" fill="#F9CA9E"/>
<path d="M172.983 63.8333C172.991 63.811 172.998 63.7879 173.005 63.7647L174.024 59.6102C174.473 57.7833 173.473 55.9171 171.803 55.4621L170.948 55.2291C169.344 54.7923 167.682 55.81 167.155 57.5097L166.819 58.8812L166.137 61.6642C165.688 63.4911 166.688 65.3574 168.358 65.8123L169.213 66.0454C170.795 66.4761 172.433 65.4914 172.983 63.8333Z" fill="#FFBD80"/>
<path d="M171.802 61.9482L172.683 59.9301C172.683 59.9275 172.684 59.9231 172.685 59.9177C172.706 59.8371 172.722 59.7555 172.732 59.6749C172.738 59.6413 172.74 59.6067 172.744 59.5731C172.745 59.5589 172.744 59.5447 172.744 59.5306C172.734 59.3103 172.5 59.1625 172.292 59.2606C171.883 59.4566 171.408 59.515 170.939 59.3947L170.764 59.35C170.762 59.35 170.761 59.3492 170.759 59.3483L170.191 59.2021C169.738 59.0861 169.357 58.8297 169.081 58.4929C169.047 58.4524 169.015 58.4102 168.985 58.368C168.708 57.9763 168.09 58.0862 167.966 58.5527C167.964 58.5571 167.964 58.5606 167.962 58.5651L167.651 60.77C167.509 61.3161 167.931 61.8333 168.474 61.9734L169.121 62.1402L170.501 62.4952C171.047 62.6327 171.659 62.4944 171.802 61.9482Z" fill="#FFD0B1"/>
<path d="M171.801 61.9546L172.682 59.9348C172.683 59.9321 172.684 59.9277 172.685 59.9223C172.693 59.8753 172.716 59.7281 172.744 59.5348C172.735 59.3144 172.5 59.1665 172.292 59.2646C171.883 59.4608 171.407 59.5193 170.938 59.3988L170.763 59.3541C170.761 59.3541 170.76 59.3533 170.758 59.3524L170.189 59.2061C169.736 59.09 169.355 58.8334 169.078 58.4963C168.975 58.5688 168.895 58.6757 168.857 58.815C168.856 58.8186 168.856 58.823 168.854 58.8274L168.543 61.0342C168.423 61.4948 168.704 61.9337 169.119 62.1449L170.5 62.5003C171.046 62.6396 171.658 62.5012 171.801 61.9546Z" fill="#F9CA9E"/>
<path d="M185.23 25.2807C185.23 25.2807 186.202 17.3743 183.145 19.2639C178.692 22.0184 169.351 24.0679 167.556 25.1347C166.224 25.926 159.197 28.5082 158.685 28.7398C158.464 28.84 158.041 29.7123 158.457 30.5598C158.741 31.1411 159.448 32.21 160.669 32.6811C165.049 34.371 170.99 30.7732 171.181 30.774C176.172 30.7719 181.02 30.1853 182.43 30.3813C182.921 30.4486 185.23 25.2807 185.23 25.2807Z" fill="#FFBD80"/>
<path d="M158.211 28.8349L163.144 27.0019C163.144 27.0019 163.63 27.9875 163.395 28.6109C163.161 29.2333 158.59 30.3513 158.211 28.8349Z" fill="#FFBD8F"/>
</g>
</svg>
