<svg width="1336" height="766" viewBox="0 0 1336 766" fill="none" xmlns="http://www.w3.org/2000/svg">
<path d="M1816.71 -96.9098L1225.16 -210.48C1225.16 -210.48 1101.26 -85.0295 1134.11 21.116C1166.97 127.267 1223.25 63.1623 1243.43 115.852C1247.02 125.24 1247.13 130.302 1247.7 137.782C1247.7 137.782 1247.23 146.752 1246.34 153.039C1240.59 193.359 1259.66 223.791 1288.52 244.734C1289.45 245.411 1290.39 246.076 1291.34 246.73C1337.64 278.67 1406.89 287.223 1440.83 273.92C1498.58 251.284 1505.77 212.077 1609.64 245.408C1713.5 278.735 1754.52 174.652 1737.4 114.324C1713.1 28.7255 1836.51 72.0623 1816.71 -96.9098Z" fill="#FFF394"/>
<path d="M-440.271 908.399L236.453 1436.32C236.453 1436.32 476.874 1355.23 505.301 1197.68C533.733 1040.12 386.414 1052.07 442.232 965.771C444.119 962.846 446.424 960.296 448.484 957.656C448.978 957.029 449.451 956.4 449.902 955.759C483.869 907.687 479.75 856.283 456.922 810.747C456.186 809.276 455.43 807.813 454.654 806.36C416.928 735.434 334.57 679.722 282.64 674.887C194.285 666.665 159.218 712.374 49.2482 602.482C-60.7235 492.593 -181.67 599.784 -199.798 688.325C-225.521 813.955 -353.71 678.59 -440.271 908.399Z" fill="#FFF394"/>
<g clip-path="url(#clip0)">
<ellipse cx="146.377" cy="529.5" rx="52.2328" ry="51.355" fill="white"/>
<path d="M145.505 472C113.736 472 88 497.736 88 529.505C88 561.264 113.736 587.01 145.505 587.01C177.275 587.01 203.01 561.264 203.01 529.505C203 497.736 177.264 472 145.505 472ZM149.835 578.124V574.255C149.835 571.854 147.896 569.915 145.495 569.915C143.094 569.915 141.154 571.854 141.154 574.255V578.124C117.656 576.041 98.8874 557.232 96.8761 533.702H100.611C103.012 533.702 104.952 531.763 104.952 529.361C104.952 526.96 103.012 525.021 100.611 525.021H96.8967C99.0311 501.625 117.748 482.949 141.165 480.876V484.468C141.165 486.869 143.104 488.808 145.505 488.808C147.906 488.808 149.846 486.869 149.846 484.468V480.876C173.262 482.949 191.979 501.625 194.114 525.021H190.399C187.998 525.021 186.058 526.96 186.058 529.361C186.058 531.763 187.998 533.702 190.399 533.702H194.134C192.113 557.232 173.344 576.041 149.835 578.124Z" fill="#69BEA0"/>
<path d="M171.355 501.491L145.65 528.428C145.599 528.428 145.558 528.417 145.507 528.417C145.188 528.417 144.87 528.448 144.562 528.51L123.044 512.256C121.618 511.188 119.576 511.455 118.488 512.902C117.4 514.328 117.688 516.381 119.124 517.458L140.643 533.702C140.848 536.206 142.951 538.176 145.507 538.176C148.205 538.176 150.391 535.99 150.391 533.292C150.391 533.158 150.381 533.035 150.37 532.912L176.075 505.976C177.317 504.672 177.276 502.62 175.962 501.368C174.659 500.137 172.597 500.188 171.355 501.491Z" fill="#69BEA0"/>
</g>
<g clip-path="url(#clip1)">
<path d="M1186.78 118.671C1168.82 118.671 1154.28 133.217 1154.28 151.174C1154.28 169.125 1168.82 183.677 1186.78 183.677C1204.74 183.677 1219.28 169.125 1219.28 151.174C1219.28 133.217 1204.73 118.671 1186.78 118.671ZM1189.23 178.654V176.468C1189.23 175.11 1188.13 174.014 1186.77 174.014C1185.42 174.014 1184.32 175.11 1184.32 176.468V178.654C1171.04 177.477 1160.43 166.845 1159.29 153.546H1161.41C1162.76 153.546 1163.86 152.45 1163.86 151.093C1163.86 149.736 1162.76 148.639 1161.41 148.639H1159.31C1160.51 135.416 1171.09 124.86 1184.33 123.688V125.718C1184.33 127.075 1185.42 128.171 1186.78 128.171C1188.14 128.171 1189.23 127.075 1189.23 125.718V123.688C1202.47 124.86 1213.05 135.416 1214.25 148.639H1212.16C1210.8 148.639 1209.7 149.736 1209.7 151.093C1209.7 152.45 1210.8 153.546 1212.16 153.546H1214.27C1213.12 166.845 1202.52 177.477 1189.23 178.654Z" fill="#69BEA0"/>
<path d="M1201.39 135.34L1186.86 150.565C1186.83 150.565 1186.81 150.559 1186.78 150.559C1186.6 150.559 1186.42 150.577 1186.25 150.611L1174.08 141.424C1173.28 140.821 1172.12 140.972 1171.51 141.79C1170.89 142.596 1171.06 143.756 1171.87 144.365L1184.03 153.546C1184.15 154.961 1185.34 156.075 1186.78 156.075C1188.31 156.075 1189.54 154.84 1189.54 153.314C1189.54 153.239 1189.54 153.169 1189.53 153.1L1204.06 137.875C1204.76 137.138 1204.74 135.978 1204 135.271C1203.26 134.575 1202.09 134.604 1201.39 135.34Z" fill="#69BEA0"/>
</g>
<path d="M251.098 602.241V617.65C251.098 620.599 253.567 623.012 256.583 623.012H267.874C270.89 623.012 273.359 620.599 273.359 617.65V602.241C273.359 599.292 270.89 596.878 267.874 596.878H256.583C253.567 596.876 251.098 599.29 251.098 602.241Z" fill="#FFBD80"/>
<path d="M251.098 602.241V610.826C251.098 613.775 253.567 616.189 256.583 616.189H267.874C270.89 616.189 273.359 613.773 273.359 610.826V602.241C273.359 599.292 270.89 596.878 267.874 596.878H256.583C253.567 596.876 251.098 599.29 251.098 602.241Z" fill="#FFD3AA"/>
<path d="M125.999 609.944C125.999 617.829 127.646 625.356 130.626 632.207C139.56 652.771 160.448 667.286 184.635 667.286H201.397C202.403 667.286 203.4 667.262 204.394 667.213C216.677 666.6 227.993 662.245 237.169 655.297C243.046 650.85 248.046 645.335 251.855 639.061C257.044 630.513 260.031 620.553 260.031 609.942C260.031 602.057 258.384 594.533 255.405 587.676C246.474 567.117 225.584 552.6 201.397 552.6H184.635C162.639 552.6 143.372 564.604 133.342 582.242C128.669 590.467 125.999 599.918 125.999 609.944Z" fill="#FFBD80"/>
<path d="M174.712 642.944L180.182 677.675C180.909 680.365 178.834 683 175.988 683H161.616C158.534 683 155.711 681.316 154.3 678.638L131.959 635.061L174.712 642.944Z" fill="#FFBD80"/>
<path d="M207.25 682.997H221.625C224.705 682.997 227.53 681.315 228.939 678.634L242.755 654.78L251.859 639.061L207.442 643.538L205.837 656.023L204.4 667.213L203.057 677.672C202.33 680.364 204.404 682.997 207.25 682.997Z" fill="#FFBD80"/>
<path d="M134.829 603.317C146.663 636.603 157.865 654.399 203.228 655.947C204.108 655.976 204.978 656.004 205.836 656.026C218.786 656.372 229.31 655.931 237.173 655.3C239.213 655.136 241.074 654.96 242.755 654.783L251.859 639.064C257.048 630.517 260.035 620.556 260.035 609.945C260.035 602.06 258.388 594.537 255.409 587.68C246.478 567.12 225.588 552.603 201.401 552.603H184.639C162.643 552.603 143.376 564.608 133.346 582.246C131.956 588.86 133.05 598.314 134.829 603.317Z" fill="#FFD3AA"/>
<path d="M208.314 566.969H231.375C233.701 566.969 235.586 565.587 235.586 563.885V533.09C235.586 532.564 235.416 532.086 235.126 531.671C233.999 530.07 231.035 529.41 228.829 530.633C220.072 535.486 205.727 546.035 204.112 563.674C203.948 565.457 205.876 566.969 208.314 566.969Z" fill="#FFD3AA"/>
<path d="M230.437 566.968H231.375C233.701 566.968 235.586 565.587 235.586 563.885V533.09C235.586 532.564 235.416 532.086 235.126 531.671C235.027 531.754 234.931 531.845 234.842 531.943C229.832 537.397 222.611 548.113 224.645 563.122C224.941 565.304 227.443 566.968 230.437 566.968Z" fill="#FFBD80"/>
<path d="M242.594 587.554C242.594 585.698 241.055 584.194 239.158 584.194C237.26 584.194 235.722 585.698 235.722 587.554C235.722 589.41 237.261 590.914 239.158 590.914C241.055 590.914 242.594 589.41 242.594 587.554Z" fill="#3F2A0B"/>
<defs>
<clipPath id="clip0">
<rect width="115" height="115" fill="white" transform="translate(88 472)"/>
</clipPath>
<clipPath id="clip1">
<rect width="65" height="65" fill="white" transform="translate(1154.28 118.671)"/>
</clipPath>
</defs>
</svg>
