<svg width="284" height="243" viewBox="0 0 284 243" fill="none" xmlns="http://www.w3.org/2000/svg">
<path opacity="0.7" d="M274.407 73.8246C274.407 73.8246 258.919 28.1076 210.998 9.23099C163.077 -9.64563 108.921 4.61195 64.7348 15.0203C20.5487 25.4286 -5.28962 60.146 0.913498 98.6872C7.11661 137.228 43.4892 137.903 74.2079 174.486C104.926 211.07 107.519 225.409 153.37 239.598C199.22 253.787 253.802 219.604 271.505 165.636C289.208 111.668 274.407 73.8246 274.407 73.8246Z" fill="#FFF394"/>
<path d="M243.444 114.337C252.736 123.441 254.292 137.526 252.335 149.862C252.283 150.141 251.847 150.066 251.847 149.798C251.847 146.99 251.935 144.212 251.923 141.433L251.784 141.061C249.356 139.317 247.138 137.305 245.75 134.573C244.194 131.515 243.584 128.074 242.399 124.882C242.289 124.58 242.614 124.667 242.829 124.824C248.479 128.998 250.28 133.486 251.9 139.485C251.867 136.347 251.538 133.22 250.918 130.143C249.699 124.452 247.283 118.807 243.195 114.581C243.061 114.424 243.299 114.174 243.444 114.337Z" fill="#A5D8C6"/>
<path d="M241.701 115.401C240.104 115.453 239.099 118.011 237.857 118.755C237.726 118.858 237.576 118.932 237.416 118.973C237.255 119.015 237.088 119.023 236.925 118.997C236.761 118.97 236.605 118.911 236.465 118.821C236.326 118.732 236.206 118.614 236.114 118.476C234.883 116.732 236.573 114.628 238.164 113.436C237.003 113.907 236.085 114.727 234.854 114.965C234.697 115.015 234.531 115.03 234.367 115.011C234.204 114.991 234.046 114.937 233.905 114.852C233.764 114.767 233.642 114.652 233.549 114.516C233.455 114.38 233.391 114.226 233.362 114.064C232.822 111.738 235.766 110.669 237.787 110.622C236.806 109.936 234.001 108.088 235.493 107.175C236.986 106.262 240.296 108.919 241.37 109.779C242.95 111.064 244.854 112.982 244.907 115.011C244.988 117.331 242.944 115.889 241.701 115.401Z" fill="#5EAB90"/>
<path d="M242.179 115.79C240.135 114.86 236.209 116.203 235.872 115.43C235.199 113.849 238.334 112.773 240.03 112.564C238.468 112.14 235.483 111.465 235.57 109.96C235.686 108.123 240.152 109.704 242.417 111.436C245.268 113.628 245.251 115.738 244.78 116.162C244.13 116.738 242.516 115.947 242.179 115.79Z" fill="#A5D8C6"/>
<path d="M264.612 113.436C254.984 122.156 252.893 136.195 254.38 148.595C254.421 148.874 254.856 148.816 254.868 148.554C254.972 145.746 254.996 142.962 255.106 140.189C255.164 140.066 255.211 139.95 255.263 139.822C257.754 138.154 260.06 136.247 261.54 133.567C263.207 130.573 263.95 127.173 265.257 124.016C265.379 123.714 265.048 123.789 264.827 123.94C259.02 127.893 257.057 132.311 255.205 138.241C255.359 135.105 255.808 131.991 256.546 128.94C257.981 123.295 260.611 117.749 264.85 113.686C265.007 113.534 264.781 113.279 264.612 113.436Z" fill="#A5D8C6"/>
<path d="M266.318 114.564C267.91 114.68 268.815 117.273 270.029 118.052C270.156 118.163 270.305 118.247 270.466 118.298C270.627 118.348 270.797 118.364 270.964 118.344C271.132 118.324 271.294 118.269 271.439 118.183C271.584 118.097 271.709 117.981 271.806 117.843C273.101 116.168 271.493 113.977 269.948 112.727C271.069 113.238 271.98 114.099 273.194 114.378C273.349 114.435 273.515 114.458 273.68 114.446C273.845 114.433 274.005 114.386 274.15 114.307C274.295 114.228 274.422 114.118 274.521 113.986C274.621 113.854 274.691 113.702 274.727 113.541C275.354 111.215 272.451 110.053 270.436 109.925C271.44 109.285 274.315 107.535 272.857 106.57C271.4 105.605 267.991 108.123 266.882 108.954C265.256 110.175 263.299 112.018 263.153 114.023C262.973 116.372 265.07 115.006 266.318 114.564Z" fill="#5EAB90"/>
<path d="M265.842 114.941C267.915 114.087 271.789 115.575 272.149 114.813C272.886 113.267 269.797 112.064 268.113 111.79C269.686 111.43 272.694 110.872 272.66 109.361C272.619 107.518 268.089 108.93 265.766 110.581C262.834 112.657 262.77 114.767 263.229 115.232C263.85 115.813 265.511 115.104 265.842 114.941Z" fill="#A5D8C6"/>
<path d="M254.768 136.526C254.119 141.203 253.119 145.824 251.778 150.35C251.76 150.44 251.707 150.519 251.632 150.569C251.556 150.62 251.463 150.639 251.374 150.621C251.285 150.603 251.206 150.551 251.155 150.475C251.105 150.399 251.086 150.306 251.104 150.217C251.737 145.956 252.893 141.776 253.526 137.515C254.212 133.204 254.459 128.836 254.263 124.475C253.857 117.296 251.911 109.657 247.231 104.042C247.126 103.908 247.347 103.722 247.451 103.844C256.818 114.779 255.332 128.184 255.32 129.388C256.65 124.859 258.015 119.674 263.032 115.064C263.247 114.86 263.415 114.959 263.38 115.296C262.486 123.691 260.152 128.085 255.291 132.562C255.152 133.893 254.977 135.218 254.768 136.526Z" fill="#5EAB90"/>
<path d="M247.142 105.297C245.457 104.547 243.135 106.698 241.468 106.844C240.585 106.925 239.929 106.576 239.778 105.681C239.366 103.268 242.188 101.914 244.424 101.484C243.007 101.396 241.613 101.774 240.219 101.396C240.031 101.371 239.85 101.306 239.689 101.204C239.528 101.103 239.39 100.968 239.286 100.808C239.182 100.649 239.113 100.469 239.085 100.28C239.057 100.092 239.069 99.8995 239.122 99.7164C239.743 97.0016 243.32 97.391 245.446 98.3677C244.772 97.1701 242.792 93.8275 244.795 93.6356C246.799 93.4438 248.907 97.8561 249.586 99.3036C250.579 101.431 251.572 104.373 250.638 106.489C249.569 108.954 248.175 106.431 247.142 105.297Z" fill="#5EAB90"/>
<path d="M247.429 105.943C245.774 103.949 241.042 103.356 241.076 102.385C241.163 100.408 244.961 100.867 246.825 101.507C245.42 100.28 242.656 98.0771 243.51 96.5598C244.549 94.7112 248.393 98.6003 249.868 101.548C251.727 105.251 250.647 107.431 249.944 107.634C248.98 107.907 247.702 106.268 247.429 105.943Z" fill="#A5D8C6"/>
<path d="M260.93 139.055L265.065 170.657H239.92C240.437 167.855 245.117 139.015 245.117 139.015L260.93 139.055Z" fill="#FF912B"/>
<path d="M35.9609 170.61L66.9249 170.47L97.8888 170.418L159.822 170.325L221.75 170.418L252.72 170.47L283.684 170.61L252.72 170.755L221.75 170.807L159.822 170.9L97.8888 170.807L66.9249 170.755L35.9609 170.61Z" fill="#3F2A0B"/>
<path d="M94.0631 125.475C97.3014 128.18 100.822 130.529 104.563 132.48C99.3883 123.027 102.158 102.878 102.629 105.826C104.865 119.911 113.285 135.84 116.949 136.898C116.97 136.894 116.992 136.894 117.013 136.898C126.926 138.892 136.247 137.27 144.197 134.16C144.201 134.144 144.201 134.128 144.197 134.113C137.391 123.335 139.597 102.803 140.004 104.099C144.429 118.01 155.445 126.829 157.495 126.98C165.625 121.248 170.19 115.231 169.173 114.499C161.792 109.145 156.258 96.4777 151.432 83.1884C146.659 70.0793 144.87 50.9883 137.565 39.0361C130.875 28.0896 115.805 24.8516 106.682 29.3918C82.7507 41.2743 89.551 121.719 94.0631 125.475Z" fill="#3F2A0B"/>
<path d="M108.302 28.6826C106.313 29.3753 104.488 30.4717 102.942 31.9032C101.429 33.261 100.047 34.7577 98.8129 36.3737C96.4892 39.5898 94.5408 43.0617 93.0058 46.7214C89.8408 53.9357 88.1161 68.4575 87.2334 76.1427C86.4873 83.8564 86.4873 91.6242 87.2334 99.3379C87.3844 101.268 87.6689 103.186 87.8838 105.111L88.7317 110.866L89.835 116.586L91.1184 122.272L90.2183 116.54L89.4576 110.79L88.813 105.041C88.6678 103.117 88.4529 101.204 88.3658 99.2798C87.7982 91.6194 87.9051 83.9238 88.6852 76.2822C89.4285 68.6551 91.1765 54.2613 94.0336 47.0644C95.4349 43.4215 97.2386 39.9468 99.4111 36.705C100.54 35.063 101.822 33.5312 103.238 32.1299C103.964 31.4246 104.74 30.7737 105.561 30.1825C106.398 29.5532 107.321 29.048 108.302 28.6826Z" fill="#3F2A0B"/>
<path d="M170.269 112.488C168.149 109.725 166.173 106.853 164.352 103.884C162.499 100.977 160.769 97.9777 159.207 94.9315C157.645 91.8853 156.181 88.8042 154.944 85.6302C153.707 82.4561 152.581 79.2646 151.39 76.0789C148.94 69.7249 146.599 56.517 143.731 50.2793C142.279 47.1634 140.763 44.0707 139.015 41.071C138.13 39.5624 137.16 38.1049 136.112 36.7052C135.08 35.2229 133.756 33.9684 132.221 33.0195C133.647 34.0661 134.858 35.3788 135.786 36.8854C136.734 38.3203 137.6 39.8069 138.382 41.3384C139.985 44.373 141.373 47.4889 142.691 50.6397C145.333 56.9181 147.674 70.1028 150.02 76.48C151.251 79.6599 152.407 82.8398 153.707 86.0197C155.011 89.2116 156.514 92.3182 158.208 95.321C161.595 101.464 165.639 107.22 170.269 112.488Z" fill="#3F2A0B"/>
<path d="M112.73 107.448C118.979 121.498 143.427 166.744 158.514 169.464C168.387 171.243 207.963 165.976 214.461 156.32C217.295 152.117 211.232 123.766 205.982 125.062C200.733 126.358 169.054 131.741 165.106 130.747C161.157 129.753 130.651 97.0301 119.409 89.0542C100.001 75.2824 109.368 99.8844 112.73 107.448Z" fill="#EB9481"/>
<path d="M193.9 123.44L196.281 166.319C196.281 166.319 165.033 173.197 151.391 168.482C134.835 162.756 110.602 111.412 107.257 102.971C101.81 89.1183 103.32 80.7355 111.037 82.7817C114.034 83.5549 118.006 85.921 122.814 90.1821C127.872 94.6235 156.926 123.44 166.095 128.882C171.246 131.928 193.9 123.44 193.9 123.44Z" fill="#C3E5D9"/>
<path d="M177.144 159.012C176.303 159.313 175.51 159.732 174.786 160.256C175.675 160.186 176.548 159.99 177.382 159.675C178.223 159.377 179.017 158.96 179.74 158.437C178.851 158.501 177.977 158.695 177.144 159.012ZM153.602 125.33C152.762 125.627 151.97 126.044 151.25 126.568C153.031 126.401 154.738 125.767 156.197 124.731C155.308 124.804 154.433 125.006 153.602 125.33ZM129.85 104.983C129.01 105.284 128.216 105.703 127.492 106.227C129.276 106.059 130.984 105.425 132.446 104.39C131.557 104.461 130.683 104.659 129.85 104.977V104.983ZM147.115 151.083C146.274 151.381 145.48 151.798 144.757 152.321C146.539 152.154 148.245 151.52 149.705 150.484C148.817 150.554 147.945 150.754 147.115 151.077V151.083ZM174.746 134.555C173.904 134.855 173.111 135.274 172.388 135.799C173.276 135.729 174.15 135.533 174.984 135.218C175.825 134.921 176.619 134.504 177.341 133.98C176.453 134.043 175.579 134.235 174.746 134.55V134.555ZM133.253 127.056C132.425 127.36 131.643 127.779 130.93 128.3C131.819 128.23 132.693 128.034 133.526 127.719C134.356 127.417 135.138 126.998 135.849 126.475C134.961 126.543 134.087 126.737 133.253 127.05V127.056ZM195.39 150.734C195.291 150.339 195.164 149.949 195.03 149.571C194.729 148.73 194.311 147.935 193.787 147.211C193.855 148.101 194.05 148.976 194.368 149.81C194.636 150.56 194.995 151.274 195.437 151.937L195.39 150.734ZM162.562 153.123C162.263 152.282 161.847 151.487 161.325 150.763C161.395 151.652 161.591 152.527 161.906 153.361C162.205 154.204 162.623 154.999 163.149 155.722C163.088 154.831 162.898 153.954 162.585 153.117L162.562 153.123ZM141.813 116.4C141.512 115.561 141.093 114.768 140.57 114.046C140.64 114.935 140.836 115.81 141.151 116.644C141.449 117.485 141.868 118.278 142.394 118.999C142.326 118.109 142.131 117.234 141.813 116.4ZM118.938 93.8562C118.641 93.0144 118.224 92.2196 117.702 91.496C117.868 93.2795 118.501 94.9877 119.537 96.4489C119.455 95.5587 119.244 94.6852 118.909 93.8562H118.938ZM151.308 163.936C150.509 163.544 149.659 163.27 148.782 163.122C149.461 163.699 150.22 164.174 151.035 164.535C151.841 164.918 152.697 165.184 153.578 165.325C152.891 164.757 152.127 164.289 151.308 163.936ZM179.804 146.292C178.998 145.91 178.141 145.646 177.26 145.508C178.644 146.645 180.299 147.404 182.063 147.711C181.38 147.127 180.62 146.642 179.804 146.269V146.292ZM170.419 169.842C169.614 169.457 168.757 169.19 167.876 169.052C168.306 169.429 168.777 169.757 169.281 170.028L170.651 169.953L170.419 169.842ZM147.376 136.387C146.571 136.001 145.714 135.735 144.833 135.596C146.214 136.734 147.867 137.493 149.629 137.799C148.951 137.214 148.192 136.731 147.376 136.363V136.387ZM112.533 106.117C111.728 105.731 110.871 105.465 109.99 105.326C110.669 105.902 111.428 106.378 112.243 106.739C113.049 107.122 113.905 107.388 114.786 107.529C114.111 106.946 113.356 106.463 112.545 106.093L112.533 106.117ZM134.136 143.461C133.751 144.267 133.487 145.125 133.352 146.008C133.927 145.325 134.402 144.563 134.763 143.746C135.143 142.938 135.409 142.081 135.553 141.2C134.982 141.876 134.509 142.63 134.147 143.438L134.136 143.461ZM122.521 119.487C122.137 120.293 121.872 121.151 121.738 122.033C122.313 121.35 122.788 120.589 123.149 119.772C123.529 118.964 123.795 118.107 123.938 117.226C123.372 117.904 122.901 118.657 122.539 119.464L122.521 119.487ZM159.484 138.741C159.11 139.541 158.85 140.391 158.712 141.264C159.292 140.585 159.769 139.826 160.129 139.008C160.509 138.2 160.775 137.343 160.919 136.462C160.34 137.141 159.863 137.901 159.502 138.718L159.484 138.741ZM104.484 93.7573C104.542 94.0771 104.606 94.3968 104.682 94.7282C104.96 94.077 105.155 93.3934 105.263 92.6935C104.978 93.0165 104.723 93.3648 104.502 93.7341L104.484 93.7573Z" fill="white"/>
<path d="M188.465 165.68C187.919 159.355 186.648 133.386 186.752 127.753C186.752 127.364 187.008 127.277 187.054 127.684C189.133 146.6 188.494 159.419 188.709 165.65C188.715 165.79 188.477 165.825 188.465 165.68Z" fill="#263238"/>
<path opacity="0.1" d="M107.279 102.965C110.589 111.406 134.834 162.755 151.414 168.476C155.479 169.888 161.17 170.26 167.093 170.103L110.037 82.5489C108.394 82.2989 107.076 82.5779 106.118 83.3453C103.04 85.7811 103.336 92.9547 107.279 102.965Z" fill="black"/>
<path d="M50.4473 170.557L136.243 170.33L131.498 140.799C131.498 140.799 138.281 132.555 136.998 123.615C135.592 113.819 117.944 88.9845 116.463 87.5719C110.488 81.9562 104.164 80.9505 98.0895 82.9735C70.0233 100.669 50.4473 170.557 50.4473 170.557Z" fill="#C3E5D9"/>
<path d="M57.1534 153.553C56.6568 153.74 56.1736 153.962 55.7074 154.216L55.5332 154.71C56.1663 154.594 56.788 154.422 57.3915 154.198C58.2336 153.901 59.0279 153.481 59.7492 152.954C58.8596 153.027 57.9853 153.229 57.1534 153.553ZM88.1522 97.1637C87.3236 97.4676 86.5417 97.8864 85.8293 98.4078C86.7157 98.3375 87.5878 98.1418 88.4193 97.8264C89.2615 97.5287 90.0557 97.1096 90.777 96.5824C89.8795 96.6462 88.9956 96.838 88.1522 97.1521V97.1637ZM128.634 105.512C128.227 105.714 127.839 105.951 127.473 106.221C127.954 106.192 128.43 106.114 128.895 105.988C128.826 105.831 128.727 105.674 128.634 105.512ZM106.532 118.365C105.692 118.664 104.898 119.081 104.174 119.603C105.957 119.435 107.665 118.801 109.128 117.766C108.238 117.839 107.364 118.041 106.532 118.365ZM95.4983 151.995C94.6574 152.293 93.8634 152.71 93.1406 153.233C94.0289 153.163 94.9028 152.967 95.7364 152.652C96.566 152.35 97.3482 151.931 98.0592 151.408C97.1877 151.481 96.3312 151.679 95.5157 151.995H95.4983ZM133.245 127.05C132.416 127.354 131.635 127.773 130.922 128.294C131.81 128.224 132.684 128.028 133.518 127.713C134.348 127.411 135.13 126.992 135.841 126.469C134.956 126.54 134.086 126.736 133.257 127.05H133.245ZM76.9501 128.55C76.1217 128.852 75.3398 129.269 74.6272 129.788C76.4089 129.621 78.1153 128.987 79.575 127.951C78.6795 128.023 77.7991 128.224 76.9617 128.55H76.9501ZM119.267 151.077C118.426 151.375 117.632 151.792 116.909 152.315C117.798 152.245 118.672 152.049 119.505 151.733C120.344 151.433 121.136 151.014 121.857 150.489C120.974 150.559 120.105 150.757 119.279 151.077H119.267ZM96.5203 84.6244L96.3461 84.1942C96.1545 84.3279 95.9687 84.4674 95.7654 84.6069C95.8003 84.6941 95.8293 84.7755 95.8583 84.8627C96.1591 85.697 96.5776 86.484 97.1011 87.1997C97.0287 86.3183 96.8332 85.4514 96.5203 84.6244ZM75.1034 152.838C74.8045 151.997 74.388 151.202 73.8665 150.478C74.0346 152.263 74.6673 153.973 75.7016 155.437C75.6292 154.546 75.4277 153.671 75.1034 152.838ZM105.951 139.392C105.65 138.563 105.233 137.78 104.714 137.066C104.881 138.85 105.514 140.558 106.549 142.019C106.479 141.119 106.278 140.234 105.951 139.392ZM95.0395 110.406C94.7384 109.567 94.32 108.774 93.7968 108.052C93.9735 109.833 94.6054 111.539 95.6318 113.005C95.558 112.115 95.3586 111.24 95.0395 110.406ZM132.949 159.709C132.654 158.867 132.237 158.071 131.712 157.349C131.782 158.238 131.978 159.113 132.293 159.948C132.593 160.788 133.011 161.581 133.535 162.302C133.467 161.414 133.269 160.541 132.949 159.709ZM118.913 93.8559C118.615 93.0142 118.199 92.2194 117.676 91.4957C117.843 93.2793 118.476 94.9875 119.511 96.4487C119.439 95.5599 119.237 94.6865 118.913 93.8559ZM86.0151 141.676C85.2093 141.294 84.3527 141.03 83.4716 140.892C84.8558 142.028 86.5102 142.787 88.2741 143.095C87.5905 142.519 86.8302 142.042 86.0151 141.676ZM116.485 169.703C116.782 169.96 117.098 170.194 117.432 170.4H118.814C118.074 170.06 117.29 169.825 116.485 169.703ZM66.1487 164.726C65.3427 164.343 64.4862 164.077 63.6052 163.936C64.285 164.516 65.0461 164.994 65.8642 165.354C66.6689 165.735 67.5232 166.002 68.4019 166.145C67.7242 165.564 66.965 165.086 66.1487 164.726ZM118.117 134.561C117.314 134.177 116.459 133.911 115.58 133.77C116.257 134.351 117.016 134.829 117.833 135.189C118.639 135.57 119.496 135.834 120.376 135.974C119.694 135.398 118.933 134.922 118.117 134.561ZM112.548 106.076C111.743 105.69 110.886 105.424 110.005 105.285C110.684 105.862 111.443 106.337 112.258 106.698C113.064 107.081 113.92 107.347 114.801 107.488C114.12 106.919 113.361 106.449 112.548 106.093V106.076ZM79.1336 113.958C78.7484 114.764 78.4823 115.622 78.3438 116.505C78.9203 115.823 79.3955 115.061 79.755 114.243C80.141 113.44 80.4071 112.584 80.5448 111.703C79.9674 112.388 79.4921 113.154 79.1336 113.976V113.958ZM106.056 160.692C105.675 161.499 105.411 162.356 105.272 163.238C105.844 162.572 106.319 161.828 106.683 161.029C107.066 160.222 107.332 159.365 107.473 158.483C106.9 159.156 106.423 159.905 106.056 160.709V160.692ZM122.542 119.446C122.157 120.252 121.893 121.11 121.758 121.992C122.333 121.309 122.809 120.548 123.17 119.731C123.55 118.923 123.815 118.066 123.959 117.185C123.383 117.875 122.906 118.642 122.542 119.464V119.446ZM85.6957 163.093C85.3094 163.912 85.0433 164.784 84.906 165.68C85.4859 165.001 85.9633 164.241 86.3229 163.424C86.7037 162.617 86.9677 161.76 87.1069 160.878C86.5338 161.552 86.0587 162.303 85.6957 163.11V163.093ZM67.0663 141.735C66.6828 142.541 66.4169 143.399 66.2765 144.281C67.4181 142.899 68.1771 141.241 68.4774 139.473C67.9024 140.156 67.4272 140.918 67.0663 141.735ZM93.3032 127.893C92.9171 128.697 92.651 129.552 92.5134 130.433C93.0893 129.753 93.5646 128.994 93.9245 128.178C94.3072 127.371 94.5732 126.514 94.7143 125.632C94.1392 126.315 93.6641 127.076 93.3032 127.893ZM103.866 94.9139C103.48 95.7175 103.214 96.5734 103.077 97.4544C103.653 96.7741 104.128 96.0145 104.488 95.1988C104.871 94.3919 105.136 93.5345 105.278 92.6526C104.701 93.341 104.226 94.1083 103.866 94.9314V94.9139Z" fill="white"/>
<path d="M125.773 99.5356C127.434 102.303 129.258 104.971 131 107.674C130.297 105.744 129.612 103.814 128.845 101.913C128.843 101.906 128.843 101.898 128.846 101.89C128.849 101.883 128.854 101.877 128.861 101.873C128.867 101.869 128.875 101.867 128.883 101.868C128.891 101.869 128.898 101.873 128.903 101.878C130.123 104.172 131.117 106.578 131.871 109.064C133.173 111.115 134.337 113.251 135.355 115.458C136.605 118.107 137.39 120.95 137.678 123.864C137.865 126.801 137.45 129.745 136.459 132.515C135.291 135.694 133.837 138.76 132.115 141.676C131.894 142.066 131.354 141.706 131.534 141.316C133.967 136.119 136.656 130.654 136.412 124.765C136.168 118.877 133.462 113.575 130.808 108.523C129.258 105.444 127.512 102.467 125.582 99.6112C125.5 99.5298 125.698 99.4077 125.773 99.5356Z" fill="#69BEA0"/>
<path d="M152.883 164.226L151.141 173.987H205.217C206.71 173.939 208.143 173.388 209.284 172.422C210.424 171.457 211.205 170.134 211.501 168.668L212.279 164.226H152.883Z" fill="#CACACA"/>
<path d="M146.79 168.668L147.574 164.226H158.196L157.412 168.668C157.12 170.129 156.344 171.449 155.211 172.414C154.077 173.379 152.651 173.933 151.163 173.987C150.503 174.004 149.847 173.874 149.244 173.604C148.641 173.334 148.106 172.933 147.679 172.429C147.265 171.905 146.971 171.297 146.818 170.647C146.664 169.997 146.655 169.322 146.79 168.668Z" fill="white"/>
<path d="M170.456 94.6175L156.479 173.987H205.259C206.745 173.93 208.168 173.375 209.301 172.41C210.433 171.445 211.208 170.127 211.502 168.668L225.48 89.2983H176.699C175.214 89.3264 173.787 89.8781 172.669 90.8563C171.521 91.8181 170.74 93.1464 170.456 94.6175Z" fill="#F4F4F4"/>
<path d="M176.705 89.2983L173.883 105.332H233.267L235.154 94.6176C235.671 91.6818 233.708 89.2983 230.782 89.2983H176.705Z" fill="white"/>
<path d="M170.454 94.6176L168.566 105.332H179.188L181.075 94.6176C181.592 91.6818 179.635 89.2983 176.702 89.2983C175.218 89.3265 173.79 89.8782 172.672 90.8563C171.522 91.8173 170.739 93.1457 170.454 94.6176Z" fill="#CACACA"/>
<path d="M218.295 119.993C220.282 125.661 226.007 133.038 226.071 137.502C226.124 138.601 225.822 139.688 225.21 140.602C224.598 141.516 223.709 142.208 222.674 142.577C222.674 142.577 226.832 145.234 226.222 149.292C225.909 151.379 222.297 152.71 222.297 152.71C222.297 152.71 225.537 154.983 224.77 158.558C224.161 161.407 220.636 162.314 220.636 162.314C220.636 162.314 222.726 165.947 221.176 168.65C218.028 174.126 193.191 171.487 190.328 161.918C188.992 157.46 195.026 158.43 195.026 158.43C195.026 158.43 186.687 154.942 187.105 149.792C187.523 144.641 195.276 146.391 195.276 146.391C195.276 146.391 187.227 142.932 188.191 137.642C189.201 132.142 196.664 135.212 196.664 135.212C196.664 135.212 191.536 130.881 193.179 127.003C195.926 120.609 205.502 130.038 211.1 129.329L215.067 120.609L218.295 119.993Z" fill="#FFD3AA"/>
<path d="M222.442 128.358C221.031 122.83 228.307 116.964 227.715 111.5C226.919 104.088 218.017 110.337 215.09 120.656L214.225 129.056L222.442 128.358Z" fill="#FFD3AA"/>
<path d="M220.099 162.541C220.116 162.541 220.132 162.547 220.144 162.559C220.156 162.571 220.163 162.588 220.163 162.604C220.163 162.621 220.156 162.638 220.144 162.65C220.132 162.662 220.116 162.668 220.099 162.668C211.713 163.796 202.166 162.459 194.675 158.419C194.425 158.291 194.536 157.837 194.838 157.925C203.368 160.61 211.133 162.308 220.099 162.541Z" fill="#F99352"/>
<path d="M222.412 152.774C222.511 152.774 222.505 152.937 222.412 152.949C213.765 154.065 203.051 152.263 194.961 146.589C194.688 146.397 194.63 145.944 194.961 146.141C200.623 149.507 214.34 152.606 222.412 152.774Z" fill="#F99352"/>
<path d="M196.205 134.619C204.167 139.758 212.976 141.822 222.337 142.636C222.459 142.636 222.43 142.822 222.337 142.839C217.657 143.688 211.751 142.543 207.239 141.264C203.02 140.159 199.165 137.964 196.06 134.898C195.897 134.776 196.031 134.515 196.205 134.619Z" fill="#F99352"/>
<path d="M102.357 82.5567C102.473 84.0681 107.966 94.5961 114.668 95.3111C116.851 95.5379 118.628 83.6845 118.628 83.6845L118.965 82.8415L123.611 70.9882L110.632 59.5126L108.739 57.9721C108.739 57.9721 107.688 61.2973 106.416 65.4481C106.358 65.6399 106.294 65.8375 106.236 66.0294C106.178 66.2212 106.079 66.4828 106.015 66.7037C105.818 67.3199 105.62 67.9536 105.435 68.5873C105.289 69.0698 105.15 69.5348 105.016 70.0464C104.883 70.558 104.743 71.0579 104.598 71.5637C103.257 76.6155 102.316 81.9463 102.357 82.5567Z" fill="#FFD3AA"/>
<path d="M106.438 65.4518C107.146 69.0903 108.637 72.5309 110.807 75.5345C112.977 78.5382 115.774 81.0329 119.004 82.8453L123.65 70.9919L110.671 59.5164L108.778 57.9759C108.778 57.9759 107.709 61.3011 106.438 65.4518Z" fill="#263238" fill-opacity="0.15"/>
<path d="M144.301 56.8771C141.362 79.0143 127.785 79.7526 123.017 79.1131C118.691 78.5318 104.022 76.003 104.661 53.6798C105.3 31.3566 116.513 25.7235 126.484 26.5257C136.455 27.3279 147.245 34.7341 144.301 56.8771Z" fill="#FFD3AA"/>
<path d="M141.123 54.4995C140.64 54.3194 140.167 54.1137 139.706 53.8833C139.178 53.7386 138.714 53.4214 138.388 52.9822C138.31 52.8249 138.287 52.6461 138.323 52.4743C138.359 52.3026 138.451 52.1478 138.585 52.0347C138.881 51.8475 139.222 51.743 139.572 51.7317C139.923 51.7205 140.269 51.803 140.577 51.9707C141.252 52.2156 141.813 52.7023 142.151 53.3369C142.219 53.4863 142.243 53.6525 142.219 53.8152C142.195 53.9779 142.124 54.1301 142.015 54.2533C141.906 54.3765 141.764 54.4653 141.606 54.509C141.447 54.5527 141.279 54.5494 141.123 54.4995Z" fill="#664640"/>
<path d="M126.17 50.6976C126.682 50.7238 127.196 50.7238 127.709 50.6976C128.254 50.7687 128.807 50.6584 129.283 50.3837C129.414 50.2687 129.504 50.1136 129.538 49.9423C129.573 49.7711 129.55 49.5932 129.474 49.4361C129.274 49.147 129.001 48.9165 128.683 48.7683C128.364 48.6201 128.012 48.5597 127.662 48.5932C126.946 48.5541 126.241 48.7819 125.682 49.2326C125.563 49.3436 125.479 49.4864 125.438 49.6441C125.398 49.8018 125.404 49.9677 125.456 50.1221C125.507 50.2765 125.602 50.4128 125.728 50.5148C125.855 50.6169 126.008 50.6803 126.17 50.6976Z" fill="#664640"/>
<path d="M127.477 53.7613C125.107 53.1451 124.045 57.9411 126.246 58.5109C128.447 59.0806 129.463 54.2787 127.477 53.7613Z" fill="#664640"/>
<path d="M126.475 53.8079C125.999 53.9881 125.482 54.3892 124.971 54.3137C124.39 54.2439 124.042 53.6393 123.769 53.0754C123.74 53.0173 123.688 53.0464 123.676 53.1103C123.455 54.0288 123.601 55.0462 124.559 55.4008C125.424 55.7263 126.249 55.0578 126.684 54.1858C126.765 54.023 126.673 53.7382 126.475 53.8079Z" fill="#664640"/>
<path d="M139.056 55.7088C141.483 56.075 140.572 60.9001 138.33 60.5629C136.088 60.2257 137.029 55.4065 139.056 55.7088Z" fill="#664640"/>
<path d="M140.002 56.2205C140.333 56.546 140.623 57.0808 141.076 57.1971C141.529 57.3134 142.081 56.8832 142.51 56.4472C142.557 56.4007 142.586 56.4472 142.58 56.5111C142.429 57.4412 141.941 58.3423 141.024 58.3539C140.106 58.3656 139.746 57.4587 139.7 56.4995C139.688 56.3193 139.868 56.0867 140.002 56.2205Z" fill="#664640"/>
<path d="M126.165 68.3703C126.426 68.8063 126.647 69.376 127.169 69.533C127.717 69.6683 128.286 69.6881 128.842 69.5911C128.854 69.5867 128.867 69.5869 128.879 69.5916C128.891 69.5963 128.901 69.6053 128.907 69.6168C128.912 69.6284 128.914 69.6416 128.91 69.654C128.907 69.6664 128.899 69.6772 128.888 69.6841C128.6 69.9151 128.255 70.064 127.889 70.1151C127.523 70.1663 127.15 70.1178 126.809 69.9748C126.531 69.8183 126.306 69.5817 126.163 69.2957C126.02 69.0097 125.966 68.6873 126.008 68.3703C126.008 68.3064 126.136 68.3064 126.165 68.3703Z" fill="#664640"/>
<path d="M133.271 64.7892C133.271 64.7892 133.322 65.9827 133.22 66.9932C133.197 67.2183 133.22 67.5001 133.127 67.6261C133.064 67.7101 132.842 67.7133 132.482 67.661C132.476 67.6652 132.469 67.6675 132.462 67.6675C131.949 67.6261 131.504 67.5043 131.498 67.5001C131.498 67.5001 130.6 67.3546 129.816 66.8482C129.031 66.3418 128.401 65.6296 127.993 64.7892C127.981 64.7647 127.979 64.7369 127.987 64.7109C127.995 64.685 128.011 64.6627 128.034 64.6484C128.057 64.6341 128.085 64.6287 128.111 64.6332C128.138 64.6377 128.162 64.6518 128.179 64.6729C129.141 65.6794 129.886 66.6668 131.646 67.0205C131.978 67.0873 132.665 67.2774 132.761 67.149C132.857 67.0205 132.852 66.67 132.872 66.4011C132.978 64.9269 132.618 63.0081 132.761 63.0277C133.127 64.6729 135.224 65.2988 134.998 64.0001C133.471 58.9376 135.194 54.517 135.728 49.7908C135.728 49.7522 135.743 49.7153 135.771 49.688C135.798 49.6608 135.835 49.6454 135.873 49.6454C135.912 49.6454 135.949 49.6608 135.976 49.688C136.003 49.7153 136.019 49.7522 136.019 49.7908C135.976 51.5001 134.532 59.1718 134.998 61.5001C135.498 64.0001 135.45 64.1393 135.224 64.7892C134.998 65.4391 133.654 65.0566 133.271 64.7892Z" fill="#664640"/>
<path d="M106.218 53.9648C111.328 55.0112 112.861 46.9249 112.861 46.9249C112.861 46.9249 118.767 47.5062 121.02 38.234C121.02 38.234 122.71 44.4426 130.353 47.1284C131.973 47.7097 127.228 42.2859 127.228 42.2859C127.228 42.2859 132.739 49.6513 145.608 49.7734C146.514 49.7734 148.239 36.2342 139.371 29.8628C130.504 23.4914 120.207 24.3866 112.954 29.3628C112.954 29.3628 105.986 31.816 103.878 38.4258C101.77 45.0356 104.232 53.5579 106.218 53.9648Z" fill="#3F2A0B"/>
<path d="M123.233 64.0625C121.899 63.689 120.696 62.9483 119.761 61.9246C118.826 60.9008 118.197 59.6351 117.946 58.2713C117.694 56.9075 117.829 55.5003 118.337 54.2097C118.844 52.9192 119.703 51.797 120.816 50.9709C121.929 50.1447 123.251 49.6476 124.632 49.5362C126.012 49.4247 127.397 49.7034 128.628 50.3405C129.858 50.9776 130.886 51.9475 131.593 53.1401C132.3 54.3326 132.659 55.6999 132.629 57.0865C132.579 59.0452 131.757 60.9047 130.343 62.2594C128.928 63.6141 127.037 64.3542 125.079 64.3182C124.455 64.313 123.835 64.227 123.233 64.0625ZM126.955 50.7383C125.674 50.3831 124.314 50.4369 123.064 50.8924C121.815 51.3478 120.739 52.1822 119.986 53.2791C119.233 54.376 118.84 55.6808 118.863 57.0116C118.886 58.3424 119.324 59.6328 120.114 60.703C120.905 61.7732 122.009 62.5698 123.273 62.9817C124.538 63.3936 125.899 63.4004 127.167 63.001C128.435 62.6016 129.548 61.816 130.349 60.7537C131.15 59.6914 131.6 58.4053 131.636 57.0748C131.666 55.6516 131.224 54.2586 130.381 53.1125C129.538 51.9664 128.339 51.1317 126.973 50.7383H126.955Z" fill="#20A2A5"/>
<path d="M140.072 66.609C137.348 65.8475 135.653 62.3595 136.251 58.5401C136.497 56.7114 137.31 55.0059 138.574 53.6627C139.085 53.0556 139.744 52.5907 140.487 52.313C141.23 52.0353 142.032 51.9542 142.816 52.0776C143.599 52.2009 144.338 52.5245 144.96 53.017C145.582 53.5096 146.067 54.1545 146.367 54.8894C147.169 56.5541 147.429 58.4288 147.11 60.2492C146.477 64.2837 143.521 67.1846 140.519 66.7137C140.368 66.6892 140.218 66.6542 140.072 66.609ZM143.057 53.1337C142.937 53.0977 142.815 53.0705 142.691 53.0523C142.062 52.984 141.427 53.0671 140.837 53.2946C140.247 53.5221 139.72 53.8875 139.3 54.3603C138.177 55.5539 137.452 57.0674 137.226 58.6913C136.681 62.1793 138.231 65.3475 140.711 65.737C143.19 66.1265 145.624 63.5919 146.175 60.0981C146.459 58.4826 146.234 56.8187 145.531 55.337C145.293 54.8135 144.947 54.3465 144.515 53.9668C144.084 53.587 143.577 53.3031 143.028 53.1337H143.057Z" fill="#20A2A5"/>
<path d="M132.269 57.9064L131.758 57.0576C133.012 56.296 135.771 55.4473 137.257 57.6389L136.438 58.2203C135.109 56.2321 132.385 57.8366 132.269 57.9064Z" fill="#20A2A5"/>
<path d="M99.3874 54.6451L98.5918 54.0637C98.8647 53.6917 101.321 50.4246 103.563 50.413C105.653 50.413 118.563 53.6975 119.114 53.837L118.865 54.7962C115.165 53.8486 105.183 51.3954 103.569 51.4012C102.088 51.4303 100.049 53.7673 99.3874 54.6451Z" fill="#20A2A5"/>
<path d="M107.953 55.8482C107.953 55.8482 104.706 47.9827 101.245 48.9942C97.7843 50.0058 99.1664 60.6674 102.488 62.8242C102.895 63.13 103.36 63.3503 103.855 63.4717C104.349 63.5931 104.863 63.6131 105.365 63.5306C105.867 63.448 106.348 63.2646 106.778 62.9914C107.207 62.7181 107.577 62.3607 107.866 61.9405L107.953 55.8482Z" fill="#FFD3AA"/>
<path d="M101.743 52.0406C101.731 52.0386 101.719 52.0406 101.709 52.0461C101.699 52.0517 101.691 52.0605 101.686 52.0712C101.681 52.0819 101.68 52.0938 101.683 52.1051C101.686 52.1165 101.693 52.1265 101.702 52.1336C104.025 53.7323 104.826 56.3831 105.215 59.034C104.669 57.9295 103.758 57.1854 102.312 57.8016C102.297 57.8104 102.285 57.8237 102.278 57.8396C102.272 57.8555 102.27 57.8731 102.274 57.8899C102.278 57.9068 102.287 57.9219 102.3 57.9332C102.313 57.9445 102.329 57.9513 102.347 57.9527C102.826 57.9091 103.306 58.0154 103.722 58.257C104.139 58.4986 104.469 58.8635 104.669 59.3014C105.004 60.0325 105.255 60.7988 105.419 61.5861C105.488 61.836 105.924 61.807 105.895 61.5279C105.895 61.5279 105.895 61.4872 105.895 61.464C106.632 58.2376 105.122 53.1393 101.743 52.0406Z" fill="#263238"/>
<path d="M118.498 84.0778L115.374 94.286L102.07 82.8454L98.9395 87.1414C98.9395 87.1414 112.604 105.959 112.604 105.052L115.943 96.2044L122.331 101.622L120.589 86.8101L118.498 84.0778Z" fill="#C3E5D9"/>
<path d="M121.862 94.2512C121.497 91.8154 121.195 89.3506 120.701 86.9322C120.701 86.8508 120.544 86.8218 120.533 86.9322C120.242 89.3389 121.694 98.6461 121.88 100.884C121.613 100.646 116.003 96.1406 115.957 96.2336C115.19 97.6578 112.734 104.105 112.577 104.686C110.416 101.698 101.322 89.961 98.8253 87.1764C98.8192 87.1672 98.8114 87.1593 98.8022 87.1532C98.7931 87.1471 98.7828 87.1428 98.7721 87.1407C98.7613 87.1385 98.7502 87.1385 98.7394 87.1406C98.7286 87.1428 98.7183 87.147 98.7092 87.1531C98.7 87.1592 98.6922 87.1671 98.686 87.1762C98.6799 87.1854 98.6757 87.1956 98.6735 87.2064C98.6713 87.2172 98.6713 87.2283 98.6735 87.2391C98.6756 87.2499 98.6798 87.2602 98.6859 87.2694C100.643 90.4551 112.426 105.959 112.565 105.907C113.888 102.852 115.051 99.7296 116.049 96.5533C117.019 97.5532 122.734 102.698 122.722 102.332C122.579 99.6249 122.292 96.9275 121.862 94.2512Z" fill="#69BEA0"/>
<path d="M97.9811 103.477C92.8127 125.765 78.1728 150.698 68.9046 158.029C63.26 162.488 45.1938 162.528 44.3866 150.826C43.5794 139.124 79.0497 102.448 84.2704 95.3147C89.491 88.1818 102.65 83.3683 97.9811 103.477Z" fill="#EB9481"/>
<path d="M97.9811 103.477C92.8127 125.765 78.1728 150.698 68.9046 158.029C63.26 162.488 45.1938 162.528 44.3866 150.826C43.5794 139.124 79.0497 102.448 84.2704 95.3147C89.491 88.1818 102.65 83.3683 97.9811 103.477Z" fill="#C3E5D9"/>
<path d="M57.1514 153.553C56.3228 153.857 55.5409 154.276 54.8285 154.797C55.7149 154.727 56.5869 154.531 57.4185 154.216C58.2606 153.918 59.0549 153.499 59.7762 152.972C58.8776 153.036 57.9933 153.232 57.1514 153.553ZM88.1501 97.1637C87.3215 97.4677 86.5396 97.8864 85.8273 98.4078C86.7137 98.3375 87.5857 98.1418 88.4173 97.8264C89.2594 97.5287 90.0537 97.1096 90.775 96.5824C89.8774 96.6462 88.9935 96.838 88.1501 97.1521V97.1637ZM76.9597 128.556C76.1313 128.858 75.3494 129.274 74.6368 129.794C76.4185 129.627 78.1249 128.993 79.5845 127.957C78.6854 128.025 77.8011 128.225 76.9597 128.55V128.556ZM68.1153 118.592C67.8266 117.743 67.4178 116.941 66.9016 116.208C66.9718 117.097 67.1673 117.972 67.4824 118.807C67.7811 119.649 68.1997 120.444 68.7251 121.167C68.644 120.284 68.4387 119.417 68.1153 118.592ZM53.6787 140.77C53.3776 139.928 52.9592 139.134 52.4359 138.409C52.604 140.194 53.2368 141.904 54.271 143.368C54.1972 142.478 53.9977 141.603 53.6787 140.77ZM73.8703 150.478C73.9193 151.183 74.0598 151.879 74.2884 152.547L74.7471 151.966C74.5102 151.439 74.2162 150.94 73.8703 150.478ZM95.0433 110.407C94.7421 109.567 94.3237 108.774 93.8005 108.052C93.8679 108.94 94.0636 109.813 94.3812 110.645C94.6355 111.352 94.9686 112.029 95.3743 112.662C95.4207 112.511 95.473 112.366 95.5195 112.214C95.4096 111.599 95.2484 110.995 95.0375 110.407H95.0433ZM62.0701 129.056C61.2637 128.675 60.4073 128.41 59.5265 128.271C60.206 128.847 60.9649 129.323 61.7797 129.684C62.5857 130.067 63.4422 130.333 64.3232 130.474C63.6417 129.899 62.8833 129.421 62.0701 129.056ZM79.1316 113.941C78.7463 114.747 78.4803 115.605 78.3418 116.487C78.9182 115.805 79.3935 115.044 79.7529 114.226C80.139 113.422 80.4051 112.566 80.5427 111.685C79.9639 112.376 79.4886 113.148 79.1316 113.976V113.941ZM67.0642 141.735C66.6808 142.541 66.4148 143.399 66.2745 144.281C67.4161 142.899 68.175 141.241 68.4754 139.473C67.9003 140.156 67.4252 140.918 67.0642 141.735ZM44.7995 149.536C44.6485 149.879 44.5033 150.228 44.3814 150.588C44.3755 150.666 44.3755 150.743 44.3814 150.821C44.3814 151.059 44.422 151.298 44.451 151.524C44.8233 150.987 45.1459 150.417 45.415 149.821C45.7959 149.013 46.0618 148.156 46.2048 147.275C45.6304 147.957 45.1571 148.719 44.7995 149.536Z" fill="white"/>
<path d="M53.2838 159.727C55.7176 160.121 58.1978 160.135 60.6357 159.767C63.0233 159.379 65.32 158.558 67.4127 157.343C71.8378 154.797 74.7995 150.484 77.4301 146.24C80.3144 141.589 83.0244 136.826 85.5602 131.951C88.0863 127.085 90.4034 122.109 92.6392 117.103C93.7716 114.58 94.7994 112.023 95.8738 109.476C96.9481 106.93 97.9643 104.413 98.8993 101.838C99.1374 101.186 99.3581 100.535 99.5845 99.8843C99.5884 99.872 99.597 99.8617 99.6084 99.8557C99.6199 99.8497 99.6332 99.8485 99.6455 99.8523C99.6578 99.8562 99.6681 99.8648 99.6741 99.8762C99.6801 99.8877 99.6813 99.901 99.6775 99.9133C98.8412 102.576 98.0456 105.267 97.1455 107.907C97.0294 108.25 96.9016 108.593 96.7797 108.936C97.7146 106.942 98.6728 104.959 99.6833 103C99.7413 102.884 99.9039 103 99.8575 103.105C98.9632 105.14 98.034 107.174 97.0816 109.157C96.6093 110.145 96.1351 111.129 95.6589 112.11C95.2059 113.331 94.7355 114.557 94.2536 115.772C92.1746 120.981 89.8633 126.079 87.3198 131.067C84.7762 136.055 82.0352 140.94 79.0968 145.722C76.4081 150.123 73.5219 154.646 69.1723 157.582C65.0061 160.383 59.899 161.414 54.9737 160.448C54.3822 160.321 53.8001 160.154 53.2316 159.948C53.2078 159.936 53.1886 159.917 53.1773 159.893C53.1659 159.869 53.1631 159.842 53.1691 159.816C53.1752 159.79 53.1899 159.768 53.2108 159.751C53.2316 159.735 53.2574 159.726 53.2838 159.727Z" fill="#69BEA0"/>
<path d="M61.9238 70.2711C65.6114 61.2896 71.5928 48.9711 75.6114 47.0876C79.839 45.1285 94.9783 38.8501 98.9679 38.5304C102.957 38.2106 117.104 42.3497 119.659 44.8611C121.697 46.8725 118.161 51.6627 110.1 50.9767C102.551 50.3314 100.809 49.814 98.6194 50.1454C96.4301 50.4768 89.9551 55.7088 90.5242 58.9061C90.861 60.7838 95.2455 64.0218 98.6543 63.4347C102.063 62.8475 104.113 59.5107 108.323 57.5632C112.533 55.6157 118.573 57.5632 118.497 59.3072C118.422 61.0512 116.175 61.307 111.61 66.1321C108.66 69.2306 106.535 75.3869 100.35 80.4387C97.2431 82.9733 91.0933 90.2748 91.0933 90.2748L61.9238 70.2711Z" fill="#FFD3AA"/>
<path d="M75.6113 47.0877C79.7693 43.1985 89.4963 36.7632 97.7367 35.8214C103.306 35.1761 118.561 48.1806 117.191 51.3837C115.82 54.5869 112.847 53.8369 108.567 52.1743C107.011 51.593 99.2756 46.3203 97.3883 47.7329C94.6473 49.7618 89.746 57.8481 89.746 57.8481L75.6113 47.0877Z" fill="#FFD3AA"/>
<path d="M117.104 49.9944C115.867 45.867 111.622 42.7394 107.296 40.0188C107.226 39.9723 107.156 40.0769 107.226 40.1176C108.324 40.8152 115.095 46.332 117.034 50.0351C117.058 50.0758 117.116 50.0351 117.104 49.9944Z" fill="#F99352"/>
<path d="M75.6113 47.0877C79.7693 43.1986 89.4963 36.7633 97.7367 35.8215C103.306 35.1762 114.305 49.6165 112.94 52.8255C111.575 56.0345 107.22 55.1915 102.917 52.3256C101.523 51.3954 97.3244 46.4657 95.4196 47.8725C92.6728 49.9014 85.9597 54.9648 85.9597 54.9648L75.6113 47.0877Z" fill="#FFD3AA"/>
<path d="M89.9086 51.7965C90.5706 51.2151 90.8029 50.971 91.4765 50.3722C92.1501 49.7734 92.8296 49.2095 93.5439 48.6282C94.1285 48.101 94.8006 47.68 95.5299 47.3842C96.2572 47.1828 97.0303 47.2257 97.7309 47.5062C99.3336 48.0876 100.547 49.506 101.732 50.6687C103.056 51.9593 105.907 54.2381 108.445 54.6101C109.131 54.7554 109.839 54.7554 110.524 54.6101C111.04 54.519 111.524 54.3013 111.935 53.9765C113.468 52.4359 112.667 50.0176 111.68 48.1631C109.833 44.7682 106.918 41.9022 104.014 39.4431C103.3 38.8327 102.568 38.2398 101.842 37.6468C101.045 36.9088 100.098 36.3516 99.0665 36.0133C97.3534 35.5598 94.0956 36.5946 93.0909 36.8853C93.0154 36.8853 92.9922 36.7865 93.0909 36.7632C94.3104 36.3737 97.4753 34.9087 100.205 35.7633C101.204 36.0772 102.017 36.8388 102.835 37.4724C103.654 38.1061 104.531 38.8327 105.35 39.5478C106.956 40.9218 108.451 42.4205 109.821 44.0299C111.105 45.5588 112.446 47.3028 113.085 49.2212C113.666 50.8838 113.399 52.9766 112.115 54.2381C111.035 55.3019 109.345 55.1915 108.579 55.0984C107.83 55.0034 107.098 54.8079 106.401 54.5171C104.878 53.7547 103.413 52.8823 102.017 51.9069C100.669 50.9245 99.5775 49.5816 98.1548 48.698C97.8231 48.478 97.4509 48.3267 97.06 48.2528C96.669 48.1789 96.2673 48.184 95.8784 48.2678C95.1378 48.5276 94.4408 48.898 93.811 49.3665C92.5173 50.1151 91.2963 50.9831 90.1641 51.9593C89.8331 52.215 89.6298 52.0523 89.9086 51.7965Z" fill="#F99352"/>
<path d="M72.3848 50.5758C74.0398 48.6457 78.1919 39.9955 80.689 37.6527C83.1861 35.31 93.6855 27.7119 97.3266 29.0955C101.903 30.8395 94.8063 38.0713 91.4381 40.9314C88.07 43.7916 86.9608 49.8549 86.9608 49.8549L72.3848 50.5758Z" fill="#FFD3AA"/>
<path d="M96.3322 36.0207C95.1707 36.9043 94.079 37.9333 93.0104 38.9274C91.9421 39.8217 90.9405 40.7932 90.0139 41.834C89.1784 42.9347 88.5308 44.1664 88.0976 45.479C87.8653 46.1185 87.6794 46.7696 87.5168 47.4265C87.3542 48.0834 87.2033 48.8856 87 49.5948C87 49.6704 87.0929 49.7169 87.1161 49.6355C87.5408 48.3451 88.0471 47.083 88.6318 45.8569C89.2126 44.5776 89.9458 43.3732 90.8153 42.27C92.5575 40.0842 94.7294 38.2995 96.4831 36.1253C96.547 36.0556 96.4193 35.9567 96.3322 36.0207Z" fill="#F99352"/>
<path d="M96.94 63.4231C98.5019 63.5139 100.038 62.995 101.226 61.9755C102.341 61.1384 103.403 60.2315 104.524 59.4002C105.607 58.5279 106.81 57.8171 108.096 57.29C109.581 56.82 111.126 56.5617 112.683 56.5226C114.185 56.3621 115.703 56.5841 117.097 57.1679C118.223 57.7027 119.42 58.8712 118.798 60.2432C118.484 60.8586 118.054 61.4074 117.532 61.8593C117.043 62.3248 116.519 62.7523 115.964 63.1382C114.855 63.9346 113.676 64.6497 112.643 65.5566C111.266 66.7657 110.32 68.4109 109.309 69.9282C108.932 70.5095 106.522 74.3114 105.604 75.6078C104.835 76.7122 103.97 77.747 103.02 78.7005C102.08 79.565 101.089 80.3726 100.053 81.1188C98.9213 81.9253 97.8832 82.8554 96.9574 83.8918C96.9168 83.9441 96.8471 83.8918 96.8761 83.822C98.0376 81.6827 100.163 80.2468 102.103 78.8284C104.582 76.9914 110.087 67.504 111.086 66.2135C112.747 64.0683 115.267 63.0394 117.161 61.1733C117.596 60.7431 118.264 60.1327 118.252 59.4584C118.199 59.1378 118.064 58.8364 117.86 58.583C117.657 58.3296 117.392 58.1326 117.091 58.0108C115.79 57.3191 114.187 57.3656 112.77 57.5051C111.28 57.58 109.804 57.8238 108.369 58.2317C107.117 58.6817 105.933 59.3018 104.849 60.0746C103.607 60.9349 102.416 61.8186 101.11 62.5976C99.8695 63.4137 98.3744 63.7486 96.9052 63.5393C96.8355 63.5219 96.8703 63.4172 96.94 63.4231Z" fill="#F99352"/>
<path d="M117.303 43.7099C116.31 43.2216 115.323 42.6926 114.312 42.2333C114.312 42.2333 114.312 42.1752 114.312 42.1868C115.509 42.6635 116.74 43.0588 117.942 43.5239C118.894 43.8901 119.876 44.425 120.265 45.4249C120.417 45.893 120.444 46.3931 120.342 46.8748C120.24 47.3565 120.013 47.8028 119.684 48.1687C118.946 48.9425 118.051 49.549 117.059 49.9476C117.007 49.9767 116.966 49.8953 117.019 49.8662C118.465 49.0291 120.706 47.3433 119.527 45.419C118.96 44.6525 118.19 44.0604 117.303 43.7099Z" fill="#F99352"/>
<path d="M112.463 53.3544C113.595 53.3893 114.85 53.3544 115.854 52.7731C116.191 52.5873 116.48 52.3238 116.695 52.0043C116.91 51.6848 117.046 51.3186 117.091 50.9361C117.152 50.6583 117.113 50.3681 116.981 50.1164C116.934 50.0582 117.045 50.0059 117.062 50.0757C117.113 50.2267 117.173 50.3743 117.242 50.5175C117.285 50.6458 117.314 50.7783 117.329 50.9128C117.358 51.1799 117.336 51.4501 117.265 51.7092C117.099 52.2735 116.744 52.7637 116.261 53.0986C115.128 53.9125 113.723 53.8369 112.445 53.4591C112.393 53.4358 112.405 53.3544 112.463 53.3544Z" fill="#F99352"/>
<path d="M91.0833 90.2866C88.6095 99.2217 69.8058 146.874 64.5793 153.6C59.3529 160.326 46.6409 161.773 43.0927 149.618C39.5445 137.462 58.0172 79.3634 61.9196 70.2713C64.0973 65.2137 91.9718 87.0486 91.0833 90.2866Z" fill="#FFD3AA"/>
<path d="M95.1942 96.309L58.2953 74.8868C58.2953 74.8868 42.5113 129.085 42.2326 145.798C42.0294 157.791 56.3905 166.755 67.7378 150.542C79.085 134.328 95.1942 96.309 95.1942 96.309Z" fill="#C3E5D9"/>
<path d="M59.422 75.5729C58.8717 76.2394 58.4128 76.9765 58.0574 77.7646C57.6766 78.5717 57.4126 79.4291 57.2734 80.3108C57.8493 79.6305 58.3246 78.8709 58.6845 78.0552C59.0566 77.2675 59.3184 76.4322 59.4627 75.5729H59.422ZM47.5289 127.253C47.1482 128.061 46.8842 128.918 46.745 129.8C47.3209 129.119 47.7962 128.36 48.1561 127.544C48.5398 126.734 48.8058 125.872 48.9459 124.986C48.3715 125.673 47.8946 126.436 47.5289 127.253ZM44.7995 149.536C44.4161 150.343 44.1501 151.2 44.0098 152.082C44.5841 151.4 45.0574 150.638 45.4151 149.821C45.796 149.013 46.0618 148.156 46.2049 147.275C45.6305 147.957 45.1572 148.719 44.7995 149.536ZM67.0643 141.734C66.6809 142.541 66.4149 143.399 66.2745 144.281C67.4161 142.899 68.1751 141.241 68.4755 139.473C67.9004 140.156 67.4252 140.918 67.0643 141.734ZM79.4685 87.1996C79.4685 87.2519 79.4685 87.3101 79.4685 87.3624L79.5672 87.2403L79.4685 87.1996ZM79.1316 113.993C78.7464 114.799 78.4803 115.657 78.3419 116.539C78.9183 115.857 79.3936 115.096 79.753 114.278C80.1391 113.475 80.4052 112.619 80.5428 111.738C79.9682 112.413 79.493 113.166 79.1316 113.976V113.993ZM62.1166 107.924C61.7322 108.724 61.4661 109.576 61.3268 110.453C62.4625 109.067 63.2207 107.411 63.5277 105.645C62.9527 106.328 62.4775 107.09 62.1166 107.907V107.924ZM74.753 101.5C73.947 101.117 73.0905 100.851 72.2095 100.71C72.8872 101.29 73.6464 101.768 74.4627 102.128C75.2699 102.503 76.1263 102.762 77.0062 102.896C76.3259 102.32 75.5672 101.844 74.753 101.483V101.5ZM62.0701 129.056C61.2638 128.674 60.4073 128.41 59.5266 128.271C60.2061 128.847 60.9649 129.323 61.7798 129.683C62.5858 130.067 63.4423 130.333 64.3233 130.474C63.6417 129.899 62.8834 129.421 62.0701 129.056ZM56.5533 95.0011C55.7478 94.6167 54.8911 94.3504 54.0097 94.2105C55.3902 95.3533 57.0463 96.1131 58.8123 96.4137C58.1285 95.8462 57.368 95.3785 56.5533 95.0243V95.0011ZM53.6497 140.746C53.3486 139.905 52.9303 139.11 52.407 138.386C52.5751 140.171 53.2078 141.881 54.242 143.345C54.1754 142.464 53.9858 141.597 53.6787 140.769L53.6497 140.746ZM68.1154 118.592C67.8266 117.743 67.4179 116.94 66.9017 116.208C66.9719 117.097 67.1674 117.972 67.4824 118.807C67.7812 119.649 68.1998 120.444 68.7252 121.167C68.6441 120.284 68.4388 119.417 68.1154 118.592ZM76.9598 128.573C76.1314 128.875 75.3494 129.292 74.6369 129.811C76.4186 129.644 78.1249 129.011 79.5846 127.974C78.6863 128.037 77.802 128.231 76.9598 128.55V128.573ZM52.314 115.609C51.4844 115.911 50.7022 116.33 49.9912 116.853C50.8791 116.78 51.7526 116.585 52.587 116.272C53.4166 115.97 54.1988 115.552 54.9099 115.028C54.0211 115.096 53.1468 115.291 52.314 115.609ZM66.7565 88.5018C65.916 88.8031 65.1222 89.222 64.3988 89.7458C65.2871 89.6756 66.1611 89.4799 66.9946 89.1645C67.8362 88.8654 68.6302 88.4464 69.3523 87.9204C68.4639 87.9901 67.5899 88.1858 66.7565 88.5018ZM88.1502 97.152C87.3216 97.4559 86.5397 97.8747 85.8273 98.3961C86.7138 98.3258 87.5858 98.1301 88.4173 97.8147C89.2595 97.517 90.0537 97.0979 90.7751 96.5707C89.8769 96.6382 88.993 96.834 88.1502 97.152ZM57.1514 153.541C56.3228 153.845 55.5409 154.264 54.8286 154.785C55.715 154.715 56.587 154.519 57.4186 154.204C58.2607 153.906 59.055 153.487 59.7763 152.96C58.8771 153.028 57.9928 153.228 57.1514 153.553V153.541Z" fill="white"/>
<path d="M90.13 102.896C84.5435 99.8901 62.1162 86.7753 57.4646 83.6128C57.1394 83.3919 57.2033 83.1303 57.5691 83.3163C74.5494 91.8968 84.9036 99.4076 90.2578 102.657C90.3914 102.739 90.2926 102.96 90.13 102.896Z" fill="#69BEA0"/>
<path d="M78.3244 131.625C82.221 124.3 85.9666 116.9 89.358 109.313C90.2988 107.19 91.2202 105.058 92.1223 102.919C92.9875 100.861 93.8644 98.7971 94.6426 96.7043C93.8702 96.1637 90.4788 93.943 90.113 93.6C90.0026 93.5012 90.113 93.3093 90.264 93.3558C90.7169 93.5244 94.6542 95.8091 95.4904 96.4311C95.6124 96.5183 93.9341 100.599 93.1676 102.553C92.401 104.506 91.6228 106.447 90.8098 108.366C89.1993 112.191 87.4959 115.972 85.6995 119.708C83.7657 123.742 81.7448 127.718 79.602 131.631C77.7321 135.003 73.2896 141.06 78.3244 131.625Z" fill="#69BEA0"/>
</svg>
