<svg width="34" height="34" viewBox="0 0 34 34" fill="none" xmlns="http://www.w3.org/2000/svg">
<g clip-path="url(#clip0)">
<path d="M11.5005 26.1736C11.6251 25.9628 11.6669 25.7129 11.6177 25.4727C11.5684 25.2326 11.4316 25.0195 11.2341 24.8752C9.66745 23.7773 8.44783 22.2516 7.72003 20.4793C6.99223 18.7069 6.78682 16.7623 7.12818 14.8763C7.46955 12.9903 8.34336 11.2422 9.64587 9.83948C10.9484 8.43677 12.6249 7.43838 14.4763 6.96287L13.1038 9.34712C12.9712 9.57748 12.9352 9.85124 13.0039 10.1082C13.0725 10.3651 13.2401 10.5842 13.4698 10.7172C13.6995 10.8502 13.9724 10.8862 14.2286 10.8174C14.4848 10.7485 14.7032 10.5804 14.8358 10.3501L16.8358 6.87575C17.101 6.41502 17.1729 5.8675 17.0356 5.35363C16.8983 4.83976 16.5631 4.40164 16.1038 4.13564L12.6397 2.12974C12.41 1.99674 12.137 1.9607 11.8809 2.02954C11.6247 2.09839 11.4063 2.26648 11.2737 2.49684C11.141 2.72721 11.1051 3.00097 11.1738 3.2579C11.2424 3.51484 11.41 3.7339 11.6397 3.8669L13.751 5.08949C11.5637 5.69584 9.59311 6.91298 8.06881 8.59916C6.5445 10.2853 5.5292 12.3712 5.14115 14.6137C4.75311 16.8562 5.00829 19.1632 5.87697 21.2659C6.74566 23.3686 8.19209 25.1805 10.0478 26.4906C10.162 26.5717 10.2917 26.628 10.4287 26.656C10.5658 26.684 10.7071 26.683 10.8438 26.6532C10.9804 26.6234 11.1094 26.5653 11.2225 26.4828C11.3355 26.4002 11.4302 26.2949 11.5005 26.1736Z" fill="#676767"/>
<path d="M22.7276 30.7417C22.8602 30.5114 22.8961 30.2376 22.8275 29.9807C22.7589 29.7237 22.5913 29.5047 22.3616 29.3717L20.2502 28.1491C22.4376 27.5427 24.4081 26.3256 25.9324 24.6394C27.4568 22.9532 28.4721 20.8674 28.8601 18.6249C29.2481 16.3823 28.993 14.0754 28.1243 11.9727C27.2556 9.86998 25.8092 8.05807 23.9534 6.74797C23.8393 6.66692 23.7096 6.6106 23.5725 6.58261C23.4355 6.55461 23.2941 6.55555 23.1575 6.58537C23.0208 6.61519 22.8918 6.67323 22.7788 6.7558C22.6657 6.83836 22.571 6.94364 22.5008 7.06493C22.3761 7.27579 22.3343 7.52571 22.3836 7.76583C22.4328 8.00596 22.5696 8.21902 22.7672 8.36338C24.3338 9.46124 25.5534 10.9869 26.2812 12.7593C27.009 14.5317 27.2144 16.4763 26.8731 18.3623C26.5317 20.2483 25.6579 21.9964 24.3554 23.3991C23.0529 24.8018 21.3764 25.8002 19.525 26.2757L20.8975 23.8915C21.0301 23.6611 21.066 23.3873 20.9974 23.1304C20.9287 22.8735 20.7611 22.6544 20.5314 22.5214C20.3018 22.3884 20.0288 22.3524 19.7726 22.4212C19.5164 22.4901 19.298 22.6581 19.1654 22.8885L17.1654 26.3628C16.9002 26.8236 16.8283 27.3711 16.9656 27.8849C17.1029 28.3988 17.4381 28.8369 17.8975 29.1029L21.3616 31.1088C21.5913 31.2418 21.8642 31.2779 22.1204 31.209C22.3766 31.1402 22.595 30.9721 22.7276 30.7417Z" fill="#676767"/>
</g>
<defs>
<clipPath id="clip0">
<rect width="24.0531" height="24.0177" fill="white" transform="matrix(-0.498896 0.866662 -0.865386 -0.501105 33.3926 12.2141)"/>
</clipPath>
</defs>
</svg>
