<svg width="42" height="53" viewBox="0 0 42 53" fill="none" xmlns="http://www.w3.org/2000/svg">
<path fill-rule="evenodd" clip-rule="evenodd" d="M41.1592 16.1226C41.1592 21.026 37.1842 25.001 32.2808 25.001C27.3774 25.001 23.4023 21.026 23.4023 16.1226C23.4023 11.2191 27.3774 7.24414 32.2808 7.24414C37.1842 7.24414 41.1592 11.2191 41.1592 16.1226ZM31.1216 12.0958C31.1216 11.5428 31.5699 11.0945 32.1228 11.0945H32.4375C32.9905 11.0945 33.4387 11.5428 33.4387 12.0958V15.2203H36.563C37.116 15.2203 37.5642 15.6685 37.5642 16.2215V16.5362C37.5642 17.0891 37.116 17.5374 36.563 17.5374H32.1228C31.5698 17.5374 31.1216 17.0891 31.1216 16.5362V16.2215C31.1216 16.2184 31.1216 16.2152 31.1216 16.2121V12.0958Z" fill="#0D8284"/>
<path fill-rule="evenodd" clip-rule="evenodd" d="M22.1855 5.46488C22.1855 6.61424 21.2538 7.54598 20.1044 7.54598C18.9551 7.54598 18.0233 6.61424 18.0233 5.46488C18.0233 4.31553 18.9551 3.38379 20.1044 3.38379C21.2538 3.38379 22.1855 4.31553 22.1855 5.46488ZM24.1058 8.59683C24.7822 7.73381 25.1855 6.64645 25.1855 5.46488C25.1855 2.65867 22.9106 0.383789 20.1044 0.383789C17.2982 0.383789 15.0233 2.65867 15.0233 5.46488C15.0233 6.54931 15.3631 7.55439 15.9419 8.37951C9.28619 9.93398 4.22176 15.627 3.60981 22.5974L1.10339 40.509L0.683594 43.509H3.71282H34.5278H37.5408L37.2611 40.509L35.6535 23.2691C35.6352 22.8696 35.6022 22.474 35.5551 22.0826C34.9148 22.2574 34.2408 22.3507 33.5451 22.3507C33.2103 22.3507 32.8805 22.3291 32.557 22.2872C32.6059 22.6559 32.6393 23.0294 32.6567 23.4071L32.66 23.4775L32.6665 23.5476L34.2481 40.509H4.13262L6.58086 23.0132L6.59156 22.9367L6.59831 22.8598C7.18376 16.1913 12.7871 10.9589 19.6092 10.9589C22.011 10.9589 24.2615 11.6073 26.1951 12.7385C26.4637 11.748 26.9271 10.8377 27.5417 10.0513C26.4676 9.44004 25.3162 8.94912 24.1058 8.59683Z" fill="#0D8284"/>
<path fill-rule="evenodd" clip-rule="evenodd" d="M28.315 43.5088H9.90625C9.94026 48.5632 14.0482 52.6501 19.1106 52.6501C24.1731 52.6501 28.281 48.5632 28.315 43.5088Z" fill="#0D8284"/>
</svg>
