<svg width="22" height="15" viewBox="0 0 22 15" fill="none" xmlns="http://www.w3.org/2000/svg">
<path d="M20.4633 1.19867C20.3778 1.40778 20.3397 1.62639 20.3493 1.85451C20.3683 2.2157 20.5013 2.54838 20.7389 2.83353C20.3968 3.1567 20.2162 3.56541 20.2067 4.01215C20.2067 4.33532 20.3017 4.63948 20.4728 4.90562C19.6364 5.35235 19.1042 6.22681 19.0947 7.27236C19.0852 8.37494 19.6554 9.32544 20.5393 9.77218C20.3683 10.0288 20.2637 10.3235 20.2637 10.6371C20.2542 11.0744 20.4348 11.4926 20.7579 11.8158C20.4823 12.1199 20.3302 12.4811 20.3207 12.8708C20.3112 13.0894 20.3588 13.2985 20.4348 13.4981H12.9358H10.3887H2.24344C2.32898 13.289 2.36699 13.0704 2.35749 12.8423C2.33848 12.4811 2.20542 12.1484 1.96781 11.8633C2.30997 11.5401 2.49055 11.1314 2.50006 10.6847C2.50006 10.3615 2.40501 10.0573 2.23393 9.79119C3.07032 9.34445 3.59306 8.46999 3.60256 7.42444C3.61207 6.32186 3.0418 5.37136 2.1579 4.92463C2.32898 4.66799 2.43353 4.37334 2.43353 4.05967C2.44303 3.62244 2.26245 3.20422 1.9393 2.88105C2.21492 2.57689 2.36699 2.2157 2.3765 1.826C2.39551 1.60738 2.34799 1.39827 2.27195 1.19867H9.77089H12.3181H20.4633ZM21.8699 0.248169H12.3181H9.77089H0.836792V1.00857L1.08391 1.18916C1.56863 1.54085 1.54962 2.08263 1.02688 2.41531L0.836792 2.54838V3.21373L1.15994 3.45135C1.60665 3.79353 1.59714 4.31631 1.12192 4.63948L0.836792 4.83908V5.49493L1.34052 5.6375C3.0323 5.99869 3.16536 8.76465 1.293 9.12584L0.836792 9.2494V9.85772L1.09341 10.0098C1.70169 10.371 1.69218 10.9983 1.0744 11.3405L0.836792 11.4831V12.1769C1.54962 12.5096 1.60665 13.194 0.94134 13.5742L0.836792 13.6312V14.4486H10.3887H12.9358H21.8699V13.6882L21.6228 13.5076C21.1381 13.156 21.1571 12.6142 21.6799 12.2815L21.8795 12.1579V11.4926L21.5563 11.255C21.1001 10.9128 21.1191 10.3995 21.5943 10.0668L21.8795 9.86723V9.20188L21.3662 9.0593C19.6744 8.69811 19.5414 5.93216 21.4137 5.57097L21.8699 5.4474V4.83908L21.6133 4.687C21.0051 4.32581 21.0146 3.69848 21.6323 3.3563L21.8795 3.21373V2.51986C21.1666 2.18719 21.1096 1.50283 21.7749 1.12263L21.8795 1.0656V0.248169H21.8699Z" fill="#0D8284"/>
<path d="M6.55811 5.09809C6.55811 4.55156 6.72661 4.08683 7.0636 3.7039C7.4006 3.32098 7.88904 3.12952 8.52891 3.12952C9.1176 3.12952 9.6039 3.30183 9.98782 3.64646C10.376 3.98761 10.5701 4.49064 10.5701 5.15553C10.5701 5.80302 10.3739 6.30256 9.98142 6.65416C9.59323 7.00227 9.11333 7.17633 8.54171 7.17633C7.97436 7.17633 7.50085 7.00401 7.12119 6.65938C6.7458 6.31475 6.55811 5.79432 6.55811 5.09809ZM8.56091 3.77701C8.2751 3.77701 8.03621 3.87796 7.84425 4.07986C7.65655 4.28177 7.56271 4.65251 7.56271 5.19208C7.56271 5.68292 7.65869 6.0293 7.85065 6.2312C8.04261 6.42963 8.27936 6.52884 8.56091 6.52884C8.85098 6.52884 9.08987 6.42788 9.27756 6.22598C9.46953 6.02407 9.56551 5.65507 9.56551 5.11898C9.56551 4.62466 9.46953 4.27829 9.27756 4.07986C9.0856 3.87796 8.84672 3.77701 8.56091 3.77701ZM8.56731 11.197L13.6991 3.12952H14.6333L9.52072 11.197H8.56731ZM12.6241 9.1188C12.6241 8.56878 12.7926 8.10405 13.1296 7.7246C13.4666 7.34168 13.9572 7.15022 14.6013 7.15022C15.19 7.15022 15.6763 7.32253 16.0602 7.66717C16.4484 8.00832 16.6425 8.51134 16.6425 9.17623C16.6425 9.82372 16.4463 10.3233 16.0538 10.6749C15.6656 11.023 15.1836 11.197 14.6077 11.197C14.0403 11.197 13.5668 11.0247 13.1872 10.6801C12.8118 10.332 12.6241 9.81154 12.6241 9.1188ZM14.6333 7.79771C14.3432 7.79771 14.1022 7.89866 13.9102 8.10057C13.7225 8.30247 13.6287 8.67321 13.6287 9.21279C13.6287 9.70014 13.7247 10.0448 13.9166 10.2467C14.1086 10.4486 14.3454 10.5495 14.6269 10.5495C14.9212 10.5495 15.1623 10.4486 15.35 10.2467C15.5419 10.0448 15.6379 9.67578 15.6379 9.13968C15.6379 8.64536 15.5419 8.29899 15.35 8.10057C15.158 7.89866 14.9191 7.79771 14.6333 7.79771Z" fill="#0D8284"/>
</svg>
