<svg width="170" height="108" viewBox="0 0 170 108" fill="none" xmlns="http://www.w3.org/2000/svg">
<rect width="170" height="108" rx="20" fill="#D2ECED"/>
<rect x="2.5" y="2.5" width="165" height="103" rx="17.5" stroke="#0D8284" stroke-width="5"/>
<rect x="23.793" y="15.4479" width="61.4167" height="59.931" rx="10" fill="#F0F8F5"/>
<mask id="mask0" mask-type="alpha" maskUnits="userSpaceOnUse" x="23" y="15" width="62" height="61">
<path d="M84.9961 15.0961H23.5794V75.0271H84.9961V15.0961Z" fill="#C4C4C4"/>
</mask>
<g mask="url(#mask0)">
<path d="M47.6195 55.6043L49.2594 54.0952L63.3347 57.2362C63.3347 57.2362 63.3375 57.2266 63.3347 57.2362C62.6994 62.0244 62.5353 66.1208 62.6796 66.865C62.6032 70.7695 64.3039 71.3784 62.4334 73.4701C61.3439 74.6878 65.5249 86.0244 61.2109 86.3033C54.6968 86.7244 43.3635 72.4829 43.6437 70.7529C43.9762 68.6999 47.3068 65.7853 47.6195 55.6043Z" fill="#FFB27D"/>
<path d="M63.3633 57.5206C63.3633 57.5206 63.3633 57.5247 63.3605 57.5344C63.3237 57.8699 61.0386 63.26 56.6539 63.6715C53.0417 64.0097 49.5596 62.8417 45.8229 53.2157L63.3633 57.5206Z" fill="#ED975D"/>
<path d="M66.7738 34.8471C65.2033 30.9785 62.1924 26.7081 50.5932 28.8647C38.9939 31.0213 41.8845 38.8593 44.5813 50.6654C46.2325 57.8987 52.6589 62.3348 56.8583 61.7135C68.7674 59.949 68.3444 38.7171 66.7738 34.8471Z" fill="#FFB27D"/>
<path d="M44.0384 43.8381C43.911 43.7952 38.9363 42.7363 39.4032 47.4098C39.8701 52.082 44.7699 50.6779 44.7656 50.5439C44.76 50.4072 44.0384 43.8381 44.0384 43.8381Z" fill="#FFB27D"/>
<path d="M43.068 48.9072C43.0439 48.8948 42.9873 48.9721 42.8472 49.0481C42.71 49.1226 42.4694 49.1861 42.2006 49.1171C41.6572 48.9818 41.135 48.2375 41.0275 47.3966C40.9723 46.9727 41.0261 46.5585 41.1534 46.2091C41.2709 45.8543 41.4831 45.5947 41.7435 45.527C42.001 45.4469 42.2034 45.5795 42.277 45.7051C42.3562 45.8294 42.335 45.9261 42.3619 45.9316C42.3774 45.9426 42.4609 45.8446 42.4015 45.654C42.3718 45.5629 42.3024 45.458 42.1765 45.3779C42.0477 45.2978 41.868 45.266 41.6855 45.3006C41.3048 45.3599 40.9921 45.7217 40.852 46.1042C40.6921 46.4908 40.62 46.9561 40.6822 47.4339C40.8082 48.3728 41.4096 49.2082 42.1482 49.3408C42.5062 49.396 42.7892 49.2704 42.9293 49.1475C43.0708 49.0204 43.0864 48.9141 43.068 48.9072Z" fill="#EB996E"/>
<path d="M71.8385 29.1021C72.4652 35.6312 63.9023 38.3567 60.1444 34.7062C58.4069 33.0176 56.8902 30.908 54.5245 30.1472C52.9313 29.635 51.1344 29.9098 49.636 30.6305C49.6205 30.6374 49.6063 30.6457 49.5907 30.6526C47.3821 31.7309 46.0776 34.1332 45.7352 36.4486C45.2584 39.6766 45.8087 42.5235 44.916 45.4878C44.7872 45.913 44.6358 46.3714 44.2538 46.6296C43.6044 47.0687 42.6677 46.6834 42.1329 46.1243C41.2769 45.2296 40.9741 43.9912 40.7873 42.8024C40.3614 40.0922 40.3827 37.2963 41.1099 34.6441C41.8372 31.9904 43.2987 29.4831 45.4692 27.6538C48.1815 25.366 51.914 24.2477 55.5559 24.4064C59.1978 24.5652 62.728 25.9542 65.5677 28.1011C66.8849 29.0965 68.0904 30.2894 68.7398 31.7557" fill="#4C322C"/>
<path d="M67.1453 79.5288H64.8705C64.8705 79.5288 61.1878 79.163 61.1835 79.5288C61.1793 79.8947 54.3022 79.5288 51.5106 79.5288H41.7051H37.1533H31.5699H27.6586L41.7053 70.1957L45.3858 66.4385L56.8943 79.6544L61.1835 71.1902L62.6785 66.8668L67.1453 70.5739L82.2188 79.5288H77.2336H72.6473H70.0551H67.1453Z" fill="#69BEA0"/>
<path d="M59.0203 78.1026C58.9566 78.1454 60.0942 78.2931 60.7549 79.1657C61.0903 79.5909 61.2643 80.1363 61.2827 80.7866C61.3379 81.4286 61.26 82.2004 61.8543 82.9943L62.1429 83.3795L62.4457 82.9957C63.2508 81.9753 63.8026 80.8087 64.3403 79.5813C65.3632 77.1693 66.0155 74.9616 66.4513 73.3614C66.88 71.7598 67.054 70.763 66.9592 70.7547C66.8616 70.7464 66.5135 71.7281 65.9589 73.3144C65.3986 74.8994 64.6685 77.0961 63.6526 79.4915C63.122 80.7079 62.5858 81.8732 61.8543 82.8493L62.4457 82.8507C61.8982 82.1673 61.9137 81.4231 61.8218 80.7714C61.7623 80.1142 61.5218 79.5122 61.1087 79.0746C60.7082 78.63 60.1522 78.3497 59.7235 78.2255C59.2948 78.0971 59.0259 78.0888 59.0203 78.1026Z" fill="#0D8284"/>
<path d="M43.4026 70.7558C43.3799 70.7752 43.5554 71.0292 43.8893 71.4724C44.2232 71.9156 44.7184 72.5479 45.3367 73.3239C46.4205 74.9213 47.7052 76.9812 49.4441 79.4623C50.7727 81.3566 51.5226 82.7427 52.4522 83.8542L52.6899 84.1386L52.7776 83.7769C53.2134 81.9848 53.5685 80.4674 53.8062 79.4043C53.9025 78.8714 54.1939 78.5649 54.4741 78.5593C54.7443 78.5345 54.8448 78.6946 54.8603 78.6739C54.8802 78.6808 54.8052 78.4558 54.4698 78.4378C54.3142 78.4337 54.1076 78.4875 53.9407 78.6601C53.7751 78.8272 53.6676 79.0757 53.5898 79.3422C53.287 80.397 52.8823 81.8936 52.4126 83.6788L52.738 83.6029C51.8183 82.4818 50.7586 80.5848 49.7625 79.182C48.8089 77.84 46.8549 74.6258 45.5617 73.125C44.9151 72.374 44.3859 71.772 44.0124 71.3619C43.6417 70.9533 43.4252 70.7365 43.4026 70.7558Z" fill="#0D8284"/>
<path d="M65.462 39.8563C65.0417 38.4824 62.1593 37.3984 60.2603 38.2021C59.6986 38.4396 59.9462 38.8856 60.5717 38.8759C61.8254 38.858 63.6324 38.5984 64.971 40.1407C65.1592 40.3589 65.5865 40.2705 65.462 39.8563Z" fill="#4C322C"/>
<path d="M47.0855 39.9168C47.4167 38.5195 50.2241 37.2616 52.1712 37.945C52.7471 38.148 52.5221 38.5512 51.9037 38.6368C50.558 38.8232 48.7921 38.5995 47.595 40.1695C47.4195 40.4001 46.9865 40.338 47.0855 39.9168Z" fill="#4C322C"/>
<path d="M55.2165 50.5938C57.3983 51.0812 57.9826 49.8027 57.926 49.1151C57.8623 48.3475 57.3756 47.5909 56.8988 46.9323C55.9862 45.6745 56.514 43.7195 56.514 43.7195" stroke="#664640" stroke-width="1.07328" stroke-miterlimit="10" stroke-linecap="round" stroke-linejoin="round"/>
<path d="M52.7372 53.8796C53.5678 55.1029 55.1326 55.941 56.6225 55.814C59.4509 55.571 60.4102 53.9017 60.4102 53.9017" stroke="#664640" stroke-width="1.07328" stroke-miterlimit="10" stroke-linecap="round" stroke-linejoin="round"/>
<path d="M61.4452 43.8316C60.7804 43.6818 60.3953 42.9104 60.585 42.1086C60.7747 41.3069 61.4675 40.7783 62.1322 40.9281C62.797 41.0779 63.1821 41.8493 62.9924 42.6511C62.8027 43.4529 62.11 43.9814 61.4452 43.8316Z" fill="#4C322C"/>
<path d="M50.0307 42.3869C50.0249 41.5641 50.5733 40.8933 51.2556 40.8888C51.9378 40.8843 52.4956 41.5476 52.5013 42.3705C52.5071 43.1933 51.9586 43.864 51.2764 43.8686C50.5942 43.8731 50.0364 43.2097 50.0307 42.3869Z" fill="#4C322C"/>
</g>
<rect x="24" y="84" width="122" height="4" rx="2" fill="#0D8284"/>
<rect x="95" y="52" width="51" height="4" rx="2" fill="#0D8284"/>
<rect x="95" y="68" width="51" height="4" rx="2" fill="#0D8284"/>
<rect x="95" y="36" width="51" height="4" rx="2" fill="#0D8284"/>
<rect x="95" y="20" width="51" height="4" rx="2" fill="#0D8284"/>
</svg>
