<svg width="109" height="89" viewBox="0 0 109 89" fill="none" xmlns="http://www.w3.org/2000/svg">
<path d="M81.1348 81.6935V86.2466C81.1348 86.6099 81.0282 86.9457 80.8472 87.2263C80.6562 87.522 80.3827 87.7526 80.0609 87.8829C79.9624 87.923 79.8598 87.953 79.7533 87.9731C79.6567 87.9906 79.5582 88.0006 79.4576 88.0006H10.1592C9.2664 88.0006 8.5304 87.2589 8.48415 86.3368C8.48415 86.3067 8.48214 86.2766 8.48214 86.2466V81.6935C8.48214 81.6635 8.48214 81.6334 8.48415 81.6033C8.5304 80.6811 9.2664 79.9395 10.1592 79.9395H79.4576C79.5582 79.9395 79.6567 79.9495 79.7533 79.967C79.8598 79.9871 79.9624 80.0171 80.0609 80.0572C80.3827 80.1875 80.6562 80.4181 80.8472 80.7137C81.0282 80.9944 81.1348 81.3302 81.1348 81.6935Z" fill="#FFEB4D"/>
<path d="M47.1035 88.0006H9.97789C9.18156 88.0006 8.52398 87.2589 8.48376 86.3368C8.48376 86.3067 8.48175 86.2766 8.48175 86.2466V81.6935C8.48175 81.6635 8.48175 81.6334 8.48376 81.6033C8.52398 80.6811 9.18156 79.9395 9.97789 79.9395H42.5447C43.0656 82.3125 44.2782 85.595 47.1035 88.0006Z" fill="#EAB726"/>
<path d="M72.7024 87.9988H71.9141V79.9376H72.7024V87.9988Z" fill="#EAB726"/>
<path d="M70.0382 87.9988H69.25V79.9376H70.0382V87.9988Z" fill="#EAB726"/>
<path d="M66.839 87.9988H66.0508V79.9376H66.839V87.9988Z" fill="#EAB726"/>
<path d="M61.9387 87.9988H61.1504V79.9376H61.9387V87.9988Z" fill="#EAB726"/>
<path d="M56.757 87.9988H55.9688V79.9376H56.757V87.9988Z" fill="#EAB726"/>
<path d="M48.8137 87.9988H48.0254V79.9376H48.8137V87.9988Z" fill="#EAB726"/>
<path d="M41.3742 87.9988H40.5859V79.9376H41.3742V87.9988Z" fill="#EAB726"/>
<path d="M34.7316 87.9988H33.9434V79.9376H34.7316V87.9988Z" fill="#EAB726"/>
<path d="M75.2414 87.9988H74.4531V79.9376H75.2414V87.9988Z" fill="#EAB726"/>
<path d="M76.9172 87.9988H76.1289V79.9376H76.9172V87.9988Z" fill="#EAB726"/>
<path d="M78.5363 87.9988H77.748V79.9376H78.5363V87.9988Z" fill="#EAB726"/>
<path d="M79.7539 79.968V87.9741C79.6574 87.9916 79.5588 88.0016 79.4583 88.0016H78.9657V79.9404H79.4583C79.5588 79.9404 79.6574 79.9504 79.7539 79.968Z" fill="#EAB726"/>
<path d="M80.8477 80.7134V87.2261C80.6566 87.5218 80.3831 87.7523 80.0614 87.8826V80.0569C80.3811 80.1872 80.6566 80.4177 80.8477 80.7134Z" fill="#EAB726"/>
<path d="M73.7246 73.6313V78.1844C73.7246 78.5478 73.618 78.8835 73.437 79.1642C73.246 79.4599 72.9725 79.6904 72.6508 79.8207C72.5522 79.8608 72.4497 79.8909 72.3431 79.9109C72.2466 79.9284 72.148 79.9385 72.0475 79.9385H2.74908C1.85624 79.9385 1.12025 79.1968 1.074 78.2746C1.074 78.2445 1.07198 78.2145 1.07198 78.1844V73.6313C1.07198 73.6012 1.07198 73.5711 1.074 73.5411C1.12025 72.6164 1.85624 71.8772 2.74908 71.8772H72.0475C72.0917 71.8772 72.136 71.8797 72.1802 71.8822C72.1983 71.8822 72.2184 71.8847 72.2365 71.8872C72.2566 71.8897 72.2787 71.8922 72.2988 71.8972C72.3129 71.8997 72.329 71.9023 72.3431 71.9048C72.4497 71.9248 72.5522 71.9549 72.6508 71.995C72.6648 72 72.6789 72.0075 72.695 72.0125C72.7091 72.0175 72.7232 72.025 72.7372 72.0326C72.7654 72.0451 72.7935 72.0601 72.8217 72.0752C72.8378 72.0827 72.8539 72.0927 72.87 72.1027C72.884 72.1128 72.8981 72.1203 72.9122 72.1278C72.9383 72.1453 72.9645 72.1629 72.9906 72.1804C73.0208 72.2004 73.0489 72.223 73.0771 72.2481C73.0992 72.2656 73.1213 72.2831 73.1414 72.3032C73.1434 72.3032 73.1435 72.3057 73.1455 72.3082C73.1595 72.3207 73.1736 72.3333 73.1877 72.3483C73.2299 72.3884 73.2701 72.4335 73.3083 72.4786C73.3204 72.4911 73.3325 72.5061 73.3425 72.5187C73.3526 72.5312 73.3646 72.5463 73.3747 72.5613C73.3968 72.5914 73.4169 72.6214 73.437 72.6515C73.62 72.9321 73.7246 73.2679 73.7246 73.6313Z" fill="#FFEB4D"/>
<path d="M39.6953 79.9385H2.56968C1.77134 79.9385 1.1158 79.1968 1.07558 78.2746C1.07558 78.2445 1.07357 78.2145 1.07357 78.1844V73.6313C1.07357 73.6012 1.07357 73.5711 1.07558 73.5411C1.1158 72.6164 1.77335 71.8772 2.56968 71.8772H35.1346C35.1486 71.9423 35.1647 72.01 35.1808 72.0752C35.7238 74.4307 36.9444 77.598 39.6953 79.9385Z" fill="#EAB726"/>
<path d="M65.2921 79.9365H64.5039V71.8753H65.2921V79.9365Z" fill="#EAB726"/>
<path d="M62.6262 79.9365H61.8379V71.8753H62.6262V79.9365Z" fill="#EAB726"/>
<path d="M59.4307 79.9365H58.6426V71.8753H59.4307V79.9365Z" fill="#EAB726"/>
<path d="M54.5305 79.9365H53.7422V71.8753H54.5305V79.9365Z" fill="#EAB726"/>
<path d="M49.3488 79.9365H48.5605V71.8753H49.3488V79.9365Z" fill="#EAB726"/>
<path d="M41.4015 79.9365H40.6133V71.8753H41.4015V79.9365Z" fill="#EAB726"/>
<path d="M33.964 79.9365H33.1758V71.8753H33.964V79.9365Z" fill="#EAB726"/>
<path d="M27.3215 79.9365H26.5332V71.8753H27.3215V79.9365Z" fill="#EAB726"/>
<path d="M67.8312 79.9365H67.043V71.8753H67.8312V79.9365Z" fill="#EAB726"/>
<path d="M69.509 79.9365H68.7207V71.8753H69.509V79.9365Z" fill="#EAB726"/>
<path d="M71.1281 79.9365H70.3398V71.8753H71.1281V79.9365Z" fill="#EAB726"/>
<path d="M72.3438 71.9057V79.9119C72.2472 79.9295 72.1487 79.9395 72.0481 79.9395H71.5555V71.8782H72.0481C72.1487 71.8782 72.2472 71.8857 72.3438 71.9057Z" fill="#EAB726"/>
<path d="M73.4375 72.6531V79.1657C73.2465 79.4614 72.973 79.6919 72.6512 79.8222V71.9966C72.973 72.1269 73.2465 72.3574 73.4375 72.6531Z" fill="#EAB726"/>
<path d="M77.3066 65.7679V70.321C77.3066 70.6844 77.2001 71.0201 77.0191 71.3008C76.828 71.5965 76.5546 71.827 76.2328 71.9573C76.1343 71.9974 76.0317 72.0275 75.9251 72.0475C75.8286 72.0651 75.7301 72.0751 75.6295 72.0751H6.33118C6.05367 72.0751 5.79022 72.0024 5.55897 71.8771C5.06831 71.609 4.71841 71.0928 4.6621 70.4914C4.6601 70.4664 4.65808 70.4388 4.65607 70.4138C4.65607 70.3837 4.65405 70.3536 4.65405 70.3235V65.7704C4.65405 65.7404 4.65405 65.7103 4.65607 65.6802C4.70232 64.7581 5.43833 64.0164 6.33118 64.0164H75.6295C75.7301 64.0164 75.8286 64.0264 75.9251 64.0439C76.0317 64.064 76.1343 64.094 76.2328 64.1341C76.5546 64.2644 76.828 64.495 77.0191 64.7907C77.2001 65.0688 77.3066 65.4046 77.3066 65.7679Z" fill="#FFEB4D"/>
<path d="M43.2754 72.0751H6.14977C5.90041 72.0751 5.66713 72.0024 5.46001 71.8771C5.02163 71.609 4.70994 71.0928 4.65966 70.4914C4.65765 70.4664 4.65564 70.4388 4.65363 70.4138C4.65363 70.3837 4.65161 70.3536 4.65161 70.3235V65.7704C4.65161 65.7404 4.65162 65.7103 4.65363 65.6802C4.69384 64.7581 5.35143 64.0164 6.14775 64.0164H38.7146C39.2214 66.3242 40.3817 69.4941 43.0461 71.8797C43.1226 71.9423 43.199 72.01 43.2754 72.0751Z" fill="#EAB726"/>
<path d="M68.8762 72.0737H68.0879V64.0125H68.8762V72.0737Z" fill="#EAB726"/>
<path d="M66.2102 72.0737H65.4219V64.0125H66.2102V72.0737Z" fill="#EAB726"/>
<path d="M63.011 72.0737H62.2227V64.0125H63.011V72.0737Z" fill="#EAB726"/>
<path d="M58.1106 72.0737H57.3223V64.0125H58.1106V72.0737Z" fill="#EAB726"/>
<path d="M52.9289 72.0737H52.1406V64.0125H52.9289V72.0737Z" fill="#EAB726"/>
<path d="M44.9856 72.0737H44.1973V64.0125H44.9856V72.0737Z" fill="#EAB726"/>
<path d="M37.546 72.0737H36.7578V64.0125H37.546V72.0737Z" fill="#EAB726"/>
<path d="M30.9055 72.0737H30.1172V64.0125H30.9055V72.0737Z" fill="#EAB726"/>
<path d="M71.4133 72.0737H70.625V64.0125H71.4133V72.0737Z" fill="#EAB726"/>
<path d="M74.7082 72.0737H73.9199V64.0125H74.7082V72.0737Z" fill="#EAB726"/>
<path d="M75.9258 64.0429V72.049C75.8293 72.0666 75.7307 72.0766 75.6302 72.0766H75.1375V64.0154H75.6302C75.7307 64.0154 75.8293 64.0254 75.9258 64.0429Z" fill="#EAB726"/>
<path d="M77.0195 64.7903V71.3029C76.8285 71.5986 76.555 71.8291 76.2333 71.9594V64.1338C76.553 64.2641 76.8285 64.4946 77.0195 64.7903Z" fill="#EAB726"/>
<path d="M78.9648 57.7062V62.2593C78.9648 62.6226 78.8583 62.9584 78.6773 63.2391C78.4862 63.5347 78.2128 63.7653 77.891 63.8956C77.7925 63.9357 77.6899 63.9657 77.5833 63.9858C77.4868 64.0033 77.3883 64.0134 77.2877 64.0134H7.98938C7.09653 64.0134 6.36052 63.2716 6.31427 62.3495C6.31427 62.3194 6.31226 62.2894 6.31226 62.2593V57.7062C6.31226 57.6761 6.31226 57.6461 6.31427 57.616C6.3565 56.7615 6.98996 56.0649 7.79031 55.9647C7.85465 55.9572 7.92101 55.9521 7.98938 55.9521H77.2877C77.3883 55.9521 77.4868 55.9622 77.5833 55.9797C77.6899 55.9998 77.7925 56.0299 77.891 56.0699C78.2128 56.2002 78.4862 56.4308 78.6773 56.7265C78.8583 57.0071 78.9648 57.3429 78.9648 57.7062Z" fill="#FFEB4D"/>
<path d="M44.9355 64.0134H7.80991C7.01358 64.0134 6.356 63.2716 6.31578 62.3495C6.31578 62.3194 6.31377 62.2894 6.31377 62.2593V57.7062C6.31377 57.6761 6.31377 57.6461 6.31578 57.616C6.35198 56.7615 6.91907 56.0649 7.63294 55.9647C7.69126 55.9572 7.74958 55.9521 7.80991 55.9521H40.3768C40.3768 55.9572 40.3788 55.9622 40.3788 55.9647C40.9016 58.3352 42.1122 61.6103 44.9355 64.0134Z" fill="#EAB726"/>
<path d="M70.5324 64.0115H69.7441V55.9502H70.5324V64.0115Z" fill="#EAB726"/>
<path d="M67.8684 64.0115H67.0801V55.9502H67.8684V64.0115Z" fill="#EAB726"/>
<path d="M64.6711 64.0115H63.8828V55.9502H64.6711V64.0115Z" fill="#EAB726"/>
<path d="M59.7708 64.0115H58.9824V55.9502H59.7708V64.0115Z" fill="#EAB726"/>
<path d="M54.5891 64.0115H53.8008V55.9502H54.5891V64.0115Z" fill="#EAB726"/>
<path d="M46.6437 64.0115H45.8555V55.9502H46.6437V64.0115Z" fill="#EAB726"/>
<path d="M39.2043 64.0115H38.416V55.9502H39.2043V64.0115Z" fill="#EAB726"/>
<path d="M32.5637 64.0115H31.7754V55.9502H32.5637V64.0115Z" fill="#EAB726"/>
<path d="M74.7493 64.0115H73.9609V55.9502H74.7493V64.0115Z" fill="#EAB726"/>
<path d="M77.584 55.9811V63.9872C77.4875 64.0048 77.3889 64.0148 77.2884 64.0148H76.7957V55.9535H77.2884C77.3909 55.951 77.4875 55.961 77.584 55.9811Z" fill="#EAB726"/>
<path d="M78.6777 56.7281V63.2408C78.4867 63.5365 78.2132 63.767 77.8915 63.8973V56.0715C78.2132 56.2018 78.4867 56.4324 78.6777 56.7281Z" fill="#EAB726"/>
<path d="M73.8691 49.6576V54.2108C73.8691 54.5741 73.7626 54.9099 73.5816 55.1905C73.3905 55.4862 73.117 55.7168 72.7953 55.8471C72.6968 55.8872 72.5942 55.9172 72.4876 55.9373C72.4555 55.9423 72.4233 55.9498 72.3911 55.9523C72.373 55.9548 72.3549 55.9573 72.3368 55.9573C72.3187 55.9598 72.3006 55.9598 72.2825 55.9623C72.2524 55.9648 72.2222 55.9648 72.194 55.9648H2.89566C2.00282 55.9648 1.26682 55.2231 1.22057 54.301C1.21857 54.2709 1.21856 54.2408 1.21856 54.2108V49.6576C1.21856 49.6276 1.21857 49.5975 1.22057 49.5674C1.22057 49.5424 1.22259 49.5173 1.2246 49.4948C1.29096 48.753 1.80576 48.1391 2.48142 47.9587C2.49751 47.9537 2.51561 47.9487 2.5317 47.9462C2.64833 47.9186 2.76897 47.9036 2.89365 47.9036H72.194C72.2443 47.9036 72.2946 47.9061 72.3448 47.9111C72.367 47.9136 72.3891 47.9161 72.4112 47.9186C72.4374 47.9236 72.4635 47.9286 72.4897 47.9311C72.5962 47.9512 72.6988 47.9812 72.7973 48.0213C73.1191 48.1516 73.3925 48.3822 73.5836 48.6779C73.7646 48.9585 73.8691 49.2943 73.8691 49.6576Z" fill="#FFEB4D"/>
<path d="M39.8418 55.9662H2.71613C1.9198 55.9662 1.26225 55.2245 1.22203 54.3023C1.22002 54.2723 1.22002 54.2422 1.22002 54.2121V49.659C1.22002 49.629 1.22002 49.5989 1.22203 49.5688C1.22203 49.5438 1.22404 49.5187 1.22606 49.4962C1.28638 48.7369 1.76499 48.113 2.38636 47.9501C2.40848 47.9426 2.42858 47.9375 2.4507 47.935C2.53717 47.9175 2.62564 47.9075 2.71613 47.9075H35.283C35.287 47.9275 35.2911 47.9451 35.2951 47.9651C35.8199 50.3306 37.0325 53.5706 39.8257 55.9562C39.8317 55.9562 39.8378 55.9612 39.8418 55.9662Z" fill="#EAB726"/>
<path d="M65.4387 55.9629H64.6504V47.9015H65.4387V55.9629Z" fill="#EAB726"/>
<path d="M62.7746 55.9629H61.9863V47.9015H62.7746V55.9629Z" fill="#EAB726"/>
<path d="M59.5754 55.9629H58.7871V47.9015H59.5754V55.9629Z" fill="#EAB726"/>
<path d="M54.675 55.9629H53.8867V47.9015H54.675V55.9629Z" fill="#EAB726"/>
<path d="M49.4914 55.9629H48.7031V47.9015H49.4914V55.9629Z" fill="#EAB726"/>
<path d="M41.5481 55.9629H40.7598V47.9015H41.5481V55.9629Z" fill="#EAB726"/>
<path d="M34.1106 55.9629H33.3223V47.9015H34.1106V55.9629Z" fill="#EAB726"/>
<path d="M27.4699 55.9629H26.6816V47.9015H27.4699V55.9629Z" fill="#EAB726"/>
<path d="M69.6535 55.9629H68.8652V47.9015H69.6535V55.9629Z" fill="#EAB726"/>
<path d="M72.4902 47.9303V55.9364C72.3937 55.954 72.2952 55.964 72.1946 55.964H71.702V47.9027H72.1946C72.2952 47.9002 72.3937 47.9102 72.4902 47.9303Z" fill="#EAB726"/>
<path d="M73.9844 41.6062V46.4489C73.9844 46.8354 73.8774 47.1926 73.6958 47.4911C73.504 47.8056 73.2296 48.0508 72.9067 48.1894C72.83 48.224 72.7493 48.2507 72.6665 48.2694H72.6645C72.6423 48.2747 72.6201 48.28 72.5979 48.2853C72.501 48.304 72.4021 48.3146 72.3012 48.3146H2.75447C2.68182 48.3146 2.60715 48.3093 2.53652 48.2987C2.50827 48.296 2.48001 48.2907 2.45377 48.2853C1.69698 48.1334 1.11374 47.4165 1.07338 46.5449C1.07338 46.5129 1.07136 46.4809 1.07136 46.4489V41.6062C1.07136 41.5742 1.07136 41.5422 1.07338 41.5102C1.1198 40.5294 1.85842 39.7405 2.75447 39.7405H72.3012C72.3456 39.7405 72.39 39.7431 72.4344 39.7458C72.4526 39.7485 72.4728 39.7512 72.491 39.7512C72.5111 39.7538 72.5333 39.7565 72.5535 39.7591C72.5676 39.7618 72.5838 39.7645 72.5979 39.7671C72.7049 39.7884 72.8078 39.8204 72.9067 39.8631C72.9208 39.8684 72.9349 39.8764 72.9511 39.8817C72.9652 39.8871 72.9793 39.8951 72.9935 39.9031C73.0217 39.9164 73.05 39.9324 73.0782 39.9484C73.1085 39.967 73.1388 39.9857 73.169 40.007C73.1953 40.0257 73.2215 40.0416 73.2478 40.063C73.278 40.0843 73.3063 40.1083 73.3345 40.1349C73.3567 40.1536 73.3789 40.1722 73.3991 40.1936C73.4011 40.1936 73.4011 40.1962 73.4032 40.1989C73.4173 40.2122 73.4314 40.2256 73.4455 40.2416C73.4879 40.2842 73.5283 40.3322 73.5666 40.3802C73.5787 40.3935 73.5908 40.4094 73.6009 40.4228C73.611 40.4388 73.6231 40.4521 73.6332 40.4681C73.6554 40.5001 73.6756 40.5321 73.6958 40.564C73.8794 40.8625 73.9844 41.2224 73.9844 41.6062Z" fill="#FFEB4D"/>
<path d="M39.6738 48.3146H2.57006C2.53992 48.3146 2.5118 48.3147 2.48165 48.312C2.44949 48.3093 2.41734 48.3067 2.38519 48.3013C1.67173 48.1921 1.11101 47.4511 1.07484 46.5449C1.07484 46.5129 1.07282 46.4809 1.07282 46.4489V41.6062C1.07282 41.5742 1.07283 41.5422 1.07484 41.5102C1.11503 40.5294 1.7722 39.7405 2.56806 39.7405H35.1137C35.1278 39.8098 35.1439 39.8817 35.16 39.951C35.6986 42.4351 36.9044 45.7693 39.6055 48.2533C39.6296 48.2747 39.6517 48.296 39.6738 48.3146Z" fill="#EAB726"/>
<path d="M65.8536 48.3154H65.0117V39.9001H65.8536V48.3154Z" fill="#EAB726"/>
<path d="M63.0079 48.3154H62.166V39.9001H63.0079V48.3154Z" fill="#EAB726"/>
<path d="M59.5938 48.3154H58.752V39.9001H59.5938V48.3154Z" fill="#EAB726"/>
<path d="M54.3594 48.3154H53.5176V39.9001H54.3594V48.3154Z" fill="#EAB726"/>
<path d="M48.8243 48.3154H47.9824V39.9001H48.8243V48.3154Z" fill="#EAB726"/>
<path d="M40.3399 48.3154H39.498V39.9001H40.3399V48.3154Z" fill="#EAB726"/>
<path d="M33.964 47.7781H33.1758V39.8986H33.964V47.7781Z" fill="#EAB726"/>
<path d="M27.3215 47.7781H26.5332V39.8986H27.3215V47.7781Z" fill="#EAB726"/>
<path d="M70.3576 48.3154H69.5156V39.9001H70.3576V48.3154Z" fill="#EAB726"/>
<path d="M73.3848 39.9288V48.2866C73.2817 48.3049 73.1765 48.3154 73.0691 48.3154H72.5429V39.9001H73.0691C73.1765 39.8974 73.2817 39.9079 73.3848 39.9288Z" fill="#EAB726"/>
<path d="M77.3066 33.7919V38.345C77.3066 38.7084 77.2001 39.0442 77.0191 39.3248C76.828 39.6205 76.5546 39.851 76.2328 39.9813C76.1343 40.0214 76.0317 40.0515 75.9251 40.0716C75.8286 40.0891 75.7301 40.0991 75.6295 40.0991H6.33118C6.05367 40.0991 5.79022 40.0265 5.55897 39.9012C5.06831 39.633 4.71841 39.1168 4.6621 38.5129C4.6601 38.4879 4.65808 38.4603 4.65607 38.4353C4.65607 38.4052 4.65405 38.3751 4.65405 38.345V33.7919C4.65405 33.7619 4.65405 33.7318 4.65607 33.7017C4.70232 32.7796 5.43833 32.0378 6.33118 32.0378H75.6295C75.7301 32.0378 75.8286 32.0479 75.9251 32.0654C76.0317 32.0854 76.1343 32.1155 76.2328 32.1556C76.5546 32.2859 76.828 32.5164 77.0191 32.8121C77.2001 33.0903 77.3066 33.4286 77.3066 33.7919Z" fill="#FFEB4D"/>
<path d="M43.4258 40.2781H5.80671C5.55405 40.2781 5.31767 40.2008 5.10779 40.0675C4.66358 39.7823 4.34775 39.2333 4.29681 38.5909C4.29477 38.5643 4.29273 38.535 4.29069 38.5083C4.29069 38.4763 4.28865 38.4443 4.28865 38.4124V33.5696C4.28865 33.5376 4.28865 33.5056 4.29069 33.4736C4.33144 32.4928 4.99776 31.7039 5.80468 31.7039H38.8044C39.3179 34.1586 40.4936 37.5302 43.1935 40.0675C43.2709 40.1368 43.3484 40.2061 43.4258 40.2781Z" fill="#EAB726"/>
<path d="M68.8742 40.0972H68.0859V32.036H68.8742V40.0972Z" fill="#EAB726"/>
<path d="M66.2082 40.0972H65.4199V32.036H66.2082V40.0972Z" fill="#EAB726"/>
<path d="M63.009 40.0972H62.2207V32.036H63.009V40.0972Z" fill="#EAB726"/>
<path d="M58.1085 40.0972H57.3203V32.036H58.1085V40.0972Z" fill="#EAB726"/>
<path d="M52.9269 40.0972H52.1387V32.036H52.9269V40.0972Z" fill="#EAB726"/>
<path d="M44.9837 40.0972H44.1953V32.036H44.9837V40.0972Z" fill="#EAB726"/>
<path d="M37.5441 40.0972H36.7559V32.036H37.5441V40.0972Z" fill="#EAB726"/>
<path d="M30.9036 40.0972H30.1152V32.036H30.9036V40.0972Z" fill="#EAB726"/>
<path d="M73.0871 40.0972H72.2988V32.036H73.0871V40.0972Z" fill="#EAB726"/>
<path d="M75.9238 32.0658V40.0718C75.8273 40.0894 75.7288 40.0994 75.6282 40.0994H75.1356V32.0382H75.6282C75.7288 32.0357 75.8273 32.0457 75.9238 32.0658Z" fill="#EAB726"/>
<path d="M81.9434 25.9052V30.3297C81.9434 30.6828 81.8398 31.0091 81.6639 31.2818C81.4783 31.5692 81.2125 31.7932 80.8998 31.9198C80.8041 31.9588 80.7044 31.988 80.6009 32.0075C80.5071 32.0245 80.4113 32.0342 80.3136 32.0342H12.9721C12.1045 32.0342 11.3893 31.3135 11.3444 30.4174C11.3444 30.3881 11.3424 30.3589 11.3424 30.3297V25.9052C11.3424 25.876 11.3424 25.8468 11.3444 25.8176C11.3854 24.9872 11.999 24.3103 12.7787 24.2129C12.8412 24.2056 12.9057 24.2007 12.9721 24.2007H80.3136C80.4113 24.2007 80.5071 24.2104 80.6009 24.2275C80.7044 24.2469 80.8041 24.2762 80.8998 24.3151C81.2125 24.4417 81.4783 24.6658 81.6639 24.9531C81.8398 25.2259 81.9434 25.5546 81.9434 25.9052Z" fill="#FFEB4D"/>
<path d="M48.8086 32.2619H11.6829C10.8866 32.2619 10.2291 31.5202 10.1888 30.598C10.1888 30.568 10.1868 30.5379 10.1868 30.5078V25.9548C10.1868 25.9247 10.1868 25.8946 10.1888 25.8645C10.225 25.0101 10.7921 24.3135 11.506 24.2132C11.5643 24.2057 11.6226 24.2007 11.6829 24.2007H44.2498C44.2498 24.2057 44.2518 24.2082 44.2518 24.2132C44.7727 26.5862 45.9853 29.8613 48.8086 32.2619Z" fill="#EAB726"/>
<path d="M74.5362 32.0369H73.748V23.9756H74.5362V32.0369Z" fill="#EAB726"/>
<path d="M71.8703 32.0369H71.082V23.9756H71.8703V32.0369Z" fill="#EAB726"/>
<path d="M68.673 32.0369H67.8848V23.9756H68.673V32.0369Z" fill="#EAB726"/>
<path d="M63.7727 32.0369H62.9844V23.9756H63.7727V32.0369Z" fill="#EAB726"/>
<path d="M58.591 32.0369H57.8027V23.9756H58.591V32.0369Z" fill="#EAB726"/>
<path d="M50.6476 32.0369H49.8594V23.9756H50.6476V32.0369Z" fill="#EAB726"/>
<path d="M43.2101 32.0369H42.4219V23.9756H43.2101V32.0369Z" fill="#EAB726"/>
<path d="M36.5676 32.0369H35.7793V23.9756H36.5676V32.0369Z" fill="#EAB726"/>
<path d="M78.7512 32.0369H77.9629V23.9756H78.7512V32.0369Z" fill="#EAB726"/>
<path d="M81.5879 24.0012V32.0073C81.4914 32.0249 81.3928 32.0349 81.2923 32.0349H80.7996V23.9736H81.2923C81.3928 23.9736 81.4914 23.9837 81.5879 24.0012Z" fill="#EAB726"/>
<path d="M74.8379 17.7259V22.4006C74.8379 22.7736 74.7285 23.1184 74.5426 23.4065C74.3465 23.7101 74.0657 23.9468 73.7354 24.0805C73.6342 24.1217 73.529 24.1526 73.4195 24.1732C73.3865 24.1783 73.3535 24.186 73.3204 24.1886C73.2936 24.1937 73.2668 24.1937 73.2399 24.1963C73.2275 24.1963 73.2131 24.1989 73.2007 24.1989C73.1738 24.1989 73.1449 24.2015 73.116 24.2015H1.96869C1.05202 24.2015 0.296394 23.4399 0.248909 22.4932C0.246841 22.4623 0.246841 22.4314 0.246841 22.4006V17.7259C0.246841 17.6951 0.246841 17.6642 0.248909 17.6333C0.296394 16.6866 1.05202 15.925 1.96869 15.925H73.1181C73.1491 15.925 73.178 15.9251 73.2089 15.9276C73.2812 15.9302 73.3514 15.9405 73.4216 15.9533C73.531 15.9739 73.6363 16.0048 73.7375 16.046C73.7891 16.0665 73.8386 16.0897 73.8861 16.1154C73.9171 16.1309 73.946 16.1463 73.9749 16.1643C73.977 16.1643 73.9811 16.1669 73.9852 16.1695C74.0141 16.1875 74.043 16.2055 74.0719 16.2261C74.0781 16.2286 74.0823 16.2338 74.0864 16.2364C74.1132 16.2544 74.138 16.275 74.1628 16.2955C74.2226 16.3444 74.2804 16.3959 74.3341 16.4525C74.3506 16.4705 74.3672 16.4885 74.3837 16.5065C74.3857 16.5091 74.3899 16.5116 74.3919 16.5168C74.4023 16.5271 74.4126 16.5374 74.4208 16.5502C74.4229 16.5528 74.425 16.5554 74.427 16.558C74.4436 16.5785 74.4621 16.6017 74.4766 16.6248C74.5014 16.6557 74.5241 16.6891 74.5447 16.7226C74.7305 17.0082 74.8379 17.3555 74.8379 17.7259Z" fill="#FFEB4D"/>
<path d="M40.3555 24.2734H1.56271C0.730625 24.2734 0.043541 23.4984 0.00151443 22.5348C-0.000583649 22.5034 -0.000587463 22.472 -0.000587463 22.4406V17.683C-0.000587463 17.6515 -0.000583649 17.6201 0.00151443 17.5887C0.043541 16.6251 0.730625 15.8501 1.56271 15.8501H35.592C35.6046 15.9129 35.6193 15.9784 35.6361 16.0439C36.2013 18.5025 37.4726 21.8121 40.3407 24.2603C40.3449 24.2655 40.3513 24.2708 40.3555 24.2734Z" fill="#EAB726"/>
<path d="M65.8599 24.2H65.0508V15.9253H65.8599V24.2Z" fill="#EAB726"/>
<path d="M63.1236 24.2H62.3145V15.9253H63.1236V24.2Z" fill="#EAB726"/>
<path d="M59.8404 24.2H59.0312V15.9253H59.8404V24.2Z" fill="#EAB726"/>
<path d="M54.8111 24.2H54.002V15.9253H54.8111V24.2Z" fill="#EAB726"/>
<path d="M49.4907 24.2H48.6816V15.9253H49.4907V24.2Z" fill="#EAB726"/>
<path d="M41.3385 24.2H40.5293V15.9253H41.3385V24.2Z" fill="#EAB726"/>
<path d="M33.7017 24.2H32.8926V15.9253H33.7017V24.2Z" fill="#EAB726"/>
<path d="M26.8853 24.2H26.0762V15.9253H26.8853V24.2Z" fill="#EAB726"/>
<path d="M70.1861 24.2H69.377V15.9253H70.1861V24.2Z" fill="#EAB726"/>
<path d="M73.0977 15.9533V24.1715C72.9986 24.1895 72.8974 24.1998 72.7942 24.1998H72.2885V15.925H72.7942C72.8974 15.925 72.9986 15.9353 73.0977 15.9533Z" fill="#EAB726"/>
<path d="M78.9648 9.80659V14.3597C78.9648 14.723 78.8583 15.0588 78.6773 15.3395C78.4862 15.6352 78.2128 15.8657 77.891 15.996C77.7925 16.0361 77.6899 16.0662 77.5833 16.0862C77.4868 16.1038 77.3883 16.1138 77.2877 16.1138H7.98942C7.71995 16.1138 7.46656 16.0461 7.24133 15.9284C6.7366 15.6627 6.37463 15.1365 6.32034 14.5226C6.31833 14.5 6.31631 14.475 6.31631 14.4499C6.31631 14.4198 6.3143 14.3898 6.3143 14.3597V9.80659C6.3143 9.77652 6.3143 9.74642 6.31631 9.71635C6.35854 8.86185 6.99197 8.16524 7.79232 8.065C7.85667 8.05748 7.92306 8.05249 7.99142 8.05249H77.2898C77.3903 8.05249 77.4888 8.06251 77.5854 8.08005C77.6919 8.1001 77.7945 8.13016 77.893 8.17026C78.2148 8.30056 78.4882 8.5311 78.6793 8.82679C78.8583 9.10494 78.9648 9.44324 78.9648 9.80659Z" fill="#FFEB4D"/>
<path d="M44.9355 16.1098H7.80991C7.57061 16.1098 7.34336 16.0421 7.14227 15.9244C6.68981 15.6587 6.37008 15.1325 6.31981 14.5186C6.31779 14.496 6.31578 14.471 6.31578 14.4459C6.31578 14.4158 6.31377 14.3858 6.31377 14.3557V9.80266C6.31377 9.77259 6.31377 9.74252 6.31578 9.71245C6.35198 8.85797 6.91907 8.16133 7.63294 8.06109C7.69126 8.05358 7.74958 8.04858 7.80991 8.04858H40.3768C40.3768 8.0536 40.3788 8.05859 40.3788 8.06109C40.8876 10.3715 42.0519 13.5413 44.7224 15.9244C44.7907 15.987 44.8632 16.0496 44.9355 16.1098Z" fill="#EAB726"/>
<path d="M70.5324 16.1108H69.7441V8.0496H70.5324V16.1108Z" fill="#EAB726"/>
<path d="M67.8684 16.1108H67.0801V8.0496H67.8684V16.1108Z" fill="#EAB726"/>
<path d="M64.6711 16.1108H63.8828V8.0496H64.6711V16.1108Z" fill="#EAB726"/>
<path d="M59.7708 16.1108H58.9824V8.0496H59.7708V16.1108Z" fill="#EAB726"/>
<path d="M54.5891 16.1108H53.8008V8.0496H54.5891V16.1108Z" fill="#EAB726"/>
<path d="M46.6437 16.1108H45.8555V8.0496H46.6437V16.1108Z" fill="#EAB726"/>
<path d="M39.2043 16.1108H38.416V8.0496H39.2043V16.1108Z" fill="#EAB726"/>
<path d="M32.5637 16.1108H31.7754V8.0496H32.5637V16.1108Z" fill="#EAB726"/>
<path d="M73.0715 16.1108H72.2832V8.0496H73.0715V16.1108Z" fill="#EAB726"/>
<path d="M74.7493 16.1108H73.9609V8.0496H74.7493V16.1108Z" fill="#EAB726"/>
<path d="M76.3664 16.1108H75.5781V8.0496H76.3664V16.1108Z" fill="#EAB726"/>
<path d="M77.584 8.07614V16.0823C77.4875 16.0998 77.3889 16.1099 77.2884 16.1099H76.7957V8.04858H77.2884C77.3909 8.04858 77.4875 8.0586 77.584 8.07614Z" fill="#EAB726"/>
<path d="M78.6777 8.82572V15.3384C78.4867 15.6341 78.2132 15.8646 77.8915 15.9949V8.16919C78.2132 8.29699 78.4867 8.53003 78.6777 8.82572Z" fill="#EAB726"/>
<path d="M81.1348 1.75408V6.30716C81.1348 6.6705 81.0282 7.00629 80.8472 7.28694C80.6562 7.58263 80.3827 7.81317 80.0609 7.94347C79.9624 7.98356 79.8598 8.01363 79.7533 8.03368C79.7211 8.03869 79.6889 8.04622 79.6567 8.04873C79.6386 8.05123 79.6205 8.05371 79.6024 8.05371C79.5843 8.05622 79.5662 8.05622 79.5481 8.05873C79.518 8.06123 79.4878 8.06124 79.4597 8.06124H10.1613C9.26841 8.06124 8.53242 7.31951 8.48617 6.39736C8.48617 6.36729 8.48415 6.33722 8.48415 6.30716V1.75408C8.48415 1.72401 8.48415 1.69391 8.48617 1.66384C8.53242 0.741699 9.26841 0 10.1613 0H79.4597C79.5602 0 79.6588 0.0100196 79.7553 0.0275605C79.8619 0.0476071 79.9644 0.0776734 80.0629 0.117767C80.3847 0.24807 80.6582 0.478605 80.8492 0.774293C81.0282 1.05495 81.1348 1.39324 81.1348 1.75408Z" fill="#FFEB4D"/>
<path d="M47.1035 8.06124H9.97789C9.18156 8.06124 8.52398 7.31951 8.48376 6.39736C8.48376 6.36729 8.48175 6.33722 8.48175 6.30716V1.75408C8.48175 1.72401 8.48175 1.69391 8.48376 1.66384C8.52398 0.741699 9.18156 0 9.97789 0H42.5447C43.0636 2.37052 44.2721 5.64313 47.0894 8.04873C47.0934 8.05374 47.0995 8.05873 47.1035 8.06124Z" fill="#EAB726"/>
<path d="M72.7023 8.06226H71.9141V0.000986099H72.7023V8.06226Z" fill="#FF9F00"/>
<path d="M70.0382 8.06226H69.25V0.000986099H70.0382V8.06226Z" fill="#FF9F00"/>
<path d="M66.839 8.06226H66.0508V0.000986099H66.839V8.06226Z" fill="#FF9F00"/>
<path d="M61.9386 8.06226H61.1504V0.000986099H61.9386V8.06226Z" fill="#EAB726"/>
<path d="M56.757 8.06226H55.9688V0.000986099H56.757V8.06226Z" fill="#EAB726"/>
<path d="M48.8137 8.06226H48.0254V0.000986099H48.8137V8.06226Z" fill="#EAB726"/>
<path d="M41.3742 8.06226H40.5859V0.000986099H41.3742V8.06226Z" fill="#EAB726"/>
<path d="M33.9422 0H34.7305V8.06124H33.9422V0Z" fill="#EAB726"/>
<path d="M75.2414 8.06226H74.4531V0.000986099H75.2414V8.06226Z" fill="#EAB726"/>
<path d="M76.9172 8.06226H76.1289V0.000986099H76.9172V8.06226Z" fill="#EAB726"/>
<path d="M79.7539 0.0275605V8.03368C79.6574 8.05122 79.5588 8.06124 79.4583 8.06124H78.9657V0H79.4583C79.5588 0 79.6574 0.0100196 79.7539 0.0275605Z" fill="#EAB726"/>
<g clip-path="url(#clip0)">
<path d="M77.9317 88.0001C95.0525 88.0001 108.932 74.1209 108.932 57C108.932 39.8792 95.0525 26 77.9317 26C60.8108 26 46.9316 39.8792 46.9316 57C46.9316 74.1209 60.8108 88.0001 77.9317 88.0001Z" fill="#46E6AD"/>
<path d="M108.932 56.9999C108.932 74.05 94.9817 88 77.9317 88C68.0505 88 59.3317 83.5437 53.7129 76.375C58.9441 80.6375 65.7254 83.1563 73.0879 83.1563C90.1379 83.1563 104.088 69.2063 104.088 52.1562C104.088 44.7938 101.569 38.0125 97.3066 32.7812C104.476 38.3998 108.932 47.1186 108.932 56.9999Z" fill="#33BC8C"/>
<path d="M94.7881 48.0887L74.6382 70.1763C73.2818 71.7263 70.9569 71.7263 69.6006 70.1763L61.0756 60.6825C59.9131 59.3262 59.9131 57.195 61.2693 55.8387C62.6256 54.6762 64.7568 54.6762 66.1131 56.0324L72.1194 62.8137L89.7506 43.6324C91.1069 42.2761 93.2381 42.0824 94.5944 43.4387C95.9506 44.6012 95.9506 46.9262 94.7881 48.0887Z" fill="white"/>
</g>
<defs>
<clipPath id="clip0">
<rect width="62" height="62" fill="white" transform="translate(46.9316 26)"/>
</clipPath>
</defs>
</svg>
