<svg width="355" height="382" viewBox="0 0 355 382" fill="none" xmlns="http://www.w3.org/2000/svg">
<path opacity="0.7" d="M150.157 322.512C150.157 322.512 197.493 331.958 237.801 299.895C278.11 267.832 292.84 213.803 305.92 170.332C318.999 126.862 301.852 87.1266 265.373 73.228C228.893 59.3294 210.123 90.4917 163.081 98.8032C116.04 107.115 102.325 102.19 67.1123 134.803C31.8992 167.417 34.2116 231.777 72.0977 274.093C109.984 316.408 150.157 322.512 150.157 322.512Z" fill="#F0F8F5"/>
<g clip-path="url(#clip0)">
<g filter="url(#filter0_f)">
<path d="M113.498 348.271C127.3 346.501 138.27 347.917 162.334 348.271C186.045 348.625 206.924 348.979 223.203 349.686C238.066 350.394 249.391 351.456 256.115 352.518C275.578 354.995 297.873 358.534 298.227 363.843C298.581 368.089 287.611 372.336 261.069 376.229C246.206 378.353 228.865 379.768 218.249 379.768C215.064 379.768 210.463 379.061 208.34 379.061C205.863 379.061 196.662 376.937 193.477 376.583C186.045 375.521 170.474 371.629 167.289 370.921L137.208 363.135C137.208 363.135 115.267 357.472 112.082 356.057C109.959 354.995 102.174 349.686 113.498 348.271Z" fill="url(#paint0_linear)"/>
<path d="M114.207 348.271C128.009 346.501 138.98 347.917 163.044 348.271C186.754 348.625 207.634 348.979 223.912 349.686C238.776 350.394 249.746 351.456 256.824 352.518C275.934 354.995 296.813 358.534 296.813 363.843C296.813 368.089 286.197 372.336 261.425 375.875C246.561 377.999 229.575 379.768 218.958 379.414C215.773 379.414 211.173 378.707 209.049 378.707C206.218 378.707 197.371 376.937 194.54 376.229C186.754 375.168 171.891 371.275 168.706 370.921L138.626 363.135C138.626 363.135 116.331 357.118 113.5 356.057C111.022 354.995 102.883 350.04 114.207 348.271Z" fill="url(#paint1_linear)"/>
<path d="M114.916 348.625C129.071 346.855 139.334 348.625 163.752 348.978C187.817 349.332 208.342 349.686 224.267 350.394C239.13 351.102 250.101 352.164 257.178 353.225C275.581 355.703 295.398 359.242 295.398 364.55C295.398 368.797 285.136 372.69 261.779 376.229C246.916 378.353 230.637 380.122 219.666 379.768C216.481 379.768 211.881 379.06 210.111 379.06C207.28 379.06 198.787 377.291 195.602 376.937C187.463 375.875 173.307 372.336 169.768 371.628L140.042 363.842C140.042 363.842 117.393 357.826 114.562 356.764C111.731 355.349 103.237 350.04 114.916 348.625Z" fill="url(#paint2_linear)"/>
<path d="M115.624 348.625C130.133 346.855 140.042 348.979 164.46 348.979C188.524 349.333 209.05 349.686 224.975 350.394C239.838 351.102 250.809 352.164 257.886 353.226C275.581 355.703 293.983 359.242 293.983 364.55C293.983 368.797 283.72 372.69 261.779 375.875C247.27 377.999 230.991 379.768 219.666 379.768C216.482 379.768 212.235 379.414 210.112 379.061C207.28 379.061 198.787 377.291 195.602 376.937C187.109 375.875 173.307 372.336 169.768 371.629L140.042 363.843C140.042 363.843 117.039 357.826 114.562 356.411C112.439 355.349 103.945 350.04 115.624 348.625Z" fill="url(#paint3_linear)"/>
<path d="M116.329 348.978C130.839 347.563 140.747 349.332 165.166 349.686C189.23 349.686 209.755 350.394 225.68 350.748C240.544 351.456 251.514 352.518 258.592 353.579C275.579 356.057 292.919 359.596 292.565 364.55C292.211 368.797 282.656 372.69 262.131 375.875C247.621 377.999 232.05 380.122 220.372 379.768C217.187 379.768 212.94 379.414 210.817 379.06C207.986 379.06 199.847 377.291 196.308 376.937C187.461 375.875 174.367 372.336 170.828 371.628L140.747 363.842C140.747 363.842 117.391 357.826 114.914 356.41C113.144 355.703 104.651 350.04 116.329 348.978Z" fill="url(#paint4_linear)"/>
<path d="M117.392 348.979C131.902 347.563 141.457 349.686 165.875 349.686C190.293 349.686 210.465 350.04 226.39 350.748C241.253 351.456 252.224 352.518 259.301 353.579C275.934 356.057 291.505 359.596 291.151 364.55C290.797 368.797 281.596 372.336 262.132 375.521C247.623 377.645 232.406 379.768 220.728 379.414C217.543 379.414 213.65 379.06 211.173 378.706C207.988 378.706 200.202 377.291 196.663 376.583C187.462 375.521 175.076 372.336 171.183 371.275L141.811 363.843C141.811 363.843 118.1 357.472 115.977 356.411C113.854 355.703 105.006 350.394 117.392 348.979Z" fill="url(#paint5_linear)"/>
<path d="M118.1 349.333C132.963 347.917 142.164 350.04 166.582 350.04C191 350.04 211.172 350.394 227.097 351.102C241.96 351.81 252.577 352.872 260.008 353.933C275.933 356.411 290.443 359.95 289.735 364.904C289.381 368.797 280.18 372.69 262.486 375.521C248.33 377.645 233.467 379.768 221.081 379.768C217.896 379.768 214.003 379.414 211.526 379.414C208.341 379.414 200.909 377.999 197.017 377.291C187.815 375.875 175.783 373.044 171.537 372.336L142.164 364.55C142.164 364.55 118.1 358.18 115.976 357.118C114.561 356.057 105.714 350.394 118.1 349.333Z" fill="url(#paint6_linear)"/>
<path d="M118.808 349.332C134.025 347.917 142.872 350.394 167.291 350.394C191.709 350.394 211.88 350.748 227.451 351.456C242.315 351.81 252.931 353.225 260.009 354.287C275.226 356.764 288.674 360.657 287.966 364.904C287.258 368.797 278.765 372.336 262.132 375.167C247.977 377.291 233.467 379.414 221.081 379.414C217.896 379.414 214.004 379.06 211.526 379.06C208.341 378.706 201.264 377.645 197.371 377.291C187.816 375.875 176.138 373.044 172.245 372.336L143.226 364.55C143.226 364.55 118.808 358.18 117.038 357.118C115.269 356.411 106.068 350.394 118.808 349.332Z" fill="url(#paint7_linear)"/>
<path d="M119.516 349.332C135.087 347.917 143.227 350.394 167.999 350.394C192.771 350.394 212.589 350.748 228.16 351.456C243.023 351.81 253.64 353.225 260.717 354.287C275.227 356.764 287.259 360.657 286.551 364.904C285.843 368.797 277.704 372.336 262.487 374.814C248.685 376.937 234.176 379.414 221.436 379.06C218.251 379.06 214.712 378.706 211.881 378.706C208.342 378.353 201.618 377.291 197.725 376.937C187.817 375.521 176.846 372.69 172.599 371.982L143.581 364.196C143.581 364.196 118.809 357.472 117.039 356.764C115.977 356.411 106.776 350.394 119.516 349.332Z" fill="url(#paint8_linear)"/>
<path d="M120.223 349.687C135.794 348.625 143.934 351.102 168.706 351.102C193.478 351.102 213.296 351.456 228.867 351.81C243.73 352.164 254.347 353.58 261.424 354.642C275.226 357.119 286.197 361.012 285.135 365.259C284.073 369.152 276.288 372.691 262.486 374.814C248.684 376.937 234.883 379.415 221.789 379.415C218.958 379.415 215.065 379.061 212.588 379.061C209.049 378.707 202.679 377.999 198.432 377.291C188.17 375.876 177.907 373.398 173.66 372.337L144.995 364.551C144.995 364.551 119.869 357.827 118.454 357.119C116.684 356.765 107.129 350.749 120.223 349.687Z" fill="url(#paint9_linear)"/>
<path d="M121.284 349.687C137.209 348.625 144.995 351.102 169.767 351.102C194.539 351.102 214.357 351.456 229.928 351.81C244.791 352.164 255.408 353.226 262.485 354.642C275.933 357.119 285.134 361.012 284.072 365.259C283.011 369.152 275.579 372.337 263.193 374.46C249.391 376.584 235.944 379.061 222.85 379.061C220.019 379.061 216.126 378.707 213.649 378.707C210.11 378.353 203.74 377.645 199.493 376.937C188.877 375.522 178.968 373.045 174.721 372.337L146.056 364.551C146.056 364.551 120.576 357.827 119.161 357.119C117.391 356.765 107.837 350.749 121.284 349.687Z" fill="url(#paint10_linear)"/>
<path d="M121.992 350.041C138.271 348.979 145.348 351.81 170.474 351.81C195.6 351.81 215.064 352.164 230.635 352.518C245.498 352.872 255.761 353.934 263.193 355.349C275.933 357.827 284.072 361.72 282.657 365.613C281.595 369.505 274.517 372.691 263.547 374.46C250.099 376.584 237.005 379.061 223.204 379.061C220.372 379.061 216.834 378.707 214.002 378.707C210.11 378.353 204.447 377.645 199.847 376.937C188.876 375.522 179.675 373.045 175.075 372.337L146.41 364.551C146.41 364.551 120.576 357.473 119.515 357.119C118.453 357.119 108.19 350.749 121.992 350.041Z" fill="url(#paint11_linear)"/>
<path d="M122.699 350.041C138.978 348.979 146.056 351.81 171.182 351.81C196.308 351.81 215.772 351.81 230.989 352.518C245.852 352.872 256.115 353.934 263.546 355.703C275.579 358.181 282.302 362.073 281.241 365.966C279.825 369.859 273.101 373.044 263.546 374.46C250.099 376.584 237.359 379.415 223.557 379.415C220.726 379.415 217.187 379.061 214.356 379.061C210.463 378.707 204.801 377.999 200.554 377.645C189.23 376.23 180.737 373.752 176.136 373.044L147.825 365.259C147.825 365.259 121.638 358.181 120.93 357.827C119.16 357.119 108.898 350.749 122.699 350.041Z" fill="url(#paint12_linear)"/>
<path d="M123.406 350.04C140.039 348.978 146.763 352.163 171.535 352.163C196.661 352.163 216.479 352.163 231.342 352.517C246.205 352.871 256.468 353.933 263.899 355.702C275.224 358.18 280.886 362.073 279.471 365.966C278.055 369.505 271.685 372.69 263.546 374.105C250.452 376.229 238.066 379.06 223.91 379.06C221.079 379.06 217.54 379.06 214.709 378.706C210.816 378.352 205.508 377.644 200.908 377.291C189.583 375.875 181.444 373.751 176.489 372.69L148.178 364.904C148.178 364.904 121.637 357.826 120.929 357.472C119.867 357.472 109.251 351.102 123.406 350.04Z" fill="url(#paint13_linear)"/>
<path d="M124.115 350.394C141.102 349.686 147.118 352.517 172.244 352.517C197.724 352.517 217.188 352.517 232.051 352.871C246.914 353.225 257.177 354.287 264.609 356.056C275.579 358.534 279.826 362.427 278.056 366.32C276.641 369.859 270.271 373.044 263.547 374.105C250.453 376.583 238.421 379.06 223.912 379.06C221.08 379.06 217.895 379.06 214.71 378.706C210.818 378.352 205.509 377.998 200.909 377.291C189.231 375.875 181.445 373.752 176.491 372.69L148.533 365.258C148.533 365.258 121.638 357.826 121.284 357.826C120.576 357.472 109.96 351.102 124.115 350.394Z" fill="url(#paint14_linear)"/>
<path d="M125.178 350.394C142.164 349.686 148.18 352.871 173.306 352.871C198.786 352.871 218.25 352.871 233.113 353.225C247.977 353.579 258.239 354.641 265.317 356.411C275.58 358.888 278.411 362.781 276.641 366.32C274.872 369.859 269.21 373.044 263.901 374.106C250.808 376.583 239.129 379.06 224.62 379.414C221.789 379.414 218.604 379.414 215.419 379.06C211.172 378.706 206.572 378.353 201.617 377.645C189.585 375.875 182.507 374.106 177.553 373.398L149.596 365.966C149.596 365.966 122.346 358.534 121.993 358.534C121.285 357.826 110.314 351.102 125.178 350.394Z" fill="url(#paint15_linear)"/>
<path d="M178.26 373.398L150.656 365.966L123.053 358.534C122.345 358.534 111.375 351.81 126.238 351.102C143.225 350.04 148.533 353.225 174.013 353.225C199.493 353.225 218.957 353.225 233.466 353.579C247.975 353.933 258.592 354.641 265.67 356.764C275.225 359.242 276.994 363.135 274.871 366.674C272.748 370.213 267.793 373.044 263.546 374.106C245.144 377.645 229.573 381.538 201.97 377.999C189.938 375.875 183.568 374.106 178.26 373.398Z" fill="url(#paint16_linear)"/>
<path d="M126.593 350.748C143.58 350.041 149.242 353.226 174.014 353.226C192.062 353.226 206.572 353.226 218.958 353.226C223.912 353.226 228.513 353.226 232.759 353.58C247.269 353.934 257.178 354.641 264.609 356.765C274.164 359.242 275.58 363.135 273.81 366.674C272.041 370.213 266.733 373.044 262.84 373.752C244.438 377.291 229.575 381.184 202.325 377.291C190.293 375.522 183.923 374.106 178.615 373.044L151.012 365.612C151.012 365.612 123.762 358.18 124.116 358.18C122.701 358.18 112.084 351.456 126.593 350.748Z" fill="url(#paint17_linear)"/>
<path d="M127.301 351.102C143.933 350.394 149.596 353.579 173.66 353.579C191.354 353.579 205.864 353.579 217.896 353.579C222.85 353.579 227.097 353.579 231.344 353.933C245.499 354.287 255.408 354.995 262.486 357.118C271.687 359.596 273.102 363.135 271.687 366.674C269.917 369.859 264.963 373.044 260.716 373.752C242.668 377.291 227.805 380.83 201.263 377.291C189.231 375.521 183.215 374.106 178.26 373.044L150.657 365.612L124.116 358.18C123.408 358.18 113.145 351.81 127.301 351.102Z" fill="url(#paint18_linear)"/>
<path d="M128.008 351.456C144.64 350.748 149.949 353.933 173.659 353.933C191 353.933 205.155 353.933 217.187 354.287C222.142 354.287 226.388 354.287 230.281 354.641C244.437 354.995 253.992 355.703 261.069 357.826C270.27 360.304 271.686 363.843 269.916 367.028C268.147 370.213 263.193 373.398 258.946 374.106C241.252 377.291 226.742 381.184 200.555 377.645C188.876 376.229 182.86 374.46 177.906 373.398L150.656 365.966C150.656 365.966 124.469 358.534 124.823 358.534C124.469 358.18 114.206 351.81 128.008 351.456Z" fill="url(#paint19_linear)"/>
<path d="M128.715 351.456C144.994 350.748 150.302 353.58 173.659 353.933C190.645 353.933 204.801 353.933 216.479 354.287C221.08 354.287 225.326 354.287 229.573 354.641C243.375 354.995 252.93 355.703 259.653 357.826C268.501 360.304 269.916 363.843 268.501 367.028C267.085 370.213 261.777 373.398 257.53 374.106C240.19 377.291 225.68 380.83 200.2 377.291C188.876 375.876 182.86 374.106 177.905 373.398L150.656 365.966C150.656 365.966 125.176 358.888 125.53 358.534C125.176 358.18 115.267 352.164 128.715 351.456Z" fill="url(#paint20_linear)"/>
<path d="M129.425 351.81C145.35 351.102 151.012 353.933 173.661 353.933C190.294 353.933 204.095 353.933 215.42 354.287C220.02 354.287 224.267 354.287 228.16 354.641C241.607 354.995 251.162 356.057 257.886 357.826C266.733 360.304 268.149 363.489 266.733 366.674C265.318 369.859 260.363 373.044 255.763 373.752C238.776 376.937 224.621 380.476 199.495 376.937C188.17 375.521 182.508 373.752 177.554 373.044L150.304 365.612C150.304 365.612 125.178 358.534 125.886 358.18C125.886 358.18 116.331 352.164 129.425 351.81Z" fill="url(#paint21_linear)"/>
<path d="M130.132 352.163C145.703 351.456 151.365 354.287 173.306 354.287C189.585 354.287 203.386 354.287 214.357 354.641C218.957 354.641 223.204 354.641 226.743 354.995C239.837 355.349 249.038 356.41 255.762 358.18C264.255 360.303 265.67 363.842 264.255 367.027C262.839 370.213 257.885 373.398 253.284 374.105C236.298 376.937 222.496 380.476 198.432 377.291C187.461 375.875 181.799 374.459 177.199 373.398L150.303 365.966C150.303 365.966 125.885 358.888 126.593 358.888C126.593 358.18 117.392 352.517 130.132 352.163Z" fill="url(#paint22_linear)"/>
<path d="M131.193 352.163C146.41 351.456 152.072 354.287 173.659 354.287C189.938 354.287 203.032 354.641 214.003 354.641C218.603 354.641 222.496 354.641 226.389 354.995C239.482 355.349 248.33 356.41 255.054 357.826C263.547 359.949 264.962 363.488 263.547 366.32C262.131 369.505 257.177 372.336 252.93 373.398C236.298 376.229 222.85 379.768 199.139 376.583C188.523 375.167 182.861 373.752 178.26 372.69L151.365 365.612C151.365 365.612 127.3 358.534 128.362 358.534C127.3 358.18 118.453 352.871 131.193 352.163Z" fill="url(#paint23_linear)"/>
<path d="M131.902 352.518C147.119 351.81 152.428 354.641 173.661 354.641C189.586 354.641 202.68 354.995 213.296 354.995C217.543 354.995 221.79 355.349 225.329 355.349C238.069 355.703 246.916 356.764 253.286 358.18C261.425 360.304 262.841 363.489 261.779 366.674C260.717 369.505 255.763 372.69 251.162 373.752C234.884 376.583 221.436 379.768 198.433 376.583C187.816 375.168 182.508 373.752 177.908 373.044L151.012 365.966C151.012 365.966 127.656 359.242 128.717 358.888C128.01 358.534 119.516 352.872 131.902 352.518Z" fill="url(#paint24_linear)"/>
<path d="M132.608 352.518C147.471 351.81 152.779 354.641 173.659 354.641C189.23 354.641 201.97 354.995 212.586 354.995C216.833 354.995 220.726 355.349 224.265 355.349C236.651 355.703 245.498 356.765 251.868 358.18C259.653 360.304 261.423 363.489 260.007 366.32C258.946 369.151 253.991 372.336 249.391 373.044C233.466 375.875 220.372 379.06 197.723 375.875C187.46 374.46 182.152 373.044 177.552 372.336L150.656 365.258C150.656 365.258 127.653 358.534 129.069 358.18C128.715 358.534 120.576 353.225 132.608 352.518Z" fill="url(#paint25_linear)"/>
<path d="M133.316 352.872C147.826 352.164 153.488 354.641 173.66 354.995C188.877 354.995 201.263 355.349 211.879 355.349C216.126 355.349 220.019 355.703 223.558 355.703C235.59 356.057 244.437 357.119 250.453 358.534C258.239 360.658 259.654 363.843 258.592 366.674C257.531 369.505 252.576 372.69 247.976 373.398C232.405 375.876 219.311 379.061 197.37 376.23C187.461 374.814 182.153 373.398 177.906 372.69L151.365 365.612C151.365 365.612 129.07 358.888 130.131 358.534C129.424 358.534 121.638 353.226 133.316 352.872Z" fill="url(#paint26_linear)"/>
<path d="M134.025 353.225C148.18 352.517 153.842 354.995 173.306 354.995C188.169 354.995 200.556 355.349 210.818 355.702C215.065 355.702 218.604 356.056 222.143 356.056C234.175 356.41 242.314 357.472 248.684 358.888C256.116 361.011 257.531 363.842 256.824 366.673C255.762 369.505 251.161 372.69 246.207 373.398C230.99 375.875 218.25 379.06 197.017 376.229C187.462 374.813 182.153 373.752 177.907 372.69L151.365 365.612C151.365 365.612 129.424 359.241 130.84 358.534C130.486 358.534 122.7 353.579 134.025 353.225Z" fill="url(#paint27_linear)"/>
<path d="M134.731 353.225C148.887 352.517 154.195 354.995 173.305 354.995C187.815 354.995 199.847 355.348 209.756 355.702C213.648 355.702 217.541 356.056 221.08 356.056C232.758 356.41 240.898 357.472 246.914 358.888C254.345 361.011 255.761 363.842 254.699 366.32C253.638 369.151 249.037 372.336 244.083 373.044C228.866 375.521 216.833 378.352 195.954 375.521C186.399 374.105 181.445 373.044 177.198 372.336L150.656 365.258C150.656 365.258 129.423 358.888 130.839 358.534C131.193 358.534 123.761 353.933 134.731 353.225Z" fill="url(#paint28_linear)"/>
<path d="M135.44 353.579C149.241 352.872 154.55 355.349 173.306 355.349C187.815 355.349 199.493 355.703 209.048 356.057C212.941 356.057 216.48 356.411 220.019 356.411C231.343 356.764 239.483 357.826 245.499 359.242C252.576 361.011 253.992 363.843 253.284 366.674C252.576 369.505 247.622 372.69 243.022 373.398C228.158 375.521 216.126 378.707 195.955 375.875C186.753 374.814 181.799 373.398 177.552 372.69L151.365 365.612C151.365 365.612 130.485 359.242 132.255 358.888C131.901 358.534 124.823 353.933 135.44 353.579Z" fill="url(#paint29_linear)"/>
<path d="M136.148 353.933C149.596 353.226 154.904 355.349 173.306 355.703C187.462 355.703 198.786 356.057 208.341 356.411C212.234 356.411 215.773 356.765 218.958 356.765C230.282 357.119 238.068 358.18 243.73 359.596C250.808 361.365 252.223 364.197 251.515 366.674C250.808 369.505 246.207 372.69 241.253 373.398C226.743 375.522 215.065 378.353 195.247 375.876C186.4 374.814 181.446 373.398 177.553 372.69L151.365 365.612C151.011 365.612 131.194 359.242 132.963 358.888C132.609 358.534 125.885 354.287 136.148 353.933Z" fill="url(#paint30_linear)"/>
<path d="M136.857 353.933C149.951 353.579 155.613 355.349 172.954 355.703C186.755 355.703 198.08 356.057 207.281 356.411C211.173 356.411 214.712 356.764 217.897 356.764C228.868 357.118 236.653 358.18 241.962 359.596C248.685 361.365 250.101 364.197 249.393 366.674C248.685 369.151 244.085 372.336 239.13 373.398C224.975 375.521 213.297 378.353 194.187 375.521C185.34 374.46 180.739 373.044 176.846 372.336L150.659 365.612C150.305 365.612 130.841 359.596 132.964 358.888C133.318 358.888 126.948 354.287 136.857 353.933Z" fill="url(#paint31_linear)"/>
<path d="M137.917 354.288C150.657 353.934 156.319 355.703 173.306 356.057C186.754 356.057 197.724 356.411 206.925 356.765C210.464 356.765 214.003 357.119 217.188 357.119C227.804 357.473 235.236 358.534 240.898 359.95C247.622 361.719 249.038 364.197 248.33 366.674C247.622 369.151 243.376 372.337 238.067 373.044C224.266 375.168 212.941 377.645 194.185 375.168C185.692 374.106 181.091 373.044 177.199 372.337L151.365 365.612C151.011 365.612 132.255 359.596 134.378 358.888C134.024 358.888 128.008 354.641 137.917 354.288Z" fill="url(#paint32_linear)"/>
<path d="M138.626 354.641C151.366 354.287 156.674 356.057 173.307 356.411C186.401 356.411 197.371 357.118 206.218 357.118C209.757 357.118 213.296 357.472 216.127 357.472C226.39 358.18 233.821 358.888 239.13 360.303C245.5 362.073 246.915 364.55 246.561 367.028C246.208 369.505 241.607 372.69 236.299 373.398C222.851 375.521 211.527 377.999 193.832 375.521C185.693 374.46 181.092 373.398 177.199 372.69L151.366 365.966C151.012 365.966 132.61 359.95 135.087 359.242C134.733 358.888 129.071 354.995 138.626 354.641Z" fill="url(#paint33_linear)"/>
<path d="M139.334 354.641C151.72 354.287 157.028 356.057 173.307 356.057C186.047 356.411 196.664 356.765 205.157 357.119C208.696 357.119 211.881 357.472 215.066 357.472C225.328 358.18 232.406 358.888 237.714 360.304C244.084 362.073 245.146 364.551 244.792 366.674C244.438 369.151 239.838 372.336 234.883 373.044C221.436 374.814 210.819 377.291 193.479 375.168C185.339 374.106 181.092 373.044 177.554 372.336L151.72 365.612C151.366 365.612 133.672 359.596 136.149 359.242C135.795 358.888 130.133 354.995 139.334 354.641Z" fill="url(#paint34_linear)"/>
<path d="M140.04 354.995C152.072 354.641 157.38 356.411 172.951 356.411C185.691 356.765 195.954 357.119 204.094 357.473C207.632 357.473 210.817 357.827 213.649 357.827C223.557 358.534 230.635 359.242 235.59 360.658C241.606 362.427 243.021 364.551 242.667 367.028C242.313 369.505 238.067 372.691 232.758 373.398C219.665 375.168 209.048 377.291 192.415 375.168C184.63 374.106 180.383 373.044 176.844 372.337L151.364 365.612C151.01 365.612 133.67 359.95 136.147 359.242C136.501 358.888 131.193 355.349 140.04 354.995Z" fill="url(#paint35_linear)"/>
<path d="M140.748 354.995C152.427 354.641 157.735 356.057 172.952 356.41C185.338 356.764 195.247 357.118 203.386 357.472C206.925 357.472 209.756 357.826 212.587 357.826C222.142 358.534 229.22 359.242 234.175 360.657C240.191 362.427 241.252 364.55 241.252 366.674C240.898 369.151 236.652 372.336 231.344 373.044C218.604 374.813 208.341 376.937 192.062 374.813C184.63 373.752 180.384 372.69 176.845 371.982L151.365 365.258C151.011 365.258 134.378 359.596 136.856 358.888C137.209 358.888 132.255 355.349 140.748 354.995Z" fill="url(#paint36_linear)"/>
<path d="M141.455 355.349C153.133 354.995 158.441 356.411 172.951 356.764C184.983 357.118 194.892 357.472 202.677 357.826C205.862 357.826 209.047 358.18 211.878 358.18C221.433 358.888 227.803 359.596 232.758 361.011C238.42 362.427 239.835 364.904 239.482 367.028C239.482 369.505 234.881 372.69 229.573 373.398C217.187 375.167 206.924 376.937 191.353 375.167C183.921 374.106 180.028 373.398 176.49 372.69L151.01 365.966C150.656 365.966 134.377 360.303 137.208 359.596C137.916 359.242 133.315 355.703 141.455 355.349Z" fill="url(#paint37_linear)"/>
<path d="M142.164 355.703C153.488 355.349 158.797 356.765 172.952 357.119C184.631 357.473 194.186 357.826 201.971 358.18C205.156 358.18 207.987 358.534 210.818 358.534C220.019 359.242 226.389 359.95 231.344 361.366C237.006 362.781 238.068 364.905 238.068 367.028C238.068 369.151 233.821 372.69 228.159 373.398C216.127 374.814 206.218 376.937 191.354 374.814C184.277 373.752 180.384 373.044 177.199 372.337L152.073 365.612C151.719 365.612 135.794 359.95 138.979 359.242C138.625 359.242 134.379 356.057 142.164 355.703Z" fill="url(#paint38_linear)"/>
<path d="M142.87 355.703C153.841 355.349 159.149 356.765 172.597 357.119C183.921 357.473 193.122 357.826 200.908 358.18C204.093 358.18 206.924 358.534 209.401 358.888C218.248 359.596 224.618 360.304 229.219 361.719C234.527 363.135 235.943 365.258 235.943 367.028C235.943 369.151 231.696 372.69 226.034 373.398C214.71 374.46 205.155 376.583 190.645 374.46C183.921 373.752 180.029 372.69 176.844 371.983L151.718 365.612C151.364 365.612 136.146 360.304 139.331 359.242C139.331 359.242 135.439 356.057 142.87 355.703Z" fill="url(#paint39_linear)"/>
<path d="M143.579 356.057C154.195 355.703 159.504 357.118 172.598 357.118C183.568 357.472 192.769 357.826 200.201 358.18C203.386 358.18 205.863 358.534 208.694 358.888C217.187 359.596 223.557 360.304 228.158 361.719C233.466 363.135 234.528 365.258 234.528 367.028C234.528 369.151 230.281 372.336 224.973 373.044C213.295 374.46 204.094 376.229 190.292 374.46C183.922 373.752 180.029 372.69 176.844 371.982L151.718 365.612C151.364 365.612 136.501 360.304 140.04 359.596C140.04 359.242 136.501 356.411 143.579 356.057Z" fill="url(#paint40_linear)"/>
<path d="M144.64 356.411C154.903 356.057 160.211 357.119 172.951 357.473C183.922 357.826 192.415 358.18 199.493 358.534C202.324 358.888 205.155 358.888 207.632 359.242C216.126 359.95 222.142 360.658 226.388 362.073C231.343 363.489 232.758 365.258 232.758 367.028C233.112 369.151 228.866 372.337 223.203 373.044C211.879 374.46 203.032 375.876 189.584 374.46C183.214 373.752 179.675 372.69 176.49 372.337L151.364 365.966C151.01 365.966 136.855 360.658 140.394 359.95C141.101 359.242 137.563 356.411 144.64 356.411Z" fill="url(#paint41_linear)"/>
<path d="M145.349 356.411C155.612 356.057 160.92 357.119 172.953 357.473C183.569 357.826 192.062 358.18 198.786 358.888C201.617 359.242 204.449 359.242 206.572 359.596C214.711 360.304 220.373 361.012 224.974 362.073C229.575 363.489 230.99 365.258 231.344 367.028C231.698 369.151 227.451 372.337 221.789 373.044C210.818 374.46 201.971 375.876 189.231 374.106C183.215 373.398 179.676 372.337 176.845 371.983L152.073 365.612C151.719 365.612 137.918 360.304 141.81 359.596C141.81 359.242 138.625 356.765 145.349 356.411Z" fill="url(#paint42_linear)"/>
<path d="M146.056 356.764C155.965 356.41 161.274 357.472 172.598 357.826C182.861 358.18 191 358.534 197.724 359.242C200.555 359.596 203.032 359.596 205.509 359.949C213.295 360.657 218.957 361.365 223.204 362.427C227.804 363.842 229.22 365.612 229.22 367.028C229.574 369.151 225.681 372.336 219.665 373.044C209.048 374.106 200.555 375.521 188.169 374.106C182.507 373.398 178.968 372.69 176.137 371.982L151.365 365.612C151.011 365.612 137.917 360.657 141.456 359.596C142.518 359.242 139.686 357.118 146.056 356.764Z" fill="url(#paint43_linear)"/>
<path d="M146.764 357.119C156.319 356.765 161.627 357.826 172.598 358.18C182.506 358.534 190.646 359.242 197.016 359.596C199.847 359.95 202.324 359.95 204.447 360.304C212.233 361.012 217.541 361.719 221.788 362.781C226.035 364.197 227.45 365.612 227.804 367.382C228.158 369.505 224.265 372.69 218.249 373.398C207.986 374.46 199.493 375.876 188.169 374.46C182.506 373.752 179.321 373.044 176.49 372.336L151.718 365.966C151.364 365.966 138.624 361.012 142.517 359.95C143.225 359.596 140.748 357.119 146.764 357.119Z" fill="url(#paint44_linear)"/>
<path d="M147.472 357.119C156.673 356.765 161.981 357.826 172.598 358.18C182.153 358.534 189.938 359.242 196.308 359.596C198.785 359.95 201.263 359.95 203.74 360.304C211.172 361.012 216.48 361.719 220.373 362.781C224.619 363.843 226.035 365.612 226.389 367.028C227.096 369.151 222.85 372.336 216.834 373.044C206.925 374.106 198.785 375.168 187.815 373.752C182.507 373.044 179.322 372.336 176.491 371.983L152.072 365.612C151.718 365.612 139.686 360.658 143.579 359.596C143.933 359.596 141.81 357.472 147.472 357.119Z" fill="url(#paint45_linear)"/>
<path d="M148.18 357.472C157.381 357.118 162.335 358.18 172.598 358.18C182.153 358.534 189.584 359.242 195.601 359.596C198.078 359.949 200.555 359.949 202.678 360.303C209.756 361.011 215.064 361.719 218.957 362.781C222.85 363.842 224.265 365.612 224.973 367.028C225.681 369.151 221.788 372.336 215.772 373.044C205.863 374.106 198.078 375.167 187.815 373.752C182.861 373.044 179.676 372.336 177.198 371.982L152.072 365.612C151.718 365.612 140.04 361.011 144.287 359.949C144.641 359.596 142.871 357.472 148.18 357.472Z" fill="url(#paint46_linear)"/>
<path d="M148.887 357.472C157.734 357.118 163.042 357.826 172.244 358.18C181.445 358.534 188.522 359.242 194.538 359.596C197.016 359.95 199.139 359.95 201.262 360.303C207.986 361.011 213.294 361.719 216.833 362.781C220.726 363.842 222.142 365.258 222.496 366.674C223.203 368.443 219.311 371.982 213.294 372.336C203.739 373.398 196.308 374.106 186.399 373.044C181.445 372.336 178.613 371.628 176.136 371.274L152.072 365.612C151.718 365.612 140.748 361.011 144.994 359.95C145.348 359.596 143.933 357.826 148.887 357.472Z" fill="url(#paint47_linear)"/>
<path d="M149.597 357.826C158.09 357.473 163.398 358.18 172.245 358.534C181.093 358.888 188.17 359.596 193.479 359.95C195.956 360.304 198.079 360.304 200.202 360.658C206.926 361.365 211.527 362.073 215.42 363.135C218.958 364.197 220.374 365.612 221.082 366.674C222.143 368.444 217.897 371.983 211.881 372.336C202.68 373.398 195.248 374.106 186.047 373.044C181.446 372.336 178.615 371.983 176.138 371.275L152.074 365.612C151.72 365.612 141.103 361.012 145.704 359.95C146.058 359.596 144.996 358.18 149.597 357.826Z" fill="url(#paint48_linear)"/>
<path d="M150.302 358.18C158.442 357.826 163.75 358.534 172.243 358.888C180.737 359.242 187.46 359.949 192.769 360.303C194.892 360.657 197.015 360.657 199.139 361.011C205.509 361.719 210.109 362.427 213.648 363.489C217.187 364.55 218.603 365.966 219.31 367.028C220.372 368.797 216.479 372.336 210.109 372.69C201.262 373.398 194.184 374.106 185.337 373.044C181.09 372.336 178.259 371.982 175.782 371.628L152.072 365.612C151.718 365.612 141.809 361.011 146.41 359.949C147.117 359.596 146.056 358.18 150.302 358.18Z" fill="url(#paint49_linear)"/>
<path d="M151.366 358.18C159.151 357.826 164.46 358.534 172.599 358.888C180.739 359.242 187.109 359.949 192.417 360.657C194.54 361.011 196.663 361.011 198.433 361.365C204.449 362.073 209.05 362.781 212.588 363.842C215.773 364.904 217.189 365.966 217.897 367.028C218.958 368.797 215.066 371.982 208.696 372.69C200.202 373.398 193.125 374.106 185.339 373.044C181.446 372.69 178.615 371.982 176.492 371.628L152.074 365.612C151.72 365.612 142.165 361.365 147.119 359.949C147.827 359.596 147.119 358.534 151.366 358.18Z" fill="url(#paint50_linear)"/>
<path d="M152.074 358.534C159.859 358.18 164.814 358.888 172.245 359.242C180.031 359.596 186.401 360.303 191.355 361.011C193.479 361.365 195.602 361.365 197.371 361.719C203.034 362.427 207.634 363.135 210.819 364.196C214.004 365.258 215.42 366.32 216.127 367.382C217.543 369.151 213.296 372.336 206.926 373.044C198.787 373.752 192.063 374.106 184.632 373.398C180.739 373.044 178.262 372.336 176.138 371.982L152.074 365.612C151.72 365.612 142.873 361.365 147.473 359.95C148.535 359.95 148.181 358.534 152.074 358.534Z" fill="url(#paint51_linear)"/>
<path d="M152.779 358.888C160.211 358.534 165.519 359.242 172.243 359.596C180.028 359.95 185.691 360.658 190.645 361.366C192.768 361.719 194.538 361.719 196.307 362.073C201.969 362.781 206.216 363.489 209.047 364.551C211.878 365.258 213.294 366.674 214.356 367.382C215.771 369.151 211.878 372.337 205.508 373.044C197.369 373.752 191.353 374.106 184.275 373.044C180.736 372.69 178.259 371.983 176.136 371.629L152.071 365.612C151.717 365.612 143.224 361.366 148.179 360.304C149.24 359.95 149.24 358.888 152.779 358.888Z" fill="url(#paint52_linear)"/>
<path d="M153.487 358.888C160.565 358.534 165.873 358.888 172.243 359.242C179.675 359.596 185.337 360.304 189.938 361.012C192.061 361.366 193.83 361.366 195.246 361.72C200.554 362.427 204.447 363.135 207.632 364.197C210.463 364.905 211.879 365.966 212.586 367.028C214.002 368.444 210.109 371.983 203.739 372.691C195.954 373.398 189.938 373.398 183.568 372.691C180.383 372.337 177.906 371.983 175.782 371.275L152.072 365.612C151.718 365.612 143.932 361.366 148.887 360.304C149.948 359.95 150.302 359.242 153.487 358.888Z" fill="url(#paint53_linear)"/>
<path d="M154.197 359.242C160.921 358.888 166.229 359.242 172.245 359.596C179.323 359.95 184.631 360.657 188.878 361.365C190.648 361.719 192.417 361.719 194.186 362.073C199.141 362.781 203.034 363.489 205.865 364.55C208.342 365.258 209.757 366.32 210.819 367.028C212.589 368.443 208.696 371.982 201.972 372.336C194.54 373.044 188.878 373.044 182.862 372.336C179.677 371.982 177.554 371.628 175.784 371.275L152.074 365.612C151.72 365.612 144.288 361.719 149.597 360.304C150.658 359.95 151.366 359.242 154.197 359.242Z" fill="url(#paint54_linear)"/>
<path d="M154.905 359.596C161.629 359.242 166.583 359.596 171.891 359.95C178.615 360.304 183.923 361.365 187.816 361.719C189.586 362.073 191.355 362.073 192.771 362.427C197.725 363.135 201.264 363.843 204.095 364.904C206.572 365.612 207.988 366.32 209.049 367.382C210.819 368.797 206.926 372.336 200.202 372.69C193.124 373.044 187.462 373.044 182.508 372.69C179.677 372.336 177.553 371.982 175.784 371.629L152.427 365.966C152.074 365.966 145.35 362.073 150.658 360.658C151.366 359.95 152.427 359.596 154.905 359.596Z" fill="url(#paint55_linear)"/>
<path d="M155.611 359.596C161.981 359.242 166.935 359.596 171.89 359.95C178.26 360.304 183.214 361.365 187.107 361.719C188.876 362.073 190.292 362.073 191.707 362.427C196.308 363.135 199.847 363.843 202.324 364.904C204.447 365.612 205.863 366.32 206.924 367.028C208.694 368.443 204.801 371.982 198.077 372.336C191.353 372.69 186.045 372.69 181.445 371.982C178.967 371.629 176.844 371.275 175.075 370.921L151.718 365.258C151.364 365.258 144.994 361.365 150.656 359.95C152.426 359.95 153.487 359.596 155.611 359.596Z" fill="url(#paint56_linear)"/>
<path d="M175.784 371.275L152.427 365.612C151.72 365.612 143.934 360.304 156.32 359.95C170.83 359.242 180.031 361.011 186.401 362.073C196.663 363.843 202.679 365.258 205.864 367.028C207.988 368.443 204.095 371.982 197.017 372.336C186.754 373.044 180.031 371.982 175.784 371.275Z" fill="#7C7350"/>
</g>
<path d="M276.438 237.253C275.022 311.219 237.864 370.321 193.274 369.613C191.505 369.613 170.979 369.259 169.21 368.905C107.633 361.473 156.116 307.68 157.531 236.545C158.947 166.826 108.695 105.6 175.934 101C179.472 100.646 196.105 101.354 198.582 101.354C243.172 102.415 277.853 162.933 276.438 237.253Z" fill="url(#paint57_linear)"/>
<path d="M254.851 236.545C253.436 310.511 216.278 369.967 172.042 368.905C127.452 368.197 92.7708 307.326 94.1864 233.36C95.6019 159.394 132.76 100.292 177.35 100.999C221.586 102.061 256.621 162.579 254.851 236.545Z" fill="#EAB726"/>
<path d="M198.584 101.354C196.461 101.354 183.721 101 178.059 101C221.941 102.77 256.268 162.933 254.852 236.545C253.437 309.096 217.694 367.49 174.166 368.906C180.89 368.906 191.86 369.259 192.922 369.259C237.158 370.321 274.67 310.865 276.086 236.899C277.855 162.933 243.174 102.416 198.584 101.354Z" fill="url(#paint58_linear)"/>
<path d="M198.584 101.354C196.461 101.354 173.162 101.354 167.5 101.354C211.382 103.124 249.5 161.5 254.852 236.545C253.437 309.096 217.694 367.49 174.166 368.906C180.89 368.906 191.86 369.26 192.922 369.26C237.158 370.321 274.67 310.865 276.086 236.899C277.855 162.933 243.174 102.416 198.584 101.354Z" fill="#EAB726"/>
<path d="M249.188 236.545C247.772 309.449 210.968 367.49 167.44 366.782C123.912 365.72 89.5847 305.91 91.0003 233.006C92.4158 160.102 129.22 102.061 172.748 102.769C216.276 103.477 250.603 163.641 249.188 236.545Z" fill="#FFEB4C"/>
<path d="M168.148 354.041C128.867 353.334 97.7246 299.186 99.1402 233.714C100.556 168.242 133.467 115.864 172.749 116.572C212.03 117.279 242.818 171.427 241.403 236.545C240.341 302.017 207.076 354.749 168.148 354.041Z" fill="#FFEB4C"/>
<path d="M170.625 348.733C133.113 348.025 103.741 296.709 104.802 234.068C106.218 171.781 137.714 121.526 175.226 122.234C212.738 122.942 242.111 174.258 240.695 236.899C239.633 299.186 208.137 349.441 170.625 348.733Z" fill="#FFEB4C"/>
<path d="M162.428 181.123L158.303 286.298C157.935 295.67 152.897 303.063 147.034 302.833C141.172 302.603 136.728 294.838 137.096 285.466L141.221 180.292C141.588 170.92 146.627 163.527 152.489 163.757C158.352 163.987 162.795 171.751 162.428 181.123Z" fill="#EAB726"/>
<path d="M169.769 249.028L162.221 227.063L162.319 224.575C165.823 222.105 168.8 219.209 171.431 215.894L169.769 249.028Z" fill="#EAB726"/>
<path d="M171.248 215.944C178.61 206.615 182.841 193.918 186.362 177.137C187.836 170.069 192.046 165.309 196.642 165.489C203.554 165.76 208.017 176.712 205.505 187.159C199.757 210.805 192.746 222.292 185.044 231.087L203.214 280.701C207.075 291.282 201.862 304.983 194.046 304.677C190.644 304.543 187.607 301.585 186.013 296.945L169.552 249.02L171.248 215.944Z" fill="#EAB726"/>
<path d="M236 236C236 267.19 228.621 295.329 216.795 315.602C204.94 335.925 188.857 348 171.5 348C154.143 348 138.06 335.925 126.205 315.602C114.379 295.329 107 267.19 107 236C107 204.81 114.379 176.671 126.205 156.398C138.06 136.075 154.143 124 171.5 124C188.857 124 204.94 136.075 216.795 156.398C228.621 176.671 236 204.81 236 236Z" stroke="#EAB726" stroke-width="4"/>
</g>
<defs>
<filter id="filter0_f" x="103.496" y="343.4" width="198.739" height="40.4138" filterUnits="userSpaceOnUse" color-interpolation-filters="sRGB">
<feFlood flood-opacity="0" result="BackgroundImageFix"/>
<feBlend mode="normal" in="SourceGraphic" in2="BackgroundImageFix" result="shape"/>
<feGaussianBlur stdDeviation="2" result="effect1_foregroundBlur"/>
</filter>
<linearGradient id="paint0_linear" x1="201.368" y1="378.448" x2="203.64" y2="348.014" gradientUnits="userSpaceOnUse">
<stop stop-color="#ECEBE9"/>
<stop offset="1" stop-color="#F4F3F2"/>
</linearGradient>
<linearGradient id="paint1_linear" x1="200.93" y1="378.295" x2="203.281" y2="348.038" gradientUnits="userSpaceOnUse">
<stop stop-color="#EBEAE8"/>
<stop offset="1" stop-color="#F4F3F2"/>
</linearGradient>
<linearGradient id="paint2_linear" x1="200.513" y1="378.289" x2="202.942" y2="348.174" gradientUnits="userSpaceOnUse">
<stop stop-color="#EBE9E7"/>
<stop offset="1" stop-color="#F3F2F1"/>
</linearGradient>
<linearGradient id="paint3_linear" x1="200.076" y1="378.164" x2="202.585" y2="348.181" gradientUnits="userSpaceOnUse">
<stop stop-color="#EAE8E6"/>
<stop offset="1" stop-color="#F3F2F1"/>
</linearGradient>
<linearGradient id="paint4_linear" x1="199.64" y1="378.034" x2="202.228" y2="348.177" gradientUnits="userSpaceOnUse">
<stop stop-color="#E9E8E6"/>
<stop offset="1" stop-color="#F2F2F0"/>
</linearGradient>
<linearGradient id="paint5_linear" x1="199.21" y1="377.899" x2="201.877" y2="348.163" gradientUnits="userSpaceOnUse">
<stop stop-color="#E8E7E5"/>
<stop offset="1" stop-color="#F2F1F0"/>
</linearGradient>
<linearGradient id="paint6_linear" x1="198.78" y1="377.758" x2="201.526" y2="348.14" gradientUnits="userSpaceOnUse">
<stop stop-color="#E8E6E4"/>
<stop offset="1" stop-color="#F1F1EF"/>
</linearGradient>
<linearGradient id="paint7_linear" x1="198.354" y1="377.612" x2="201.178" y2="348.106" gradientUnits="userSpaceOnUse">
<stop stop-color="#E7E5E3"/>
<stop offset="1" stop-color="#F1F0EF"/>
</linearGradient>
<linearGradient id="paint8_linear" x1="197.956" y1="377.612" x2="200.858" y2="348.21" gradientUnits="userSpaceOnUse">
<stop stop-color="#E6E4E2"/>
<stop offset="1" stop-color="#F1F0EE"/>
</linearGradient>
<linearGradient id="paint9_linear" x1="197.517" y1="377.466" x2="200.498" y2="348.166" gradientUnits="userSpaceOnUse">
<stop stop-color="#E5E4E1"/>
<stop offset="1" stop-color="#F0EFEE"/>
</linearGradient>
<linearGradient id="paint10_linear" x1="197.058" y1="377.323" x2="200.119" y2="348.116" gradientUnits="userSpaceOnUse">
<stop stop-color="#E5E3E0"/>
<stop offset="1" stop-color="#F0EFED"/>
</linearGradient>
<linearGradient id="paint11_linear" x1="196.762" y1="377.154" x2="199.899" y2="348.03" gradientUnits="userSpaceOnUse">
<stop stop-color="#E4E2DF"/>
<stop offset="1" stop-color="#EFEEED"/>
</linearGradient>
<linearGradient id="paint12_linear" x1="196.312" y1="377.014" x2="199.53" y2="347.962" gradientUnits="userSpaceOnUse">
<stop stop-color="#E3E1DF"/>
<stop offset="1" stop-color="#EFEEEC"/>
</linearGradient>
<linearGradient id="paint13_linear" x1="195.866" y1="376.882" x2="199.166" y2="347.884" gradientUnits="userSpaceOnUse">
<stop stop-color="#E2E0DE"/>
<stop offset="1" stop-color="#EEEDEC"/>
</linearGradient>
<linearGradient id="paint14_linear" x1="195.459" y1="376.932" x2="198.844" y2="347.965" gradientUnits="userSpaceOnUse">
<stop stop-color="#E2E0DD"/>
<stop offset="1" stop-color="#EEEDEB"/>
</linearGradient>
<linearGradient id="paint15_linear" x1="195.211" y1="376.798" x2="198.679" y2="347.846" gradientUnits="userSpaceOnUse">
<stop stop-color="#E1DFDC"/>
<stop offset="1" stop-color="#EDECEB"/>
</linearGradient>
<linearGradient id="paint16_linear" x1="194.815" y1="376.702" x2="198.371" y2="347.747" gradientUnits="userSpaceOnUse">
<stop stop-color="#E0DEDB"/>
<stop offset="1" stop-color="#EDECEA"/>
</linearGradient>
<linearGradient id="paint17_linear" x1="194.523" y1="376.64" x2="197.919" y2="348.284" gradientUnits="userSpaceOnUse">
<stop stop-color="#DEDBD8"/>
<stop offset="1" stop-color="#EAE9E6"/>
</linearGradient>
<linearGradient id="paint18_linear" x1="194.055" y1="376.605" x2="197.299" y2="348.841" gradientUnits="userSpaceOnUse">
<stop stop-color="#DBD9D4"/>
<stop offset="1" stop-color="#E7E6E2"/>
</linearGradient>
<linearGradient id="paint19_linear" x1="193.729" y1="376.375" x2="196.822" y2="349.197" gradientUnits="userSpaceOnUse">
<stop stop-color="#D9D6D1"/>
<stop offset="1" stop-color="#E5E3DF"/>
</linearGradient>
<linearGradient id="paint20_linear" x1="193.43" y1="376.314" x2="196.376" y2="349.713" gradientUnits="userSpaceOnUse">
<stop stop-color="#D6D4CD"/>
<stop offset="1" stop-color="#E2E0DB"/>
</linearGradient>
<linearGradient id="paint21_linear" x1="193.129" y1="376.25" x2="195.933" y2="350.22" gradientUnits="userSpaceOnUse">
<stop stop-color="#D4D1CA"/>
<stop offset="1" stop-color="#DFDDD7"/>
</linearGradient>
<linearGradient id="paint22_linear" x1="192.667" y1="376.211" x2="195.335" y2="350.744" gradientUnits="userSpaceOnUse">
<stop stop-color="#D1CEC7"/>
<stop offset="1" stop-color="#DCDAD3"/>
</linearGradient>
<linearGradient id="paint23_linear" x1="192.36" y1="376.146" x2="194.895" y2="351.235" gradientUnits="userSpaceOnUse">
<stop stop-color="#CFCCC3"/>
<stop offset="1" stop-color="#DAD7D0"/>
</linearGradient>
<linearGradient id="paint24_linear" x1="192.031" y1="376.082" x2="194.436" y2="351.72" gradientUnits="userSpaceOnUse">
<stop stop-color="#CCC9C0"/>
<stop offset="1" stop-color="#D7D4CC"/>
</linearGradient>
<linearGradient id="paint25_linear" x1="191.655" y1="375.875" x2="193.935" y2="352.057" gradientUnits="userSpaceOnUse">
<stop stop-color="#CAC7BC"/>
<stop offset="1" stop-color="#D4D1C8"/>
</linearGradient>
<linearGradient id="paint26_linear" x1="191.305" y1="375.814" x2="193.463" y2="352.532" gradientUnits="userSpaceOnUse">
<stop stop-color="#C8C4B9"/>
<stop offset="1" stop-color="#D1CEC4"/>
</linearGradient>
<linearGradient id="paint27_linear" x1="190.953" y1="375.75" x2="192.994" y2="352.995" gradientUnits="userSpaceOnUse">
<stop stop-color="#C5C1B6"/>
<stop offset="1" stop-color="#CFCCC1"/>
</linearGradient>
<linearGradient id="paint28_linear" x1="190.599" y1="375.685" x2="192.526" y2="353.451" gradientUnits="userSpaceOnUse">
<stop stop-color="#C3BFB2"/>
<stop offset="1" stop-color="#CCC9BD"/>
</linearGradient>
<linearGradient id="paint29_linear" x1="190.245" y1="375.618" x2="192.062" y2="353.896" gradientUnits="userSpaceOnUse">
<stop stop-color="#C0BCAF"/>
<stop offset="1" stop-color="#C9C6B9"/>
</linearGradient>
<linearGradient id="paint30_linear" x1="189.89" y1="375.549" x2="191.602" y2="354.332" gradientUnits="userSpaceOnUse">
<stop stop-color="#BEB9AC"/>
<stop offset="1" stop-color="#C6C3B5"/>
</linearGradient>
<linearGradient id="paint31_linear" x1="189.515" y1="375.355" x2="191.125" y2="354.636" gradientUnits="userSpaceOnUse">
<stop stop-color="#BBB7A8"/>
<stop offset="1" stop-color="#C4C0B2"/>
</linearGradient>
<linearGradient id="paint32_linear" x1="189.157" y1="375.285" x2="190.668" y2="355.054" gradientUnits="userSpaceOnUse">
<stop stop-color="#B9B4A5"/>
<stop offset="1" stop-color="#C1BDAE"/>
</linearGradient>
<linearGradient id="paint33_linear" x1="188.801" y1="375.212" x2="190.216" y2="355.461" gradientUnits="userSpaceOnUse">
<stop stop-color="#B7B2A1"/>
<stop offset="1" stop-color="#BEBAAA"/>
</linearGradient>
<linearGradient id="paint34_linear" x1="188.442" y1="375.137" x2="189.767" y2="355.855" gradientUnits="userSpaceOnUse">
<stop stop-color="#B4AF9E"/>
<stop offset="1" stop-color="#BBB7A6"/>
</linearGradient>
<linearGradient id="paint35_linear" x1="188.082" y1="375.059" x2="189.319" y2="356.237" gradientUnits="userSpaceOnUse">
<stop stop-color="#B2AC9B"/>
<stop offset="1" stop-color="#B9B4A3"/>
</linearGradient>
<linearGradient id="paint36_linear" x1="187.724" y1="374.979" x2="188.876" y2="356.605" gradientUnits="userSpaceOnUse">
<stop stop-color="#AFAA97"/>
<stop offset="1" stop-color="#B6B19F"/>
</linearGradient>
<linearGradient id="paint37_linear" x1="187.348" y1="374.795" x2="188.419" y2="356.853" gradientUnits="userSpaceOnUse">
<stop stop-color="#ADA794"/>
<stop offset="1" stop-color="#B3AE9B"/>
</linearGradient>
<linearGradient id="paint38_linear" x1="186.99" y1="374.714" x2="187.984" y2="357.182" gradientUnits="userSpaceOnUse">
<stop stop-color="#AAA590"/>
<stop offset="1" stop-color="#B0AB97"/>
</linearGradient>
<linearGradient id="paint39_linear" x1="186.628" y1="374.63" x2="187.549" y2="357.485" gradientUnits="userSpaceOnUse">
<stop stop-color="#A8A28D"/>
<stop offset="1" stop-color="#AEA894"/>
</linearGradient>
<linearGradient id="paint40_linear" x1="186.267" y1="374.543" x2="187.119" y2="357.747" gradientUnits="userSpaceOnUse">
<stop stop-color="#A59F8A"/>
<stop offset="1" stop-color="#ABA590"/>
</linearGradient>
<linearGradient id="paint41_linear" x1="185.903" y1="374.453" x2="186.692" y2="357.926" gradientUnits="userSpaceOnUse">
<stop stop-color="#A39D86"/>
<stop offset="1" stop-color="#A8A28C"/>
</linearGradient>
<linearGradient id="paint42_linear" x1="185.48" y1="374.359" x2="186.211" y2="358.008" gradientUnits="userSpaceOnUse">
<stop stop-color="#A19A83"/>
<stop offset="1" stop-color="#A59F88"/>
</linearGradient>
<linearGradient id="paint43_linear" x1="184.99" y1="374.18" x2="185.665" y2="358.015" gradientUnits="userSpaceOnUse">
<stop stop-color="#9E987F"/>
<stop offset="1" stop-color="#A39C85"/>
</linearGradient>
<linearGradient id="paint44_linear" x1="184.513" y1="374.082" x2="185.132" y2="358.108" gradientUnits="userSpaceOnUse">
<stop stop-color="#9C957C"/>
<stop offset="1" stop-color="#A09981"/>
</linearGradient>
<linearGradient id="paint45_linear" x1="184.033" y1="373.981" x2="184.597" y2="358.207" gradientUnits="userSpaceOnUse">
<stop stop-color="#999279"/>
<stop offset="1" stop-color="#9D967D"/>
</linearGradient>
<linearGradient id="paint46_linear" x1="183.55" y1="373.879" x2="184.06" y2="358.311" gradientUnits="userSpaceOnUse">
<stop stop-color="#979075"/>
<stop offset="1" stop-color="#9A9379"/>
</linearGradient>
<linearGradient id="paint47_linear" x1="183.063" y1="373.775" x2="183.521" y2="358.42" gradientUnits="userSpaceOnUse">
<stop stop-color="#948D72"/>
<stop offset="1" stop-color="#989176"/>
</linearGradient>
<linearGradient id="paint48_linear" x1="182.575" y1="373.669" x2="182.981" y2="358.535" gradientUnits="userSpaceOnUse">
<stop stop-color="#928A6F"/>
<stop offset="1" stop-color="#958E72"/>
</linearGradient>
<linearGradient id="paint49_linear" x1="182.068" y1="373.505" x2="182.423" y2="358.6" gradientUnits="userSpaceOnUse">
<stop stop-color="#90886B"/>
<stop offset="1" stop-color="#928B6E"/>
</linearGradient>
<linearGradient id="paint50_linear" x1="181.572" y1="373.4" x2="181.878" y2="358.729" gradientUnits="userSpaceOnUse">
<stop stop-color="#8D8568"/>
<stop offset="1" stop-color="#8F886A"/>
</linearGradient>
<linearGradient id="paint51_linear" x1="181.07" y1="373.294" x2="181.327" y2="358.863" gradientUnits="userSpaceOnUse">
<stop stop-color="#8B8364"/>
<stop offset="1" stop-color="#8D8567"/>
</linearGradient>
<linearGradient id="paint52_linear" x1="180.559" y1="373.19" x2="180.77" y2="359.003" gradientUnits="userSpaceOnUse">
<stop stop-color="#888061"/>
<stop offset="1" stop-color="#8A8263"/>
</linearGradient>
<linearGradient id="paint53_linear" x1="180.044" y1="373.085" x2="180.209" y2="359.148" gradientUnits="userSpaceOnUse">
<stop stop-color="#867D5E"/>
<stop offset="1" stop-color="#877F5F"/>
</linearGradient>
<linearGradient id="paint54_linear" x1="179.523" y1="372.985" x2="179.645" y2="359.298" gradientUnits="userSpaceOnUse">
<stop stop-color="#837B5A"/>
<stop offset="1" stop-color="#847C5B"/>
</linearGradient>
<linearGradient id="paint55_linear" x1="178.98" y1="372.857" x2="179.06" y2="359.422" gradientUnits="userSpaceOnUse">
<stop stop-color="#817857"/>
<stop offset="1" stop-color="#827958"/>
</linearGradient>
<linearGradient id="paint56_linear" x1="178.437" y1="372.778" x2="178.477" y2="359.587" gradientUnits="userSpaceOnUse">
<stop stop-color="#7E7653"/>
<stop offset="1" stop-color="#7F7654"/>
</linearGradient>
<linearGradient id="paint57_linear" x1="243.916" y1="116.907" x2="140.123" y2="359.495" gradientUnits="userSpaceOnUse">
<stop stop-color="#F2DA58"/>
<stop offset="0.3377" stop-color="#F2E889"/>
<stop offset="0.5755" stop-color="#F2DA58"/>
<stop offset="0.6887" stop-color="#F2CF45"/>
<stop offset="0.7416" stop-color="#F0C43B"/>
<stop offset="0.9052" stop-color="#ECA820"/>
<stop offset="1" stop-color="#EA9E16"/>
</linearGradient>
<linearGradient id="paint58_linear" x1="147.235" y1="116.054" x2="257.749" y2="344.279" gradientUnits="userSpaceOnUse">
<stop stop-color="#FFE764"/>
<stop offset="0.3377" stop-color="#FFF595"/>
<stop offset="0.5755" stop-color="#FFE764"/>
<stop offset="0.6887" stop-color="#FFDC51"/>
<stop offset="0.7456" stop-color="#FDD046"/>
<stop offset="0.9066" stop-color="#F9B42B"/>
<stop offset="1" stop-color="#F7AA21"/>
</linearGradient>
<clipPath id="clip0">
<rect width="264" height="281" fill="white" transform="translate(91 101)"/>
</clipPath>
</defs>
</svg>
