<svg width="40" height="40" viewBox="0 0 40 40" fill="none" xmlns="http://www.w3.org/2000/svg">
<path d="M2.60919 2.77708C-0.525115 6.03206 0.11637 9.48975 0.11637 19.9941C0.11637 28.7172 -1.40591 37.462 6.56113 39.5206C9.04897 40.1603 31.0921 40.1603 33.5766 39.5173C36.8937 38.6616 39.5926 35.9716 39.9616 31.281C40.0131 30.6264 40.0131 9.37344 39.9599 8.7055C39.5677 3.70921 36.4916 0.82974 32.4382 0.246535C31.5093 0.11195 31.3231 0.0720723 26.5569 0.0637645C9.65057 0.0720723 5.94458 -0.680611 2.60919 2.77708Z" fill="#2196F3"/>
<path d="M30.8347 11.6666H34.1681C34.6283 11.6666 35.0014 11.2935 35.0014 10.8333V5.83328C35.0013 5.37313 34.6282 5 34.168 5H30.8346C25.772 5 21.668 9.10406 21.668 14.1666V18.3333H17.5013C17.0411 18.3333 16.668 18.7064 16.668 19.1666V24.1666C16.668 24.6269 17.0411 25 17.5013 25H21.668V40H28.3346V25H32.5013C32.8598 24.9998 33.1781 24.7702 33.2913 24.43L34.958 19.43C35.1034 18.9934 34.8674 18.5215 34.4307 18.376C34.346 18.3478 34.2573 18.3334 34.168 18.3333H28.3346V14.1666C28.3347 12.7859 29.454 11.6666 30.8347 11.6666Z" fill="#FAFAFA"/>
</svg>
