<svg width="18" height="18" viewBox="0 0 18 18" fill="none" xmlns="http://www.w3.org/2000/svg">
<g clip-path="url(#clip0)">
<path d="M18 12L18 11.9025C17.9968 11.5668 17.8822 11.2418 17.6743 10.9783C17.4663 10.7148 17.1767 10.5278 16.851 10.4467C16.5339 10.3599 16.2541 10.1713 16.0546 9.90989C15.8552 9.64849 15.7471 9.3288 15.7471 9C15.7471 8.6712 15.8552 8.35151 16.0546 8.09011C16.2541 7.82871 16.5339 7.64008 16.851 7.55325C17.1767 7.47217 17.4663 7.28521 17.6743 7.02173C17.8822 6.75824 17.9968 6.43315 18 6.0975L18 6C17.9988 5.0058 17.6033 4.05267 16.9003 3.34966C16.1973 2.64666 15.2442 2.25119 14.25 2.25L2.25 2.25C1.65326 2.25 1.08097 2.48705 0.65901 2.90901C0.237053 3.33097 -7.22664e-08 3.90326 -9.83506e-08 4.5L-1.6818e-07 6.0975C0.0031889 6.43315 0.11776 6.75824 0.325725 7.02173C0.533689 7.28521 0.823269 7.47217 1.149 7.55325C1.46613 7.64008 1.74594 7.82871 1.94539 8.09011C2.14484 8.35151 2.25288 8.6712 2.25288 9C2.25288 9.3288 2.14484 9.64849 1.94539 9.90989C1.74594 10.1713 1.46613 10.3599 1.149 10.4467C0.823269 10.5278 0.533689 10.7148 0.325725 10.9783C0.117759 11.2418 0.00318868 11.5668 -4.21924e-07 11.9025L-4.91753e-07 13.5C-5.17837e-07 14.0967 0.237052 14.669 0.659009 15.091C1.08097 15.5129 1.65326 15.75 2.25 15.75L14.25 15.75C15.2442 15.7488 16.1973 15.3533 16.9003 14.6503C17.6033 13.9473 17.9988 12.9942 18 12H18ZM1.5 13.5L1.54725 11.8927C2.18369 11.7166 2.74422 11.3354 3.14192 10.8082C3.53962 10.281 3.75227 9.63734 3.74688 8.977C3.7415 8.31665 3.51839 7.67654 3.11214 7.15591C2.7059 6.63529 2.13922 6.26325 1.5 6.0975L1.5 4.5C1.5 4.30109 1.57902 4.11032 1.71967 3.96967C1.86032 3.82902 2.05109 3.75 2.25 3.75L5.25 3.75L5.25 5.25C5.25 5.44891 5.32902 5.63968 5.46967 5.78033C5.61032 5.92098 5.80109 6 6 6C6.19891 6 6.38968 5.92098 6.53033 5.78033C6.67098 5.63968 6.75 5.44891 6.75 5.25L6.75 3.75L14.25 3.75C14.8467 3.75 15.419 3.98705 15.841 4.40901C16.2629 4.83097 16.5 5.40326 16.5 6L16.4527 6.10725C15.8202 6.28292 15.2625 6.66075 14.8647 7.18306C14.467 7.70538 14.2511 8.34349 14.25 9C14.2557 9.66537 14.4785 10.3107 14.8847 10.8377C15.2908 11.3648 15.858 11.7447 16.5 11.9198L16.5 12C16.5 12.5967 16.2629 13.169 15.841 13.591C15.419 14.0129 14.8467 14.25 14.25 14.25L6.75 14.25L6.75 12.75C6.75 12.5511 6.67098 12.3603 6.53033 12.2197C6.38968 12.079 6.19891 12 6 12C5.80109 12 5.61032 12.079 5.46967 12.2197C5.32902 12.3603 5.25 12.5511 5.25 12.75L5.25 14.25L2.25 14.25C2.05109 14.25 1.86032 14.171 1.71967 14.0303C1.57902 13.8897 1.5 13.6989 1.5 13.5Z" fill="#0D8284"/>
<path d="M6.75 9.75L6.75 8.25C6.75 8.05109 6.67098 7.86032 6.53033 7.71967C6.38968 7.57902 6.19891 7.5 6 7.5C5.80109 7.5 5.61032 7.57902 5.46967 7.71967C5.32902 7.86032 5.25 8.05109 5.25 8.25L5.25 9.75C5.25 9.94891 5.32902 10.1397 5.46967 10.2803C5.61032 10.421 5.80109 10.5 6 10.5C6.19891 10.5 6.38968 10.421 6.53033 10.2803C6.67098 10.1397 6.75 9.94891 6.75 9.75Z" fill="#0D8284"/>
</g>
<defs>
<clipPath id="clip0">
<rect width="18" height="18" fill="white" transform="translate(18) rotate(90)"/>
</clipPath>
</defs>
</svg>
