<svg width="778" height="702" viewBox="0 0 778 702" fill="none" xmlns="http://www.w3.org/2000/svg">
<path opacity="0.1" d="M70.0444 265.084C70.0444 265.084 -97.9556 61.0838 90.0444 9.08377C278.044 -42.9162 344.044 169.084 472.044 175.084C600.044 181.084 750.044 95.0838 790.044 95.0838C830.044 95.0838 902.044 99.0838 898.044 169.084C894.044 239.084 842.044 303.084 840.044 337.084C838.044 371.084 886.044 463.084 894.044 485.084C902.044 507.084 912.044 569.084 868.044 573.084C845.524 575.084 717.044 600.084 543.044 549.084C411.374 510.494 205.284 577.084 157.234 577.084C141.673 577.122 126.487 572.313 113.784 563.324C78.4844 538.214 22.3144 475.144 72.0444 345.084C98.0444 277.084 70.0444 265.084 70.0444 265.084Z" fill="#67BE9F"/>
<path d="M238.039 298.084C266.206 298.084 289.039 275.251 289.039 247.084C289.039 218.917 266.206 196.084 238.039 196.084C209.873 196.084 187.039 218.917 187.039 247.084C187.039 275.251 209.873 298.084 238.039 298.084Z" fill="white"/>
<path d="M176.039 290.084C194.817 290.084 210.039 274.862 210.039 256.084C210.039 237.306 194.817 222.084 176.039 222.084C157.261 222.084 142.039 237.306 142.039 256.084C142.039 274.862 157.261 290.084 176.039 290.084Z" fill="white"/>
<path d="M292.039 290.084C310.264 290.084 325.039 275.309 325.039 257.084C325.039 238.859 310.264 224.084 292.039 224.084C273.814 224.084 259.039 238.859 259.039 257.084C259.039 275.309 273.814 290.084 292.039 290.084Z" fill="white"/>
<path d="M153.039 505.084C171.817 505.084 187.039 489.862 187.039 471.084C187.039 452.306 171.817 437.084 153.039 437.084C134.261 437.084 119.039 452.306 119.039 471.084C119.039 489.862 134.261 505.084 153.039 505.084Z" fill="white"/>
<path d="M193.039 501.084C206.294 501.084 217.039 490.339 217.039 477.084C217.039 463.829 206.294 453.084 193.039 453.084C179.784 453.084 169.039 463.829 169.039 477.084C169.039 490.339 179.784 501.084 193.039 501.084Z" fill="white"/>
<path d="M894.875 792.142C894.875 792.142 953.674 683.422 841.881 665.595C807.618 660.147 787.845 647.248 787.845 627.699C787.845 608.151 806.538 581.151 859.532 586.358C912.527 591.526 933.3 449.276 792.008 449.276C650.716 449.276 597.201 419.992 567.342 407.534C537.482 395.076 268.827 298.172 232.123 536.965C226.919 570.735 235.245 610.754 268.467 631.305C301.688 651.855 299.647 679.015 274.711 695.039C249.774 711.103 181.21 708.058 177.047 796.909L894.875 792.142Z" fill="#DCEBE8"/>
<path d="M703.039 454.084C731.206 454.084 754.039 431.251 754.039 403.084C754.039 374.917 731.206 352.084 703.039 352.084C674.873 352.084 652.039 374.917 652.039 403.084C652.039 431.251 674.873 454.084 703.039 454.084Z" fill="white"/>
<path d="M640.039 442.084C658.817 442.084 674.039 426.862 674.039 408.084C674.039 389.306 658.817 374.084 640.039 374.084C621.261 374.084 606.039 389.306 606.039 408.084C606.039 426.862 621.261 442.084 640.039 442.084Z" fill="white"/>
<path d="M759.039 445.084C777.264 445.084 792.039 430.309 792.039 412.084C792.039 393.859 777.264 379.084 759.039 379.084C740.814 379.084 726.039 393.859 726.039 412.084C726.039 430.309 740.814 445.084 759.039 445.084Z" fill="white"/>
<path d="M351.184 381.536C351.046 387.962 350.363 394.294 349.929 400.723C349.842 402.009 349.104 402.362 348.118 402.618C344.816 403.588 341.565 404.755 338.465 406.266C337.334 406.82 336.252 407.423 335.42 408.321C333.805 410.016 334.211 411.198 336.589 411.819C337.923 411.708 339.257 411.646 340.593 411.831C345.93 411.831 351.208 410.694 356.438 409.806C358.905 409.387 359.727 407.403 357.883 405.69C355.04 402.949 356.054 400.37 357.164 397.542C358.178 394.963 358.745 392.19 360.057 389.707C361.915 387.565 362.235 384.794 363.101 382.265C367.868 368.729 372.585 355.144 377.253 341.559C377.782 340.022 378.954 338.479 377.948 336.66C375.821 336.383 373.701 336.996 371.678 337.311C368.174 337.887 364.857 337.276 361.491 336.615C358.223 336.003 356.178 333.996 355.111 330.892C354.543 338.904 353.926 346.916 353.358 354.927C352.552 363.88 351.892 372.683 351.184 381.536Z" fill="#EC1B24"/>
<path d="M355.01 330.942C355.24 334.449 356.34 335.823 359.959 336.975C365.957 338.896 371.912 341.559 377.925 339.823C380.279 337.824 380.67 332.038 380.792 329.22C377.473 328.361 374.014 328.492 370.6 327.981C366.195 327.33 361.886 326.332 357.77 324.789C356.926 324.45 356.132 324.062 355.194 324.121C355.116 326.395 355.088 328.668 355.01 330.942Z" fill="#D21821"/>
<path d="M352.009 247.794C352.314 248.631 352.618 249.419 352.922 250.256C353.773 251.435 353.09 252.429 352.507 253.423C351.242 255.609 349.53 257.503 348.464 259.836C342.133 269.878 335.901 280.018 329.669 290.108C328.792 291.5 327.811 292.3 328.214 293.038C328.616 293.825 328.317 293.531 328.918 294.366C329.319 294.955 330.069 295.936 330.623 297.019C334.851 305.233 339.029 313.497 343.258 321.76C343.459 322.203 343.612 322.696 343.765 323.139C344.22 324.272 344.872 325.303 345.376 326.386C345.679 327.026 346.174 327.169 346.662 326.473C348.455 322.651 350.723 322.086 354.057 324.477C358.335 327.55 358.623 331.847 354.81 336.38C351.095 340.764 348.825 341.18 343.708 338.361C341.97 337.389 340.327 336.169 339.177 334.648C335.574 329.887 331.041 326.074 326.949 321.813C320.91 315.494 315.46 308.724 311.925 300.602C311.774 300.307 311.525 300.063 311.325 299.817C308.847 293.762 308.693 287.832 311.305 281.68C315.172 272.353 319.14 263.272 322.908 253.945C323.198 253.201 323.83 252.158 324.319 251.511C328.183 247.225 331.506 243.141 336.72 240.523C342.033 237.854 347.385 239.435 350.349 244.646C350.951 245.629 351.554 246.661 352.009 247.794Z" fill="#FCBF7D"/>
<path d="M339.136 239.166C334.312 241.336 333.18 241.84 329.364 245.978C329.315 246.028 329.266 246.078 329.267 246.127C328.042 247.324 325.544 249.72 324.765 250.963C324.716 251.013 324.667 251.112 324.668 251.161C324.051 253.935 331.016 258.861 332.325 261.518C332.578 262.109 332.88 262.65 333.181 263.19C335.439 266.827 336.703 269.879 339.446 272.522C340.097 268.167 340.699 263.812 341.499 259.505C342.581 253.614 344.208 247.915 346.38 242.311C346.573 241.765 347.013 241.218 346.958 240.625C346.905 240.28 346.558 240.134 346.259 239.94C345.267 239.504 341.254 238.503 339.136 239.166Z" fill="#D1153A"/>
<path d="M565.692 287.618C568.503 287.048 570.394 288.463 572.388 290.274C580.114 297.368 587.351 304.911 593.362 313.554C602.278 326.37 614.746 333.222 629.747 336.048C648.412 339.581 666.472 336.547 684.106 330.255C703.662 323.302 720.808 312.369 736.047 298.29C736.39 297.941 736.833 297.739 737.52 297.239C736.08 296.462 735.046 296.867 734.058 296.975C721.515 297.981 709.392 296.413 697.974 290.885C685.662 284.921 677.417 275.212 672.555 262.556C669.516 254.627 666.231 246.849 661.765 239.576C653.837 226.751 642.356 219.791 627.418 218.398C624.549 218.128 621.679 217.71 618.858 217.291C609.9 215.941 605.71 211.779 604.243 202.848C603.669 199.542 603.935 196.277 604.794 193.057C607.137 184.535 612.993 181.812 620.983 185.444C621.478 185.538 621.625 185.339 621.472 184.896C611.402 175.55 599.923 168.738 586.21 166.295C575.715 164.416 565.546 165.647 555.801 169.938C542.019 175.997 527.675 180.035 512.974 182.89C511.79 183.098 510.557 183.406 509.318 183.022C501.961 183.783 494.711 185.382 487.303 185.945C477.772 186.676 468.292 187.654 458.753 187.594C457.369 187.607 455.935 187.472 454.605 187.93C453.179 188.783 454.128 189.812 454.532 190.698C455.741 193.207 456.753 195.768 457.52 198.479C458.185 200.894 457.959 203.17 456.843 205.404C454.709 209.822 452.526 214.241 450.344 218.66C447.687 225.258 446.267 231.992 448.26 239.041C449.027 241.851 450.188 244.459 451.89 246.766C453.694 249.468 455.597 252.119 458.087 254.221C458.934 254.954 459.882 255.934 460.906 254.392C461.196 253.648 461.188 252.857 461.23 252.066C461.071 250.832 461.455 249.643 461.74 248.404C462.734 243.75 465.676 241.251 470.264 240.319C474.457 239.489 478.609 239.5 482.767 240.302C488.506 240.94 493.67 243.462 498.782 245.836C516.403 254.024 533.732 262.71 549.895 273.63C555.266 277.287 560.589 281.043 565.522 285.296C566.17 285.883 566.818 286.47 567.71 286.759C566.87 286.766 565.827 286.183 565.692 287.618Z" fill="#EC1941"/>
<path d="M452.627 246.761C447.513 238.901 446.794 230.605 449.875 221.828C450.26 220.738 450.596 219.647 450.932 218.557C451.318 217.515 451.209 216.479 450.952 215.443C446.536 197.544 437.941 182.106 423.892 170.029C417.117 164.211 409.464 159.686 400.84 157.097C399.701 156.762 398.371 157.269 397.472 156.239C378.71 152.905 361.191 155.687 345.331 166.756C332.516 175.722 323.335 187.619 316.843 201.715C317.33 200.87 316.016 203.107 315.145 205.042C311.319 213.529 309.222 221.802 308.072 231.005C307.843 232.934 308.054 234.464 307.83 236.888C307.839 237.876 307.993 238.468 307.951 239.309C307.264 266.447 314.803 290.594 334.457 310.13C339.795 315.467 346.011 319.61 352.86 322.759C353.655 323.147 354.546 323.386 355.146 324.122C358.875 326.509 363.182 327.309 367.391 328.159C371.798 329.057 376.345 329.114 380.8 329.913C382.186 330.097 385.55 330.511 389.653 330.621C389.596 329.732 384.892 328.837 383.557 328.75C393.786 328.556 403.145 325.306 411.695 319.988C436.019 304.886 448.509 282.185 452.798 254.469C453.169 251.895 454.183 249.267 452.627 246.761Z" fill="#FFEB4C"/>
<path d="M484.096 250.718C489.588 262.034 475.907 273.627 488.593 282.553C488.035 286.314 481.118 291.864 507.4 290.829C508.784 290.767 508.639 291.114 513.827 291.066C530.431 290.912 547.026 289.67 563.566 288.034C564.307 287.978 564.997 287.773 565.737 287.618C566.371 286.673 567.464 287.355 568.349 286.853C560.327 279.811 551.722 273.861 542.773 268.212C533.676 262.514 524.287 257.264 514.607 252.609C505.175 248.101 487.64 238.528 475.785 239.231C474.993 239.041 477.844 242.721 479.777 243.345C480.2 246.257 482.189 247.573 483.741 249.733C484.043 250.323 483.647 250.228 484.096 250.718Z" fill="#D1143A"/>
<path d="M441.205 394.883C442.576 398.824 443.947 402.765 445.417 406.655C445.923 407.985 444.988 408.389 444.302 409.038C442 411.234 442.109 412.37 444.793 413.976C449.961 416.992 455.654 418.026 461.539 418.515C461.935 418.561 462.38 418.557 462.774 418.454C464.352 418.093 466.277 417.828 466.605 415.898C466.935 414.116 465.101 413.54 463.859 412.859C460.481 410.963 456.764 409.861 452.999 408.908C451.463 408.527 450.863 407.791 450.75 406.21C450.418 402.458 449.939 398.706 449.509 394.954C448.288 385.921 447.067 376.888 445.896 367.855C444.03 353.244 442.215 338.681 440.349 324.07C440.296 323.675 440.095 323.282 439.992 322.887C438.414 323.248 437.984 324.883 436.856 325.783C432.88 328.736 428.394 329.914 423.603 330.255C422.467 330.315 421.279 330.079 420.297 330.829C419.569 332.171 420.272 333.4 420.58 334.632C421.962 339.809 423.788 344.833 425.515 349.858C430.193 363.899 434.968 377.89 439.744 391.882C440.001 392.967 440.161 394.201 441.205 394.883Z" fill="#EC1B24"/>
<path d="M467.598 262.239C465.998 260.178 463.761 258.815 461.965 257.003C461.267 256.318 460.618 255.632 460.46 254.645C459.378 255.199 459.072 254.114 458.524 253.625C456.232 251.669 454.479 249.165 452.677 246.76C453.223 252.241 451.788 257.444 450.7 262.692C447.858 275.914 442.536 288.171 434.233 298.874C423.441 312.812 409.994 323.019 392.487 327.037C389.331 327.758 386.125 328.48 382.665 328.363C383.661 329.194 382.814 328.51 383.711 329.243C383.91 329.39 384.109 329.536 384.307 329.633C385.796 330.262 387.278 330.248 388.317 330.387C397.322 331.489 406.108 330.271 414.732 327.571C415.816 327.215 416.95 326.957 417.983 326.454C418.671 326.052 418.714 325.36 418.511 324.719C416.785 319.842 419.473 316.556 422.607 313.512C424.909 311.266 427.762 309.757 430.715 308.494C434.801 306.776 436.538 307.501 438.206 311.538C438.358 311.932 438.559 312.276 438.957 312.52C448.371 304.475 455.197 294.478 460.431 283.359C460.916 282.366 461.003 281.08 462.134 280.477C464.897 274.669 466.768 268.622 467.598 262.239Z" fill="#D89116"/>
<path d="M454.208 188.379C457.568 188.348 460.979 188.415 464.338 188.285C473.577 187.903 482.762 187.175 491.995 186.199C497.278 185.656 502.456 184.422 507.74 183.977C508.481 183.921 509.022 183.669 509.362 183.023C485.621 170.345 460.316 164.946 433.499 166.974C433.21 167.768 433.758 168.208 434.305 168.598C441.617 173.67 447.558 180.089 452.764 187.256C453.065 187.698 453.416 188.288 454.208 188.379Z" fill="#D1143A"/>
<path d="M454.209 188.379C448.848 180.521 442.507 173.612 434.697 168.1C434.249 167.808 433.899 167.317 433.5 166.925C429.13 164.742 424.955 162.161 420.343 160.425C412.953 157.677 405.331 156.413 397.52 156.239C397.525 156.782 397.725 157.027 398.518 157.218C402.282 158.072 405.902 159.373 409.378 161.12C422.784 167.914 432.961 178.05 440.543 190.928C445.263 198.89 448.456 207.46 450.615 216.434C450.77 217.125 450.875 217.865 451.03 218.605C453.36 213.987 455.689 209.369 457.919 204.703C459.519 201.328 458.302 198.077 457.186 194.924C456.324 192.659 455.168 190.545 454.209 188.379Z" fill="#D89116"/>
<path d="M467.596 262.238C466.158 266.946 464.718 271.605 463.329 276.313C462.946 277.7 461.622 278.8 462.132 280.476C471.236 286.964 481.591 289.685 492.618 290.373C493.454 289.97 494.797 290.896 495.276 289.261C495.756 287.724 494.86 287.041 493.914 286.21C485.839 278.871 477.814 271.533 469.789 264.145C469.091 263.509 468.294 262.874 467.596 262.238Z" fill="#D1143A"/>
<path d="M438.957 312.519C438.403 306.001 434.697 306.134 430.218 308.054C426.231 309.771 422.545 312.029 419.811 315.613C417.369 318.799 416.411 322.07 418.275 325.858C419.092 328.667 418.984 332.968 420.922 334.136C426.804 334.229 431.808 330.229 436.716 326.625C438.14 325.574 439.266 324.427 439.993 322.888C439.615 319.432 439.286 315.976 438.957 312.519Z" fill="#D21821"/>
<path d="M621.522 184.846C621.376 185.045 621.18 185.196 621.033 185.395C621.385 186.034 621.882 186.326 622.771 186.268C622.714 185.428 622.167 185.088 621.522 184.846Z" fill="#F593A6"/>
<path d="M567.885 257.945C574.25 262.136 580.663 266.277 586.979 270.469C596.576 276.805 605.637 283.886 613.523 292.264C617.267 296.233 620.126 300.802 622.74 305.572C624.399 308.571 625.911 311.67 627.619 314.719C631.439 321.602 636.862 325.456 644.878 326.518C660.317 328.599 675.022 326.139 689.401 320.619C697.625 317.429 705.245 313.058 712.563 308.196C715.265 306.392 717.765 304.244 720.366 302.242C719.762 301.111 718.828 301.565 718.086 301.572C704.592 301.302 691.962 298.405 680.817 290.354C676.041 286.889 672.146 282.626 668.938 277.763C668.036 276.387 667.539 276.095 666.165 277.245C662.586 280.243 658.249 281.569 653.705 281.858C641.356 282.615 629.522 280.155 617.726 276.559C600.875 271.427 584.7 264.609 568.864 256.997C568.367 256.656 567.822 256.562 567.432 257.109C567.138 257.409 567.537 257.751 567.885 257.945Z" fill="#D6153A"/>
<path d="M512.437 215.415C542.09 215.435 571.684 214.419 600.952 220.868C597.305 216.701 594.102 212.431 592.915 206.957C591.727 201.433 593.015 196.429 596.084 191.656C591.762 194.563 587.588 197.468 582.913 199.587C573.266 203.878 563.351 205.848 552.757 203.969C548.302 203.171 543.709 203.51 539.119 204.195C529.889 205.516 521.72 209.249 513.856 213.919C513.512 214.12 513.168 214.37 512.874 214.62C512.677 214.72 512.63 214.968 512.437 215.415Z" fill="#D6153A"/>
<path d="M567.883 257.945C567.328 256.764 568.22 257.003 568.862 256.948C565.386 255.201 561.91 253.454 558.484 251.756C561.227 254.35 564.506 256.247 567.883 257.945Z" fill="#DE173D"/>
<path d="M340.545 411.832C339.203 410.954 337.869 411.016 336.542 411.819C337.88 412.202 339.214 412.14 340.545 411.832Z" fill="#EC0A14"/>
<path d="M433.162 278.966C434.531 277.322 434.907 275.292 435.681 273.407C440.948 260.608 442.949 247.245 442.031 233.465C441.564 225.859 439.914 218.411 437.425 211.219C435.258 206.742 433.534 202.013 430.827 197.838C428.263 193.216 424.964 189.194 421.371 185.422C420.121 183.902 418.773 182.431 417.132 181.359C416.19 181.072 415.59 180.336 414.991 179.65C407.628 174.43 399.588 170.798 390.582 169.547C376.132 167.507 362.969 171.04 351.136 179.403C336.358 189.869 327.597 204.382 323.112 221.672C318.484 239.506 319.29 257.093 326.17 274.178C332.898 290.869 343.89 303.716 360.858 310.724C366.067 312.9 371.512 313.837 377.15 314.279C392.63 315.42 405.523 309.518 417.248 300.118C417.64 299.818 417.933 299.42 418.275 299.021C420.969 296.426 423.464 293.635 425.659 290.551C428.641 287.014 430.777 282.892 433.162 278.966Z" fill="#FFEB4C"/>
<path d="M416.932 181.806C418.474 182.929 419.771 184.202 420.922 185.723C421.518 186.064 421.913 186.06 421.906 185.22C413.218 175.762 402.879 169.384 390.009 167.181C375.654 164.695 362.587 167.831 350.6 175.603C341.07 181.82 333.685 190.191 327.995 200.128C322.5 209.718 319.137 220.078 317.656 230.915C315.295 248.037 317.573 264.473 324.984 280.219C331.185 293.357 340.228 303.898 353.142 310.796C363.026 316.091 373.521 318.02 384.776 316.581C395.636 315.195 405.033 310.709 413.472 304.058C415.434 302.507 417.645 301.103 419.008 298.866C419.001 298.026 418.605 298.03 418.015 298.381C415.13 301.621 411.493 303.829 407.856 305.988C400.581 310.256 392.799 313.047 384.205 313.621C371.807 314.428 360.61 311.369 350.413 304.298C334.993 293.667 326.994 278.471 322.727 260.768C320.824 252.73 320.649 244.577 321.217 236.516C322.135 223.658 325.927 211.515 332.742 200.331C339.362 189.496 347.93 180.768 359.394 175.274C377.451 166.655 395.054 167.579 411.96 178.591C412.905 179.225 413.947 179.759 414.892 180.343C415.637 180.731 416.235 181.319 416.932 181.806Z" fill="#EAB726"/>
<path d="M421.908 185.171C421.714 185.568 421.319 185.671 420.924 185.674C424.419 189.497 427.964 193.319 430.428 197.941C430.874 198.085 431.07 197.886 430.918 197.443C428.7 192.818 425.5 188.844 421.908 185.171Z" fill="#ECA019"/>
<path d="M430.92 197.442C430.773 197.591 430.577 197.791 430.43 197.94C432.593 202.022 435.052 206.002 436.624 210.386C436.727 210.731 437.173 210.925 437.472 211.219C435.748 206.441 434.17 201.563 430.92 197.442Z" fill="#F4AB1A"/>
<path d="M433.156 278.966C432.716 279.415 432.027 279.767 431.785 280.313C430.139 283.985 427.399 286.976 425.355 290.405C425.407 290.701 425.557 290.848 425.854 290.895C429.183 287.454 431.269 283.283 433.156 278.966Z" fill="#F3A91A"/>
<path d="M425.856 290.895C425.707 290.748 425.507 290.552 425.357 290.405C422.911 293.096 420.863 296.081 418.018 298.381C418.414 298.377 418.81 298.472 419.011 298.866C421.758 296.616 424.056 293.975 425.856 290.895Z" fill="#EDA219"/>
<path d="M393.838 196.303C393.837 196.155 393.835 195.957 393.834 195.809C392.986 195.026 391.993 194.492 390.806 194.404C391.606 195.385 392.601 196.068 393.838 196.303Z" fill="#F2AA26"/>
<path d="M416.936 181.807C416.484 181.02 415.934 180.383 414.945 180.343C415.397 181.129 415.947 181.767 416.936 181.807Z" fill="#ECA019"/>
<path d="M462.326 242.569C461.787 243.068 461.297 243.567 460.758 244.066C460.66 244.166 460.268 244.515 460.171 244.664C459.493 246.203 459.493 246.203 459.552 247.24C459.721 249.462 460.285 251.632 460.405 253.904C460.463 254.793 460.521 255.731 460.628 256.62C461.869 267.827 463.011 279.035 464.202 290.193C464.312 291.378 464.269 292.071 463.777 292.322C462.892 292.825 462.208 293.671 461.722 294.566C461.48 295.062 460.94 295.512 460.302 296.012C452.891 301.567 445.531 307.22 438.169 312.823C437.777 313.123 437.435 313.522 437.092 313.871C436.21 314.67 435.178 315.322 434.197 316.073C433.608 316.523 433.113 316.478 433.006 315.589C433.016 311.389 431.273 309.873 427.226 310.553C421.996 311.442 419.906 315.217 421.392 320.936C422.828 326.507 424.719 327.874 430.498 327.523C432.473 327.406 434.496 327.041 436.218 326.136C441.53 323.418 447.298 321.931 452.814 319.853C461.039 316.762 468.813 313.033 475.58 307.336C475.678 307.236 475.776 307.186 475.924 307.135C476.367 306.933 476.808 306.583 477.201 306.233C481.609 301.992 484.082 296.928 484.419 290.549C484.967 280.462 485.912 270.421 486.659 260.381C486.7 259.541 486.744 258.898 486.586 257.911C485.003 252.39 483.025 247.022 479.474 242.409C475.822 237.699 470.328 236.811 465.417 240.168C464.484 240.819 463.551 241.47 462.669 242.219C462.522 242.419 462.424 242.518 462.326 242.569Z" fill="#FCBF7D"/>
<path d="M405.33 207.396C402.76 217.011 398.555 227.048 390.887 235.074C388.028 238.098 388.002 236.952 390.233 240.72C395.667 249.85 400.998 259.019 406.378 268.193C408.603 272.01 409.471 275.98 407.409 280.381C403.746 288.14 395.241 287.727 391.629 281.078C387.302 273.209 382.921 265.384 378.594 257.516C374.938 250.812 371.287 244.06 367.69 237.263C366.942 235.891 366.939 234.996 368.638 233.985C373.254 231.249 376.834 227.059 379.887 222.217C383.672 216.111 385.893 209.291 387.245 202.229C388.404 196.041 394.086 192.176 398.784 193.325C403.581 194.485 406.577 199.925 405.33 207.396Z" fill="#EAB726"/>
<path d="M346.298 205.004C347.163 200.176 349.431 197.089 353.311 195.665C357.039 194.275 360.301 195.369 362.916 198.333C365.444 201.188 365.683 204.991 365.71 208.92C365.676 222.237 365.746 235.515 365.86 248.847C365.94 257.851 366.167 266.872 366.144 275.915C366.113 284.559 359.473 290.409 352.569 287.583C348.95 286.102 346.456 282.008 346.471 276.294C346.566 267.507 346.313 258.733 346.261 249.93C346.193 242.666 346.273 235.418 346.26 228.111C346.231 220.951 346.208 213.742 346.179 206.581C346.198 205.937 346.266 205.299 346.298 205.004Z" fill="#EAB726"/>
</svg>
