<svg width="432" height="269" viewBox="0 0 432 269" fill="none" xmlns="http://www.w3.org/2000/svg">
<path d="M44.1838 230.536C44.0458 236.962 43.3634 243.294 42.9289 249.723C42.842 251.009 42.104 251.362 41.1179 251.618C37.8157 252.588 34.5648 253.755 31.4653 255.266C30.3337 255.82 29.2521 256.423 28.4202 257.321C26.8051 259.016 27.2115 260.198 29.5895 260.819C30.9228 260.708 32.2566 260.646 33.5927 260.831C38.9302 260.831 44.2077 259.694 49.4381 258.806C51.9053 258.387 52.727 256.403 50.8825 254.69C48.04 251.949 49.0539 249.37 50.1643 246.542C51.1782 243.963 51.7455 241.19 53.0567 238.707C54.9148 236.565 55.235 233.794 56.1011 231.265C60.868 217.729 65.585 204.144 70.2526 190.559C70.7819 189.022 71.9537 187.479 70.9484 185.66C68.8207 185.383 66.7012 185.996 64.6779 186.311C61.1743 186.887 57.8574 186.276 54.4906 185.615C51.2231 185.003 49.1782 182.996 48.1115 179.892C47.5435 187.904 46.926 195.916 46.358 203.927C45.5517 212.88 44.8922 221.683 44.1838 230.536Z" fill="#EC1B24"/>
<path d="M48.0099 179.942C48.2402 183.449 49.3402 184.823 52.9587 185.975C58.9565 187.896 64.9119 190.559 70.9251 188.823C73.2788 186.824 73.6698 181.038 73.7918 178.22C70.4726 177.361 67.0144 177.492 63.5995 176.981C59.195 176.33 54.886 175.332 50.7697 173.789C49.9264 173.45 49.1321 173.062 48.1936 173.121C48.1159 175.395 48.0876 177.668 48.0099 179.942Z" fill="#D21821"/>
<path d="M45.0094 96.7938C45.3137 97.6311 45.6176 98.419 45.9219 99.2564C46.773 100.435 46.0903 101.429 45.5065 102.423C44.2419 104.609 42.5297 106.503 41.4642 108.836C35.1327 118.878 28.9011 129.018 22.6689 139.108C21.7923 140.5 20.8113 141.3 21.2135 142.038C21.6162 142.825 21.3169 142.531 21.9178 143.366C22.3186 143.955 23.0691 144.936 23.6228 146.019C27.8505 154.233 32.0293 162.497 36.2575 170.76C36.4593 171.203 36.6122 171.696 36.7645 172.139C37.2199 173.272 37.8719 174.303 38.3762 175.386C38.6787 176.026 39.1742 176.169 39.662 175.473C41.455 171.651 43.7232 171.086 47.0566 173.477C51.3354 176.55 51.6225 180.847 47.8098 185.38C44.0945 189.764 41.825 190.18 36.7084 187.361C34.9696 186.389 33.3273 185.169 32.1765 183.648C28.5739 178.887 24.0411 175.074 19.949 170.813C13.9102 164.494 8.46036 157.724 4.92536 149.602C4.77436 149.307 4.52497 149.063 4.325 148.817C1.84706 142.762 1.69312 136.832 4.30468 130.68C8.17168 121.353 12.1398 112.272 15.908 102.945C16.1976 102.201 16.8303 101.158 17.3185 100.511C21.183 96.2245 24.5057 92.1411 29.72 89.5227C35.0327 86.854 40.3849 88.4351 43.3492 93.6462C43.9514 94.6291 44.5541 95.6613 45.0094 96.7938Z" fill="#FCBF7D"/>
<path d="M32.1355 88.1656C27.3124 90.3356 26.1804 90.8403 22.364 94.9778C22.315 95.0277 22.2661 95.0775 22.2665 95.127C21.0421 96.3245 18.5439 98.7199 17.7647 99.9627C17.7158 100.013 17.6673 100.112 17.6677 100.161C17.051 102.935 24.0158 107.861 25.3255 110.518C25.5781 111.109 25.8796 111.65 26.1812 112.19C28.4389 115.827 29.7029 118.879 32.4456 121.522C33.097 117.167 33.699 112.812 34.4991 108.505C35.5811 102.614 37.2084 96.9155 39.3803 91.3107C39.5729 90.7653 40.0126 90.2175 39.9576 89.625C39.905 89.2795 39.5577 89.1345 39.2594 88.9396C38.2669 88.504 34.2545 87.5035 32.1355 88.1656Z" fill="#D1153A"/>
<path d="M258.692 136.618C261.503 136.048 263.394 137.463 265.388 139.274C273.114 146.368 280.351 153.911 286.362 162.554C295.278 175.37 307.746 182.222 322.747 185.048C341.412 188.581 359.472 185.547 377.106 179.255C396.662 172.302 413.808 161.369 429.047 147.29C429.39 146.941 429.833 146.739 430.52 146.239C429.08 145.462 428.046 145.867 427.058 145.975C414.515 146.981 402.392 145.413 390.974 139.885C378.662 133.921 370.417 124.212 365.555 111.556C362.516 103.627 359.231 95.8493 354.765 88.5765C346.837 75.7512 335.356 68.7907 320.418 67.3975C317.549 67.1276 314.679 66.7095 311.858 66.291C302.9 64.941 298.71 60.7792 297.243 51.8475C296.669 48.5416 296.935 45.2774 297.794 42.057C300.137 33.5347 305.993 30.8115 313.983 34.4438C314.478 34.5381 314.625 34.339 314.472 33.8957C304.402 24.5498 292.923 17.7375 279.21 15.2951C268.715 13.4158 258.546 14.647 248.801 18.9384C235.019 24.9971 220.675 29.0348 205.974 31.8896C204.79 32.0983 203.557 32.4063 202.318 32.0224C194.961 32.7827 187.711 34.3822 180.303 34.9453C170.772 35.6764 161.292 36.6541 151.753 36.5945C150.369 36.6073 148.935 36.4724 147.605 36.9296C146.179 37.783 147.128 38.812 147.532 39.6978C148.741 42.2071 149.753 44.7676 150.52 47.4786C151.185 49.8941 150.959 52.1696 149.843 54.4039C147.709 58.8223 145.526 63.2411 143.344 67.6599C140.687 74.2576 139.267 80.9921 141.26 88.0408C142.027 90.8507 143.188 93.4593 144.89 95.7662C146.694 98.4676 148.597 101.119 151.087 103.221C151.934 103.954 152.882 104.934 153.906 103.392C154.196 102.648 154.188 101.857 154.23 101.066C154.071 99.8323 154.455 98.6426 154.74 97.4044C155.734 92.7496 158.676 90.2511 163.264 89.3189C167.457 88.4892 171.609 88.5 175.767 89.3015C181.506 89.9401 186.67 92.462 191.782 94.8361C209.403 103.024 226.732 111.71 242.895 122.63C248.266 126.287 253.589 130.043 258.522 134.296C259.17 134.883 259.818 135.47 260.71 135.759C259.87 135.766 258.827 135.183 258.692 136.618Z" fill="#EC1941"/>
<path d="M145.627 95.7606C140.513 87.9008 139.794 79.6047 142.875 70.8284C143.26 69.7376 143.596 68.6472 143.932 67.5568C144.318 66.5154 144.209 65.4785 143.952 64.4431C139.536 46.5442 130.941 31.1058 116.892 19.0293C110.117 13.2111 102.464 8.68609 93.8404 6.0975C92.7006 5.76214 91.3709 6.26872 90.4718 5.23923C71.7101 1.90473 54.1914 4.68692 38.3312 15.7565C25.5155 24.7221 16.3349 36.6191 9.8435 50.7151C10.3299 49.8704 9.01627 52.1066 8.14468 54.0421C4.31928 62.5288 2.22165 70.8016 1.07168 80.0047C0.842507 81.9343 1.05443 83.4644 0.829853 85.8881C0.839041 86.8764 0.992817 87.4681 0.951206 88.3086C0.264492 115.447 7.80331 139.594 27.457 159.13C32.7947 164.467 39.0108 168.61 45.8603 171.759C46.6546 172.147 47.5464 172.386 48.1463 173.122C51.8751 175.509 56.1822 176.309 60.3909 177.159C64.7978 178.057 69.3451 178.114 73.8004 178.913C75.1859 179.097 78.5504 179.511 82.6534 179.621C82.5957 178.732 77.8924 177.837 76.5572 177.75C86.7856 177.556 96.1455 174.306 104.695 168.988C129.019 153.886 141.509 131.185 145.798 103.469C146.169 100.895 147.183 98.2667 145.627 95.7606Z" fill="#FFEB4C"/>
<path d="M177.096 99.7182C182.588 111.034 168.907 122.627 181.593 131.553C181.035 135.314 174.118 140.864 200.4 139.829C201.784 139.767 201.639 140.114 206.827 140.066C223.431 139.912 240.026 138.67 256.566 137.034C257.307 136.978 257.997 136.773 258.737 136.618C259.371 135.673 260.464 136.355 261.349 135.853C253.327 128.811 244.722 122.861 235.773 117.212C226.676 111.514 217.287 106.264 207.607 101.609C198.175 97.1006 180.64 87.5276 168.785 88.2309C167.993 88.0405 170.844 91.7207 172.777 92.3452C173.2 95.2571 175.189 96.573 176.741 98.7331C177.043 99.3233 176.647 99.2282 177.096 99.7182Z" fill="#D1143A"/>
<path d="M134.205 243.883C135.576 247.824 136.947 251.765 138.417 255.655C138.923 256.985 137.988 257.389 137.302 258.038C135 260.234 135.109 261.37 137.793 262.976C142.961 265.992 148.654 267.026 154.539 267.515C154.935 267.561 155.38 267.557 155.774 267.454C157.352 267.093 159.277 266.828 159.605 264.898C159.935 263.116 158.101 262.54 156.859 261.859C153.481 259.963 149.764 258.861 145.999 257.908C144.463 257.527 143.863 256.791 143.75 255.21C143.418 251.458 142.939 247.706 142.509 243.954C141.288 234.921 140.067 225.888 138.896 216.855C137.03 202.244 135.215 187.681 133.349 173.07C133.296 172.675 133.095 172.282 132.992 171.887C131.414 172.248 130.984 173.883 129.856 174.783C125.88 177.736 121.394 178.914 116.603 179.255C115.467 179.315 114.279 179.079 113.297 179.829C112.569 181.171 113.272 182.4 113.58 183.632C114.962 188.809 116.788 193.833 118.515 198.858C123.193 212.899 127.968 226.89 132.744 240.882C133.001 241.967 133.161 243.201 134.205 243.883Z" fill="#EC1B24"/>
<path d="M160.598 111.239C158.998 109.178 156.761 107.815 154.965 106.003C154.267 105.318 153.618 104.632 153.46 103.645C152.378 104.199 152.072 103.114 151.524 102.625C149.232 100.669 147.479 98.1653 145.677 95.7604C146.223 101.241 144.788 106.444 143.7 111.692C140.858 124.914 135.536 137.171 127.233 147.874C116.441 161.812 102.994 172.019 85.4871 176.037C82.3309 176.758 79.1252 177.48 75.6646 177.363C76.6608 178.194 75.8142 177.51 76.7106 178.243C76.9097 178.39 77.1087 178.536 77.3073 178.633C78.7958 179.262 80.2783 179.248 81.3175 179.387C90.3224 180.489 99.1081 179.271 107.732 176.571C108.816 176.215 109.95 175.957 110.983 175.454C111.671 175.052 111.714 174.36 111.511 173.719C109.785 168.842 112.473 165.556 115.607 162.512C117.909 160.266 120.762 158.757 123.715 157.494C127.801 155.776 129.538 156.501 131.206 160.538C131.358 160.932 131.559 161.276 131.957 161.52C141.371 153.475 148.197 143.478 153.431 132.359C153.916 131.366 154.003 130.08 155.134 129.477C157.897 123.669 159.768 117.622 160.598 111.239Z" fill="#D89116"/>
<path d="M147.208 37.3791C150.568 37.3479 153.979 37.415 157.338 37.2849C166.577 36.9025 175.762 36.1746 184.995 35.1992C190.278 34.6559 195.456 33.4217 200.74 32.9772C201.481 32.9208 202.022 32.6687 202.362 32.0231C178.621 19.3448 153.316 13.946 126.499 15.9745C126.21 16.7679 126.758 17.2076 127.305 17.5979C134.617 22.6697 140.558 29.0887 145.764 36.2558C146.065 36.6978 146.416 37.2876 147.208 37.3791Z" fill="#D1143A"/>
<path d="M147.209 37.3791C141.848 29.5215 135.507 22.612 127.697 17.1C127.249 16.8076 126.899 16.3167 126.5 15.925C122.13 13.7417 117.955 11.1612 113.343 9.42488C105.953 6.67655 98.3306 5.41304 90.5204 5.23854C90.5255 5.78213 90.7255 6.02737 91.518 6.21769C95.2819 7.07229 98.9018 8.37301 102.378 10.1199C115.784 16.9142 125.961 27.0498 133.543 39.9278C138.263 47.8901 141.456 56.4598 143.615 65.4344C143.77 66.1249 143.875 66.8652 144.03 67.6051C146.36 62.9872 148.689 58.3694 150.919 53.703C152.519 50.3275 151.302 47.077 150.186 43.9244C149.324 41.6591 148.168 39.5447 147.209 37.3791Z" fill="#D89116"/>
<path d="M160.596 111.238C159.158 115.946 157.718 120.605 156.329 125.313C155.946 126.7 154.622 127.8 155.132 129.476C164.236 135.964 174.591 138.685 185.618 139.373C186.454 138.97 187.797 139.896 188.276 138.261C188.756 136.724 187.86 136.041 186.914 135.21C178.839 127.871 170.814 120.533 162.789 113.145C162.091 112.509 161.294 111.874 160.596 111.238Z" fill="#D1143A"/>
<path d="M131.957 161.519C131.403 155.001 127.697 155.134 123.218 157.054C119.231 158.771 115.545 161.029 112.811 164.613C110.369 167.799 109.411 171.07 111.275 174.858C112.092 177.667 111.984 181.968 113.922 183.136C119.804 183.229 124.808 179.229 129.716 175.625C131.14 174.574 132.266 173.427 132.993 171.888C132.615 168.432 132.286 164.976 131.957 161.519Z" fill="#D21821"/>
<path d="M314.522 33.8464C314.376 34.0455 314.18 34.1956 314.033 34.3946C314.385 35.0338 314.882 35.3257 315.771 35.2681C315.714 34.4284 315.167 34.0876 314.522 33.8464Z" fill="#F593A6"/>
<path d="M260.885 106.945C267.25 111.136 273.663 115.277 279.979 119.469C289.576 125.805 298.637 132.886 306.523 141.264C310.267 145.233 313.126 149.802 315.74 154.572C317.399 157.571 318.911 160.67 320.619 163.719C324.439 170.602 329.862 174.456 337.878 175.518C353.317 177.599 368.022 175.139 382.401 169.619C390.625 166.429 398.245 162.058 405.563 157.196C408.265 155.392 410.765 153.244 413.366 151.242C412.762 150.111 411.828 150.565 411.086 150.572C397.592 150.302 384.962 147.405 373.817 139.354C369.041 135.889 365.146 131.626 361.938 126.763C361.036 125.387 360.539 125.095 359.165 126.245C355.586 129.243 351.249 130.569 346.705 130.858C334.356 131.615 322.522 129.155 310.726 125.559C293.875 120.427 277.7 113.609 261.864 105.997C261.367 105.656 260.822 105.562 260.432 106.109C260.138 106.409 260.537 106.751 260.885 106.945Z" fill="#D6153A"/>
<path d="M205.437 64.4146C235.09 64.4354 264.684 63.419 293.952 69.8682C290.305 65.7013 287.102 61.4314 285.915 55.9567C284.727 50.4325 286.015 45.429 289.084 40.656C284.762 43.5626 280.588 46.4679 275.913 48.587C266.266 52.8775 256.351 54.8477 245.757 52.9693C241.302 52.1706 236.709 52.5098 232.119 53.195C222.889 54.5163 214.72 58.2494 206.856 62.9187C206.512 63.1196 206.168 63.3699 205.874 63.6198C205.677 63.7204 205.63 63.968 205.437 64.4146Z" fill="#D6153A"/>
<path d="M260.883 106.945C260.328 105.764 261.22 106.003 261.862 105.948C258.386 104.201 254.91 102.454 251.484 100.756C254.227 103.35 257.506 105.247 260.883 106.945Z" fill="#DE173D"/>
<path d="M33.5451 260.832C32.2026 259.954 30.8688 260.016 29.5419 260.819C30.8799 261.202 32.2136 261.14 33.5451 260.832Z" fill="#EC0A14"/>
<path d="M126.162 127.966C127.531 126.322 127.907 124.292 128.681 122.407C133.948 109.608 135.949 96.2452 135.031 82.4652C134.564 74.8586 132.914 67.4113 130.425 60.2189C128.258 55.7417 126.534 51.0133 123.827 46.8377C121.263 42.2159 117.964 38.194 114.371 34.422C113.121 32.9015 111.773 31.4314 110.132 30.3594C109.19 30.0716 108.59 29.3359 107.991 28.6495C100.628 23.4299 92.5881 19.798 83.5818 18.5474C69.1317 16.5072 55.9691 20.0396 44.1363 28.403C29.3577 38.8694 20.5968 53.3819 16.1119 70.6717C11.4839 88.5064 12.2898 106.093 19.1699 123.178C25.8982 139.869 36.8903 152.716 53.8575 159.724C59.067 161.9 64.5121 162.837 70.1502 163.279C85.6297 164.42 98.5233 158.518 110.248 149.118C110.64 148.818 110.933 148.42 111.275 148.021C113.969 145.426 116.464 142.635 118.659 139.551C121.641 136.014 123.777 131.892 126.162 127.966Z" fill="#FFEB4C"/>
<path d="M109.932 30.8065C111.474 31.9288 112.771 33.2017 113.922 34.7231C114.518 35.0635 114.913 35.0598 114.906 34.2198C106.218 24.7622 95.8794 18.3841 83.0094 16.1809C68.6541 13.6951 55.5866 16.8312 43.6 24.603C34.0701 30.8198 26.6853 39.1913 20.9953 49.1284C15.4999 58.7179 12.1367 69.0782 10.656 79.9152C8.29463 97.037 10.5725 113.473 17.9838 129.219C24.1848 142.357 33.2281 152.898 46.1418 159.796C56.0258 165.091 66.5211 167.02 77.7758 165.581C88.6356 164.195 98.0334 159.709 106.472 153.058C108.434 151.507 110.645 150.103 112.008 147.866C112.001 147.026 111.605 147.03 111.015 147.381C108.13 150.621 104.493 152.829 100.856 154.988C93.5813 159.256 85.7986 162.047 77.2046 162.621C64.8074 163.428 53.6097 160.369 43.4126 153.298C27.9931 142.667 19.9939 127.471 15.7274 109.768C13.824 101.73 13.6494 93.5771 14.2169 85.5162C15.1352 72.6581 18.9266 60.5146 25.7417 49.3314C32.3622 38.496 40.9299 29.7676 52.394 24.2741C70.4515 15.6552 88.0541 16.5788 104.96 27.5909C105.905 28.2246 106.947 28.7585 107.892 29.3428C108.637 29.7313 109.235 30.3188 109.932 30.8065Z" fill="#EAB726"/>
<path d="M114.908 34.171C114.714 34.5682 114.319 34.6707 113.924 34.6744C117.419 38.4968 120.964 42.3187 123.428 46.9414C123.874 47.0855 124.07 46.886 123.918 46.4426C121.7 41.8176 118.5 37.8442 114.908 34.171Z" fill="#ECA019"/>
<path d="M123.92 46.4416C123.773 46.5912 123.577 46.7907 123.43 46.9403C125.593 51.0222 128.052 55.0025 129.624 59.3863C129.727 59.7313 130.173 59.9249 130.472 60.2186C128.748 55.4408 127.17 50.5627 123.92 46.4416Z" fill="#F4AB1A"/>
<path d="M126.156 127.966C125.716 128.415 125.027 128.767 124.785 129.313C123.139 132.985 120.399 135.976 118.355 139.405C118.407 139.701 118.557 139.848 118.854 139.895C122.183 136.454 124.269 132.283 126.156 127.966Z" fill="#F3A91A"/>
<path d="M118.856 139.895C118.707 139.748 118.507 139.552 118.357 139.405C115.911 142.096 113.863 145.081 111.018 147.381C111.414 147.377 111.81 147.472 112.011 147.866C114.758 145.616 117.056 142.975 118.856 139.895Z" fill="#EDA219"/>
<path d="M86.8382 45.3032C86.8369 45.155 86.835 44.9573 86.8336 44.8091C85.9862 44.0262 84.9928 43.4918 83.8059 43.404C84.6057 44.385 85.6005 45.0676 86.8382 45.3032Z" fill="#F2AA26"/>
<path d="M109.936 30.8067C109.484 30.0202 108.934 29.3828 107.945 29.3426C108.397 30.1291 108.947 30.7665 109.936 30.8067Z" fill="#ECA019"/>
<path d="M155.326 91.5686C154.787 92.0678 154.297 92.5666 153.758 93.0658C153.66 93.1656 153.268 93.5152 153.171 93.6643C152.493 95.2027 152.493 95.2027 152.552 96.24C152.721 98.4624 153.285 100.632 153.405 102.904C153.463 103.793 153.521 104.731 153.628 105.62C154.869 116.827 156.011 128.035 157.202 139.193C157.312 140.378 157.269 141.071 156.777 141.322C155.892 141.825 155.208 142.671 154.722 143.566C154.48 144.062 153.94 144.512 153.302 145.012C145.891 150.567 138.531 156.22 131.169 161.823C130.777 162.123 130.435 162.522 130.092 162.871C129.21 163.67 128.178 164.322 127.197 165.073C126.608 165.523 126.113 165.478 126.006 164.589C126.016 160.389 124.273 158.873 120.226 159.553C114.996 160.442 112.906 164.217 114.392 169.936C115.828 175.507 117.719 176.874 123.498 176.523C125.473 176.406 127.496 176.041 129.218 175.136C134.53 172.418 140.298 170.931 145.814 168.853C154.039 165.762 161.813 162.033 168.58 156.336C168.678 156.236 168.776 156.186 168.924 156.135C169.367 155.933 169.808 155.583 170.201 155.233C174.609 150.992 177.082 145.928 177.419 139.549C177.967 129.462 178.912 119.421 179.659 109.381C179.7 108.541 179.744 107.898 179.586 106.911C178.003 101.39 176.025 96.0218 172.474 91.4092C168.822 86.6987 163.328 85.8108 158.417 89.1677C157.484 89.8188 156.551 90.4699 155.669 91.2195C155.522 91.4185 155.424 91.5183 155.326 91.5686Z" fill="#FCBF7D"/>
<path d="M98.3301 56.3956C95.7602 66.0112 91.5548 76.0481 83.8866 84.0742C81.0282 87.0983 81.0018 85.9523 83.2327 89.7199C88.667 98.8502 93.9977 108.019 99.3776 117.193C101.603 121.01 102.471 124.98 100.409 129.381C96.7457 137.14 88.2413 136.727 84.6289 130.078C80.3021 122.209 75.9209 114.384 71.5941 106.516C67.9379 99.8125 64.2869 93.0599 60.6902 86.2635C59.9425 84.8912 59.9389 83.9962 61.6375 82.9852C66.2544 80.2487 69.834 76.0593 72.887 71.2171C76.6717 65.1113 78.8927 58.2914 80.245 51.2294C81.4043 45.0414 87.0863 41.1764 91.7844 42.3253C96.5807 43.4848 99.577 48.9248 98.3301 56.3956Z" fill="#EAB726"/>
<path d="M39.2979 54.0038C40.1626 49.1759 42.4314 46.0887 46.3113 44.665C50.0386 43.2747 53.3012 44.3694 55.9163 47.3332C58.4438 50.1882 58.6829 53.9911 58.7096 57.9204C58.676 71.2368 58.746 84.5145 58.8598 97.8467C58.9398 106.851 59.1672 115.872 59.1436 124.915C59.113 133.559 52.473 139.409 45.5688 136.583C41.95 135.102 39.4558 131.008 39.4709 125.294C39.5665 116.507 39.3128 107.733 39.2609 98.93C39.1934 91.6663 39.2733 84.4185 39.2602 77.1109C39.2313 69.9508 39.2077 62.7416 39.1788 55.5815C39.198 54.9374 39.2664 54.2986 39.2979 54.0038Z" fill="#EAB726"/>
</svg>
