<svg width="25" height="27" viewBox="0 0 25 27" fill="none" xmlns="http://www.w3.org/2000/svg">
<path d="M8.3178 20.7839C8.41181 20.6225 8.44324 20.4313 8.40595 20.2474C8.36865 20.0636 8.2653 19.9004 8.11611 19.7898C6.93307 18.9487 6.01176 17.7802 5.46156 16.4231C4.91136 15.066 4.75538 13.5773 5.01214 12.1338C5.26891 10.6903 5.92763 9.35252 6.9101 8.2794C7.89257 7.20628 9.15752 6.44285 10.5548 6.07975L9.51993 7.90419C9.41994 8.08047 9.39295 8.29001 9.44489 8.48672C9.49682 8.68344 9.62343 8.85121 9.79686 8.95313C9.9703 9.05505 10.1763 9.08278 10.3697 9.0302C10.563 8.97763 10.7278 8.84906 10.8278 8.67279L12.3357 6.01422C12.5357 5.66167 12.5897 5.24259 12.4858 4.84916C12.3819 4.45573 12.1287 4.12019 11.7819 3.91634L9.16616 2.37916C8.99273 2.27723 8.78668 2.24951 8.59334 2.30209C8.40001 2.35466 8.23523 2.48323 8.13524 2.6595C8.03526 2.83577 8.00827 3.04532 8.0602 3.24203C8.11214 3.43874 8.23875 3.60652 8.41218 3.70844L10.0064 4.64535C8.35571 5.10844 6.86888 6.03918 5.71912 7.32918C4.56937 8.61918 3.80401 10.2153 3.51219 11.9318C3.22036 13.6482 3.41408 15.4143 4.07078 17.0243C4.72748 18.6343 5.82014 20.022 7.22149 21.0258C7.30768 21.0879 7.40563 21.1311 7.50908 21.1526C7.61254 21.1741 7.71923 21.1734 7.82237 21.1507C7.9255 21.1279 8.02282 21.0835 8.10812 21.0204C8.19342 20.9573 8.26483 20.8767 8.3178 20.7839Z" fill="#0D8284"/>
<path d="M16.7943 24.2854C16.8943 24.1091 16.9213 23.8996 16.8693 23.7028C16.8174 23.5061 16.6908 23.3384 16.5173 23.2364L14.9231 22.2995C16.5738 21.8364 18.0606 20.9057 19.2104 19.6157C20.3602 18.3257 21.1255 16.7295 21.4173 15.0131C21.7092 13.2966 21.5154 11.5306 20.8587 9.92055C20.202 8.31053 19.1094 6.92282 17.708 5.91906C17.6218 5.85696 17.5239 5.81378 17.4204 5.79228C17.317 5.77079 17.2103 5.77144 17.1072 5.7942C17.004 5.81695 16.9067 5.86132 16.8214 5.92447C16.7361 5.98762 16.6647 6.06816 16.6117 6.16097C16.5177 6.32232 16.4863 6.51361 16.5236 6.69744C16.5609 6.88128 16.6642 7.04445 16.8134 7.15505C17.9964 7.99621 18.9178 9.1647 19.468 10.5218C20.0182 11.8789 20.1741 13.3676 19.9174 14.8111C19.6606 16.2546 19.0019 17.5924 18.0194 18.6655C17.037 19.7386 15.772 20.502 14.3748 20.8651L15.4096 19.0407C15.5096 18.8644 15.5366 18.6549 15.4846 18.4581C15.4327 18.2614 15.3061 18.0937 15.1327 17.9917C14.9592 17.8898 14.7532 17.8621 14.5598 17.9147C14.3665 17.9672 14.2017 18.0958 14.1017 18.2721L12.5938 20.9307C12.3938 21.2832 12.3398 21.7023 12.4437 22.0957C12.5476 22.4891 12.8008 22.8247 13.1477 23.0285L15.7634 24.5657C15.9368 24.6676 16.1428 24.6954 16.3362 24.6428C16.5295 24.5902 16.6943 24.4616 16.7943 24.2854Z" fill="#0D8284"/>
</svg>
