<svg width="27" height="27" viewBox="0 0 27 27" fill="none" xmlns="http://www.w3.org/2000/svg">
<path fill-rule="evenodd" clip-rule="evenodd" d="M14.6092 4.14539V5.14439C14.5912 6.03039 13.1582 6.53539 12.7052 5.56739C12.6442 5.43639 12.6142 5.29139 12.6112 5.14439V4.14539H9.61516C8.84616 4.10839 8.33116 3.10339 8.86016 2.49239C9.04216 2.28239 9.18916 2.16839 9.61516 2.14739C10.6132 2.14739 11.6122 2.14439 12.6112 2.13839V1.14939C12.6142 0.986391 12.6302 0.933391 12.6612 0.836391C12.7932 0.435391 13.1882 0.150391 13.6302 0.150391C14.1632 0.171391 14.5972 0.570391 14.6092 1.14939V2.12639C16.6062 2.11439 18.6042 2.10339 20.6022 2.11339V1.14939C20.6122 0.615391 21.0022 0.173391 21.5812 0.150391C21.5942 0.150391 21.6072 0.150391 21.6202 0.150391C22.1542 0.171391 22.5882 0.570391 22.5992 1.14939V2.13139C22.9572 2.13639 23.3152 2.14239 23.6722 2.14839C25.2032 2.19639 26.5652 3.51339 26.5942 5.10739C26.6322 11.1244 26.6322 17.1424 26.5942 23.1604C26.5662 24.7054 25.2292 26.0894 23.6352 26.1194C16.9522 26.1604 10.2682 26.1604 3.58516 26.1194C2.04616 26.0904 0.656156 24.7804 0.626156 23.1604C0.588156 17.1424 0.588156 11.1244 0.626156 5.10739C0.654156 3.55139 1.98716 2.15839 3.61916 2.14739H4.62116V1.14939C4.62416 0.986391 4.63916 0.933391 4.67116 0.836391C4.80316 0.435391 5.19816 0.150391 5.63916 0.150391C6.17316 0.171391 6.60716 0.570391 6.61816 1.14939V5.14439C6.60116 6.02939 5.20916 6.52539 4.73216 5.60339C4.65916 5.46239 4.62416 5.30539 4.62116 5.14439V4.14139C4.27916 4.13939 3.93816 4.13939 3.59716 4.14539C3.09016 4.16139 2.63916 4.60539 2.62316 5.11939C2.51216 11.1274 2.51116 17.1394 2.62316 23.1474C2.63916 23.6554 3.08316 24.1054 3.59716 24.1214C10.2712 24.2454 16.9492 24.2454 23.6232 24.1214C24.1302 24.1054 24.5812 23.6614 24.5972 23.1474C24.7082 17.1394 24.7082 11.1274 24.5972 5.11939C24.5812 4.60239 24.1202 4.14839 23.5952 4.14539H22.5992V5.14439C22.5822 6.02139 21.1862 6.51639 20.7132 5.60339C20.6412 5.46239 20.6052 5.30539 20.6022 5.14439V4.14539H14.6092ZM5.61916 20.1264C6.17116 20.1264 6.61816 20.5744 6.61816 21.1254C6.61816 21.6764 6.17116 22.1244 5.61916 22.1244C5.06816 22.1244 4.62116 21.6764 4.62116 21.1254C4.62116 20.5744 5.06816 20.1264 5.61916 20.1264ZM9.61516 20.1264C10.1662 20.1264 10.6132 20.5744 10.6132 21.1254C10.6132 21.6764 10.1662 22.1244 9.61516 22.1244C9.06316 22.1244 8.61616 21.6764 8.61616 21.1254C8.61616 20.5744 9.06316 20.1264 9.61516 20.1264ZM13.6102 20.1264C14.1612 20.1264 14.6092 20.5744 14.6092 21.1254C14.6092 21.6764 14.1612 22.1244 13.6102 22.1244C13.0592 22.1244 12.6112 21.6764 12.6112 21.1254C12.6112 20.5744 13.0592 20.1264 13.6102 20.1264ZM5.61916 16.1314C6.17116 16.1314 6.61816 16.5784 6.61816 17.1304C6.61816 17.6814 6.17116 18.1284 5.61916 18.1284C5.06816 18.1284 4.62116 17.6814 4.62116 17.1304C4.62116 16.5784 5.06816 16.1314 5.61916 16.1314ZM9.61516 16.1314C10.1662 16.1314 10.6132 16.5784 10.6132 17.1304C10.6132 17.6814 10.1662 18.1284 9.61516 18.1284C9.06316 18.1284 8.61616 17.6814 8.61616 17.1304C8.61616 16.5784 9.06316 16.1314 9.61516 16.1314ZM13.6102 16.1314C14.1612 16.1314 14.6092 16.5784 14.6092 17.1304C14.6092 17.6814 14.1612 18.1284 13.6102 18.1284C13.0592 18.1284 12.6112 17.6814 12.6112 17.1304C12.6112 16.5784 13.0592 16.1314 13.6102 16.1314ZM17.6052 16.1314C18.1562 16.1314 18.6042 16.5784 18.6042 17.1304C18.6042 17.6814 18.1562 18.1284 17.6052 18.1284C17.0542 18.1284 16.6062 17.6814 16.6062 17.1304C16.6062 16.5784 17.0542 16.1314 17.6052 16.1314ZM21.6002 16.1314C22.1522 16.1314 22.5992 16.5784 22.5992 17.1304C22.5992 17.6814 22.1522 18.1284 21.6002 18.1284C21.0492 18.1284 20.6022 17.6814 20.6022 17.1304C20.6022 16.5784 21.0492 16.1314 21.6002 16.1314ZM9.61516 12.1364C10.1662 12.1364 10.6132 12.5834 10.6132 13.1344C10.6132 13.6864 10.1662 14.1334 9.61516 14.1334C9.06316 14.1334 8.61616 13.6864 8.61616 13.1344C8.61616 12.5834 9.06316 12.1364 9.61516 12.1364ZM13.6102 12.1364C14.1612 12.1364 14.6092 12.5834 14.6092 13.1344C14.6092 13.6864 14.1612 14.1334 13.6102 14.1334C13.0592 14.1334 12.6112 13.6864 12.6112 13.1344C12.6112 12.5834 13.0592 12.1364 13.6102 12.1364ZM17.6052 12.1364C18.1562 12.1364 18.6042 12.5834 18.6042 13.1344C18.6042 13.6864 18.1562 14.1334 17.6052 14.1334C17.0542 14.1334 16.6062 13.6864 16.6062 13.1344C16.6062 12.5834 17.0542 12.1364 17.6052 12.1364ZM21.6002 12.1364C22.1522 12.1364 22.5992 12.5834 22.5992 13.1344C22.5992 13.6864 22.1522 14.1334 21.6002 14.1334C21.0492 14.1334 20.6022 13.6864 20.6022 13.1344C20.6022 12.5834 21.0492 12.1364 21.6002 12.1364Z" fill="#0D8284"/>
</svg>
