<svg width="20" height="17" viewBox="0 0 20 17" fill="none" xmlns="http://www.w3.org/2000/svg">
<path d="M0.833286 17C1.05429 17 1.26624 16.913 1.42251 16.7581C1.57878 16.6033 1.66657 16.3932 1.66657 16.1742C1.6679 14.8605 2.19508 13.6009 3.13242 12.672C4.06976 11.743 5.34069 11.2206 6.66629 11.2193H11.5243V12.529C11.5244 12.8556 11.6222 13.1749 11.8053 13.4464C11.9885 13.718 12.2487 13.9296 12.5532 14.0546C12.8577 14.1796 13.1927 14.2123 13.516 14.1486C13.8392 14.0849 14.1361 13.9276 14.3692 13.6967L19.2681 8.84171C19.7367 8.37712 20 7.74708 20 7.09015C20 6.43321 19.7367 5.80317 19.2681 5.33858L14.3692 0.483579C14.1361 0.252664 13.8392 0.0954171 13.516 0.0317173C13.1927 -0.0319825 12.8577 0.000724842 12.5532 0.125705C12.2487 0.250684 11.9885 0.462325 11.8053 0.733871C11.6222 1.00542 11.5244 1.32468 11.5243 1.65129V2.96104H7.49958C5.51124 2.96323 3.60497 3.74698 2.19901 5.14035C0.793045 6.53372 0.0022049 8.42291 0 10.3934V16.1742C0 16.3932 0.0877914 16.6033 0.244064 16.7581C0.400335 16.913 0.612286 17 0.833286 17ZM13.1909 1.65129L18.0898 6.50629C18.246 6.66116 18.3338 6.87117 18.3338 7.09015C18.3338 7.30913 18.246 7.51914 18.0898 7.674L13.1909 12.529V10.3934C13.1909 10.1744 13.1031 9.96436 12.9469 9.80949C12.7906 9.65462 12.5786 9.56761 12.3576 9.56761H6.66629C5.72002 9.56733 4.78457 9.76711 3.9224 10.1536C3.06023 10.5401 2.29118 11.1044 1.66657 11.8089V10.3934C1.66834 8.86082 2.28345 7.39148 3.37697 6.30776C4.47049 5.22404 5.95311 4.61443 7.49958 4.61268H12.3576C12.5786 4.61268 12.7906 4.52568 12.9469 4.37081C13.1031 4.21594 13.1909 4.00588 13.1909 3.78686V1.65129Z" fill="#0D8284"/>
</svg>
