<svg width="27" height="27" viewBox="0 0 27 27" fill="none" xmlns="http://www.w3.org/2000/svg">
<path fill-rule="evenodd" clip-rule="evenodd" d="M10.0531 7.36153C10.0531 7.36153 11.9261 7.34369 12.4102 7.34369C12.8944 7.34369 13.4488 7.32568 13.4488 7.32568C13.4488 7.32568 14.0791 7.34369 14.6322 7.34369C15.1854 7.34369 16.9894 7.36153 16.9894 7.36153H22.1641C22.7895 7.36153 23.389 7.61376 23.8306 8.06235C24.273 8.51174 24.5212 9.12079 24.5212 9.75616C24.5212 12.5204 24.5212 18.1669 24.5212 20.9311C24.5212 21.5656 24.273 22.1747 23.8306 22.624C23.389 23.0734 22.7895 23.3257 22.1641 23.3257C18.3589 23.3257 8.6836 23.3257 4.87838 23.3257C4.25295 23.3257 3.65345 23.0734 3.21188 22.624C2.76952 22.1747 2.52124 21.5656 2.52124 20.9311C2.52124 18.1669 2.52124 12.5204 2.52124 9.75616C2.52124 9.12079 2.76952 8.51174 3.21188 8.06235C3.65345 7.61376 4.25295 7.36153 4.87838 7.36153H10.0531ZM11.8885 16.6263C11.7416 15.8808 11.0965 15.3436 10.347 15.3436C9.44653 15.3436 7.82167 15.3436 6.92124 15.3436C6.17245 15.3436 5.52738 15.8808 5.38045 16.6263C5.25317 17.2737 5.05438 18.2802 4.90903 19.0209C4.81631 19.4903 4.93574 19.9764 5.23431 20.3468C5.53289 20.7163 5.97917 20.9311 6.44981 20.9311C7.6331 20.9311 9.6351 20.9311 10.8184 20.9311C11.2898 20.9311 11.7353 20.7163 12.0339 20.3468C12.3325 19.9764 12.4519 19.4903 12.36 19.0209L11.8885 16.6263ZM14.307 16.94H19.807C20.2407 16.94 20.5927 16.5824 20.5927 16.1418C20.5927 15.7012 20.2407 15.3436 19.807 15.3436H14.307C13.8732 15.3436 13.5212 15.7012 13.5212 16.1418C13.5212 16.5824 13.8732 16.94 14.307 16.94ZM8.6341 9.75616C7.33295 9.75616 6.27695 10.8289 6.27695 12.1508C6.27695 13.4718 7.33295 14.5454 8.6341 14.5454C9.93524 14.5454 10.9912 13.4718 10.9912 12.1508C10.9912 10.8289 9.93524 9.75616 8.6341 9.75616ZM14.307 14.5454H21.3784C21.8121 14.5454 22.1641 14.1878 22.1641 13.7472C22.1641 13.3066 21.8121 12.949 21.3784 12.949H14.307C13.8732 12.949 13.5212 13.3066 13.5212 13.7472C13.5212 14.1878 13.8732 14.5454 14.307 14.5454Z" fill="#0D8284"/>
</svg>
