<svg width="23" height="23" viewBox="0 0 23 23" fill="none" xmlns="http://www.w3.org/2000/svg">
<path d="M14.5211 5.63498C13.6416 4.96659 12.6502 4.73633 11.3934 4.73633C10.4404 4.73633 9.62487 4.93141 8.97887 5.36634C8.02585 6.01554 7.57812 7.10608 7.57812 8.82982H10.0342C10.0342 8.3693 9.98945 7.87361 10.2581 7.44827C10.5267 7.02293 10.9009 6.69673 11.5437 6.69673C12.1961 6.69673 12.5319 6.88541 12.8485 7.27557C13.1171 7.60817 13.2195 8.00473 13.2195 8.42687C13.2195 8.79144 13.034 9.12724 12.8133 9.43105C12.6918 9.61014 12.5319 9.77005 12.3304 9.92355C12.3304 9.92355 11.0032 10.7135 10.5363 11.4618C10.1877 12.0183 10.063 12.7154 10.0342 13.5501C10.031 13.6109 10.0534 13.7356 10.2645 13.7356H12.2409C12.4264 13.7356 12.4647 13.5949 12.4679 13.5373C12.4807 13.2335 12.5191 12.7666 12.5735 12.5907C12.679 12.2581 12.8837 11.9671 13.2035 11.7177L13.8655 11.2603C14.4635 10.7934 14.94 10.4129 15.1511 10.1122C15.5125 9.61974 15.7651 9.01211 15.7651 8.29255C15.7651 7.11887 15.3334 6.2522 14.5211 5.63498ZM11.2239 15.0084C10.3956 14.9829 9.71122 15.5585 9.68244 16.4571C9.65685 17.359 10.3061 17.9506 11.1375 17.9762C12.001 18.0018 12.6694 17.4453 12.695 16.5467C12.7206 15.648 12.0874 15.034 11.2239 15.0084Z" fill="#0D8284"/>
<circle cx="11.6725" cy="11.3571" r="10.7936" stroke="#0D8284"/>
</svg>
