<svg xmlns="http://www.w3.org/2000/svg" viewBox="0 0 589.89 402.82"><defs><style>.cls-1{fill:#20a2a5;}.cls-2{fill:#67be9f;}.cls-3{fill:#22a1a4;}.cls-4{fill:#67bd9e;}</style></defs><g id="Capa_2" data-name="Capa 2"><g id="Layer_1" data-name="Layer 1"><path class="cls-1" d="M98.18,49.09V353.73a49.09,49.09,0,0,1-49.09,49.09h0A49.09,49.09,0,0,1,0,353.73V49.09A49.09,49.09,0,0,1,49.09,0h0A49.09,49.09,0,0,1,98.18,49.09Z"/><path class="cls-2" d="M270.83,402.82h0a45.41,45.41,0,0,1-38.6-21.49L109.89,184a7.9,7.9,0,0,1-1.19-4.18h0a8,8,0,0,1,4.39-7.06c57.33-29.27,81.7-73.8,99.24-138.9A45.56,45.56,0,0,1,256.24,0h3.61c30.6,0,52.61,29.71,43.38,58.89-22.42,70.87-53,105.33-87.43,132.11l93,141.46C328.63,362.65,307,402.82,270.83,402.82Z"/><path class="cls-3" d="M579.63,180.13,461,85.73c-11.74-9.34-27.83,4.16-20.67,17.34l49.81,91.77a13.79,13.79,0,0,1,0,13.14l-49.81,91.77c-7.15,13.18,8.93,26.68,20.67,17.34l118.68-94.4A27.2,27.2,0,0,0,579.63,180.13Z"/><path class="cls-4" d="M533.18,183,410.91,85.72c-11.74-9.34-27.83,4.16-20.67,17.34l49.81,91.77a13.79,13.79,0,0,1,0,13.14l-49.81,91.77c-7.15,13.18,8.93,26.68,20.67,17.34l122.27-97.27A23.51,23.51,0,0,0,533.18,183Z"/></g></g></svg>