<svg width="18" height="23" viewBox="0 0 18 23" fill="none" xmlns="http://www.w3.org/2000/svg">
<path d="M15.4186 2.12113C15.2011 2.14279 15.0356 2.32494 15.0359 2.54253V12.6948C15.0359 12.9772 15.2489 13.1182 15.4618 13.1178V13.9647C15.2489 13.9644 15.0359 14.1053 15.0359 14.3878V20.3121H1.86188C1.86188 20.3121 1.56065 20.3053 1.24676 20.4616C0.932878 20.6178 0.587646 21.0155 0.587646 21.5795C0.587646 22.209 0.932878 22.5413 1.24676 22.6975C1.56065 22.8537 1.86188 22.8503 1.86188 22.8503H16.3126C16.3126 22.8503 16.6139 22.8537 16.9278 22.6975C17.2416 22.5413 17.5869 22.202 17.5869 21.5795V3.38862C17.5869 2.76176 17.2416 2.4269 16.9278 2.27069C16.6139 2.11448 16.3126 2.12113 16.3126 2.12113H15.4186Z" fill="white"/>
<path d="M1.86188 0.850103C1.86188 0.850103 1.56065 0.846744 1.24676 1.00296C0.932876 1.15917 0.587646 1.47751 0.587646 2.12089V21.581C0.587646 22.1452 1.43769 22.1452 1.43769 21.581C1.43769 21.581 1.42696 21.4577 1.48252 21.3471C1.55469 21.2084 1.75369 21.1563 1.86105 21.1563H15.4618C15.6953 21.1555 15.8843 20.9674 15.8851 20.7349L15.8859 2.12089C15.8859 1.49073 15.5415 1.15917 15.2277 1.00296C14.9138 0.846749 14.6125 0.850103 14.6125 0.850103H1.86188Z" fill="#0D8284"/>
<path d="M8.23814 3.81348C5.89581 3.81348 3.98682 5.71047 3.98682 8.0419C3.98682 10.3733 5.89581 12.2734 8.23814 12.2734C10.5805 12.2734 12.4895 10.3733 12.4895 8.0419C12.4895 7.56105 12.4059 7.08364 12.2447 6.63034C12.2276 6.57598 12.1997 6.52562 12.1626 6.48227C12.1254 6.43893 12.0799 6.40349 12.0287 6.37809C11.9774 6.35268 11.9216 6.33783 11.8645 6.33443C11.8073 6.33103 11.7501 6.33914 11.6962 6.35829C11.6423 6.37743 11.5929 6.40721 11.5508 6.44585C11.5087 6.48448 11.475 6.53116 11.4515 6.58311C11.428 6.63505 11.4153 6.69118 11.4141 6.74813C11.4129 6.80508 11.4233 6.86167 11.4447 6.91453C11.5736 7.27717 11.6392 7.65722 11.6392 8.0419C11.6392 9.91606 10.1211 11.4271 8.23814 11.4271C6.35521 11.4271 4.83708 9.91606 4.83708 8.0419C4.83708 6.16773 6.35521 4.65979 8.23814 4.65979C9.20449 4.65979 10.125 5.06789 10.7701 5.78403C10.8074 5.82548 10.8525 5.85922 10.9029 5.88331C10.9533 5.9074 11.0079 5.92137 11.0637 5.92443C11.1195 5.92749 11.1754 5.91958 11.2281 5.90114C11.2809 5.8827 11.3294 5.8541 11.3711 5.81698C11.4127 5.77985 11.4466 5.73493 11.4708 5.68477C11.4949 5.63461 11.5089 5.5802 11.512 5.52465C11.515 5.4691 11.5071 5.41349 11.4885 5.36101C11.47 5.30853 11.4412 5.2602 11.4039 5.21879C10.5978 4.32398 9.44557 3.81348 8.23814 3.81348Z" fill="white"/>
<path d="M8.15214 3.81958C8.15214 3.81958 7.52194 3.96057 6.96617 4.56908C6.41039 5.17759 5.89941 6.25006 5.89941 8.04176C5.89941 9.83345 6.41039 10.9059 6.96617 11.5144C7.52194 12.1229 8.15214 12.2639 8.15214 12.2639L8.32157 11.4364C8.32157 11.4364 7.9942 11.3846 7.59367 10.9461C7.19313 10.5075 6.74968 9.67677 6.74968 8.04176C6.74968 6.40674 7.19313 5.57599 7.59367 5.13745C7.9942 4.69891 8.32157 4.65027 8.32157 4.65027L8.15214 3.81958Z" fill="white"/>
<path d="M8.32201 3.81958L8.15259 4.65027C8.15259 4.65027 8.47682 4.69891 8.87735 5.13745C9.27789 5.57599 9.72448 6.40674 9.72448 8.04176C9.72448 9.67677 9.27789 10.5075 8.87735 10.9461C8.47682 11.3846 8.15259 11.4364 8.15259 11.4364L8.32201 12.2639C8.32201 12.2639 8.95221 12.1229 9.50799 11.5144C10.0638 10.9059 10.5747 9.83345 10.5747 8.04176C10.5747 6.25006 10.0638 5.17759 9.50799 4.56908C8.95221 3.96057 8.32201 3.81958 8.32201 3.81958Z" fill="white"/>
<path d="M4.41309 7.62012V8.46643H12.0623V7.62012H4.41309Z" fill="white"/>
<path d="M7.81143 4.23486V11.8485H8.66169V4.23486H7.81143ZM4.41351 13.5411C4.35763 13.5411 4.30229 13.5519 4.25064 13.5732C4.19899 13.5944 4.15206 13.6256 4.11252 13.6649C4.07298 13.7042 4.04161 13.7508 4.02021 13.8022C3.99881 13.8536 3.98779 13.9087 3.98779 13.9643C3.98779 14.0199 3.99881 14.075 4.02021 14.1264C4.04161 14.1777 4.07298 14.2244 4.11252 14.2637C4.15206 14.303 4.19899 14.3342 4.25064 14.3554C4.30229 14.3766 4.35763 14.3875 4.41351 14.3874H12.0627C12.1186 14.3875 12.174 14.3766 12.2256 14.3554C12.2773 14.3342 12.3242 14.303 12.3637 14.2637C12.4033 14.2244 12.4346 14.1777 12.456 14.1264C12.4774 14.075 12.4885 14.0199 12.4885 13.9643C12.4885 13.9087 12.4774 13.8536 12.456 13.8022C12.4346 13.7508 12.4033 13.7042 12.3637 13.6649C12.3242 13.6256 12.2773 13.5944 12.2256 13.5732C12.174 13.5519 12.1186 13.5411 12.0627 13.5411H4.41351ZM4.41351 15.2338C4.30076 15.2338 4.19262 15.2783 4.1129 15.3577C4.03317 15.437 3.98838 15.5447 3.98838 15.6569C3.98838 15.7691 4.03317 15.8768 4.1129 15.9561C4.19262 16.0355 4.30076 16.0801 4.41351 16.0801H8.23813C8.35088 16.0801 8.45901 16.0355 8.53874 15.9561C8.61847 15.8768 8.66326 15.7691 8.66326 15.6569C8.66326 15.5447 8.61847 15.437 8.53874 15.3577C8.45901 15.2783 8.35088 15.2338 8.23813 15.2338H4.41351ZM4.41351 16.9264C4.30076 16.9264 4.19262 16.971 4.1129 17.0503C4.03317 17.1297 3.98838 17.2373 3.98838 17.3495C3.98838 17.4618 4.03317 17.5694 4.1129 17.6487C4.19262 17.7281 4.30076 17.7727 4.41351 17.7727H12.0627C12.1755 17.7727 12.2836 17.7281 12.3634 17.6487C12.4431 17.5694 12.4879 17.4618 12.4879 17.3495C12.4879 17.2373 12.4431 17.1297 12.3634 17.0503C12.2836 16.971 12.1755 16.9264 12.0627 16.9264H4.41351ZM9.51195 15.2338C9.3992 15.2338 9.29107 15.2783 9.21134 15.3577C9.13161 15.437 9.08682 15.5447 9.08682 15.6569C9.08682 15.7691 9.13161 15.8768 9.21134 15.9561C9.29107 16.0355 9.3992 16.0801 9.51195 16.0801H12.0627C12.1755 16.0801 12.2836 16.0355 12.3634 15.9561C12.4431 15.8768 12.4879 15.7691 12.4879 15.6569C12.4879 15.5447 12.4431 15.437 12.3634 15.3577C12.2836 15.2783 12.1755 15.2338 12.0627 15.2338H9.51195Z" fill="white"/>
<path d="M15.4626 2.11938V2.96569H16.3129C16.4916 2.96569 16.6362 3.04392 16.6918 3.15454C16.7473 3.26516 16.7364 3.39041 16.7364 3.39041V21.5814C16.7364 21.7742 16.6593 21.8883 16.5482 21.9436C16.437 21.9989 16.3129 22.003 16.3129 22.003H1.86151C1.57816 22.003 1.55313 21.9262 1.49756 21.8156C1.44199 21.705 1.43795 21.5814 1.43795 21.5814H0.587682C0.587682 21.5814 0.581337 21.881 0.738282 22.1935C0.895226 22.5059 1.29481 22.8493 1.86151 22.8493H16.3129C16.3129 22.8493 16.6139 22.8555 16.9278 22.6994C17.2417 22.5431 17.5867 22.2109 17.5867 21.5814V3.39041C17.5867 3.39041 17.6079 3.09075 17.451 2.77832C17.3007 2.46589 16.8796 2.11938 16.3129 2.11938H15.4626Z" fill="#0D8284"/>
</svg>
