<svg width="30" height="21" viewBox="0 0 30 21" fill="none" xmlns="http://www.w3.org/2000/svg">
<path fill-rule="evenodd" clip-rule="evenodd" d="M5.10211 3.15039H3.35547C2.53667 3.15039 1.75181 3.46639 1.17371 4.02939C0.594584 4.59239 0.269531 5.35539 0.269531 6.15039C0.269531 9.02139 0.269531 14.2794 0.269531 17.1504C0.269531 18.8074 1.651 20.1504 3.35547 20.1504C8.33721 20.1504 21.004 20.1504 25.9857 20.1504C27.6902 20.1504 29.0716 18.8074 29.0716 17.1504C29.0716 14.2794 29.0716 9.02139 29.0716 6.15039C29.0716 4.49339 27.6902 3.15039 25.9857 3.15039C22.5346 3.15039 15.9513 3.15039 15.9513 3.15039C15.3834 3.15039 14.9226 3.59839 14.9226 4.15039C14.9226 4.70239 15.3834 5.15039 15.9513 5.15039C15.9513 5.15039 22.5346 5.15039 25.9857 5.15039C26.5535 5.15039 27.0143 5.59839 27.0143 6.15039C27.0143 9.02139 27.0143 14.2794 27.0143 17.1504C27.0143 17.7034 26.5535 18.1504 25.9857 18.1504C21.004 18.1504 8.33721 18.1504 3.35547 18.1504C2.78766 18.1504 2.32682 17.7034 2.32682 17.1504C2.32682 14.2794 2.32682 9.02139 2.32682 6.15039C2.32682 5.88539 2.43483 5.63139 2.62822 5.44339C2.82058 5.25639 3.08288 5.15039 3.35547 5.15039H5.10211C5.66993 5.15039 6.13076 4.70239 6.13076 4.15039C6.13076 3.59839 5.66993 3.15039 5.10211 3.15039ZM18.7852 15.1504H23.9284C24.4962 15.1504 24.9571 14.7024 24.9571 14.1504C24.9571 13.5984 24.4962 13.1504 23.9284 13.1504H18.7852C18.2174 13.1504 17.7565 13.5984 17.7565 14.1504C17.7565 14.7024 18.2174 15.1504 18.7852 15.1504ZM18.7852 11.1504H22.8998C23.4676 11.1504 23.9284 10.7024 23.9284 10.1504C23.9284 9.59839 23.4676 9.15039 22.8998 9.15039H18.7852C18.2174 9.15039 17.7565 9.59839 17.7565 10.1504C17.7565 10.7024 18.2174 11.1504 18.7852 11.1504Z" fill="#0D8284"/>
<path d="M12.8547 7.5655C13.809 6.86954 14.4304 5.74323 14.4304 4.47436C14.4304 2.36582 12.715 0.650391 10.6064 0.650391C8.49788 0.650391 6.78245 2.36582 6.78245 4.47436C6.78245 5.74323 7.40383 6.86954 8.35812 7.5655C5.98594 8.47327 4.29688 10.7732 4.29688 13.4607C4.29688 14.6204 5.24036 15.5639 6.40005 15.5639H14.8128C15.9725 15.5639 16.916 14.6204 16.916 13.4607C16.916 10.7732 15.2269 8.47327 12.8547 7.5655ZM7.92965 4.47436C7.92965 2.99839 9.13045 1.79759 10.6064 1.79759C12.0824 1.79759 13.2832 2.99839 13.2832 4.47436C13.2832 5.95033 12.0824 7.15115 10.6064 7.15115C9.13045 7.15115 7.92965 5.95033 7.92965 4.47436ZM14.8128 14.4167H6.40005C5.87293 14.4167 5.44408 13.9878 5.44408 13.4607C5.44408 10.6141 7.75986 8.2983 10.6064 8.2983C13.453 8.2983 15.7688 10.6141 15.7688 13.4607C15.7688 13.9878 15.3399 14.4167 14.8128 14.4167Z" fill="#0D8284"/>
</svg>
