<svg width="99" height="21" viewBox="0 0 99 21" fill="none" xmlns="http://www.w3.org/2000/svg">
<g clip-path="url(#clip0)">
<path d="M0.50246 6.00001C30.6656 23.875 67.462 23.375 95.2471 1C96.4987 1.95555e-07 98.2509 1.75 96.9993 2.75C69.4645 24.875 29.1637 27.875 0.252144 6.50001C-0.12333 6.37501 0.126986 5.75001 0.50246 6.00001Z" fill="#20A2A5"/>
<path d="M84.4821 3.00005C88.9878 3.25005 92.9929 2.12505 96.9979 0.125052C97.874 -0.374948 98.7501 1.00005 97.874 1.50005C93.869 4.00005 89.113 4.75005 84.4821 4.25005C83.7312 4.12505 83.606 3.00005 84.4821 3.00005Z" fill="#20A2A5"/>
<path d="M98.8729 0.999932C96.3697 3.99993 93.7414 7.12493 91.3634 10.2499C90.6124 11.2499 88.9854 10.3749 89.7363 9.24993C92.1143 5.87493 94.8678 2.62493 98.2471 0.124932C98.7477 -0.125068 99.2483 0.624932 98.8729 0.999932Z" fill="#20A2A5"/>
<path d="M85.233 3.125C87.2355 3.375 89.4884 4 91.3657 4.75C92.2418 5 91.8664 6.375 90.9902 6.125C88.9877 5.625 86.7349 4.875 84.8575 4C84.3569 3.75 84.7323 3.125 85.233 3.125Z" fill="#20A2A5"/>
<path d="M90.6144 5.37504C90.9899 7.00004 91.115 8.62504 91.2402 10.375C91.2402 11.25 89.8634 11.25 89.7383 10.375C89.7383 8.75004 89.7383 7.12504 89.9886 5.50004C90.1138 5.25004 90.6144 5.12504 90.6144 5.37504Z" fill="#20A2A5"/>
</g>
<defs>
<clipPath id="clip0">
<rect width="21" height="99" fill="white" transform="matrix(4.37114e-08 1 1 -4.37114e-08 0 0)"/>
</clipPath>
</defs>
</svg>
