<svg width="98" height="23" viewBox="0 0 98 23" fill="none" xmlns="http://www.w3.org/2000/svg">
<g clip-path="url(#clip0)">
<path d="M0.498055 16.4285C30.3565 -3.14891 66.7812 -2.60129 94.2857 21.9047C95.5246 22.9999 97.2591 21.0832 96.0202 19.988C68.7635 -4.24415 28.8697 -7.52986 0.250267 15.8809C-0.121414 16.0178 0.126373 16.7023 0.498055 16.4285Z" fill="#20A2A5"/>
<path d="M83.6283 19.7142C88.0885 19.4404 92.0531 20.6725 96.0177 22.863C96.8849 23.4106 97.7522 21.9046 96.8849 21.357C92.9203 18.6189 88.2124 17.7975 83.6283 18.3451C82.8849 18.482 82.7611 19.7142 83.6283 19.7142Z" fill="#20A2A5"/>
<path d="M97.8763 21.9049C95.3984 18.6192 92.7966 15.1966 90.4426 11.7739C89.6993 10.6787 88.0887 11.637 88.832 12.8692C91.186 16.5656 93.9117 20.1251 97.2568 22.8632C97.7524 23.137 98.248 22.3156 97.8763 21.9049Z" fill="#20A2A5"/>
<path d="M84.3713 19.5774C86.3536 19.3036 88.5837 18.6191 90.4421 17.7976C91.3094 17.5238 90.9377 16.0179 90.0704 16.2917C88.0881 16.8393 85.8581 17.6607 83.9996 18.6191C83.5041 18.8929 83.8757 19.5774 84.3713 19.5774Z" fill="#20A2A5"/>
<path d="M89.6993 17.1132C90.071 15.3334 90.1949 13.5537 90.3187 11.637C90.3187 10.6787 88.9559 10.6787 88.832 11.637C88.832 13.4168 88.832 15.1965 89.0798 16.9763C89.2037 17.2501 89.6993 17.387 89.6993 17.1132Z" fill="#20A2A5"/>
</g>
<defs>
<clipPath id="clip0">
<rect width="23" height="98" fill="white" transform="translate(0 23) rotate(-90)"/>
</clipPath>
</defs>
</svg>
