<svg width="264" height="281" viewBox="0 0 264 281" fill="none" xmlns="http://www.w3.org/2000/svg">
<g clip-path="url(#clip0)">
<path d="M26.7452 258.242L106.37 278.06C106.37 278.06 113.801 279.122 117.34 279.476C120.879 279.83 147.421 281.245 165.823 279.122C318.702 259.657 208.643 244.793 149.898 244.793C128.311 244.793 23.9141 232.761 2.68083 243.378C-10.0591 250.102 26.7452 258.242 26.7452 258.242Z" fill="white"/>
<path d="M3.74224 243.732C11.8816 239.839 31.3455 239.131 53.9942 239.485C74.8736 239.839 97.8763 241.608 116.632 243.024C131.849 244.086 144.589 245.147 150.605 245.147C185.286 245.147 238.016 250.456 241.908 258.95C244.74 264.612 225.984 271.69 166.177 279.122C147.774 281.599 121.941 280.184 118.048 279.83C114.509 279.476 107.077 278.414 107.077 278.414L90.7985 274.521C90.4446 274.521 61.7798 267.443 61.7798 267.443L27.8066 258.95C27.8066 258.95 14.3589 256.118 6.57333 252.225C1.26502 249.394 -1.91996 246.209 3.74224 243.732Z" fill="url(#paint0_linear)"/>
<path d="M4.4513 244.085C12.9446 240.192 31.7006 239.485 54.7033 240.192C75.5827 240.546 98.5854 242.316 117.341 243.732C132.559 244.793 145.298 245.855 151.315 245.855C185.642 246.209 236.601 251.164 240.494 259.303C242.971 264.966 224.569 271.69 166.532 279.122C148.483 281.599 122.65 280.184 118.403 279.83C114.864 279.476 107.786 278.414 107.433 278.414C107.079 278.414 91.5076 274.521 91.1537 274.521C90.4459 274.521 62.4888 267.443 62.1349 267.443L28.1618 258.949C28.1618 258.949 14.3601 255.764 6.92851 252.225C1.97408 249.394 -1.2109 246.563 4.4513 244.085Z" fill="url(#paint1_linear)"/>
<path d="M5.15735 244.086C13.6506 240.193 32.4067 239.839 55.0555 240.193C75.9348 240.547 98.9375 242.316 117.694 243.378C132.911 244.44 145.297 245.501 151.667 245.501C185.286 245.855 235.184 250.81 239.077 258.95C241.554 264.612 223.506 271.336 166.53 278.414C148.482 280.892 123.356 279.83 118.755 279.122C115.216 278.768 108.139 277.707 107.785 277.707C107.431 277.707 91.8598 273.814 91.5059 273.814C90.4442 273.814 63.1949 266.736 62.4871 266.736L29.2217 258.596C29.2217 258.596 15.0662 255.411 7.63456 251.872C2.68014 249.748 -0.504848 246.563 5.15735 244.086Z" fill="url(#paint2_linear)"/>
<path d="M5.86555 244.085C14.7127 240.546 33.1149 239.838 55.7637 240.546C76.9969 240.9 99.6457 242.316 118.048 243.731C133.265 244.793 145.651 245.855 152.021 245.855C184.933 246.209 233.769 251.163 237.308 259.303C239.785 264.612 222.091 271.336 166.53 278.414C148.836 280.891 123.71 279.83 119.11 279.476C115.571 279.122 108.493 278.06 108.139 278.06C107.785 278.06 92.568 274.167 92.2141 274.167C91.1524 274.167 63.9031 267.089 63.5492 267.089L29.9299 258.595C29.9299 258.595 15.4205 255.41 8.34276 251.871C3.38834 249.748 -0.15054 246.563 5.86555 244.085Z" fill="url(#paint3_linear)"/>
<path d="M6.57291 244.439C15.774 240.9 33.4684 240.546 56.471 240.9C77.7043 241.254 100.353 242.67 118.755 244.085C133.972 245.147 146.358 246.209 152.728 246.209C184.932 246.916 232.353 251.517 235.892 259.657C238.369 264.966 220.675 271.336 166.53 278.414C148.836 280.891 124.064 279.83 119.109 279.476C115.57 279.122 108.846 278.06 108.492 278.06C108.139 278.06 92.9214 274.521 92.5676 274.167C91.152 273.813 64.6104 267.443 63.9027 267.089L30.6373 258.595C30.6373 258.595 15.774 255.056 8.69624 251.871C4.0957 250.102 0.556827 246.916 6.57291 244.439Z" fill="url(#paint4_linear)"/>
<path d="M7.636 244.439C16.8371 240.9 34.5314 240.546 57.5341 241.254C79.1213 241.608 101.416 243.024 119.818 244.439C135.035 245.501 147.422 246.563 153.792 246.563C185.287 247.27 231.647 251.871 234.832 259.657C236.955 264.966 219.968 271.336 167.239 278.06C149.545 280.184 125.481 279.83 120.172 279.122C116.633 278.768 109.909 277.706 109.556 277.706C108.848 277.706 94.3384 274.167 93.6306 274.167C91.8612 273.813 66.0274 267.443 65.3197 267.443L31.3465 259.303C31.3465 259.303 16.1293 255.764 9.40544 252.579C4.8049 250.102 0.912143 246.917 7.636 244.439Z" fill="url(#paint5_linear)"/>
<path d="M8.34206 244.793C17.897 241.608 35.2375 241.254 58.2402 241.608C79.8273 241.962 102.122 243.378 120.524 244.44C135.742 245.501 148.128 246.563 154.144 246.563C185.286 247.625 230.229 251.872 233.414 259.657C235.538 264.966 218.551 270.982 167.238 277.707C149.897 279.83 125.833 279.476 120.17 279.122C116.632 278.768 109.908 277.707 109.554 277.707C108.846 277.707 94.3367 274.168 93.6289 274.168C91.5056 273.814 66.0257 267.443 65.3179 267.443L32.4064 259.304C32.4064 259.304 16.8354 255.765 10.1115 252.579C5.51096 250.456 1.6182 246.917 8.34206 244.793Z" fill="url(#paint6_linear)"/>
<path d="M9.05107 244.794C18.9599 241.608 35.5926 241.255 58.9492 241.962C80.5363 242.316 102.831 243.732 121.233 244.794C136.451 245.855 148.483 246.917 154.853 246.917C185.287 247.979 228.815 252.226 232 260.011C234.123 265.32 217.491 271.336 167.593 278.061C150.252 280.184 126.896 279.83 120.879 279.476C117.341 279.122 110.971 278.061 110.263 278.061C109.555 278.061 95.3996 274.522 94.3379 274.522C91.8607 274.168 67.0886 268.151 66.0269 267.797L33.1154 259.304C33.1154 259.304 17.1905 255.411 10.8205 252.579C6.57386 250.81 1.97332 247.271 9.05107 244.794Z" fill="url(#paint7_linear)"/>
<path d="M9.75762 244.793C20.0204 241.608 36.2992 241.608 59.6557 241.962C81.5968 242.316 103.892 243.731 121.586 244.793C136.803 245.855 148.835 246.917 155.205 246.917C184.932 247.978 227.398 252.225 230.229 260.011C231.999 265.32 216.074 270.982 167.238 277.706C149.897 279.83 126.894 279.83 120.878 279.122C117.339 278.768 110.969 278.06 110.262 277.706C109.2 277.706 95.3984 274.521 94.3367 274.167C91.5056 273.813 67.4413 267.797 66.3796 267.443L33.822 259.303C33.822 259.303 17.5431 255.41 11.1732 252.579C7.2804 250.81 2.67987 247.271 9.75762 244.793Z" fill="url(#paint8_linear)"/>
<path d="M10.4673 245.148C20.73 241.962 37.0088 241.962 60.0115 242.67C81.9525 243.024 104.247 244.44 121.942 245.501C137.159 246.563 149.191 247.625 155.561 247.979C184.58 249.394 225.985 253.641 228.462 260.719C230.231 265.674 214.306 271.69 167.239 278.061C150.253 280.184 127.604 280.184 120.88 279.83C117.341 279.476 110.971 278.768 110.264 278.768C109.202 278.768 95.7541 275.583 94.6925 275.229C91.5075 274.875 68.1509 268.859 66.7354 268.505L34.1777 260.365C34.1777 260.365 17.545 256.472 11.5289 253.641C7.99006 251.164 3.03564 247.271 10.4673 245.148Z" fill="url(#paint9_linear)"/>
<path d="M11.5281 245.147C22.1447 242.316 37.7158 242.316 61.0723 242.67C83.0134 243.023 105.308 244.085 123.003 245.501C138.22 246.562 150.252 247.624 156.622 247.978C184.933 249.394 224.922 253.641 227.399 260.719C229.169 265.673 213.598 271.336 167.946 277.706C150.96 279.829 128.665 279.829 121.941 279.476C118.402 279.122 112.386 278.414 111.324 278.414C110.263 278.414 97.1688 275.229 95.7533 275.229C92.5683 274.875 69.2117 268.858 67.7962 268.858L35.2386 260.719C35.2386 260.719 18.252 256.472 12.2359 253.994C8.69699 251.163 3.74257 247.27 11.5281 245.147Z" fill="url(#paint10_linear)"/>
<path d="M12.2352 245.501C22.8518 242.67 38.4229 242.67 61.7794 243.024C84.0743 243.378 106.015 244.439 123.71 245.501C138.927 246.563 150.959 247.625 157.329 247.978C185.286 249.394 223.86 253.641 226.337 260.719C228.107 265.674 212.535 271.336 168.3 277.352C151.667 279.476 129.372 279.83 122.648 279.122C119.109 278.768 113.093 278.06 112.031 278.06C110.616 278.06 97.8759 274.875 96.4604 274.875C92.9215 274.521 70.2727 268.859 68.8572 268.505L36.2995 260.011C36.2995 260.011 18.959 255.764 13.2968 253.287C9.40409 251.517 4.09577 247.625 12.2352 245.501Z" fill="url(#paint11_linear)"/>
<path d="M12.9439 245.501C23.9144 242.67 39.1316 243.024 62.4881 243.378C84.783 243.732 106.724 244.794 124.418 245.855C139.636 246.563 151.314 247.979 158.038 248.333C185.287 250.102 222.799 253.995 224.922 261.073C226.338 266.028 211.475 271.69 168.654 277.353C152.022 279.476 130.435 279.83 123.003 279.476C119.464 279.122 113.448 278.415 112.74 278.415C111.325 278.415 98.9385 275.583 97.1691 275.229C93.2763 274.876 71.3353 269.213 69.5659 268.859L37.3621 260.719C37.3621 260.719 19.6678 256.472 14.3594 253.641C10.1128 251.518 4.80448 247.625 12.9439 245.501Z" fill="url(#paint12_linear)"/>
<path d="M13.6512 245.855C24.9756 243.024 39.485 243.378 63.1954 243.732C85.4903 244.085 107.431 245.147 124.772 246.209C139.989 246.917 151.667 248.332 158.391 248.686C184.933 250.456 221.029 254.349 223.153 261.073C224.568 266.028 210.059 271.336 168.3 276.999C151.667 279.122 130.434 279.476 123.002 279.122C119.464 278.768 113.801 278.06 112.74 278.06C111.324 278.06 98.938 275.229 97.1686 274.875C92.922 274.167 71.3348 268.859 69.5654 268.505L37.7155 260.365C37.7155 260.365 19.6673 255.764 14.359 253.287C10.8201 251.871 5.15788 247.624 13.6512 245.855Z" fill="url(#paint13_linear)"/>
<path d="M14.3597 245.855C25.6841 243.378 40.1935 243.732 63.9039 244.085C86.5527 244.439 108.14 245.501 125.48 246.563C140.697 247.271 152.376 248.686 158.746 249.04C184.58 250.81 219.614 254.703 221.384 261.427C222.799 266.381 208.29 271.69 168.301 276.999C152.022 279.122 131.143 279.476 123.357 279.122C119.818 278.768 114.156 278.06 113.094 278.06C111.679 278.06 99.6466 275.229 97.8771 274.875C93.2766 274.167 72.3972 268.859 70.6278 268.505L38.7779 260.365C38.7779 260.365 20.3758 255.764 15.4214 253.287C11.5286 251.871 5.86639 247.978 14.3597 245.855Z" fill="url(#paint14_linear)"/>
<path d="M15.4207 245.855C27.099 243.378 41.2545 243.732 64.9649 244.085C87.6137 244.439 109.201 245.501 126.541 246.209C141.758 246.917 153.437 248.332 159.807 248.686C184.933 250.456 218.906 254.349 220.321 261.073C221.383 265.674 207.582 270.982 168.654 276.291C152.375 278.414 131.85 279.122 123.71 278.768C120.525 278.768 114.863 277.706 113.447 277.706C111.678 277.706 99.9998 274.875 98.2303 274.875C93.2759 274.167 73.1043 269.213 70.981 268.859L39.485 260.719C39.485 260.719 20.729 256.118 15.7746 253.641C12.2357 252.225 6.57348 247.978 15.4207 245.855Z" fill="url(#paint15_linear)"/>
<path d="M16.129 246.209C28.1612 243.732 41.6089 244.439 65.3194 244.793C87.9681 245.147 109.555 245.855 126.896 246.917C142.113 247.625 153.437 249.04 160.161 249.394C184.933 251.518 217.137 255.057 218.906 261.427C219.968 266.028 206.52 271.336 169.008 276.291C152.73 278.414 132.912 279.122 124.419 278.768C121.234 278.768 115.571 277.706 114.156 277.706C112.386 277.706 101.062 274.875 98.9387 274.875C93.6303 274.167 74.1665 269.213 71.6893 268.859L40.1933 260.719C40.1933 260.719 21.0834 255.764 16.4829 253.641C13.2979 252.225 6.92793 247.978 16.129 246.209Z" fill="url(#paint16_linear)"/>
<path d="M16.8351 246.209C28.8672 243.732 42.3149 244.439 66.0254 244.793C89.0281 245.147 110.261 245.855 127.248 246.917C142.465 247.625 153.789 249.04 160.513 249.394C184.578 251.518 215.72 255.057 217.135 261.427C218.197 266.028 204.749 270.982 168.653 275.937C153.082 278.768 133.264 279.476 124.771 279.122C121.586 279.122 115.924 278.414 114.508 278.06C112.739 278.06 101.414 275.583 99.2908 275.229C93.9825 274.521 74.5187 269.567 72.3954 269.213L41.2533 261.073C41.2533 261.073 21.7895 256.118 17.1889 253.995C14.004 252.579 7.63398 247.978 16.8351 246.209Z" fill="url(#paint17_linear)"/>
<path d="M17.545 246.563C29.9311 244.086 43.0249 245.147 66.7354 245.501C89.7381 245.855 110.971 246.563 127.958 247.625C143.175 248.333 154.499 249.748 161.223 250.102C184.58 252.226 214.66 255.765 215.722 262.135C216.43 266.736 203.69 271.69 169.009 276.645C153.084 278.768 133.62 279.83 124.773 279.476C121.588 279.476 116.28 278.768 114.51 278.414C112.387 278.414 101.77 275.937 99.293 275.583C93.6308 274.875 74.8748 270.275 72.3976 269.567L41.2555 261.427C41.2555 261.427 21.4378 256.472 17.1912 254.349C14.7139 252.579 7.99008 248.333 17.545 246.563Z" fill="url(#paint18_linear)"/>
<path d="M18.6064 246.563C30.9925 244.439 43.7325 245.147 67.7968 245.501C90.7995 245.855 112.033 246.563 129.019 247.271C144.236 247.979 155.561 249.04 162.285 249.748C184.934 252.225 213.598 255.764 214.306 262.135C215.014 266.735 202.274 271.336 169.362 276.291C153.791 278.414 134.682 279.476 125.48 279.122C122.295 279.122 116.987 278.414 115.572 278.414C113.448 278.414 102.832 275.937 100.354 275.583C94.3383 274.875 76.2901 270.274 73.8129 269.567L42.6708 261.427C42.6708 261.427 22.4992 256.118 18.2526 254.349C15.4215 252.933 8.6976 248.332 18.6064 246.563Z" fill="url(#paint19_linear)"/>
<path d="M19.313 246.563C32.0529 244.439 44.439 245.501 68.5034 245.855C91.8599 246.209 112.739 246.917 129.726 247.625C144.943 248.332 156.267 249.394 162.991 250.102C185.286 252.225 212.536 255.764 213.243 261.781C213.951 266.382 201.565 270.982 169.715 275.583C154.144 277.706 135.388 278.768 126.187 278.414C123.002 278.414 117.694 277.706 116.278 277.706C114.155 277.706 103.892 275.229 101.415 274.875C95.0449 274.167 77.3505 269.567 74.8733 269.213L43.3773 261.427C43.3773 261.427 22.8519 256.118 18.9591 254.349C16.128 253.287 9.05026 248.332 19.313 246.563Z" fill="url(#paint20_linear)"/>
<path d="M20.0216 246.917C33.1154 244.794 45.1476 245.855 69.2119 246.209C92.5685 246.563 113.448 247.271 130.434 247.979C145.652 248.687 156.622 249.748 163.7 250.456C185.287 252.58 211.475 256.473 212.182 262.135C212.536 266.736 200.858 270.983 170.424 275.583C154.853 277.707 136.804 279.122 126.896 278.768C123.711 278.768 118.756 278.061 116.987 278.061C114.863 278.061 104.601 275.937 102.123 275.583C95.3996 274.522 78.413 270.275 75.5819 269.921L44.7937 261.781C44.7937 261.781 23.9143 256.473 20.0216 254.703C16.8366 253.287 9.75882 248.687 20.0216 246.917Z" fill="url(#paint21_linear)"/>
<path d="M20.7287 246.916C33.8225 244.793 45.5008 246.209 69.919 246.562C93.2756 246.916 114.509 247.624 130.788 248.332C145.651 249.04 156.975 250.102 164.053 251.163C184.932 253.641 209.705 257.18 210.412 262.842C210.766 267.443 199.088 271.69 170.069 275.937C154.852 278.06 136.804 279.476 126.895 279.122C123.71 279.122 118.755 278.414 116.986 278.414C114.509 278.414 104.954 276.29 102.123 275.937C95.045 274.875 78.7662 270.982 75.9351 270.274L45.5008 262.134C45.5008 262.134 24.2675 256.472 20.7287 255.056C17.5437 253.641 10.112 248.686 20.7287 246.916Z" fill="url(#paint22_linear)"/>
<path d="M21.4384 247.27C34.8862 245.501 46.2106 246.563 70.2749 246.917C93.9854 247.271 114.865 247.624 131.144 248.686C146.007 249.394 157.331 250.456 164.055 251.517C184.227 253.995 207.937 257.534 208.291 263.196C208.645 267.443 197.32 272.044 169.717 275.937C154.5 278.06 137.16 279.476 126.897 279.122C123.712 279.122 118.757 278.414 116.988 278.414C114.511 278.414 104.956 276.291 102.125 275.937C94.6931 274.875 79.1221 270.982 75.9371 270.274L45.5028 262.488C45.5028 262.488 23.9156 256.826 20.3768 255.41C18.2534 253.641 10.8218 248.686 21.4384 247.27Z" fill="url(#paint23_linear)"/>
<path d="M22.497 247.271C36.2987 245.501 47.2692 246.917 71.3335 247.271C95.044 247.624 115.923 247.978 132.202 248.686C147.065 249.394 158.39 250.456 165.114 251.517C184.577 253.995 206.872 257.534 207.226 262.842C207.58 267.089 196.61 271.336 170.068 275.229C155.205 277.352 137.864 278.768 127.248 278.768C124.063 278.768 119.462 278.06 117.339 278.06C114.862 278.06 105.661 275.937 102.476 275.583C95.044 274.521 79.4729 270.628 76.2879 269.92L46.2075 262.135C46.2075 262.135 24.2665 256.472 21.0815 255.056C18.9582 253.995 11.1727 248.686 22.497 247.271Z" fill="url(#paint24_linear)"/>
<path d="M23.2074 247.271C37.009 245.501 47.9795 246.917 72.0439 247.271C95.7543 247.624 116.634 247.978 132.912 248.686C147.776 249.394 158.746 250.456 165.824 251.517C184.934 253.995 205.813 257.534 205.813 262.842C205.813 267.089 195.197 271.336 170.425 274.875C155.561 276.999 138.575 278.768 127.958 278.414C124.773 278.414 120.173 277.706 118.049 277.706C115.218 277.706 106.371 275.937 103.54 275.229C95.7543 274.167 80.891 270.274 77.7061 269.92L47.6256 262.135C47.6256 262.135 25.3307 256.118 22.4996 255.056C20.0224 253.995 11.883 249.04 23.2074 247.271Z" fill="url(#paint25_linear)"/>
<path d="M23.9148 247.625C38.0703 245.855 48.333 247.625 72.7512 247.978C96.8156 248.332 117.341 248.686 133.266 249.394C148.129 250.102 159.1 251.164 166.178 252.225C184.58 254.703 204.397 258.242 204.397 263.55C204.397 267.797 194.135 271.69 170.778 275.229C155.915 277.353 139.636 279.122 128.665 278.768C125.48 278.768 120.88 278.06 119.111 278.06C116.279 278.06 107.786 276.291 104.601 275.937C96.4617 274.875 82.3062 271.336 78.7673 270.628L49.0408 262.842C49.0408 262.842 26.392 256.826 23.5609 255.764C20.7298 254.349 12.2365 249.04 23.9148 247.625Z" fill="url(#paint26_linear)"/>
<path d="M24.6226 247.625C39.132 245.855 49.0408 247.978 73.4591 247.978C97.5234 248.332 118.049 248.686 133.974 249.394C148.837 250.102 159.808 251.164 166.885 252.225C184.58 254.703 202.982 258.242 202.982 263.55C202.982 267.797 192.719 271.69 170.778 274.875C156.269 276.999 139.99 278.768 128.666 278.768C125.481 278.768 121.234 278.414 119.111 278.06C116.279 278.06 107.786 276.291 104.601 275.937C96.1079 274.875 82.3063 271.336 78.7674 270.628L49.0408 262.842C49.0408 262.842 26.0382 256.826 23.5609 255.41C21.4376 254.349 12.9443 249.04 24.6226 247.625Z" fill="url(#paint27_linear)"/>
<path d="M25.3292 247.978C39.8386 246.563 49.7475 248.332 74.1657 248.686C98.23 248.686 118.755 249.394 134.68 249.748C149.544 250.456 160.514 251.517 167.592 252.579C184.579 255.056 201.919 258.595 201.565 263.55C201.211 267.797 191.656 271.69 171.131 274.875C156.621 276.998 141.05 279.122 129.372 278.768C126.187 278.768 121.94 278.414 119.817 278.06C116.986 278.06 108.847 276.291 105.308 275.937C96.4606 274.875 83.3668 271.336 79.8279 270.628L49.7474 262.842C49.7474 262.842 26.3909 256.826 23.9137 255.41C22.1442 254.702 13.6509 249.04 25.3292 247.978Z" fill="url(#paint28_linear)"/>
<path d="M26.3915 247.978C40.9008 246.563 50.4558 248.686 74.874 248.686C99.2923 248.686 119.464 249.04 135.389 249.748C150.252 250.456 161.223 251.517 168.3 252.579C184.933 255.056 200.504 258.595 200.15 263.55C199.796 267.797 190.595 271.336 171.131 274.521C156.622 276.645 141.405 278.768 129.727 278.414C126.542 278.414 122.649 278.06 120.172 277.706C116.987 277.706 109.201 276.291 105.662 275.583C96.4612 274.521 84.0751 271.336 80.1823 270.274L50.8097 262.842C50.8097 262.842 27.0992 256.472 24.9759 255.41C22.8526 254.702 14.0054 249.394 26.3915 247.978Z" fill="url(#paint29_linear)"/>
<path d="M27.0996 248.333C41.9629 246.917 51.164 249.04 75.5822 249.04C100 249.04 120.172 249.394 136.097 250.102C150.96 250.81 161.577 251.872 169.008 252.933C184.933 255.411 199.443 258.95 198.735 263.904C198.381 267.797 189.18 271.69 171.486 274.521C157.33 276.645 142.467 278.768 130.081 278.768C126.896 278.768 123.003 278.414 120.526 278.414C117.341 278.414 109.909 276.999 106.017 276.291C96.8155 274.875 84.7833 272.044 80.5366 271.336L51.164 263.55C51.164 263.55 27.0996 257.18 24.9763 256.118C23.5608 255.057 14.7136 249.394 27.0996 248.333Z" fill="url(#paint30_linear)"/>
<path d="M27.8079 248.332C43.0251 246.917 51.8723 249.394 76.2905 249.394C100.709 249.394 120.88 249.748 136.451 250.456C151.315 250.81 161.931 252.225 169.009 253.287C184.226 255.764 197.674 259.657 196.966 263.904C196.258 267.797 187.765 271.336 171.132 274.167C156.977 276.291 142.467 278.414 130.081 278.414C126.896 278.414 123.004 278.06 120.526 278.06C117.341 277.706 110.264 276.645 106.371 276.291C96.816 274.875 85.1377 272.044 81.2449 271.336L52.2262 263.55C52.2262 263.55 27.8079 257.18 26.0385 256.118C24.2691 255.41 15.068 249.394 27.8079 248.332Z" fill="url(#paint31_linear)"/>
<path d="M28.5154 248.332C44.0864 246.917 52.2258 249.394 76.998 249.394C101.77 249.394 121.588 249.748 137.159 250.456C152.022 250.81 162.639 252.225 169.716 253.287C184.226 255.764 196.258 259.657 195.55 263.904C194.842 267.797 186.703 271.336 171.486 273.813C157.684 275.937 143.175 278.414 130.435 278.06C127.25 278.06 123.711 277.706 120.88 277.706C117.341 277.352 110.617 276.291 106.725 275.937C96.8157 274.521 85.8451 271.69 81.5985 270.982L52.5797 263.196C52.5797 263.196 27.8076 256.472 26.0382 255.764C24.9765 255.41 15.7754 249.394 28.5154 248.332Z" fill="url(#paint32_linear)"/>
<path d="M29.2233 248.687C44.7944 247.625 52.9338 250.102 77.7059 250.102C102.478 250.102 122.296 250.456 137.867 250.81C152.73 251.164 163.347 252.58 170.424 253.641C184.226 256.119 195.197 260.012 194.135 264.258C193.073 268.151 185.288 271.69 171.486 273.814C157.684 275.937 143.883 278.415 130.789 278.415C127.958 278.415 124.065 278.061 121.588 278.061C118.049 277.707 111.679 276.999 107.432 276.291C97.1697 274.876 86.907 272.398 82.6603 271.336L53.9954 263.551C53.9954 263.551 28.8694 256.826 27.4539 256.119C25.6844 255.765 16.1295 249.748 29.2233 248.687Z" fill="url(#paint33_linear)"/>
<path d="M30.2833 248.687C46.2082 247.625 53.9937 250.102 78.7659 250.102C103.538 250.102 123.356 250.456 138.927 250.81C153.79 251.164 164.407 252.226 171.484 253.641C184.932 256.119 194.133 260.012 193.071 264.258C192.01 268.151 184.578 271.336 172.192 273.46C158.391 275.583 144.943 278.061 131.849 278.061C129.018 278.061 125.125 277.707 122.648 277.707C119.109 277.353 112.739 276.645 108.492 275.937C97.8758 274.522 87.9669 272.044 83.7203 271.337L55.0554 263.551C55.0554 263.551 29.5755 256.826 28.16 256.119C26.3905 255.765 16.8356 249.748 30.2833 248.687Z" fill="url(#paint34_linear)"/>
<path d="M30.9908 249.04C47.2696 247.979 54.3473 250.81 79.4733 250.81C104.599 250.81 124.063 251.164 139.634 251.518C154.497 251.872 164.76 252.933 172.192 254.349C184.932 256.826 193.071 260.719 191.656 264.612C190.594 268.505 183.516 271.69 172.546 273.46C159.098 275.583 146.004 278.061 132.203 278.061C129.371 278.061 125.833 277.707 123.001 277.707C119.109 277.353 113.447 276.645 108.846 275.937C97.8755 274.522 88.6744 272.044 84.0739 271.336L55.409 263.551C55.409 263.551 29.5752 256.472 28.5136 256.119C27.4519 256.119 17.1892 249.748 30.9908 249.04Z" fill="url(#paint35_linear)"/>
<path d="M31.6982 249.04C47.9771 247.979 55.0548 250.81 80.1808 250.81C105.307 250.81 124.771 250.81 139.988 251.518C154.851 251.872 165.114 252.933 172.545 254.703C184.578 257.18 191.301 261.073 190.24 264.966C188.824 268.859 182.1 272.044 172.545 273.46C159.098 275.583 146.358 278.415 132.556 278.415C129.725 278.415 126.186 278.061 123.355 278.061C119.462 277.707 113.8 276.999 109.553 276.645C98.2291 275.229 89.7358 272.752 85.1352 272.044L56.8242 264.258C56.8242 264.258 30.6366 257.18 29.9288 256.826C28.1594 256.119 17.8966 249.748 31.6982 249.04Z" fill="url(#paint36_linear)"/>
<path d="M32.4062 249.04C49.0389 247.978 55.7628 251.163 80.5349 251.163C105.661 251.163 125.479 251.163 140.342 251.517C155.205 251.871 165.468 252.933 172.899 254.702C184.224 257.18 189.886 261.073 188.471 264.966C187.055 268.505 180.685 271.69 172.546 273.105C159.452 275.229 147.066 278.06 132.91 278.06C130.079 278.06 126.54 278.06 123.709 277.706C119.816 277.352 114.508 276.644 109.908 276.291C98.5831 274.875 90.4437 272.751 85.4893 271.69L57.1783 263.904C57.1783 263.904 30.6367 256.826 29.929 256.472C28.8673 256.472 18.2507 250.102 32.4062 249.04Z" fill="url(#paint37_linear)"/>
<path d="M33.1153 249.394C50.1019 248.686 56.1179 251.517 81.2439 251.517C106.724 251.517 126.188 251.517 141.051 251.871C155.914 252.225 166.177 253.287 173.609 255.056C184.579 257.534 188.826 261.427 187.056 265.32C185.641 268.859 179.271 272.044 172.547 273.105C159.453 275.583 147.421 278.06 132.912 278.06C130.08 278.06 126.895 278.06 123.71 277.706C119.818 277.352 114.509 276.998 109.909 276.291C98.2305 274.875 90.445 272.752 85.4906 271.69L57.5335 264.258C57.5335 264.258 30.6381 256.826 30.2842 256.826C29.5764 256.472 18.9598 250.102 33.1153 249.394Z" fill="url(#paint38_linear)"/>
<path d="M34.1766 249.394C51.1632 248.686 57.1793 251.871 82.3053 251.871C107.785 251.871 127.249 251.871 142.112 252.225C156.976 252.579 167.238 253.641 174.316 255.411C184.579 257.888 187.41 261.781 185.64 265.32C183.871 268.859 178.209 272.044 172.9 273.106C159.807 275.583 148.128 278.06 133.619 278.414C130.788 278.414 127.603 278.414 124.418 278.06C120.171 277.706 115.571 277.353 110.616 276.645C98.5841 274.875 91.5064 273.106 86.5519 272.398L58.5948 264.966C58.5948 264.966 31.3455 257.534 30.9916 257.534C30.2838 256.826 19.3133 250.102 34.1766 249.394Z" fill="url(#paint39_linear)"/>
<path d="M87.2596 272.398L59.6564 264.966L32.0531 257.534C31.3454 257.534 20.3749 250.809 35.2381 250.102C52.2247 249.04 57.533 252.225 83.0129 252.225C108.493 252.225 127.957 252.225 142.466 252.579C156.975 252.933 167.592 253.641 174.67 255.764C184.225 258.241 185.994 262.134 183.871 265.673C181.748 269.213 176.793 272.044 172.546 273.105C154.144 276.645 138.573 280.537 110.97 276.998C98.9379 274.875 92.5679 273.105 87.2596 272.398Z" fill="url(#paint40_linear)"/>
<path d="M35.5933 249.748C52.5799 249.04 58.2421 252.225 83.0142 252.225C101.062 252.225 115.572 252.225 127.958 252.225C132.912 252.225 137.513 252.225 141.759 252.579C156.269 252.933 166.178 253.641 173.609 255.765C183.164 258.242 184.58 262.135 182.81 265.674C181.041 269.213 175.733 272.044 171.84 272.752C153.438 276.291 138.575 280.184 111.325 276.291C99.293 274.521 92.923 273.106 87.6147 272.044L60.0115 264.612C60.0115 264.612 32.7622 257.18 33.1161 257.18C31.7005 257.18 21.0839 250.456 35.5933 249.748Z" fill="url(#paint41_linear)"/>
<path d="M36.3007 250.102C52.9334 249.394 58.5956 252.579 82.66 252.579C100.354 252.579 114.864 252.579 126.896 252.579C131.85 252.579 136.097 252.579 140.344 252.933C154.499 253.287 164.408 253.995 171.486 256.118C180.687 258.595 182.102 262.134 180.687 265.673C178.917 268.859 173.963 272.044 169.716 272.752C151.668 276.291 136.805 279.83 110.263 276.291C98.231 274.521 92.2149 273.105 87.2605 272.044L59.6573 264.612L33.1157 257.18C32.4079 257.18 22.1452 250.809 36.3007 250.102Z" fill="url(#paint42_linear)"/>
<path d="M37.0066 250.456C53.6393 249.748 58.9477 252.933 82.6581 252.933C99.9986 252.933 114.154 252.933 126.186 253.287C131.141 253.287 135.387 253.287 139.28 253.641C153.436 253.995 162.991 254.703 170.068 256.826C179.269 259.304 180.685 262.843 178.915 266.028C177.146 269.213 172.192 272.398 167.945 273.106C150.251 276.291 135.741 280.184 109.554 276.645C97.8753 275.229 91.8592 273.46 86.9048 272.398L59.6554 264.966C59.6554 264.966 33.4678 257.534 33.8216 257.534C33.4678 257.18 23.205 250.81 37.0066 250.456Z" fill="url(#paint43_linear)"/>
<path d="M37.7151 250.456C53.9939 249.748 59.3023 252.579 82.6588 252.933C99.6454 252.933 113.801 252.933 125.479 253.287C130.08 253.287 134.326 253.287 138.573 253.641C152.375 253.995 161.93 254.703 168.653 256.826C177.501 259.304 178.916 262.843 177.501 266.028C176.085 269.213 170.777 272.398 166.53 273.106C149.19 276.291 134.68 279.83 109.2 276.291C97.876 274.875 91.8599 273.106 86.9055 272.398L59.6562 264.966C59.6562 264.966 34.1763 257.888 34.5301 257.534C34.1763 257.18 24.2674 251.164 37.7151 250.456Z" fill="url(#paint44_linear)"/>
<path d="M38.425 250.81C54.3499 250.102 60.0121 252.933 82.6609 252.933C99.2936 252.933 113.095 252.933 124.42 253.287C129.02 253.287 133.267 253.287 137.16 253.641C150.607 253.995 160.162 255.057 166.886 256.826C175.733 259.304 177.149 262.489 175.733 265.674C174.318 268.859 169.363 272.044 164.763 272.752C147.776 275.937 133.621 279.476 108.495 275.937C97.1703 274.521 91.5081 272.752 86.5536 272.044L59.3043 264.612C59.3043 264.612 34.1783 257.534 34.8861 257.18C34.8861 257.18 25.3311 251.164 38.425 250.81Z" fill="url(#paint45_linear)"/>
<path d="M39.1306 251.163C54.7016 250.456 60.3638 253.287 82.3048 253.287C98.5836 253.287 112.385 253.287 123.356 253.641C127.956 253.641 132.203 253.641 135.742 253.995C148.836 254.349 158.037 255.41 164.761 257.18C173.254 259.303 174.669 262.842 173.254 266.027C171.838 269.213 166.884 272.398 162.283 273.105C145.297 275.937 131.495 279.476 107.431 276.291C96.4603 274.875 90.7981 273.459 86.1976 272.398L59.3021 264.966C59.3021 264.966 34.8839 257.888 35.5917 257.888C35.5917 257.18 26.3906 251.517 39.1306 251.163Z" fill="url(#paint46_linear)"/>
<path d="M40.1929 251.163C55.4101 250.456 61.0723 253.287 82.6594 253.287C98.9383 253.287 112.032 253.641 123.003 253.641C127.603 253.641 131.496 253.641 135.389 253.995C148.482 254.349 157.33 255.41 164.054 256.826C172.547 258.949 173.962 262.488 172.547 265.32C171.131 268.505 166.177 271.336 161.93 272.398C145.298 275.229 131.85 278.768 108.139 275.583C97.5227 274.167 91.8605 272.752 87.26 271.69L60.3645 264.612C60.3645 264.612 36.3002 257.534 37.3618 257.534C36.3002 257.18 27.453 251.871 40.1929 251.163Z" fill="url(#paint47_linear)"/>
<path d="M40.9013 251.517C56.1185 250.81 61.4268 253.641 82.66 253.641C98.585 253.641 111.679 253.995 122.295 253.995C126.542 253.995 130.789 254.349 134.328 254.349C147.068 254.703 155.915 255.764 162.285 257.18C170.424 259.303 171.84 262.488 170.778 265.674C169.716 268.505 164.762 271.69 160.161 272.752C143.883 275.583 130.435 278.768 107.432 275.583C96.8155 274.167 91.5072 272.752 86.9067 272.044L60.0112 264.966C60.0112 264.966 36.6547 258.242 37.7163 257.888C37.0085 257.534 28.5152 251.871 40.9013 251.517Z" fill="url(#paint48_linear)"/>
<path d="M41.6078 251.517C56.4711 250.81 61.7794 253.641 82.6588 253.641C98.2298 253.641 110.97 253.995 121.586 253.995C125.833 253.995 129.726 254.349 133.265 254.349C145.651 254.703 154.498 255.764 160.868 257.18C168.653 259.303 170.423 262.488 169.007 265.32C167.946 268.151 162.991 271.336 158.391 272.044C142.466 274.875 129.372 278.06 106.723 274.875C96.4604 273.459 91.1521 272.044 86.5515 271.336L59.6561 264.258C59.6561 264.258 36.6534 257.534 38.069 257.18C37.7151 257.534 29.5757 252.225 41.6078 251.517Z" fill="url(#paint49_linear)"/>
<path d="M42.3154 251.872C56.8248 251.164 62.487 253.641 82.6586 253.995C97.8757 253.995 110.262 254.349 120.878 254.349C125.125 254.349 129.018 254.703 132.557 254.703C144.589 255.057 153.436 256.118 159.452 257.534C167.238 259.658 168.653 262.843 167.592 265.674C166.53 268.505 161.575 271.69 156.975 272.398C141.404 274.875 128.31 278.061 106.369 275.229C96.4602 273.814 91.1518 272.398 86.9052 271.69L60.3636 264.612C60.3636 264.612 38.0687 257.888 39.1304 257.534C38.4226 257.534 30.6371 252.226 42.3154 251.872Z" fill="url(#paint50_linear)"/>
<path d="M43.0247 252.225C57.1802 251.517 62.8424 253.995 82.3062 253.995C97.1695 253.995 109.556 254.349 119.818 254.702C124.065 254.702 127.604 255.056 131.143 255.056C143.175 255.41 151.314 256.472 157.684 257.888C165.116 260.011 166.531 262.842 165.824 265.673C164.762 268.505 160.161 271.69 155.207 272.398C139.99 274.875 127.25 278.06 106.017 275.229C96.4617 273.813 91.1534 272.752 86.9068 271.69L60.3652 264.612C60.3652 264.612 38.4242 258.241 39.8397 257.534C39.4859 257.534 31.7003 252.579 43.0247 252.225Z" fill="url(#paint51_linear)"/>
<path d="M43.7305 252.225C57.886 251.517 63.1943 253.995 82.3042 253.995C96.8136 253.995 108.846 254.348 118.755 254.702C122.647 254.702 126.54 255.056 130.079 255.056C141.757 255.41 149.897 256.472 155.913 257.888C163.344 260.011 164.76 262.842 163.698 265.32C162.637 268.151 158.036 271.336 153.082 272.044C137.865 274.521 125.832 277.352 104.953 274.521C95.3981 273.105 90.4436 272.044 86.197 271.336L59.6554 264.258C59.6554 264.258 38.4222 257.888 39.8377 257.534C40.1916 257.534 32.76 252.933 43.7305 252.225Z" fill="url(#paint52_linear)"/>
<path d="M44.4388 252.579C58.2404 251.871 63.5487 254.349 82.3047 254.349C96.8141 254.349 108.492 254.703 118.047 255.056C121.94 255.056 125.479 255.41 129.018 255.41C140.342 255.764 148.482 256.826 154.498 258.242C161.576 260.011 162.991 262.842 162.283 265.674C161.576 268.505 156.621 271.69 152.021 272.398C137.157 274.521 125.125 277.706 104.954 274.875C95.7525 273.813 90.798 272.398 86.5514 271.69L60.3637 264.612C60.3637 264.612 39.4843 258.242 41.2538 257.888C40.8999 257.534 33.8221 252.933 44.4388 252.579Z" fill="url(#paint53_linear)"/>
<path d="M45.1472 252.933C58.5949 252.225 63.9032 254.349 82.3054 254.703C96.4609 254.703 107.785 255.057 117.34 255.411C121.233 255.411 124.772 255.764 127.957 255.764C139.281 256.118 147.067 257.18 152.729 258.596C159.807 260.365 161.222 263.196 160.514 265.674C159.807 268.505 155.206 271.69 150.252 272.398C135.742 274.521 124.064 277.353 104.246 274.875C95.3992 273.814 90.4448 272.398 86.552 271.69L60.3643 264.612C60.0105 264.612 40.1928 258.242 41.9622 257.888C41.6083 257.534 34.8845 253.287 45.1472 252.933Z" fill="url(#paint54_linear)"/>
<path d="M45.8561 252.933C58.9499 252.579 64.6121 254.349 81.9526 254.703C95.7542 254.703 107.079 255.056 116.28 255.41C120.172 255.41 123.711 255.764 126.896 255.764C137.867 256.118 145.652 257.18 150.961 258.596C157.684 260.365 159.1 263.196 158.392 265.674C157.684 268.151 153.084 271.336 148.129 272.398C133.974 274.521 122.296 277.352 103.186 274.521C94.3386 273.459 89.7381 272.044 85.8453 271.336L59.6577 264.612C59.3038 264.612 39.84 258.595 41.9633 257.888C42.3172 257.888 35.9472 253.287 45.8561 252.933Z" fill="url(#paint55_linear)"/>
<path d="M46.9171 253.287C59.657 252.933 65.3192 254.703 82.3058 255.057C95.7535 255.057 106.724 255.411 115.925 255.765C119.464 255.765 123.003 256.118 126.188 256.118C136.804 256.472 144.236 257.534 149.898 258.95C156.622 260.719 158.038 263.197 157.33 265.674C156.622 268.151 152.376 271.336 147.067 272.044C133.266 274.168 121.941 276.645 103.185 274.168C94.6919 273.106 90.0913 272.044 86.1986 271.336L60.3648 264.612C60.0109 264.612 41.2549 258.596 43.3782 257.888C43.0243 257.888 37.0082 253.641 46.9171 253.287Z" fill="url(#paint56_linear)"/>
<path d="M47.6248 253.641C60.3647 253.287 65.6731 255.056 82.3058 255.41C95.3996 255.41 106.37 256.118 115.217 256.118C118.756 256.118 122.295 256.472 125.126 256.472C135.389 257.18 142.82 257.888 148.129 259.303C154.499 261.073 155.914 263.55 155.56 266.027C155.207 268.505 150.606 271.69 145.298 272.398C131.85 274.521 120.526 276.998 102.831 274.521C94.6918 273.459 90.0913 272.398 86.1985 271.69L60.3647 264.966C60.0109 264.966 41.6087 258.949 44.0859 258.242C43.732 257.888 38.0698 253.995 47.6248 253.641Z" fill="url(#paint57_linear)"/>
<path d="M48.3328 253.641C60.7188 253.287 66.0271 255.057 82.306 255.057C95.0459 255.411 105.663 255.764 114.156 256.118C117.695 256.118 120.88 256.472 124.065 256.472C134.327 257.18 141.405 257.888 146.713 259.303C153.083 261.073 154.145 263.55 153.791 265.674C153.437 268.151 148.837 271.336 143.882 272.044C130.435 273.814 119.818 276.291 102.478 274.167C94.3381 273.106 90.0915 272.044 86.5526 271.336L60.7188 264.612C60.3649 264.612 42.6706 258.596 45.1478 258.242C44.7939 257.888 39.1317 253.995 48.3328 253.641Z" fill="url(#paint58_linear)"/>
<path d="M49.0389 253.995C61.0711 253.641 66.3794 255.411 81.9505 255.411C94.6904 255.765 104.953 256.118 113.093 256.472C116.631 256.472 119.816 256.826 122.648 256.826C132.556 257.534 139.634 258.242 144.589 259.658C150.605 261.427 152.02 263.55 151.666 266.028C151.312 268.505 147.066 271.69 141.757 272.398C128.664 274.168 118.047 276.291 101.414 274.168C93.6288 273.106 89.3821 272.044 85.8432 271.336L60.3633 264.612C60.0095 264.612 42.669 258.95 45.1462 258.242C45.5001 257.888 40.1918 254.349 49.0389 253.995Z" fill="url(#paint59_linear)"/>
<path d="M49.7484 253.995C61.4266 253.641 66.735 255.056 81.9521 255.41C94.3382 255.764 104.247 256.118 112.386 256.472C115.925 256.472 118.756 256.826 121.587 256.826C131.142 257.534 138.22 258.241 143.175 259.657C149.191 261.427 150.252 263.55 150.252 265.673C149.898 268.151 145.652 271.336 140.344 272.044C127.604 273.813 117.341 275.937 101.062 273.813C93.6304 272.751 89.3837 271.69 85.8449 270.982L60.365 264.258C60.0111 264.258 43.3784 258.595 45.8556 257.888C46.2095 257.888 41.2551 254.348 49.7484 253.995Z" fill="url(#paint60_linear)"/>
<path d="M50.4547 254.349C62.133 253.995 67.4413 255.411 81.9507 255.764C93.9829 256.118 103.892 256.472 111.677 256.826C114.862 256.826 118.047 257.18 120.878 257.18C130.433 257.888 136.803 258.596 141.758 260.011C147.42 261.427 148.835 263.904 148.482 266.028C148.482 268.505 143.881 271.69 138.573 272.398C126.187 274.167 115.924 275.937 100.353 274.167C92.9212 273.106 89.0284 272.398 85.4896 271.69L60.0097 264.966C59.6558 264.966 43.377 259.303 46.2081 258.596C46.9158 258.242 42.3153 254.703 50.4547 254.349Z" fill="url(#paint61_linear)"/>
<path d="M51.1641 254.703C62.4885 254.349 67.7968 255.765 81.9523 256.118C93.6306 256.472 103.186 256.826 110.971 257.18C114.156 257.18 116.987 257.534 119.818 257.534C129.019 258.242 135.389 258.95 140.344 260.365C146.006 261.781 147.068 263.904 147.068 266.028C147.068 268.151 142.821 271.69 137.159 272.398C125.127 273.814 115.218 275.937 100.354 273.814C93.2767 272.752 89.3839 272.044 86.1989 271.336L61.0729 264.612C60.719 264.612 44.7941 258.95 47.9791 258.242C47.6252 258.242 43.3786 255.057 51.1641 254.703Z" fill="url(#paint62_linear)"/>
<path d="M51.8704 254.703C62.8409 254.349 68.1492 255.765 81.5969 256.118C92.9213 256.472 102.122 256.826 109.908 257.18C113.093 257.18 115.924 257.534 118.401 257.888C127.248 258.596 133.618 259.304 138.219 260.719C143.527 262.135 144.943 264.258 144.943 266.028C144.943 268.151 140.696 271.69 135.034 272.398C123.71 273.46 114.155 275.583 99.6452 273.46C92.9213 272.752 89.0285 271.69 85.8435 270.982L60.7175 264.612C60.3637 264.612 45.1465 259.304 48.3315 258.242C48.3315 258.242 44.4387 255.057 51.8704 254.703Z" fill="url(#paint63_linear)"/>
<path d="M52.5789 255.057C63.1955 254.703 68.5038 256.118 81.5976 256.118C92.5681 256.472 101.769 256.826 109.201 257.18C112.386 257.18 114.863 257.534 117.694 257.888C126.187 258.596 132.557 259.304 137.158 260.719C142.466 262.135 143.528 264.258 143.528 266.028C143.528 268.151 139.281 271.336 133.973 272.044C122.295 273.46 113.094 275.229 99.292 273.46C92.922 272.752 89.0293 271.69 85.8443 270.982L60.7183 264.612C60.3644 264.612 45.5011 259.304 49.04 258.596C49.04 258.242 45.5011 255.411 52.5789 255.057Z" fill="url(#paint64_linear)"/>
<path d="M53.6403 255.411C63.903 255.057 69.2113 256.118 81.9513 256.472C92.9218 256.826 101.415 257.18 108.493 257.534C111.324 257.888 114.155 257.888 116.632 258.242C125.126 258.95 131.142 259.657 135.388 261.073C140.343 262.489 141.758 264.258 141.758 266.028C142.112 268.151 137.866 271.336 132.203 272.044C120.879 273.46 112.032 274.875 98.584 273.46C92.214 272.752 88.6752 271.69 85.4902 271.336L60.3642 264.966C60.0103 264.966 45.8548 259.657 49.3937 258.95C50.1014 258.242 46.5626 255.411 53.6403 255.411Z" fill="url(#paint65_linear)"/>
<path d="M54.3483 255.411C64.6111 255.057 69.9194 256.118 81.9515 256.472C92.5682 256.826 101.061 257.18 107.785 257.888C110.616 258.242 113.448 258.242 115.571 258.596C123.71 259.304 129.372 260.011 133.973 261.073C138.574 262.489 139.989 264.258 140.343 266.028C140.697 268.151 136.45 271.336 130.788 272.044C119.817 273.46 110.97 274.875 98.2304 273.106C92.2143 272.398 88.6754 271.336 85.8443 270.982L61.0722 264.612C60.7183 264.612 46.9167 259.304 50.8095 258.596C50.8095 258.242 47.6245 255.764 54.3483 255.411Z" fill="url(#paint66_linear)"/>
<path d="M55.0554 255.764C64.9643 255.41 70.2726 256.472 81.597 256.826C91.8597 257.18 99.9991 257.534 106.723 258.242C109.554 258.596 112.031 258.596 114.509 258.949C122.294 259.657 127.956 260.365 132.203 261.427C136.803 262.842 138.219 264.612 138.219 266.028C138.573 268.151 134.68 271.336 128.664 272.044C118.047 273.106 109.554 274.521 97.168 273.106C91.5058 272.398 87.967 271.69 85.1359 270.982L60.3637 264.612C60.0099 264.612 46.916 259.657 50.4549 258.596C51.5166 258.242 48.6855 256.118 55.0554 255.764Z" fill="url(#paint67_linear)"/>
<path d="M55.7638 256.118C65.3188 255.764 70.6271 256.826 81.5976 257.18C91.5065 257.534 99.6459 258.242 106.016 258.596C108.847 258.95 111.324 258.95 113.447 259.303C121.233 260.011 126.541 260.719 130.788 261.781C135.035 263.196 136.45 264.612 136.804 266.382C137.158 268.505 133.265 271.69 127.249 272.398C116.986 273.46 108.493 274.875 97.1687 273.46C91.5065 272.752 88.3215 272.044 85.4904 271.336L60.7182 264.966C60.3644 264.966 47.6244 260.011 51.5172 258.95C52.2249 258.596 49.7477 256.118 55.7638 256.118Z" fill="url(#paint68_linear)"/>
<path d="M56.4718 256.118C65.6729 255.764 70.9812 256.826 81.5978 257.18C91.1528 257.534 98.9383 258.242 105.308 258.596C107.785 258.95 110.263 258.95 112.74 259.303C120.172 260.011 125.48 260.719 129.373 261.781C133.619 262.843 135.035 264.612 135.389 266.028C136.096 268.151 131.85 271.336 125.834 272.044C115.925 273.106 107.785 274.167 96.815 272.752C91.5066 272.044 88.3217 271.336 85.4906 270.982L61.0723 264.612C60.7185 264.612 48.6863 259.657 52.579 258.596C52.9329 258.596 50.8096 256.472 56.4718 256.118Z" fill="url(#paint69_linear)"/>
<path d="M57.1786 256.472C66.3797 256.118 71.3341 257.18 81.5969 257.18C91.1518 257.534 98.5835 258.241 104.6 258.595C107.077 258.949 109.554 258.949 111.677 259.303C118.755 260.011 124.063 260.719 127.956 261.78C131.849 262.842 133.264 264.612 133.972 266.027C134.68 268.151 130.787 271.336 124.771 272.044C114.862 273.105 107.077 274.167 96.814 272.752C91.8596 272.044 88.6746 271.336 86.1974 270.982L61.0714 264.612C60.7175 264.612 49.0392 260.011 53.2859 258.949C53.6398 258.595 51.8703 256.472 57.1786 256.472Z" fill="url(#paint70_linear)"/>
<path d="M57.886 256.472C66.7332 256.118 72.0415 256.826 81.2425 257.18C90.4436 257.534 97.5214 258.241 103.537 258.595C106.015 258.949 108.138 258.949 110.261 259.303C116.985 260.011 122.293 260.719 125.832 261.781C129.725 262.842 131.141 264.258 131.495 265.673C132.202 267.443 128.31 270.982 122.293 271.336C112.739 272.398 105.307 273.105 95.398 272.044C90.4436 271.336 87.6125 270.628 85.1353 270.274L61.071 264.612C60.7171 264.612 49.7466 260.011 53.9932 258.949C54.3471 258.595 52.9315 256.826 57.886 256.472Z" fill="url(#paint71_linear)"/>
<path d="M58.5956 256.826C67.0889 256.472 72.3972 257.18 81.2444 257.534C90.0915 257.888 97.1693 258.596 102.478 258.95C104.955 259.304 107.078 259.304 109.201 259.657C115.925 260.365 120.526 261.073 124.419 262.135C127.957 263.196 129.373 264.612 130.081 265.674C131.142 267.443 126.896 270.982 120.88 271.336C111.679 272.398 104.247 273.106 95.046 272.044C90.4454 271.336 87.6143 270.982 85.1371 270.275L61.0728 264.612C60.7189 264.612 50.1023 260.011 54.7028 258.95C55.0567 258.596 53.995 257.18 58.5956 256.826Z" fill="url(#paint72_linear)"/>
<path d="M59.3023 257.18C67.4417 256.826 72.75 257.534 81.2433 257.888C89.7366 258.241 96.4604 258.949 101.769 259.303C103.892 259.657 106.015 259.657 108.139 260.011C114.509 260.719 119.109 261.427 122.648 262.488C126.187 263.55 127.603 264.966 128.31 266.027C129.372 267.797 125.479 271.336 119.109 271.69C110.262 272.398 103.184 273.105 94.3371 272.044C90.0905 271.336 87.2594 270.982 84.7822 270.628L61.0717 264.612C60.7178 264.612 50.809 260.011 55.4095 258.949C56.1173 258.595 55.0556 257.18 59.3023 257.18Z" fill="url(#paint73_linear)"/>
<path d="M60.3649 257.18C68.1504 256.826 73.4587 257.534 81.5981 257.888C89.7376 258.241 96.1075 258.949 101.416 259.657C103.539 260.011 105.662 260.011 107.432 260.365C113.448 261.073 118.049 261.78 121.587 262.842C124.772 263.904 126.188 264.966 126.896 266.027C127.957 267.797 124.065 270.982 117.695 271.69C109.201 272.398 102.124 273.105 94.3381 272.044C90.4453 271.69 87.6142 270.982 85.4909 270.628L61.0727 264.612C60.7188 264.612 51.1638 260.365 56.1183 258.949C56.826 258.595 56.1183 257.534 60.3649 257.18Z" fill="url(#paint74_linear)"/>
<path d="M61.0729 257.534C68.8584 257.18 73.8128 257.888 81.2445 258.242C89.03 258.596 95.4 259.303 100.354 260.011C102.478 260.365 104.601 260.365 106.37 260.719C112.033 261.427 116.633 262.135 119.818 263.196C123.003 264.258 124.419 265.32 125.127 266.382C126.542 268.151 122.295 271.336 115.925 272.044C107.786 272.752 101.062 273.106 93.6305 272.398C89.7378 272.044 87.2606 271.336 85.1372 270.982L61.0729 264.612C60.719 264.612 51.8718 260.365 56.4724 258.95C57.534 258.95 57.1801 257.534 61.0729 257.534Z" fill="url(#paint75_linear)"/>
<path d="M61.7792 257.888C69.2108 257.534 74.5191 258.242 81.243 258.596C89.0285 258.95 94.6907 259.657 99.6451 260.365C101.768 260.719 103.538 260.719 105.307 261.073C110.969 261.781 115.216 262.489 118.047 263.55C120.878 264.258 122.294 265.674 123.356 266.382C124.771 268.151 120.878 271.336 114.508 272.044C106.369 272.752 100.353 273.106 93.2751 272.044C89.7362 271.69 87.259 270.982 85.1357 270.629L61.0714 264.612C60.7175 264.612 52.2242 260.365 57.1786 259.304C58.2403 258.95 58.2403 257.888 61.7792 257.888Z" fill="url(#paint76_linear)"/>
<path d="M62.4873 257.888C69.565 257.534 74.8734 257.888 81.2433 258.242C88.675 258.596 94.3372 259.304 98.9377 260.011C101.061 260.365 102.83 260.365 104.246 260.719C109.554 261.427 113.447 262.135 116.632 263.197C119.463 263.904 120.879 264.966 121.586 266.028C123.002 267.443 119.109 270.982 112.739 271.69C104.954 272.398 98.9377 272.398 92.5677 271.69C89.3827 271.336 86.9055 270.982 84.7822 270.275L61.0717 264.612C60.7179 264.612 52.9323 260.365 57.8868 259.304C58.9484 258.95 59.3023 258.242 62.4873 257.888Z" fill="url(#paint77_linear)"/>
<path d="M63.1962 258.242C69.92 257.888 75.2283 258.242 81.2444 258.595C88.3222 258.949 93.6305 259.657 97.8771 260.365C99.6466 260.719 101.416 260.719 103.185 261.073C108.14 261.781 112.033 262.488 114.864 263.55C117.341 264.258 118.756 265.32 119.818 266.027C121.588 267.443 117.695 270.982 110.971 271.336C103.539 272.044 97.8771 272.044 91.861 271.336C88.6761 270.982 86.5527 270.628 84.7833 270.274L61.0728 264.612C60.7189 264.612 53.2873 260.719 58.5956 259.303C59.6573 258.949 60.3651 258.242 63.1962 258.242Z" fill="url(#paint78_linear)"/>
<path d="M63.9037 258.596C70.6275 258.242 75.582 258.596 80.8903 258.95C87.6141 259.304 92.9224 260.365 96.8152 260.719C98.5846 261.073 100.354 261.073 101.77 261.427C106.724 262.135 110.263 262.843 113.094 263.904C115.571 264.612 116.987 265.32 118.048 266.382C119.818 267.797 115.925 271.336 109.201 271.69C102.124 272.044 96.4613 272.044 91.5069 271.69C88.6758 271.336 86.5525 270.982 84.783 270.629L61.4265 264.966C61.0726 264.966 54.3487 261.073 59.657 259.658C60.3648 258.95 61.4265 258.596 63.9037 258.596Z" fill="url(#paint79_linear)"/>
<path d="M64.6098 258.596C70.9798 258.242 75.9342 258.596 80.8887 258.95C87.2586 259.304 92.2131 260.365 96.1058 260.719C97.8753 261.073 99.2908 261.073 100.706 261.427C105.307 262.135 108.846 262.843 111.323 263.904C113.446 264.612 114.862 265.32 115.924 266.028C117.693 267.443 113.8 270.982 107.076 271.336C100.352 271.69 95.0442 271.69 90.4436 270.982C87.9664 270.629 85.8431 270.275 84.0737 269.921L60.7171 264.258C60.3632 264.258 53.9932 260.365 59.6554 258.95C61.4249 258.95 62.4865 258.596 64.6098 258.596Z" fill="url(#paint80_linear)"/>
<path d="M84.783 270.275L61.4264 264.612C60.7186 264.612 52.9331 259.304 65.3192 258.95C79.8285 258.242 89.0296 260.011 95.3996 261.073C105.662 262.843 111.678 264.258 114.863 266.028C116.987 267.443 113.094 270.982 106.016 271.336C95.7535 272.044 89.0296 270.982 84.783 270.275Z" fill="#7C7350"/>
<path d="M185.438 136.253C184.022 210.219 146.864 269.321 102.274 268.613C100.505 268.613 79.9791 268.259 78.2096 267.905C16.6332 260.473 65.1158 206.68 66.5314 135.545C67.9469 65.8259 17.6949 4.60048 84.9335 -0.000272043C88.4724 -0.354176 105.105 0.353632 107.582 0.353632C152.172 1.41534 186.853 61.933 185.438 136.253Z" fill="url(#paint81_linear)"/>
<path d="M163.851 135.545C162.436 209.511 125.278 268.967 81.0416 267.905C36.4518 267.197 1.77081 206.326 3.18636 132.36C4.60191 58.3937 41.7601 -0.708353 86.3499 -0.000544271C130.586 1.06117 165.621 61.5788 163.851 135.545Z" fill="#EAB726"/>
<path d="M107.584 0.353904C105.461 0.353904 92.721 0 87.0588 0C130.941 1.76952 165.268 61.9332 163.852 135.545C162.437 208.096 126.694 266.49 83.166 267.906C89.8899 267.906 100.86 268.259 101.922 268.259C146.158 269.321 183.67 209.865 185.086 135.899C186.855 61.9333 152.174 1.41562 107.584 0.353904Z" fill="url(#paint82_linear)"/>
<path d="M107.584 0.354004C105.461 0.354004 82.1622 0.354049 76.5 0.354049C120.382 2.12357 158.5 60.5 163.852 135.545C162.437 208.096 126.694 266.49 83.166 267.906C89.8899 267.906 100.86 268.26 101.922 268.26C146.158 269.321 183.67 209.865 185.086 135.899C186.855 61.9334 152.174 1.41572 107.584 0.354004Z" fill="#EAB726"/>
<path d="M158.188 135.545C156.772 208.449 119.968 266.49 76.4399 265.782C32.9118 264.72 -1.41529 204.91 0.000262234 132.006C1.41581 59.1016 38.2201 1.06129 81.7483 1.7691C125.276 2.47691 159.603 62.6406 158.188 135.545Z" fill="#FFEB4C"/>
<path d="M77.1482 253.041C37.8667 252.334 6.72461 198.186 8.14016 132.714C9.55571 67.2416 42.4672 14.8637 81.7487 15.5715C121.03 16.2794 151.818 70.4267 150.403 135.545C149.341 201.017 116.076 253.749 77.1482 253.041Z" fill="#FFEB4C"/>
<path d="M79.6254 247.733C42.1133 247.025 12.7406 195.709 13.8023 133.068C15.2179 70.7805 46.7138 20.5261 84.2259 21.2339C121.738 21.9418 151.111 73.2579 149.695 135.899C148.633 198.186 117.137 248.441 79.6254 247.733Z" fill="#FFEB4C"/>
<path d="M71.4278 80.1234L67.3026 185.298C66.935 194.67 61.8969 202.063 56.0343 201.833C50.1716 201.603 45.7281 193.838 46.0957 184.466L50.2209 79.2916C50.5885 69.9197 55.6265 62.527 61.4892 62.757C67.3518 62.9869 71.7954 70.7514 71.4278 80.1234Z" fill="#EAB726"/>
<path d="M78.7685 148.028L71.2213 126.063L71.3189 123.575C74.8228 121.105 77.7997 118.209 80.4306 114.894L78.7685 148.028Z" fill="#EAB726"/>
<path d="M80.2484 114.944C87.6096 105.615 91.8408 92.9181 95.3623 76.1375C96.8357 69.0685 101.046 64.3087 105.642 64.489C112.554 64.7601 117.017 75.7121 114.505 86.1588C108.757 109.805 101.746 121.292 94.0437 130.087L112.214 179.701C116.075 190.282 110.862 203.983 103.046 203.677C99.6438 203.543 96.6065 200.585 95.0125 195.945L78.5524 148.02L80.2484 114.944Z" fill="#EAB726"/>
<path d="M145 135C145 166.19 137.621 194.329 125.795 214.602C113.94 234.925 97.8568 247 80.5 247C63.1432 247 47.0598 234.925 35.205 214.602C23.3788 194.329 16 166.19 16 135C16 103.81 23.3788 75.671 35.205 55.3976C47.0598 35.0751 63.1432 23 80.5 23C97.8568 23 113.94 35.0751 125.795 55.3976C137.621 75.671 145 103.81 145 135Z" stroke="#EAB726" stroke-width="4"/>
</g>
<defs>
<linearGradient id="paint0_linear" x1="121.361" y1="280.283" x2="121.482" y2="239.693" gradientUnits="userSpaceOnUse">
<stop stop-color="#FEFEFE"/>
<stop offset="1" stop-color="#FFFFFE"/>
</linearGradient>
<linearGradient id="paint1_linear" x1="120.885" y1="280.125" x2="121.122" y2="240.228" gradientUnits="userSpaceOnUse">
<stop stop-color="#FDFDFD"/>
<stop offset="1" stop-color="#FEFEFE"/>
</linearGradient>
<linearGradient id="paint2_linear" x1="120.421" y1="280.013" x2="120.771" y2="240.786" gradientUnits="userSpaceOnUse">
<stop stop-color="#FDFDFC"/>
<stop offset="1" stop-color="#FEFEFD"/>
</linearGradient>
<linearGradient id="paint3_linear" x1="119.947" y1="279.86" x2="120.406" y2="241.302" gradientUnits="userSpaceOnUse">
<stop stop-color="#FCFCFB"/>
<stop offset="1" stop-color="#FDFDFD"/>
</linearGradient>
<linearGradient id="paint4_linear" x1="119.474" y1="279.725" x2="120.038" y2="241.807" gradientUnits="userSpaceOnUse">
<stop stop-color="#FBFBFB"/>
<stop offset="1" stop-color="#FDFDFC"/>
</linearGradient>
<linearGradient id="paint5_linear" x1="119.003" y1="279.597" x2="119.67" y2="242.297" gradientUnits="userSpaceOnUse">
<stop stop-color="#FAFAFA"/>
<stop offset="1" stop-color="#FCFCFC"/>
</linearGradient>
<linearGradient id="paint6_linear" x1="118.531" y1="279.476" x2="119.296" y2="242.77" gradientUnits="userSpaceOnUse">
<stop stop-color="#FAF9F9"/>
<stop offset="1" stop-color="#FCFCFB"/>
</linearGradient>
<linearGradient id="paint7_linear" x1="118.063" y1="279.36" x2="118.924" y2="243.222" gradientUnits="userSpaceOnUse">
<stop stop-color="#F9F9F8"/>
<stop offset="1" stop-color="#FBFBFB"/>
</linearGradient>
<linearGradient id="paint8_linear" x1="117.608" y1="279.307" x2="118.562" y2="243.711" gradientUnits="userSpaceOnUse">
<stop stop-color="#F8F8F7"/>
<stop offset="1" stop-color="#FBFBFA"/>
</linearGradient>
<linearGradient id="paint9_linear" x1="117.143" y1="279.2" x2="118.188" y2="244.125" gradientUnits="userSpaceOnUse">
<stop stop-color="#F7F7F6"/>
<stop offset="1" stop-color="#FBFAFA"/>
</linearGradient>
<linearGradient id="paint10_linear" x1="116.677" y1="279.091" x2="117.811" y2="244.512" gradientUnits="userSpaceOnUse">
<stop stop-color="#F7F6F5"/>
<stop offset="1" stop-color="#FAFAF9"/>
</linearGradient>
<linearGradient id="paint11_linear" x1="116.212" y1="278.982" x2="117.432" y2="244.873" gradientUnits="userSpaceOnUse">
<stop stop-color="#F6F5F4"/>
<stop offset="1" stop-color="#FAF9F9"/>
</linearGradient>
<linearGradient id="paint12_linear" x1="115.751" y1="278.871" x2="117.056" y2="245.203" gradientUnits="userSpaceOnUse">
<stop stop-color="#F5F5F4"/>
<stop offset="1" stop-color="#F9F9F8"/>
</linearGradient>
<linearGradient id="paint13_linear" x1="115.29" y1="278.755" x2="116.677" y2="245.499" gradientUnits="userSpaceOnUse">
<stop stop-color="#F4F4F3"/>
<stop offset="1" stop-color="#F9F9F8"/>
</linearGradient>
<linearGradient id="paint14_linear" x1="114.847" y1="278.719" x2="116.317" y2="245.839" gradientUnits="userSpaceOnUse">
<stop stop-color="#F4F3F2"/>
<stop offset="1" stop-color="#F8F8F7"/>
</linearGradient>
<linearGradient id="paint15_linear" x1="114.388" y1="278.6" x2="115.941" y2="246.064" gradientUnits="userSpaceOnUse">
<stop stop-color="#F3F2F1"/>
<stop offset="1" stop-color="#F8F8F7"/>
</linearGradient>
<linearGradient id="paint16_linear" x1="113.933" y1="278.477" x2="115.567" y2="246.251" gradientUnits="userSpaceOnUse">
<stop stop-color="#F2F1F0"/>
<stop offset="1" stop-color="#F8F7F6"/>
</linearGradient>
<linearGradient id="paint17_linear" x1="113.477" y1="278.349" x2="115.193" y2="246.401" gradientUnits="userSpaceOnUse">
<stop stop-color="#F1F1EF"/>
<stop offset="1" stop-color="#F7F7F6"/>
</linearGradient>
<linearGradient id="paint18_linear" x1="113.027" y1="278.216" x2="114.824" y2="246.516" gradientUnits="userSpaceOnUse">
<stop stop-color="#F1F0EE"/>
<stop offset="1" stop-color="#F7F6F5"/>
</linearGradient>
<linearGradient id="paint19_linear" x1="112.576" y1="278.077" x2="114.454" y2="246.614" gradientUnits="userSpaceOnUse">
<stop stop-color="#F0EFED"/>
<stop offset="1" stop-color="#F6F6F5"/>
</linearGradient>
<linearGradient id="paint20_linear" x1="112.143" y1="278.04" x2="114.101" y2="246.8" gradientUnits="userSpaceOnUse">
<stop stop-color="#EFEEED"/>
<stop offset="1" stop-color="#F6F5F4"/>
</linearGradient>
<linearGradient id="paint21_linear" x1="111.697" y1="277.898" x2="113.735" y2="246.873" gradientUnits="userSpaceOnUse">
<stop stop-color="#EEEDEC"/>
<stop offset="1" stop-color="#F5F5F4"/>
</linearGradient>
<linearGradient id="paint22_linear" x1="111.252" y1="277.75" x2="113.368" y2="246.931" gradientUnits="userSpaceOnUse">
<stop stop-color="#EEECEB"/>
<stop offset="1" stop-color="#F5F4F3"/>
</linearGradient>
<linearGradient id="paint23_linear" x1="110.811" y1="277.6" x2="113.005" y2="246.979" gradientUnits="userSpaceOnUse">
<stop stop-color="#EDECEA"/>
<stop offset="1" stop-color="#F4F4F3"/>
</linearGradient>
<linearGradient id="paint24_linear" x1="110.367" y1="277.448" x2="112.639" y2="247.014" gradientUnits="userSpaceOnUse">
<stop stop-color="#ECEBE9"/>
<stop offset="1" stop-color="#F4F3F2"/>
</linearGradient>
<linearGradient id="paint25_linear" x1="109.93" y1="277.294" x2="112.281" y2="247.038" gradientUnits="userSpaceOnUse">
<stop stop-color="#EBEAE8"/>
<stop offset="1" stop-color="#F4F3F2"/>
</linearGradient>
<linearGradient id="paint26_linear" x1="109.512" y1="277.289" x2="111.941" y2="247.174" gradientUnits="userSpaceOnUse">
<stop stop-color="#EBE9E7"/>
<stop offset="1" stop-color="#F3F2F1"/>
</linearGradient>
<linearGradient id="paint27_linear" x1="109.075" y1="277.164" x2="111.584" y2="247.18" gradientUnits="userSpaceOnUse">
<stop stop-color="#EAE8E6"/>
<stop offset="1" stop-color="#F3F2F1"/>
</linearGradient>
<linearGradient id="paint28_linear" x1="108.64" y1="277.034" x2="111.228" y2="247.176" gradientUnits="userSpaceOnUse">
<stop stop-color="#E9E8E6"/>
<stop offset="1" stop-color="#F2F2F0"/>
</linearGradient>
<linearGradient id="paint29_linear" x1="108.209" y1="276.898" x2="110.876" y2="247.162" gradientUnits="userSpaceOnUse">
<stop stop-color="#E8E7E5"/>
<stop offset="1" stop-color="#F2F1F0"/>
</linearGradient>
<linearGradient id="paint30_linear" x1="107.78" y1="276.758" x2="110.526" y2="247.14" gradientUnits="userSpaceOnUse">
<stop stop-color="#E8E6E4"/>
<stop offset="1" stop-color="#F1F1EF"/>
</linearGradient>
<linearGradient id="paint31_linear" x1="107.354" y1="276.612" x2="110.178" y2="247.106" gradientUnits="userSpaceOnUse">
<stop stop-color="#E7E5E3"/>
<stop offset="1" stop-color="#F1F0EF"/>
</linearGradient>
<linearGradient id="paint32_linear" x1="106.955" y1="276.611" x2="109.857" y2="247.209" gradientUnits="userSpaceOnUse">
<stop stop-color="#E6E4E2"/>
<stop offset="1" stop-color="#F1F0EE"/>
</linearGradient>
<linearGradient id="paint33_linear" x1="106.517" y1="276.466" x2="109.498" y2="247.165" gradientUnits="userSpaceOnUse">
<stop stop-color="#E5E4E1"/>
<stop offset="1" stop-color="#F0EFEE"/>
</linearGradient>
<linearGradient id="paint34_linear" x1="106.057" y1="276.322" x2="109.118" y2="247.115" gradientUnits="userSpaceOnUse">
<stop stop-color="#E5E3E0"/>
<stop offset="1" stop-color="#F0EFED"/>
</linearGradient>
<linearGradient id="paint35_linear" x1="105.761" y1="276.153" x2="108.898" y2="247.03" gradientUnits="userSpaceOnUse">
<stop stop-color="#E4E2DF"/>
<stop offset="1" stop-color="#EFEEED"/>
</linearGradient>
<linearGradient id="paint36_linear" x1="105.311" y1="276.014" x2="108.529" y2="246.962" gradientUnits="userSpaceOnUse">
<stop stop-color="#E3E1DF"/>
<stop offset="1" stop-color="#EFEEEC"/>
</linearGradient>
<linearGradient id="paint37_linear" x1="104.866" y1="275.882" x2="108.166" y2="246.884" gradientUnits="userSpaceOnUse">
<stop stop-color="#E2E0DE"/>
<stop offset="1" stop-color="#EEEDEC"/>
</linearGradient>
<linearGradient id="paint38_linear" x1="104.459" y1="275.932" x2="107.844" y2="246.965" gradientUnits="userSpaceOnUse">
<stop stop-color="#E2E0DD"/>
<stop offset="1" stop-color="#EEEDEB"/>
</linearGradient>
<linearGradient id="paint39_linear" x1="104.21" y1="275.798" x2="107.678" y2="246.846" gradientUnits="userSpaceOnUse">
<stop stop-color="#E1DFDC"/>
<stop offset="1" stop-color="#EDECEB"/>
</linearGradient>
<linearGradient id="paint40_linear" x1="103.815" y1="275.702" x2="107.371" y2="246.747" gradientUnits="userSpaceOnUse">
<stop stop-color="#E0DEDB"/>
<stop offset="1" stop-color="#EDECEA"/>
</linearGradient>
<linearGradient id="paint41_linear" x1="103.523" y1="275.64" x2="106.919" y2="247.284" gradientUnits="userSpaceOnUse">
<stop stop-color="#DEDBD8"/>
<stop offset="1" stop-color="#EAE9E6"/>
</linearGradient>
<linearGradient id="paint42_linear" x1="103.055" y1="275.605" x2="106.299" y2="247.84" gradientUnits="userSpaceOnUse">
<stop stop-color="#DBD9D4"/>
<stop offset="1" stop-color="#E7E6E2"/>
</linearGradient>
<linearGradient id="paint43_linear" x1="102.728" y1="275.375" x2="105.821" y2="248.197" gradientUnits="userSpaceOnUse">
<stop stop-color="#D9D6D1"/>
<stop offset="1" stop-color="#E5E3DF"/>
</linearGradient>
<linearGradient id="paint44_linear" x1="102.43" y1="275.313" x2="105.376" y2="248.712" gradientUnits="userSpaceOnUse">
<stop stop-color="#D6D4CD"/>
<stop offset="1" stop-color="#E2E0DB"/>
</linearGradient>
<linearGradient id="paint45_linear" x1="102.129" y1="275.25" x2="104.933" y2="249.22" gradientUnits="userSpaceOnUse">
<stop stop-color="#D4D1CA"/>
<stop offset="1" stop-color="#DFDDD7"/>
</linearGradient>
<linearGradient id="paint46_linear" x1="101.666" y1="275.211" x2="104.334" y2="249.744" gradientUnits="userSpaceOnUse">
<stop stop-color="#D1CEC7"/>
<stop offset="1" stop-color="#DCDAD3"/>
</linearGradient>
<linearGradient id="paint47_linear" x1="101.36" y1="275.146" x2="103.895" y2="250.235" gradientUnits="userSpaceOnUse">
<stop stop-color="#CFCCC3"/>
<stop offset="1" stop-color="#DAD7D0"/>
</linearGradient>
<linearGradient id="paint48_linear" x1="101.03" y1="275.082" x2="103.435" y2="250.72" gradientUnits="userSpaceOnUse">
<stop stop-color="#CCC9C0"/>
<stop offset="1" stop-color="#D7D4CC"/>
</linearGradient>
<linearGradient id="paint49_linear" x1="100.655" y1="274.874" x2="102.935" y2="251.057" gradientUnits="userSpaceOnUse">
<stop stop-color="#CAC7BC"/>
<stop offset="1" stop-color="#D4D1C8"/>
</linearGradient>
<linearGradient id="paint50_linear" x1="100.304" y1="274.814" x2="102.462" y2="251.531" gradientUnits="userSpaceOnUse">
<stop stop-color="#C8C4B9"/>
<stop offset="1" stop-color="#D1CEC4"/>
</linearGradient>
<linearGradient id="paint51_linear" x1="99.9533" y1="274.75" x2="101.994" y2="251.995" gradientUnits="userSpaceOnUse">
<stop stop-color="#C5C1B6"/>
<stop offset="1" stop-color="#CFCCC1"/>
</linearGradient>
<linearGradient id="paint52_linear" x1="99.598" y1="274.685" x2="101.525" y2="252.451" gradientUnits="userSpaceOnUse">
<stop stop-color="#C3BFB2"/>
<stop offset="1" stop-color="#CCC9BD"/>
</linearGradient>
<linearGradient id="paint53_linear" x1="99.2437" y1="274.618" x2="101.061" y2="252.896" gradientUnits="userSpaceOnUse">
<stop stop-color="#C0BCAF"/>
<stop offset="1" stop-color="#C9C6B9"/>
</linearGradient>
<linearGradient id="paint54_linear" x1="98.8891" y1="274.549" x2="100.601" y2="253.332" gradientUnits="userSpaceOnUse">
<stop stop-color="#BEB9AC"/>
<stop offset="1" stop-color="#C6C3B5"/>
</linearGradient>
<linearGradient id="paint55_linear" x1="98.5144" y1="274.354" x2="100.124" y2="253.636" gradientUnits="userSpaceOnUse">
<stop stop-color="#BBB7A8"/>
<stop offset="1" stop-color="#C4C0B2"/>
</linearGradient>
<linearGradient id="paint56_linear" x1="98.1573" y1="274.284" x2="99.668" y2="254.054" gradientUnits="userSpaceOnUse">
<stop stop-color="#B9B4A5"/>
<stop offset="1" stop-color="#C1BDAE"/>
</linearGradient>
<linearGradient id="paint57_linear" x1="97.7995" y1="274.212" x2="99.2152" y2="254.46" gradientUnits="userSpaceOnUse">
<stop stop-color="#B7B2A1"/>
<stop offset="1" stop-color="#BEBAAA"/>
</linearGradient>
<linearGradient id="paint58_linear" x1="97.4415" y1="274.136" x2="98.7656" y2="254.855" gradientUnits="userSpaceOnUse">
<stop stop-color="#B4AF9E"/>
<stop offset="1" stop-color="#BBB7A6"/>
</linearGradient>
<linearGradient id="paint59_linear" x1="97.0814" y1="274.059" x2="98.3176" y2="255.237" gradientUnits="userSpaceOnUse">
<stop stop-color="#B2AC9B"/>
<stop offset="1" stop-color="#B9B4A3"/>
</linearGradient>
<linearGradient id="paint60_linear" x1="96.7242" y1="273.979" x2="97.8758" y2="255.605" gradientUnits="userSpaceOnUse">
<stop stop-color="#AFAA97"/>
<stop offset="1" stop-color="#B6B19F"/>
</linearGradient>
<linearGradient id="paint61_linear" x1="96.3479" y1="273.795" x2="97.4189" y2="255.853" gradientUnits="userSpaceOnUse">
<stop stop-color="#ADA794"/>
<stop offset="1" stop-color="#B3AE9B"/>
</linearGradient>
<linearGradient id="paint62_linear" x1="95.9904" y1="273.714" x2="96.9843" y2="256.181" gradientUnits="userSpaceOnUse">
<stop stop-color="#AAA590"/>
<stop offset="1" stop-color="#B0AB97"/>
</linearGradient>
<linearGradient id="paint63_linear" x1="95.6284" y1="273.63" x2="96.5491" y2="256.485" gradientUnits="userSpaceOnUse">
<stop stop-color="#A8A28D"/>
<stop offset="1" stop-color="#AEA894"/>
</linearGradient>
<linearGradient id="paint64_linear" x1="95.267" y1="273.543" x2="96.1186" y2="256.747" gradientUnits="userSpaceOnUse">
<stop stop-color="#A59F8A"/>
<stop offset="1" stop-color="#ABA590"/>
</linearGradient>
<linearGradient id="paint65_linear" x1="94.9032" y1="273.453" x2="95.6918" y2="256.925" gradientUnits="userSpaceOnUse">
<stop stop-color="#A39D86"/>
<stop offset="1" stop-color="#A8A28C"/>
</linearGradient>
<linearGradient id="paint66_linear" x1="94.4789" y1="273.358" x2="95.2101" y2="257.007" gradientUnits="userSpaceOnUse">
<stop stop-color="#A19A83"/>
<stop offset="1" stop-color="#A59F88"/>
</linearGradient>
<linearGradient id="paint67_linear" x1="93.9895" y1="273.18" x2="94.6642" y2="257.015" gradientUnits="userSpaceOnUse">
<stop stop-color="#9E987F"/>
<stop offset="1" stop-color="#A39C85"/>
</linearGradient>
<linearGradient id="paint68_linear" x1="93.5128" y1="273.081" x2="94.1317" y2="257.108" gradientUnits="userSpaceOnUse">
<stop stop-color="#9C957C"/>
<stop offset="1" stop-color="#A09981"/>
</linearGradient>
<linearGradient id="paint69_linear" x1="93.033" y1="272.981" x2="93.5971" y2="257.207" gradientUnits="userSpaceOnUse">
<stop stop-color="#999279"/>
<stop offset="1" stop-color="#9D967D"/>
</linearGradient>
<linearGradient id="paint70_linear" x1="92.5491" y1="272.879" x2="93.0593" y2="257.311" gradientUnits="userSpaceOnUse">
<stop stop-color="#979075"/>
<stop offset="1" stop-color="#9A9379"/>
</linearGradient>
<linearGradient id="paint71_linear" x1="92.0624" y1="272.775" x2="92.5197" y2="257.42" gradientUnits="userSpaceOnUse">
<stop stop-color="#948D72"/>
<stop offset="1" stop-color="#989176"/>
</linearGradient>
<linearGradient id="paint72_linear" x1="91.5745" y1="272.669" x2="91.9801" y2="257.535" gradientUnits="userSpaceOnUse">
<stop stop-color="#928A6F"/>
<stop offset="1" stop-color="#958E72"/>
</linearGradient>
<linearGradient id="paint73_linear" x1="91.0681" y1="272.505" x2="91.4232" y2="257.599" gradientUnits="userSpaceOnUse">
<stop stop-color="#90886B"/>
<stop offset="1" stop-color="#928B6E"/>
</linearGradient>
<linearGradient id="paint74_linear" x1="90.5714" y1="272.4" x2="90.8771" y2="257.728" gradientUnits="userSpaceOnUse">
<stop stop-color="#8D8568"/>
<stop offset="1" stop-color="#8F886A"/>
</linearGradient>
<linearGradient id="paint75_linear" x1="90.0687" y1="272.294" x2="90.3264" y2="257.863" gradientUnits="userSpaceOnUse">
<stop stop-color="#8B8364"/>
<stop offset="1" stop-color="#8D8567"/>
</linearGradient>
<linearGradient id="paint76_linear" x1="89.5585" y1="272.189" x2="89.7696" y2="258.003" gradientUnits="userSpaceOnUse">
<stop stop-color="#888061"/>
<stop offset="1" stop-color="#8A8263"/>
</linearGradient>
<linearGradient id="paint77_linear" x1="89.0435" y1="272.085" x2="89.2094" y2="258.148" gradientUnits="userSpaceOnUse">
<stop stop-color="#867D5E"/>
<stop offset="1" stop-color="#877F5F"/>
</linearGradient>
<linearGradient id="paint78_linear" x1="88.5219" y1="271.984" x2="88.6441" y2="258.298" gradientUnits="userSpaceOnUse">
<stop stop-color="#837B5A"/>
<stop offset="1" stop-color="#847C5B"/>
</linearGradient>
<linearGradient id="paint79_linear" x1="87.9792" y1="271.857" x2="88.0591" y2="258.422" gradientUnits="userSpaceOnUse">
<stop stop-color="#817857"/>
<stop offset="1" stop-color="#827958"/>
</linearGradient>
<linearGradient id="paint80_linear" x1="87.4364" y1="271.778" x2="87.4756" y2="258.587" gradientUnits="userSpaceOnUse">
<stop stop-color="#7E7653"/>
<stop offset="1" stop-color="#7F7654"/>
</linearGradient>
<linearGradient id="paint81_linear" x1="152.916" y1="15.9072" x2="49.1228" y2="258.495" gradientUnits="userSpaceOnUse">
<stop stop-color="#F2DA58"/>
<stop offset="0.3377" stop-color="#F2E889"/>
<stop offset="0.5755" stop-color="#F2DA58"/>
<stop offset="0.6887" stop-color="#F2CF45"/>
<stop offset="0.7416" stop-color="#F0C43B"/>
<stop offset="0.9052" stop-color="#ECA820"/>
<stop offset="1" stop-color="#EA9E16"/>
</linearGradient>
<linearGradient id="paint82_linear" x1="56.2349" y1="15.0544" x2="166.749" y2="243.279" gradientUnits="userSpaceOnUse">
<stop stop-color="#FFE764"/>
<stop offset="0.3377" stop-color="#FFF595"/>
<stop offset="0.5755" stop-color="#FFE764"/>
<stop offset="0.6887" stop-color="#FFDC51"/>
<stop offset="0.7456" stop-color="#FDD046"/>
<stop offset="0.9066" stop-color="#F9B42B"/>
<stop offset="1" stop-color="#F7AA21"/>
</linearGradient>
<clipPath id="clip0">
<rect width="264" height="281" fill="white"/>
</clipPath>
</defs>
</svg>
