<svg width="668" height="766" viewBox="0 0 668 766" fill="none" xmlns="http://www.w3.org/2000/svg">
<mask id="mask0" mask-type="alpha" maskUnits="userSpaceOnUse" x="0" y="0" width="668" height="766">
<rect width="668" height="766" fill="white"/>
</mask>
<g mask="url(#mask0)">
<path d="M254.545 285.208L235.84 264.929L217.483 245.029C216.598 243.867 216.455 242.721 216.82 241.599C217.962 238.069 224.081 234.754 227.696 231.914L228.058 231.625C232.819 227.877 239.718 228.745 243.386 233.549L265.622 262.659L265.625 262.659L272.219 271.292C275.89 276.1 274.999 283.099 270.242 286.842L269.879 287.132C265.115 290.879 258.216 290.015 254.545 285.208Z" fill="#FFBD80"/>
<path d="M266.104 159.96C265.768 162.432 262.833 166.322 257.839 166.723C232.604 168.77 217.317 160.132 216.588 160.114C197.496 159.459 184.288 151.884 180.038 155.372C179.881 155.499 179.913 155.79 180.11 156.206C183.535 163.712 239.339 214.915 239.947 220.378C240.589 226.146 130.808 248.875 130.808 248.875C130.808 248.875 115.196 238.108 97.8033 224.098C88.9799 217.002 79.7047 209.073 71.772 201.285C63.7706 193.45 57.129 185.743 53.6856 179.198C53.6794 179.184 53.6733 179.17 53.6673 179.153C53.1446 178.175 52.7049 177.22 52.345 176.289C52.284 176.144 52.2326 176.009 52.1908 175.888C49.5821 168.857 44.8933 162.573 39.4875 157.164C25.4844 143.157 6.67131 135.026 6.67131 135.026L88.2894 95.0067C88.2894 95.0067 161.147 106.591 172.552 114.255C189.176 125.433 224.599 134.534 231.302 138.876C236.281 142.094 262.768 152.942 264.694 153.893C265.52 154.317 266.533 156.872 266.104 159.96Z" fill="#FFBD80"/>
<path d="M64.1755 81.7502C64.1755 81.7502 64.1483 81.9129 64.0912 82.2211L64.0911 82.2245C63.6597 84.6467 61.5154 96.0042 57.2458 108.888L57.2457 108.892C57.0871 109.367 56.925 109.848 56.7629 110.326C56.7629 110.326 56.7629 110.326 56.7628 110.329C56.6897 110.541 56.6129 110.76 56.5397 110.976L56.5395 110.979C51.2609 126.263 43.0215 143.101 31.1547 149.557L31.1513 149.556C30.4725 149.925 29.7784 150.26 29.0756 150.563C27.4407 151.256 25.7369 151.755 23.9724 152.024C22.6681 152.232 21.3324 152.309 19.9587 152.255C19.9587 152.255 9.86579 150.619 -5.23418 148.149C-6.05934 148.015 -6.901 147.872 -7.75946 147.729C-35.0559 143.255 -76.7709 136.344 -105.85 131.229C-105.822 130.514 -105.778 129.81 -105.711 129.11C-100.716 76.535 -65.3376 43.8224 -19.7508 25.9927C3.38717 41.3328 25.0587 55.7317 40.5887 66.0547C40.592 66.0548 40.5987 66.0551 40.602 66.0586C40.615 66.0694 40.6282 66.0733 40.6379 66.0839C41.6287 66.7438 42.5999 67.3892 43.5386 68.0094L43.5974 68.0493C56.298 76.5075 64.1755 81.7502 64.1755 81.7502Z" fill="#FF912B"/>
<path d="M67.2627 143.095C67.2932 143.168 67.3375 143.235 67.3478 143.311C72.7845 191.752 100.708 184.89 100.708 184.89L97.9639 224.428C89.119 217.314 79.8214 209.365 71.8693 201.557C63.8485 193.703 57.1907 185.976 53.7389 179.414C53.7328 179.4 53.7266 179.386 53.7206 179.369C53.1227 178.15 52.6758 177.179 52.3951 176.498C52.3339 176.353 52.2825 176.217 52.2405 176.096C49.6255 169.047 44.9253 162.747 39.5064 157.325C42.6636 152.354 46.342 146.713 49.9749 141.186C54.3974 134.471 64.4936 135.556 67.2627 143.095Z" fill="#FA9D65"/>
<path d="M40.4672 65.8658C40.4672 65.8658 13.7147 87.4631 2.41388 102.933L9.52377 116.763L-3.50943 115.003C-3.50943 115.003 -11.232 139.268 -7.97112 147.691L27.5687 152.493L71.5854 87.3564L40.4672 65.8658Z" fill="#FC7600"/>
<path d="M-5.89172 153.305C-6.52315 143.428 3.75042 123.712 3.75042 123.712L35.1151 131.352L11.8796 104.366C17.8778 93.0412 31.8271 75.9449 40.4336 65.8316C44.7224 60.7982 47.6839 57.4922 47.6839 57.4922C70.3355 76.4676 91.3726 95.3183 91.3726 95.3183C81.6453 98.7012 72.2551 108.555 64.3217 119.538C51.1376 137.788 41.9712 159.163 41.9712 159.163C23.0572 156.599 -5.89172 153.305 -5.89172 153.305Z" fill="#80D8D8"/>
<path d="M-5.89145 153.372C-6.52341 143.49 3.75876 123.764 3.75876 123.764L35.1497 131.408L11.8947 104.409C17.898 93.0776 31.859 75.9726 40.4727 65.8541C39.6478 94.6558 64.3809 119.585 64.3809 119.585C51.1858 137.844 42.0118 159.229 42.0118 159.229C23.0817 156.668 -5.89145 153.372 -5.89145 153.372Z" fill="#6EB7B7"/>
<path d="M32.095 91.2403C34.2131 91.5485 35.6762 93.5383 35.3646 95.6875C35.0497 97.8366 33.0794 99.3302 30.9611 99.0254C28.843 98.7172 27.3799 96.7273 27.6915 94.5781C28.0066 92.4257 29.9768 90.932 32.095 91.2403Z" fill="#FF912B"/>
<path d="M303.1 126.612L73.5298 183.888L98.6854 291.722L328.256 234.446L303.1 126.612Z" fill="#5EAB90"/>
<path d="M319.559 142.974L86.1785 177.139L101.456 287.582L334.836 253.417L319.559 142.974Z" fill="#69BEA0"/>
<path d="M323.867 235.977L316.005 181.518L316.002 181.498L312.133 154.682L309.569 155.038L265.604 161.177L265.601 161.177L265.099 161.249L232.167 165.842L227.952 166.429L227.949 166.429L192.64 171.359L99.8133 184.313L99.7963 184.316L99.7352 184.326L98.1587 184.544L98.1115 184.545L98.074 184.554L95.7109 184.882L98.5107 204.28L101.784 226.962L108.859 275.957L159.588 268.877L161.846 268.562L170.258 267.386L172.13 267.124L174.598 266.78L176.853 266.464L181.156 265.864L191.649 264.398L194.629 263.986L198.759 263.408L202.363 262.906L223.432 259.965L223.436 259.965L227.715 259.367L231.085 258.897L260.254 254.828L286.462 251.171L296.041 249.834L325.277 245.754L323.867 235.977ZM310.59 243.863L263.17 250.481L263.159 250.48L257.497 251.271L257.494 251.27L227.83 255.413L225.077 255.798L204.15 258.718L197.529 259.642L193.277 260.238L190.235 260.664L180.335 262.044L176.239 262.613L173.75 262.966L171.387 263.294L169.492 263.555L161.111 264.729L158.734 265.063L122.428 270.128C116.755 270.922 111.492 266.953 110.67 261.266L106.217 230.411L101.612 198.529C100.79 192.841 104.722 187.587 110.394 186.793L196.077 174.838L236.194 169.239L247.613 167.642L247.623 167.642L261.989 165.639L262.457 165.571L262.46 165.572L298.556 160.534C304.229 159.741 309.491 163.709 310.314 169.397L319.371 232.134C319.624 233.898 319.422 235.622 318.857 237.181C317.59 240.645 314.506 243.313 310.59 243.863Z" fill="#A5D8C6"/>
<path d="M213.814 242.279C198.822 244.144 185.164 233.399 183.309 218.276C181.454 203.152 192.101 189.38 207.093 187.515C222.086 185.65 235.744 196.394 237.599 211.518C239.454 226.641 228.804 240.413 213.814 242.279Z" fill="#A5D8C6"/>
<path d="M157.407 233.872C151.863 234.547 146.801 230.577 146.102 225.005C145.402 219.432 149.329 214.368 154.874 213.694C160.419 213.019 165.48 216.989 166.18 222.561C166.879 228.134 162.952 233.198 157.407 233.872Z" fill="#A5D8C6"/>
<path d="M266.22 217.518C260.675 218.192 255.613 214.222 254.914 208.65C254.215 203.077 258.142 198.013 263.687 197.339C269.232 196.665 274.293 200.635 274.992 206.207C275.692 211.78 271.764 216.844 266.22 217.518Z" fill="#A5D8C6"/>
<path d="M182.27 285.369L181.495 282.992L176.282 267.017C176.16 266.644 176.06 266.265 175.983 265.887C174.878 260.63 177.892 255.255 183.086 253.575L183.698 253.377C189.266 251.578 195.311 254.681 197.136 260.276L201.994 275.17L202.35 276.252L203.124 278.628C204.948 284.224 201.888 290.27 196.32 292.07L195.708 292.268C190.143 294.067 184.094 290.964 182.27 285.369Z" fill="#FFBD80"/>
<path d="M182.591 272.604C181.724 269.941 180.194 265.123 179.946 262.575C179.875 261.854 180.325 260.555 181.725 259.396C182.561 258.698 183.742 258.053 185.351 257.61C186.108 257.402 186.863 257.238 187.634 257.194C188.538 257.142 189.433 257.215 190.316 257.418C191.109 257.602 191.815 258.191 192.163 259.009C192.166 259.012 192.166 259.019 192.169 259.019C193.324 261.774 194.717 265.48 195.441 268.702C195.945 270.931 194.876 273.101 192.929 273.699L192.02 273.982L187.359 275.423C185.419 276.021 183.294 274.778 182.591 272.604Z" fill="#FFD0B1"/>
<path d="M182.594 272.623C181.726 269.958 180.195 265.137 179.946 262.588C179.876 261.867 180.326 260.567 181.727 259.407C182.036 259.291 182.366 259.187 182.716 259.09C183.473 258.882 184.229 258.718 185 258.673C185.905 258.621 186.8 258.695 187.685 258.897C188.481 259.082 189.185 259.667 189.533 260.489C189.536 260.493 189.536 260.499 189.539 260.5C190.695 263.255 192.09 266.964 192.814 270.188C193.136 271.617 192.814 273.018 192.03 274.001L187.366 275.443C185.424 276.041 183.297 274.797 182.594 272.623Z" fill="#F9CA9E"/>
<path d="M160.912 277.29L158.194 265.038C157.367 261.313 159.725 257.605 163.433 256.799L164.813 256.499C168.522 255.69 172.233 258.075 173.057 261.799L175.775 274.052C176.602 277.776 174.244 281.485 170.536 282.29L169.156 282.59C165.447 283.399 161.739 281.014 160.912 277.29Z" fill="#FFBD80"/>
<path d="M161.854 270.773C161.367 268.523 160.509 264.46 160.491 262.353C160.484 261.587 161.199 260.087 163.248 259.194C163.745 258.975 164.315 258.792 164.974 258.665C165.572 258.548 166.162 258.469 166.755 258.488C167.456 258.509 168.136 258.634 168.803 258.864C169.402 259.071 169.904 259.603 170.114 260.3C170.117 260.307 170.117 260.31 170.121 260.31C170.825 262.655 171.65 265.795 171.991 268.491C172.229 270.352 171.265 272.059 169.725 272.413L168.626 272.668L165.328 273.427C163.805 273.782 162.252 272.611 161.854 270.773Z" fill="#FFD0B1"/>
<path d="M161.857 270.786C161.369 268.534 160.51 264.468 160.492 262.359C160.484 261.593 161.201 260.092 163.252 259.198C163.81 259.094 164.366 259.023 164.926 259.04C165.625 259.061 166.309 259.187 166.976 259.417C167.573 259.623 168.079 260.156 168.29 260.854C168.293 260.861 168.293 260.864 168.296 260.864C169.001 263.211 169.828 266.352 170.166 269.05C170.365 270.595 169.732 272.031 168.638 272.681L165.335 273.441C163.81 273.796 162.255 272.625 161.857 270.786Z" fill="#F9CA9E"/>
<path d="M205.069 285.97C205.041 285.883 205.018 285.794 204.994 285.704L201.671 269.658C200.209 262.602 204.3 255.597 210.759 254.089L214.067 253.317C220.269 251.869 226.493 255.997 228.27 262.577L229.366 267.874L231.589 278.623C233.052 285.679 228.961 292.684 222.502 294.192L219.194 294.965C213.077 296.393 206.942 292.394 205.069 285.97Z" fill="#FFBD80"/>
<path d="M209.856 278.919L206.765 271.071C206.762 271.06 206.76 271.043 206.757 271.023C206.688 270.711 206.639 270.397 206.61 270.087C206.595 269.957 206.59 269.824 206.581 269.695C206.577 269.641 206.582 269.587 206.588 269.532C206.654 268.691 207.573 268.158 208.356 268.562C209.893 269.369 211.704 269.66 213.518 269.264L214.193 269.118C214.2 269.118 214.207 269.115 214.214 269.112L216.409 268.632C218.161 268.251 219.654 267.323 220.76 266.072C220.894 265.922 221.022 265.764 221.143 265.607C222.26 264.146 224.611 264.654 225.022 266.456C225.028 266.474 225.027 266.487 225.033 266.504L225.915 274.989C226.382 277.099 224.696 279.02 222.596 279.481L220.094 280.029L214.758 281.195C212.648 281.645 210.326 281.03 209.856 278.919Z" fill="#FFD0B1"/>
<path d="M209.858 278.943L206.766 271.088C206.763 271.078 206.76 271.06 206.758 271.04C206.731 270.859 206.664 270.292 206.585 269.548C206.651 268.706 207.571 268.172 208.354 268.577C209.893 269.385 211.705 269.675 213.52 269.28L214.196 269.133C214.203 269.134 214.209 269.13 214.216 269.127L216.414 268.647C218.167 268.266 219.661 267.336 220.768 266.085C221.152 266.377 221.444 266.797 221.569 267.336C221.575 267.35 221.575 267.366 221.581 267.384L222.463 275.875C222.859 277.655 221.72 279.296 220.101 280.047L214.762 281.214C212.653 281.671 210.329 281.056 209.858 278.943Z" fill="#F9CA9E"/>
<path d="M163.561 136.68C163.561 136.68 160.948 106.277 172.389 113.938C189.057 125.105 224.543 134.257 231.269 138.592C236.258 141.807 262.807 152.674 264.734 153.632C265.565 154.047 267.063 157.445 265.354 160.632C264.184 162.817 261.327 166.81 256.584 168.443C239.574 174.3 217.326 159.697 216.597 159.673C197.481 158.967 178.999 156.044 173.569 156.597C171.679 156.786 163.561 136.68 163.561 136.68Z" fill="#FFBD80"/>
<path d="M266.541 154.063L247.909 146.356C247.909 146.356 245.91 150.062 246.721 152.481C247.528 154.896 264.877 159.815 266.541 154.063Z" fill="#FFBD8F"/>
<path d="M572.906 516.273C572.906 516.273 573.881 516.959 574.247 518.452C574.528 519.596 574.238 521.363 574.149 522.767C573.962 525.758 578.009 530.153 580.626 531.678C583.242 533.207 580.626 525.312 580.626 523.401C580.626 521.49 581.373 520.091 579.255 515.76C577.139 511.434 572.906 516.273 572.906 516.273Z" fill="#FFBD80"/>
<path d="M513.891 443.175C513.119 433.128 523.794 426.241 532.224 431.464C532.397 431.572 532.568 431.68 532.738 431.79C545.358 440.096 569.593 473.865 573.182 480.589C576.92 487.59 581.866 517.491 581.866 517.491C581.866 517.491 575.032 520.047 571.836 517.394C571.836 517.394 561.142 491.464 557.214 487.017C553.075 482.331 514.774 460.683 514.409 451.5C514.311 449.074 514.122 446.155 513.891 443.175Z" fill="#FC7600"/>
<path d="M590.09 669.986C590.09 669.986 595.177 674.732 594.185 678.105C593.191 681.478 588.6 683.727 587.98 687.851C587.359 691.974 584.878 694.223 582.644 694.223C580.409 694.223 571.993 694.223 571.993 694.223C571.993 694.223 570.349 691.321 574.32 690.448C578.291 689.573 579.789 684.73 579.539 680.232C579.29 675.735 579.913 669.739 579.913 669.739L588.351 667.74L590.09 669.986Z" fill="#1D9294"/>
<path d="M527.668 682.264C527.668 682.264 528.581 693.068 526.346 694.192L497.759 694.131C497.759 694.131 497.759 690.758 502.35 690.008C506.941 689.257 515.008 686.51 516.373 680.387C517.741 674.267 527.668 682.264 527.668 682.264Z" fill="#1D9294"/>
<path d="M503.534 529.648C503.534 529.648 505.042 548.585 506.814 571.349C509.222 602.272 512.118 640.256 512.405 647.454C512.9 659.949 514.889 679.936 514.889 679.936C514.889 679.936 519.602 684.685 529.036 682.683C529.036 682.683 537.444 654.15 539.844 623.962C539.882 623.466 539.92 622.967 539.955 622.469C542.189 591.737 545.662 527.023 545.662 527.023L503.534 529.648Z" fill="#20A2A5"/>
<path d="M503.534 529.648C503.534 529.648 505.042 548.585 506.814 571.349L539.844 623.962C539.882 623.466 539.92 622.967 539.955 622.469C542.189 591.737 545.662 527.023 545.662 527.023L503.534 529.648Z" fill="#1D9294"/>
<path d="M510.419 531.9C510.419 531.9 537.595 600.486 555.467 632.719C573.339 664.951 578.922 673.946 578.922 673.946C578.922 673.946 589.161 669.822 590.09 667.012C590.09 667.012 583.256 604.787 571.289 589.619C564.528 581.048 556.583 555.326 556.212 546.331C555.841 537.336 553.793 519.535 553.793 519.535L510.419 531.9Z" fill="#20A2A5"/>
<path d="M533.852 429.016C533.852 429.016 515.644 438.459 504.98 435.308C504.98 435.308 506.443 433.344 509.119 431.261C510.836 429.924 511.73 427.744 511.386 425.565C511.28 424.886 511.188 424.247 511.115 423.648C510.595 419.965 510.674 417.32 510.674 417.32L517.537 412.023L524.158 406.429C523.925 421.785 533.852 429.016 533.852 429.016Z" fill="#FFBD80"/>
<path d="M551.938 524.957C544.586 529.507 537.625 532.927 529.48 534.847C519.872 537.176 508.065 536.489 504.113 537.104C503.707 537.159 503.322 537.051 502.962 536.805C502.651 536.641 500.909 524.661 499.162 509.537C499.083 508.931 499.002 508.313 498.969 507.699L498.945 507.494C498.265 501.581 497.672 495.372 497.155 489.147C496.735 484.303 496.385 479.512 496.147 475.012C495.844 469.382 495.719 464.211 495.844 459.958C495.898 458.014 496.009 456.266 496.179 454.748C497.22 445.914 500.836 439.575 504.715 434.873L509.197 431.192C512.93 431.433 515.983 430.677 519.58 428.251C523.513 425.604 527.755 422.76 528.556 423.233C534.583 426.603 539.489 435.341 542.994 446.875C545.004 453.516 546.545 461.052 547.531 469.03C547.848 471.506 548.119 474.048 548.324 476.577C548.365 477.045 548.398 477.513 548.436 477.972C548.907 484.887 549.679 491.37 550.537 497.158C551.689 504.965 553 511.504 553.926 516.109C554.392 518.455 554.747 520.266 554.955 521.565C555.148 522.706 552.929 524.329 551.938 524.957Z" fill="#FF912B"/>
<path d="M524.393 412.294C524.393 412.294 519.913 421.048 511.115 423.648C510.321 419.004 510.554 411.707 510.554 411.707L517.537 412.025L524.393 412.294Z" fill="#F99352"/>
<path d="M505.395 413.828C505.395 413.828 521.847 420.707 525.87 410.342C529.892 399.973 534.724 393.881 524.391 389.048C514.057 384.218 510.468 387.35 508.287 390.477C506.11 393.604 501.22 411.773 505.395 413.828Z" fill="#FFBD80"/>
<path d="M536.848 390.624C537.043 390.48 537.435 390.416 538.243 390.56C538.243 390.56 537.698 390.003 536.85 389.782C536.94 388.611 536.802 386.467 535.003 385.531C535.003 385.531 535.902 386.331 535.764 387.566C534.077 384.728 529.726 381.928 516.386 379.904C498.807 377.237 501.954 389.876 503.886 391.751C505.817 393.623 512.274 391.252 516.365 392.571C520.452 393.889 519.861 400.228 521.083 401.405C522.305 402.582 522.085 400.959 524.198 400.524C526.308 400.09 525.761 403.371 524.737 405.349C523.71 407.323 525.712 410.718 525.712 410.718C525.712 410.718 525.712 410.718 529.025 408.42C532.338 406.121 537.625 394.329 537.01 391.408C536.956 391.147 536.904 390.887 536.848 390.624Z" fill="#3F2A0B"/>
<path d="M526.709 460.949C526.709 460.949 511.874 472.489 496.147 475.02C495.844 469.39 495.719 464.219 495.844 459.966L526.709 460.949Z" fill="#FC7600"/>
<path d="M438.912 421.103C438.763 420.787 438.866 409.995 433.652 409.131C430.25 408.569 421.433 406.162 421.517 411.003C421.55 412.906 432.585 424.648 432.585 424.648L438.912 421.103Z" fill="#FFBD80"/>
<path d="M529.832 442.159C536.414 449.661 532.029 461.763 522.226 462.846C522.026 462.868 521.825 462.888 521.622 462.904C506.665 464.145 464.106 451.686 458.217 448.354C448.439 442.824 431.68 425.338 431.68 425.338C431.68 425.338 435.592 419.063 439.706 419.184C439.706 419.184 462.142 433.795 470.176 435.543C475.596 436.723 518.729 428.791 524.475 435.861C525.994 437.734 527.882 439.932 529.832 442.159Z" fill="#FF912B"/>
<path d="M580.501 519.028C580.501 519.028 581.3 520.825 581.866 522.227C582.432 523.628 582.744 526.237 582.308 525.982C581.872 525.727 580.314 523.866 579.816 522.919C579.317 521.972 580.501 519.028 580.501 519.028Z" fill="#FFBD80"/>
<g opacity="0.5">
<path opacity="0.5" d="M453.387 703.604C453.387 703.604 450.514 678.996 438.179 664.309C436.541 662.357 433.403 663.6 433.455 666.172C433.457 666.215 433.457 666.258 433.458 666.303C433.619 670.693 447.429 689.21 453.387 703.604Z" fill="#69BEA0"/>
<path opacity="0.5" d="M454.885 710.65C454.885 710.65 442.595 679.89 421.602 666.287C420.322 665.458 418.589 665.758 417.73 667.036C417.17 667.868 416.92 669.167 417.546 671.196C419.221 676.606 442.634 694.817 454.885 710.65Z" fill="#69BEA0"/>
</g>
<g opacity="0.5">
<path opacity="0.5" d="M449.98 701.976C449.98 701.976 452.231 682.703 461.891 671.201C463.174 669.672 465.632 670.646 465.591 672.66C465.59 672.694 465.59 672.727 465.588 672.762C465.462 676.2 454.647 690.703 449.98 701.976Z" fill="#69BEA0"/>
<path opacity="0.5" d="M448.903 707.534C448.903 707.534 458.598 687.135 475.156 678.114C476.166 677.564 477.533 677.763 478.211 678.611C478.652 679.163 478.849 680.024 478.355 681.369C477.035 684.957 458.567 697.034 448.903 707.534Z" fill="#69BEA0"/>
</g>
<path d="M408.047 581.047V602.634C408.047 606.766 411.506 610.148 415.731 610.148H431.55C435.776 610.148 439.235 606.766 439.235 602.634V581.047C439.235 576.915 435.776 573.534 431.55 573.534H415.731C411.506 573.531 408.047 576.913 408.047 581.047Z" fill="#FFBD80"/>
<path d="M408.047 581.047V593.075C408.047 597.207 411.506 600.588 415.731 600.588H431.55C435.776 600.588 439.235 597.204 439.235 593.075V581.047C439.235 576.915 435.776 573.534 431.55 573.534H415.731C411.506 573.531 408.047 576.913 408.047 581.047Z" fill="#FFD3AA"/>
<path d="M232.781 591.839C232.781 602.886 235.089 613.432 239.263 623.031C251.78 651.84 281.045 672.176 314.93 672.176H338.415C339.823 672.176 341.221 672.142 342.613 672.073C359.821 671.215 375.675 665.114 388.531 655.379C396.765 649.148 403.77 641.422 409.106 632.632C416.376 620.657 420.561 606.702 420.561 591.837C420.561 580.79 418.253 570.249 414.079 560.642C401.568 531.838 372.3 511.5 338.415 511.5H314.93C284.113 511.5 257.121 528.318 243.069 553.029C236.522 564.553 232.781 577.793 232.781 591.839Z" fill="#FFBD80"/>
<path d="M301.029 638.071L308.692 686.729C309.711 690.498 306.804 694.19 302.817 694.19H282.681C278.363 694.19 274.408 691.83 272.431 688.078L241.132 627.027L301.029 638.071Z" fill="#FFBD80"/>
<path d="M346.611 694.187H366.75C371.065 694.187 375.022 691.83 376.997 688.075L396.353 654.654L409.108 632.632L346.879 638.905L344.631 656.396L342.618 672.073L340.736 686.726C339.717 690.498 342.624 694.187 346.611 694.187Z" fill="#FFBD80"/>
<path d="M245.149 582.554C261.729 629.187 277.423 654.12 340.977 656.288C342.209 656.33 343.428 656.368 344.631 656.399C362.774 656.883 377.517 656.266 388.533 655.382C391.391 655.153 394 654.906 396.353 654.657L409.109 632.635C416.379 620.66 420.564 606.705 420.564 591.84C420.564 580.793 418.256 570.252 414.082 560.645C401.57 531.841 372.303 511.503 338.417 511.503H314.933C284.116 511.503 257.124 528.321 243.071 553.032C241.124 562.299 242.657 575.545 245.149 582.554Z" fill="#FFD3AA"/>
<path d="M348.104 531.631H380.413C383.671 531.631 386.312 529.695 386.312 527.31V484.166C386.312 483.43 386.074 482.76 385.668 482.178C384.088 479.935 379.936 479.01 376.845 480.724C364.578 487.523 344.479 502.303 342.218 527.014C341.987 529.512 344.688 531.631 348.104 531.631Z" fill="#FFD3AA"/>
<path d="M379.099 531.631H380.413C383.671 531.631 386.312 529.695 386.312 527.31V484.167C386.312 483.43 386.074 482.76 385.668 482.178C385.529 482.295 385.394 482.422 385.269 482.56C378.251 490.201 368.134 505.214 370.984 526.242C371.398 529.299 374.903 531.631 379.099 531.631Z" fill="#FFBD80"/>
<path d="M396.128 560.471C396.128 557.87 393.972 555.763 391.315 555.763C388.655 555.763 386.502 557.87 386.502 560.471C386.502 563.071 388.658 565.179 391.315 565.179C393.972 565.179 396.128 563.071 396.128 560.471Z" fill="#3F2A0B"/>
<path d="M327.992 424.668C345.337 406.975 345.337 378.288 327.992 360.595C310.646 342.901 282.524 342.901 265.179 360.595C247.833 378.288 247.833 406.975 265.179 424.668C282.524 442.361 310.646 442.361 327.992 424.668Z" fill="#EAB726"/>
<path d="M331.75 424.703C349.075 406.99 349.075 378.272 331.75 360.559C314.425 342.847 286.336 342.847 269.012 360.559C251.687 378.272 251.687 406.99 269.012 424.703C286.336 442.415 314.425 442.415 331.75 424.703Z" fill="#FFEB4D"/>
<path d="M271.806 422.387C264.172 414.583 259.966 404.204 259.966 393.165C259.966 382.126 264.17 371.75 271.806 363.946C279.439 356.142 289.591 351.841 300.388 351.841C311.184 351.841 321.334 356.139 328.967 363.946C336.6 371.75 340.807 382.129 340.807 393.165C340.807 404.201 336.603 414.581 328.967 422.387C321.334 430.191 311.182 434.492 300.388 434.492C289.591 434.492 279.441 430.191 271.806 422.387ZM262.379 393.168C262.379 414.594 279.43 432.027 300.388 432.027C321.345 432.027 338.396 414.594 338.396 393.168C338.396 371.741 321.345 354.308 300.388 354.308C279.43 354.308 262.379 371.739 262.379 393.168Z" fill="#EAB726"/>
<path d="M305.965 405.159C306.068 404.267 306.035 403.467 305.87 402.758C305.702 402.049 305.372 401.385 304.879 400.767C304.383 400.147 303.722 399.551 302.893 398.978C302.064 398.405 301.04 397.818 299.819 397.217C297.719 396.167 295.826 395.101 294.139 394.026C292.451 392.949 291.034 391.772 289.894 390.493C288.751 389.213 287.914 387.779 287.386 386.186C286.858 384.594 286.714 382.758 286.955 380.678C287.164 378.875 287.668 377.269 288.467 375.859C289.266 374.45 290.309 373.264 291.598 372.301C292.887 371.34 294.382 370.611 296.083 370.118C297.784 369.626 299.651 369.404 301.682 369.459L302.473 362.647L307.836 363.298L307.035 370.204C308.925 370.692 310.607 371.423 312.081 372.398C313.554 373.372 314.765 374.552 315.716 375.937C316.664 377.322 317.336 378.906 317.731 380.684C318.124 382.464 318.2 384.414 317.953 386.535L308.267 385.361C308.562 382.816 308.232 380.844 307.27 379.446C306.311 378.05 304.903 377.238 303.05 377.014C302.045 376.892 301.162 376.931 300.404 377.131C299.645 377.327 299.001 377.648 298.475 378.089C297.947 378.532 297.533 379.077 297.232 379.728C296.929 380.379 296.734 381.099 296.641 381.883C296.549 382.666 296.579 383.392 296.728 384.057C296.877 384.721 297.194 385.355 297.679 385.965C298.164 386.571 298.83 387.169 299.681 387.757C300.531 388.344 301.596 388.972 302.877 389.645C304.946 390.736 306.821 391.825 308.497 392.91C310.171 393.996 311.58 395.184 312.723 396.474C313.863 397.765 314.7 399.205 315.228 400.797C315.757 402.39 315.903 404.215 315.665 406.273C315.448 408.139 314.936 409.779 314.126 411.185C313.316 412.595 312.268 413.769 310.981 414.711C309.695 415.652 308.191 416.353 306.471 416.81C304.754 417.27 302.877 417.472 300.845 417.419L300.111 423.753L294.783 423.107L295.515 416.804C293.681 416.389 291.936 415.758 290.279 414.91C288.621 414.063 287.191 412.961 285.991 411.598C284.791 410.235 283.892 408.596 283.301 406.671C282.708 404.749 282.559 402.514 282.854 399.969L292.54 401.144C292.364 402.65 292.427 403.932 292.722 404.99C293.017 406.048 293.478 406.923 294.101 407.61C294.724 408.3 295.46 408.82 296.316 409.169C297.17 409.521 298.055 409.751 298.971 409.862C300.022 409.989 300.959 409.964 301.783 409.784C302.609 409.604 303.316 409.302 303.909 408.878C304.502 408.455 304.971 407.926 305.317 407.289C305.656 406.657 305.873 405.946 305.965 405.159Z" fill="#EAB726"/>
<path d="M412.746 324.64C422.333 314.861 422.333 299.005 412.746 289.226C403.159 279.447 387.616 279.447 378.029 289.226C368.442 299.005 368.442 314.861 378.029 324.64C387.616 334.419 403.159 334.419 412.746 324.64Z" fill="#EAB726"/>
<path d="M414.436 324.698C424.012 314.908 424.012 299.035 414.436 289.245C404.861 279.455 389.336 279.455 379.76 289.245C370.185 299.035 370.185 314.908 379.76 324.698C389.336 334.488 404.861 334.488 414.436 324.698Z" fill="#FFEB4D"/>
<path d="M381.304 323.418C377.085 319.105 374.76 313.368 374.76 307.267C374.76 301.165 377.084 295.43 381.304 291.117C385.523 286.803 391.134 284.426 397.102 284.426C403.069 284.426 408.679 286.802 412.898 291.117C417.117 295.43 419.442 301.167 419.442 307.267C419.442 313.366 417.118 319.103 412.898 323.418C408.679 327.731 403.068 330.109 397.102 330.109C391.134 330.109 385.525 327.731 381.304 323.418ZM376.094 307.268C376.094 319.111 385.519 328.746 397.102 328.746C408.685 328.746 418.109 319.111 418.109 307.268C418.109 295.426 408.685 285.79 397.102 285.79C385.519 285.79 376.094 295.424 376.094 307.268Z" fill="#EAB726"/>
<path d="M400.184 313.896C400.241 313.403 400.223 312.961 400.132 312.569C400.039 312.177 399.857 311.81 399.584 311.468C399.31 311.125 398.945 310.796 398.487 310.48C398.029 310.163 397.463 309.838 396.787 309.506C395.627 308.926 394.581 308.337 393.648 307.743C392.715 307.147 391.932 306.497 391.302 305.79C390.67 305.082 390.208 304.29 389.916 303.409C389.624 302.529 389.544 301.515 389.678 300.365C389.793 299.369 390.071 298.481 390.513 297.702C390.955 296.923 391.531 296.267 392.244 295.735C392.956 295.204 393.783 294.801 394.723 294.529C395.663 294.256 396.695 294.134 397.817 294.164L398.255 290.399L401.219 290.759L400.776 294.576C401.821 294.845 402.75 295.25 403.565 295.788C404.379 296.327 405.049 296.979 405.574 297.745C406.098 298.51 406.469 299.385 406.688 300.368C406.905 301.352 406.947 302.43 406.811 303.602L401.457 302.953C401.62 301.547 401.437 300.457 400.906 299.684C400.376 298.912 399.598 298.464 398.573 298.34C398.018 298.273 397.53 298.294 397.111 298.404C396.692 298.513 396.335 298.69 396.045 298.934C395.753 299.179 395.524 299.48 395.358 299.84C395.19 300.2 395.082 300.598 395.031 301.031C394.98 301.464 394.997 301.865 395.079 302.232C395.162 302.6 395.337 302.95 395.605 303.287C395.873 303.622 396.241 303.953 396.711 304.277C397.181 304.602 397.77 304.949 398.478 305.321C399.621 305.924 400.657 306.526 401.584 307.126C402.509 307.726 403.288 308.383 403.92 309.096C404.55 309.809 405.013 310.605 405.305 311.485C405.597 312.365 405.677 313.374 405.546 314.511C405.426 315.543 405.143 316.449 404.695 317.227C404.248 318.006 403.668 318.655 402.957 319.175C402.246 319.696 401.415 320.083 400.464 320.335C399.515 320.589 398.478 320.701 397.355 320.672L396.949 324.173L394.004 323.816L394.408 320.332C393.395 320.103 392.431 319.754 391.515 319.285C390.598 318.817 389.808 318.208 389.145 317.455C388.481 316.702 387.984 315.795 387.658 314.732C387.33 313.669 387.248 312.434 387.411 311.028L392.765 311.677C392.667 312.509 392.702 313.218 392.865 313.803C393.028 314.387 393.283 314.871 393.627 315.251C393.971 315.632 394.379 315.919 394.852 316.112C395.323 316.307 395.813 316.434 396.319 316.495C396.9 316.565 397.418 316.552 397.873 316.452C398.329 316.353 398.72 316.186 399.048 315.952C399.376 315.717 399.635 315.425 399.827 315.073C400.014 314.724 400.134 314.331 400.184 313.896Z" fill="#EAB726"/>
<path d="M190.485 682.051V690.47C190.485 691.142 190.288 691.763 189.953 692.282C189.6 692.829 189.094 693.255 188.499 693.496C188.317 693.57 188.127 693.626 187.93 693.663C187.751 693.695 187.569 693.714 187.383 693.714H59.2386C57.5876 693.714 56.2266 692.342 56.1411 690.637C56.1411 690.581 56.1374 690.526 56.1374 690.47V682.051C56.1374 681.995 56.1374 681.94 56.1411 681.884C56.2266 680.179 57.5876 678.807 59.2386 678.807H187.383C187.569 678.807 187.751 678.826 187.93 678.858C188.127 678.895 188.317 678.951 188.499 679.025C189.094 679.266 189.6 679.692 189.953 680.239C190.288 680.758 190.485 681.379 190.485 682.051Z" fill="#FFEB4D"/>
<path d="M127.556 693.714H58.904C57.4314 693.714 56.2155 692.342 56.1411 690.637C56.1411 690.581 56.1374 690.526 56.1374 690.47V682.051C56.1374 681.995 56.1374 681.94 56.1411 681.884C56.2155 680.179 57.4314 678.807 58.904 678.807H119.126C120.089 683.195 122.331 689.265 127.556 693.714Z" fill="#EAB726"/>
<path d="M174.892 693.712H173.434V678.806H174.892V693.712Z" fill="#EAB726"/>
<path d="M169.963 693.712H168.505V678.806H169.963V693.712Z" fill="#EAB726"/>
<path d="M164.048 693.712H162.59V678.806H164.048V693.712Z" fill="#EAB726"/>
<path d="M154.986 693.712H153.528V678.806H154.986V693.712Z" fill="#EAB726"/>
<path d="M145.404 693.712H143.946V678.806H145.404V693.712Z" fill="#EAB726"/>
<path d="M130.715 693.712H129.257V678.806H130.715V693.712Z" fill="#EAB726"/>
<path d="M116.96 693.712H115.502V678.806H116.96V693.712Z" fill="#EAB726"/>
<path d="M104.678 693.712H103.22V678.806H104.678V693.712Z" fill="#EAB726"/>
<path d="M179.585 693.712H178.127V678.806H179.585V693.712Z" fill="#EAB726"/>
<path d="M182.684 693.712H181.226V678.806H182.684V693.712Z" fill="#EAB726"/>
<path d="M185.678 693.712H184.22V678.806H185.678V693.712Z" fill="#EAB726"/>
<path d="M187.93 678.858V693.663C187.751 693.695 187.569 693.714 187.383 693.714H186.472V678.807H187.383C187.569 678.807 187.751 678.826 187.93 678.858Z" fill="#EAB726"/>
<path d="M189.953 680.239V692.282C189.599 692.829 189.094 693.256 188.499 693.496V679.025C189.09 679.266 189.599 679.693 189.953 680.239Z" fill="#EAB726"/>
<path d="M176.782 667.144V675.563C176.782 676.235 176.585 676.856 176.25 677.375C175.897 677.922 175.391 678.348 174.796 678.589C174.614 678.663 174.424 678.719 174.227 678.756C174.049 678.788 173.866 678.807 173.68 678.807H45.5358C43.8847 678.807 42.5238 677.435 42.4382 675.73C42.4382 675.675 42.4345 675.619 42.4345 675.563V667.144C42.4345 667.088 42.4345 667.033 42.4382 666.977C42.5238 665.267 43.8847 663.9 45.5358 663.9H173.68C173.762 663.9 173.844 663.905 173.926 663.91C173.959 663.91 173.997 663.914 174.03 663.919C174.067 663.923 174.108 663.928 174.145 663.937C174.171 663.942 174.201 663.947 174.227 663.951C174.424 663.988 174.614 664.044 174.796 664.118C174.822 664.127 174.848 664.141 174.878 664.151C174.904 664.16 174.93 664.174 174.956 664.188C175.008 664.211 175.06 664.239 175.112 664.266C175.142 664.28 175.172 664.299 175.201 664.317C175.227 664.336 175.253 664.35 175.279 664.364C175.328 664.396 175.376 664.428 175.424 664.461C175.48 664.498 175.532 664.54 175.584 664.586C175.625 664.618 175.666 664.651 175.703 664.688C175.707 664.688 175.707 664.693 175.711 664.697C175.737 664.72 175.763 664.744 175.789 664.771C175.867 664.846 175.941 664.929 176.012 665.012C176.034 665.036 176.057 665.063 176.075 665.086C176.094 665.11 176.116 665.137 176.135 665.165C176.176 665.221 176.213 665.276 176.25 665.332C176.588 665.851 176.782 666.472 176.782 667.144Z" fill="#FFEB4D"/>
<path d="M113.856 678.807H45.2047C43.7285 678.807 42.5163 677.435 42.4419 675.73C42.4419 675.675 42.4382 675.619 42.4382 675.563V667.144C42.4382 667.088 42.4382 667.033 42.4419 666.977C42.5163 665.267 43.7322 663.9 45.2047 663.9H105.423C105.449 664.021 105.479 664.146 105.508 664.266C106.512 668.622 108.769 674.479 113.856 678.807Z" fill="#EAB726"/>
<path d="M161.189 678.805H159.731V663.898H161.189V678.805Z" fill="#EAB726"/>
<path d="M156.259 678.805H154.802V663.898H156.259V678.805Z" fill="#EAB726"/>
<path d="M150.348 678.805H148.89V663.898H150.348V678.805Z" fill="#EAB726"/>
<path d="M141.286 678.805H139.829V663.898H141.286V678.805Z" fill="#EAB726"/>
<path d="M131.704 678.805H130.247V663.898H131.704V678.805Z" fill="#EAB726"/>
<path d="M117.011 678.805H115.554V663.898H117.011V678.805Z" fill="#EAB726"/>
<path d="M103.256 678.805H101.799V663.898H103.256V678.805Z" fill="#EAB726"/>
<path d="M90.9748 678.805H89.5171V663.898H90.9748V678.805Z" fill="#EAB726"/>
<path d="M165.882 678.805H164.424V663.898H165.882V678.805Z" fill="#EAB726"/>
<path d="M168.984 678.805H167.527V663.898H168.984V678.805Z" fill="#EAB726"/>
<path d="M171.978 678.805H170.521V663.898H171.978V678.805Z" fill="#EAB726"/>
<path d="M174.227 663.952V678.757C174.048 678.789 173.866 678.808 173.68 678.808H172.769V663.901H173.68C173.866 663.901 174.048 663.915 174.227 663.952Z" fill="#EAB726"/>
<path d="M176.25 665.333V677.376C175.897 677.923 175.391 678.349 174.796 678.59V664.119C175.391 664.36 175.897 664.786 176.25 665.333Z" fill="#EAB726"/>
<path d="M183.404 652.604V661.023C183.404 661.695 183.207 662.316 182.873 662.835C182.519 663.382 182.014 663.808 181.419 664.049C181.236 664.123 181.047 664.179 180.85 664.216C180.671 664.248 180.489 664.267 180.303 664.267H52.1584C51.6453 664.267 51.1581 664.132 50.7305 663.901C49.8232 663.405 49.1761 662.45 49.072 661.338C49.0683 661.292 49.0646 661.241 49.0609 661.195C49.0609 661.139 49.0571 661.083 49.0571 661.028V652.608C49.0571 652.553 49.0571 652.497 49.0609 652.442C49.1464 650.736 50.5074 649.365 52.1584 649.365H180.303C180.489 649.365 180.671 649.383 180.85 649.416C181.047 649.453 181.236 649.508 181.419 649.583C182.014 649.824 182.519 650.25 182.873 650.797C183.207 651.311 183.404 651.932 183.404 652.604Z" fill="#FFEB4D"/>
<path d="M120.476 664.267H51.8239C51.3628 664.267 50.9314 664.132 50.5484 663.901C49.7378 663.405 49.1614 662.45 49.0684 661.338C49.0647 661.292 49.061 661.241 49.0573 661.195C49.0573 661.139 49.0536 661.083 49.0536 661.028V652.608C49.0536 652.553 49.0536 652.497 49.0573 652.442C49.1316 650.736 50.3476 649.365 51.8202 649.365H112.042C112.979 653.632 115.125 659.494 120.052 663.905C120.193 664.021 120.334 664.146 120.476 664.267Z" fill="#EAB726"/>
<path d="M167.812 664.265H166.354V649.359H167.812V664.265Z" fill="#EAB726"/>
<path d="M162.883 664.265H161.425V649.359H162.883V664.265Z" fill="#EAB726"/>
<path d="M156.968 664.265H155.51V649.359H156.968V664.265Z" fill="#EAB726"/>
<path d="M147.906 664.265H146.448V649.359H147.906V664.265Z" fill="#EAB726"/>
<path d="M138.324 664.265H136.866V649.359H138.324V664.265Z" fill="#EAB726"/>
<path d="M123.635 664.265H122.177V649.359H123.635V664.265Z" fill="#EAB726"/>
<path d="M109.88 664.265H108.423V649.359H109.88V664.265Z" fill="#EAB726"/>
<path d="M97.5979 664.265H96.1401V649.359H97.5979V664.265Z" fill="#EAB726"/>
<path d="M172.504 664.265H171.047V649.359H172.504V664.265Z" fill="#EAB726"/>
<path d="M178.598 664.265H177.14V649.359H178.598V664.265Z" fill="#EAB726"/>
<path d="M180.849 649.411V664.216C180.671 664.248 180.489 664.267 180.303 664.267H179.392V649.36H180.303C180.489 649.36 180.671 649.379 180.849 649.411Z" fill="#EAB726"/>
<path d="M182.872 650.793V662.835C182.519 663.382 182.013 663.809 181.418 664.049V649.579C182.01 649.82 182.519 650.246 182.872 650.793Z" fill="#EAB726"/>
<path d="M186.472 637.697V646.117C186.472 646.789 186.275 647.409 185.94 647.928C185.587 648.475 185.081 648.902 184.486 649.142C184.304 649.217 184.115 649.272 183.918 649.309C183.739 649.342 183.557 649.36 183.371 649.36H55.2263C53.5753 649.36 52.2142 647.989 52.1287 646.283C52.1287 646.228 52.125 646.172 52.125 646.117V637.697C52.125 637.642 52.125 637.586 52.1287 637.53C52.2068 635.95 53.3782 634.662 54.8582 634.477C54.9772 634.463 55.0999 634.454 55.2263 634.454H183.371C183.557 634.454 183.739 634.472 183.918 634.505C184.115 634.542 184.304 634.597 184.486 634.672C185.081 634.912 185.587 635.339 185.94 635.886C186.275 636.404 186.472 637.025 186.472 637.697Z" fill="#FFEB4D"/>
<path d="M123.547 649.36H54.8952C53.4226 649.36 52.2066 647.989 52.1323 646.283C52.1323 646.228 52.1285 646.172 52.1285 646.117V637.697C52.1285 637.642 52.1285 637.586 52.1323 637.53C52.1992 635.95 53.2478 634.662 54.5679 634.477C54.6758 634.463 54.7836 634.454 54.8952 634.454H115.117C115.117 634.463 115.121 634.472 115.121 634.477C116.087 638.86 118.326 644.917 123.547 649.36Z" fill="#EAB726"/>
<path d="M170.88 649.357H169.422V634.45H170.88V649.357Z" fill="#EAB726"/>
<path d="M165.95 649.357H164.493V634.45H165.95V649.357Z" fill="#EAB726"/>
<path d="M160.039 649.357H158.582V634.45H160.039V649.357Z" fill="#EAB726"/>
<path d="M150.977 649.357H149.52V634.45H150.977V649.357Z" fill="#EAB726"/>
<path d="M141.395 649.357H139.938V634.45H141.395V649.357Z" fill="#EAB726"/>
<path d="M126.702 649.357H125.245V634.45H126.702V649.357Z" fill="#EAB726"/>
<path d="M112.947 649.357H111.49V634.45H112.947V649.357Z" fill="#EAB726"/>
<path d="M100.666 649.357H99.2083V634.45H100.666V649.357Z" fill="#EAB726"/>
<path d="M178.675 649.357H177.217V634.45H178.675V649.357Z" fill="#EAB726"/>
<path d="M183.917 634.505V649.309C183.739 649.342 183.557 649.36 183.371 649.36H182.46V634.454H183.371C183.561 634.449 183.739 634.468 183.917 634.505Z" fill="#EAB726"/>
<path d="M185.94 635.885V647.928C185.587 648.475 185.081 648.901 184.487 649.142V634.671C185.081 634.912 185.587 635.338 185.94 635.885Z" fill="#EAB726"/>
<path d="M177.049 622.813V631.233C177.049 631.905 176.852 632.526 176.518 633.045C176.164 633.591 175.659 634.018 175.064 634.259C174.881 634.333 174.692 634.388 174.495 634.425C174.435 634.435 174.376 634.449 174.316 634.453C174.283 634.458 174.249 634.462 174.216 634.462C174.182 634.467 174.149 634.467 174.115 634.472C174.06 634.476 174.004 634.476 173.952 634.476H45.8071C44.1561 634.476 42.7951 633.105 42.7096 631.4C42.7059 631.344 42.7059 631.288 42.7059 631.233V622.813C42.7059 622.758 42.7059 622.702 42.7096 622.646C42.7096 622.6 42.7133 622.554 42.717 622.512C42.8398 621.141 43.7917 620.005 45.0411 619.672C45.0709 619.662 45.1043 619.653 45.1341 619.648C45.3498 619.598 45.5728 619.57 45.8034 619.57H173.952C174.045 619.57 174.138 619.574 174.231 619.584C174.272 619.588 174.312 619.593 174.353 619.598C174.402 619.607 174.45 619.616 174.498 619.621C174.695 619.658 174.885 619.713 175.067 619.787C175.662 620.028 176.168 620.455 176.521 621.002C176.856 621.521 177.049 622.141 177.049 622.813Z" fill="#FFEB4D"/>
<path d="M114.124 634.477H45.4725C44 634.477 42.784 633.105 42.7097 631.4C42.7059 631.344 42.7059 631.289 42.7059 631.233V622.813C42.7059 622.758 42.7059 622.702 42.7097 622.647C42.7097 622.6 42.7134 622.554 42.7171 622.512C42.8287 621.108 43.7137 619.955 44.8627 619.653C44.9036 619.639 44.9408 619.63 44.9817 619.625C45.1416 619.593 45.3052 619.575 45.4725 619.575H105.694C105.702 619.612 105.709 619.644 105.717 619.681C106.687 624.055 108.929 630.047 114.094 634.458C114.106 634.458 114.117 634.467 114.124 634.477Z" fill="#EAB726"/>
<path d="M161.46 634.472H160.002V619.566H161.46V634.472Z" fill="#EAB726"/>
<path d="M156.53 634.472H155.073V619.566H156.53V634.472Z" fill="#EAB726"/>
<path d="M150.615 634.472H149.158V619.566H150.615V634.472Z" fill="#EAB726"/>
<path d="M141.554 634.472H140.096V619.566H141.554V634.472Z" fill="#EAB726"/>
<path d="M131.971 634.472H130.514V619.566H131.971V634.472Z" fill="#EAB726"/>
<path d="M117.282 634.472H115.825V619.566H117.282V634.472Z" fill="#EAB726"/>
<path d="M103.528 634.472H102.07V619.566H103.528V634.472Z" fill="#EAB726"/>
<path d="M91.2458 634.472H89.7881V619.566H91.2458V634.472Z" fill="#EAB726"/>
<path d="M169.252 634.472H167.794V619.566H169.252V634.472Z" fill="#EAB726"/>
<path d="M174.498 619.621V634.425C174.32 634.458 174.138 634.476 173.952 634.476H173.041V619.57H173.952C174.138 619.565 174.32 619.584 174.498 619.621Z" fill="#EAB726"/>
<path d="M177.263 607.926V616.881C177.263 617.596 177.065 618.256 176.73 618.808C176.375 619.39 175.867 619.843 175.27 620.1C175.129 620.164 174.979 620.213 174.826 620.247H174.823C174.781 620.257 174.74 620.267 174.699 620.277C174.52 620.312 174.337 620.331 174.151 620.331H45.5468C45.4125 620.331 45.2744 620.321 45.1438 620.302C45.0915 620.297 45.0393 620.287 44.9908 620.277C43.5913 619.996 42.5128 618.67 42.4382 617.059C42.4382 617 42.4344 616.94 42.4344 616.881V607.926C42.4344 607.867 42.4344 607.808 42.4382 607.749C42.524 605.935 43.8899 604.476 45.5468 604.476H174.151C174.233 604.476 174.315 604.481 174.397 604.486C174.431 604.491 174.468 604.496 174.502 604.496C174.539 604.501 174.58 604.506 174.617 604.511C174.643 604.516 174.673 604.52 174.699 604.525C174.897 604.565 175.087 604.624 175.27 604.703C175.296 604.713 175.323 604.728 175.352 604.737C175.379 604.747 175.405 604.762 175.431 604.777C175.483 604.801 175.535 604.831 175.588 604.861C175.644 604.895 175.7 604.93 175.755 604.969C175.804 605.003 175.853 605.033 175.901 605.072C175.957 605.112 176.009 605.156 176.061 605.206C176.103 605.24 176.144 605.275 176.181 605.314C176.185 605.314 176.185 605.319 176.188 605.324C176.215 605.348 176.241 605.373 176.267 605.403C176.345 605.482 176.42 605.57 176.491 605.659C176.513 605.684 176.535 605.713 176.554 605.738C176.573 605.767 176.595 605.792 176.614 605.822C176.655 605.881 176.692 605.94 176.73 605.999C177.069 606.551 177.263 607.216 177.263 607.926Z" fill="#FFEB4D"/>
<path d="M113.814 620.331H45.203C45.1472 620.331 45.0952 620.331 45.0395 620.326C44.98 620.321 44.9205 620.316 44.8611 620.307C43.5418 620.105 42.5049 618.734 42.438 617.059C42.438 617 42.4343 616.94 42.4343 616.881V607.926C42.4343 607.867 42.4343 607.808 42.438 607.749C42.5123 605.935 43.7276 604.476 45.1992 604.476H105.382C105.408 604.604 105.438 604.737 105.467 604.866C106.463 609.459 108.693 615.624 113.688 620.218C113.732 620.257 113.773 620.297 113.814 620.331Z" fill="#EAB726"/>
<path d="M162.228 620.331H160.671V604.769H162.228V620.331Z" fill="#EAB726"/>
<path d="M156.964 620.331H155.407V604.769H156.964V620.331Z" fill="#EAB726"/>
<path d="M150.65 620.331H149.094V604.769H150.65V620.331Z" fill="#EAB726"/>
<path d="M140.973 620.331H139.416V604.769H140.973V620.331Z" fill="#EAB726"/>
<path d="M130.739 620.331H129.182V604.769H130.739V620.331Z" fill="#EAB726"/>
<path d="M115.047 620.331H113.49V604.769H115.047V620.331Z" fill="#EAB726"/>
<path d="M103.256 619.34H101.799V604.769H103.256V619.34Z" fill="#EAB726"/>
<path d="M90.9748 619.34H89.5171V604.769H90.9748V619.34Z" fill="#EAB726"/>
<path d="M170.554 620.331H168.997V604.769H170.554V620.331Z" fill="#EAB726"/>
<path d="M176.153 604.823V620.278C175.962 620.312 175.768 620.331 175.569 620.331H174.596V604.77H175.569C175.768 604.765 175.962 604.784 176.153 604.823Z" fill="#EAB726"/>
<path d="M183.404 593.473V601.892C183.404 602.564 183.207 603.185 182.873 603.704C182.519 604.251 182.014 604.677 181.419 604.918C181.236 604.992 181.047 605.048 180.85 605.085C180.671 605.117 180.489 605.136 180.303 605.136H52.1584C51.6453 605.136 51.1581 605.001 50.7305 604.77C49.8232 604.274 49.1761 603.319 49.072 602.202C49.0683 602.156 49.0646 602.105 49.0609 602.059C49.0609 602.003 49.0571 601.948 49.0571 601.892V593.473C49.0571 593.417 49.0571 593.361 49.0609 593.306C49.1464 591.601 50.5074 590.229 52.1584 590.229H180.303C180.489 590.229 180.671 590.247 180.85 590.28C181.047 590.317 181.236 590.373 181.419 590.447C182.014 590.688 182.519 591.114 182.873 591.661C183.207 592.175 183.404 592.801 183.404 593.473Z" fill="#FFEB4D"/>
<path d="M120.754 605.467H51.19C50.7228 605.467 50.2857 605.324 49.8976 605.078C49.0762 604.55 48.4921 603.535 48.3979 602.347C48.3942 602.298 48.3904 602.244 48.3866 602.195C48.3866 602.135 48.3828 602.076 48.3828 602.017V593.062C48.3828 593.003 48.3828 592.944 48.3866 592.885C48.462 591.071 49.6941 589.612 51.1862 589.612H112.208C113.158 594.151 115.332 600.386 120.325 605.078C120.468 605.206 120.611 605.334 120.754 605.467Z" fill="#EAB726"/>
<path d="M167.812 605.132H166.354V590.226H167.812V605.132Z" fill="#EAB726"/>
<path d="M162.883 605.132H161.425V590.226H162.883V605.132Z" fill="#EAB726"/>
<path d="M156.968 605.132H155.51V590.226H156.968V605.132Z" fill="#EAB726"/>
<path d="M147.906 605.132H146.448V590.226H147.906V605.132Z" fill="#EAB726"/>
<path d="M138.324 605.132H136.866V590.226H138.324V605.132Z" fill="#EAB726"/>
<path d="M123.635 605.132H122.177V590.226H123.635V605.132Z" fill="#EAB726"/>
<path d="M109.88 605.132H108.423V590.226H109.88V605.132Z" fill="#EAB726"/>
<path d="M97.5981 605.132H96.1404V590.226H97.5981V605.132Z" fill="#EAB726"/>
<path d="M175.604 605.132H174.146V590.226H175.604V605.132Z" fill="#EAB726"/>
<path d="M180.85 590.28V605.084C180.671 605.117 180.489 605.135 180.303 605.135H179.392V590.229H180.303C180.489 590.224 180.671 590.243 180.85 590.28Z" fill="#EAB726"/>
<path d="M191.979 578.891V587.072C191.979 587.725 191.787 588.329 191.462 588.833C191.119 589.364 190.627 589.779 190.049 590.013C189.872 590.085 189.688 590.139 189.496 590.175C189.323 590.206 189.146 590.224 188.965 590.224H64.4391C62.8347 590.224 61.5121 588.892 61.429 587.234C61.429 587.18 61.4254 587.126 61.4254 587.072V578.891C61.4254 578.837 61.4254 578.783 61.429 578.729C61.5049 577.193 62.6396 575.941 64.0814 575.761C64.197 575.748 64.3162 575.739 64.4391 575.739H188.965C189.146 575.739 189.323 575.757 189.496 575.788C189.688 575.824 189.872 575.878 190.049 575.95C190.627 576.185 191.119 576.599 191.462 577.13C191.787 577.634 191.979 578.242 191.979 578.891Z" fill="#FFEB4D"/>
<path d="M130.706 590.645H62.0546C60.582 590.645 59.3661 589.274 59.2917 587.569C59.2917 587.513 59.288 587.457 59.288 587.402V578.982C59.288 578.927 59.288 578.871 59.2917 578.816C59.3587 577.235 60.4073 575.947 61.7274 575.762C61.8352 575.748 61.943 575.739 62.0546 575.739H122.276C122.276 575.748 122.28 575.753 122.28 575.762C123.243 580.15 125.485 586.206 130.706 590.645Z" fill="#EAB726"/>
<path d="M178.282 590.228H176.824V575.321H178.282V590.228Z" fill="#EAB726"/>
<path d="M173.352 590.228H171.895V575.321H173.352V590.228Z" fill="#EAB726"/>
<path d="M167.441 590.228H165.983V575.321H167.441V590.228Z" fill="#EAB726"/>
<path d="M158.379 590.228H156.922V575.321H158.379V590.228Z" fill="#EAB726"/>
<path d="M148.797 590.228H147.339V575.321H148.797V590.228Z" fill="#EAB726"/>
<path d="M134.108 590.228H132.65V575.321H134.108V590.228Z" fill="#EAB726"/>
<path d="M120.353 590.228H118.896V575.321H120.353V590.228Z" fill="#EAB726"/>
<path d="M108.071 590.228H106.614V575.321H108.071V590.228Z" fill="#EAB726"/>
<path d="M186.077 590.228H184.62V575.321H186.077V590.228Z" fill="#EAB726"/>
<path d="M191.321 575.369V590.173C191.143 590.206 190.96 590.224 190.774 590.224H189.863V575.318H190.774C190.96 575.318 191.143 575.336 191.321 575.369Z" fill="#EAB726"/>
<path d="M178.842 563.764V572.409C178.842 573.098 178.639 573.736 178.296 574.269C177.933 574.83 177.414 575.268 176.803 575.515C176.616 575.591 176.421 575.648 176.219 575.686C176.158 575.696 176.097 575.71 176.036 575.715C175.986 575.724 175.936 575.724 175.887 575.729C175.864 575.729 175.837 575.734 175.814 575.734C175.764 575.734 175.711 575.739 175.658 575.739H44.0938C42.3988 575.739 41.0015 574.331 40.9137 572.58C40.9099 572.523 40.9099 572.466 40.9099 572.409V563.764C40.9099 563.707 40.9099 563.65 40.9137 563.593C41.0015 561.842 42.3988 560.434 44.0938 560.434H175.661C175.719 560.434 175.772 560.434 175.829 560.439C175.963 560.444 176.093 560.463 176.223 560.487C176.425 560.525 176.62 560.582 176.807 560.658C176.902 560.696 176.994 560.739 177.082 560.786C177.139 560.815 177.192 560.843 177.246 560.877C177.25 560.877 177.257 560.881 177.265 560.886C177.318 560.92 177.372 560.953 177.425 560.991C177.437 560.996 177.444 561.005 177.452 561.01C177.502 561.043 177.547 561.081 177.593 561.119C177.704 561.21 177.811 561.305 177.91 561.41C177.941 561.443 177.971 561.476 178.002 561.509C178.005 561.514 178.013 561.519 178.017 561.528C178.036 561.548 178.055 561.567 178.07 561.59C178.074 561.595 178.078 561.6 178.082 561.605C178.112 561.643 178.147 561.685 178.173 561.728C178.219 561.785 178.261 561.847 178.299 561.909C178.643 562.437 178.842 563.079 178.842 563.764Z" fill="#FFEB4D"/>
<path d="M115.077 575.875H43.3424C41.8037 575.875 40.5332 574.441 40.4555 572.66C40.4516 572.601 40.4516 572.543 40.4516 572.485V563.688C40.4516 563.63 40.4516 563.571 40.4555 563.513C40.5332 561.732 41.8037 560.298 43.3424 560.298H106.268C106.292 560.415 106.319 560.536 106.35 560.657C107.395 565.203 109.746 571.323 115.05 575.85C115.057 575.86 115.069 575.87 115.077 575.875Z" fill="#EAB726"/>
<path d="M162.236 575.739H160.74V560.437H162.236V575.739Z" fill="#EAB726"/>
<path d="M157.176 575.739H155.68V560.437H157.176V575.739Z" fill="#EAB726"/>
<path d="M151.105 575.739H149.608V560.437H151.105V575.739Z" fill="#EAB726"/>
<path d="M141.803 575.739H140.307V560.437H141.803V575.739Z" fill="#EAB726"/>
<path d="M131.967 575.739H130.47V560.437H131.967V575.739Z" fill="#EAB726"/>
<path d="M116.889 575.739H115.393V560.437H116.889V575.739Z" fill="#EAB726"/>
<path d="M102.77 575.739H101.274V560.437H102.77V575.739Z" fill="#EAB726"/>
<path d="M90.1633 575.739H88.667V560.437H90.1633V575.739Z" fill="#EAB726"/>
<path d="M170.234 575.739H168.738V560.437H170.234V575.739Z" fill="#EAB726"/>
<path d="M175.62 560.487V575.683C175.436 575.717 175.249 575.736 175.058 575.736H174.123V560.434H175.058C175.249 560.434 175.436 560.453 175.62 560.487Z" fill="#EAB726"/>
<path d="M186.472 549.119V557.538C186.472 558.21 186.275 558.831 185.94 559.35C185.587 559.897 185.081 560.323 184.486 560.564C184.304 560.638 184.115 560.694 183.918 560.731C183.739 560.763 183.557 560.782 183.371 560.782H55.2263C54.7281 560.782 54.2595 560.657 53.843 560.439C52.9097 559.948 52.2404 558.975 52.14 557.839C52.1362 557.798 52.1325 557.751 52.1325 557.705C52.1325 557.649 52.1288 557.594 52.1288 557.538V549.119C52.1288 549.063 52.1288 549.007 52.1325 548.952C52.2106 547.372 53.3819 546.083 54.8619 545.898C54.9809 545.884 55.1037 545.875 55.2301 545.875H183.375C183.561 545.875 183.743 545.894 183.921 545.926C184.118 545.963 184.308 546.019 184.49 546.093C185.085 546.334 185.591 546.76 185.944 547.307C186.275 547.821 186.472 548.447 186.472 549.119Z" fill="#FFEB4D"/>
<path d="M123.547 560.777H54.8952C54.4527 560.777 54.0324 560.652 53.6606 560.434C52.8239 559.943 52.2327 558.97 52.1397 557.835C52.136 557.793 52.1323 557.747 52.1323 557.7C52.1323 557.645 52.1285 557.589 52.1285 557.534V549.114C52.1285 549.059 52.1285 549.003 52.1323 548.947C52.1992 547.367 53.2478 546.079 54.5679 545.894C54.6758 545.88 54.7836 545.871 54.8952 545.871H115.117C115.117 545.88 115.121 545.889 115.121 545.894C116.061 550.166 118.214 556.028 123.153 560.434C123.279 560.55 123.413 560.666 123.547 560.777Z" fill="#EAB726"/>
<path d="M170.88 560.78H169.422V545.874H170.88V560.78Z" fill="#EAB726"/>
<path d="M165.95 560.78H164.493V545.874H165.95V560.78Z" fill="#EAB726"/>
<path d="M160.039 560.78H158.582V545.874H160.039V560.78Z" fill="#EAB726"/>
<path d="M150.977 560.78H149.52V545.874H150.977V560.78Z" fill="#EAB726"/>
<path d="M141.395 560.78H139.938V545.874H141.395V560.78Z" fill="#EAB726"/>
<path d="M126.702 560.78H125.245V545.874H126.702V560.78Z" fill="#EAB726"/>
<path d="M112.947 560.78H111.49V545.874H112.947V560.78Z" fill="#EAB726"/>
<path d="M100.666 560.78H99.2083V545.874H100.666V560.78Z" fill="#EAB726"/>
<path d="M175.572 560.78H174.115V545.874H175.572V560.78Z" fill="#EAB726"/>
<path d="M178.675 560.78H177.217V545.874H178.675V560.78Z" fill="#EAB726"/>
<path d="M181.665 560.78H180.208V545.874H181.665V560.78Z" fill="#EAB726"/>
<path d="M183.917 545.922V560.726C183.739 560.759 183.557 560.777 183.371 560.777H182.46V545.871H183.371C183.561 545.871 183.739 545.889 183.917 545.922Z" fill="#EAB726"/>
<path d="M185.94 547.307V559.35C185.587 559.897 185.081 560.323 184.487 560.564V546.093C185.081 546.329 185.587 546.76 185.94 547.307Z" fill="#EAB726"/>
<path d="M190.485 534.231V542.65C190.485 543.322 190.288 543.943 189.953 544.462C189.6 545.009 189.094 545.435 188.499 545.676C188.317 545.75 188.127 545.806 187.93 545.843C187.87 545.852 187.811 545.866 187.751 545.871C187.718 545.875 187.685 545.88 187.651 545.88C187.618 545.884 187.584 545.884 187.551 545.889C187.495 545.894 187.439 545.894 187.387 545.894H59.2424C57.5913 545.894 56.2304 544.522 56.1448 542.817C56.1448 542.761 56.1411 542.706 56.1411 542.65V534.231C56.1411 534.175 56.1411 534.119 56.1448 534.064C56.2304 532.359 57.5913 530.987 59.2424 530.987H187.387C187.573 530.987 187.755 531.006 187.934 531.038C188.131 531.075 188.32 531.131 188.503 531.205C189.098 531.446 189.603 531.872 189.957 532.419C190.288 532.938 190.485 533.563 190.485 534.231Z" fill="#FFEB4D"/>
<path d="M127.556 545.894H58.904C57.4314 545.894 56.2155 544.522 56.1411 542.817C56.1411 542.761 56.1374 542.706 56.1374 542.65V534.231C56.1374 534.175 56.1374 534.119 56.1411 534.064C56.2155 532.359 57.4314 530.987 58.904 530.987H119.126C120.085 535.371 122.32 541.422 127.53 545.871C127.537 545.88 127.548 545.889 127.556 545.894Z" fill="#EAB726"/>
<path d="M174.892 545.897H173.434V530.99H174.892V545.897Z" fill="#FF9F00"/>
<path d="M169.963 545.897H168.505V530.99H169.963V545.897Z" fill="#FF9F00"/>
<path d="M164.048 545.897H162.59V530.99H164.048V545.897Z" fill="#FF9F00"/>
<path d="M154.986 545.897H153.529V530.99H154.986V545.897Z" fill="#EAB726"/>
<path d="M145.404 545.897H143.946V530.99H145.404V545.897Z" fill="#EAB726"/>
<path d="M130.715 545.897H129.257V530.99H130.715V545.897Z" fill="#EAB726"/>
<path d="M116.96 545.897H115.502V530.99H116.96V545.897Z" fill="#EAB726"/>
<path d="M103.218 530.987H104.675V545.894H103.218V530.987Z" fill="#EAB726"/>
<path d="M179.585 545.897H178.127V530.99H179.585V545.897Z" fill="#EAB726"/>
<path d="M182.684 545.897H181.227V530.99H182.684V545.897Z" fill="#EAB726"/>
<path d="M187.93 531.038V545.843C187.751 545.875 187.569 545.894 187.383 545.894H186.472V530.987H187.383C187.569 530.987 187.751 531.006 187.93 531.038Z" fill="#EAB726"/>
<path d="M172.577 636.198C172.577 636.198 178.176 644.257 183.309 644.368C188.442 644.481 196.251 640.632 196.251 640.632C196.251 640.632 200.964 629.892 197.768 625.691C197.768 625.691 194.563 624.254 191.21 626.793C190.636 627.231 190.051 627.782 189.474 628.494C188.661 629.493 187.748 630.061 186.779 630.36C183.117 631.498 178.769 628.82 177.144 631.407C176.193 632.911 175.161 634.041 174.313 634.835C173.308 635.749 172.577 636.198 172.577 636.198Z" fill="#A5D8C6"/>
<path d="M245.565 694.07C245.565 694.07 225.778 645.047 190.159 644.114C190.159 644.114 157.281 647.85 155.453 694.07H245.565Z" fill="#79C7C9"/>
<path d="M199.916 645.866C199.916 645.866 185.638 649.112 181.234 647.204C181.234 647.204 180.568 641.1 186.581 641.956C190.696 642.543 193.377 640.518 194.954 639.699C197.183 638.538 200.509 643.313 199.916 645.866Z" fill="#1D9294"/>
<path d="M187.491 636.663C188.404 637.364 191.208 626.793 191.208 626.793C190.633 627.231 190.048 627.782 189.471 628.494C188.659 629.494 187.746 630.061 186.776 630.36C186.771 630.67 186.605 635.982 187.491 636.663Z" fill="#D2ECED"/>
<path d="M174.313 634.836C174.514 634.957 181.118 639.001 182.011 639.001C182.924 639.001 177.144 631.41 177.144 631.41C176.193 632.911 175.161 634.041 174.313 634.836Z" fill="#D2ECED"/>
<path d="M226.233 680.63C226.599 680.311 212.229 658.998 208.272 658.843C204.315 658.688 195.422 663.512 188.984 664.135C182.545 664.758 176.304 662.889 175.088 666.78C173.869 670.671 170.521 684.465 172.577 686.672C174.633 688.877 218.332 687.531 226.233 680.63Z" fill="#D2ECED"/>
<path d="M122.532 588.291C121.847 589.094 121.757 589.994 122.099 590.952C122.099 590.955 122.101 590.961 122.104 590.966C122.732 592.741 124.807 594.721 127.218 596.702C127.527 596.956 127.8 597.186 128.039 597.402C128.101 597.458 128.163 597.516 128.223 597.571C128.272 597.615 128.318 597.66 128.364 597.701C130.612 599.82 129.764 600.304 133.803 604.603C138.408 609.502 141.577 609.587 142.479 609.141C143.243 608.762 141.69 606.164 139.973 603.243C139.889 603.102 139.808 602.96 139.724 602.816C139.496 602.429 139.269 602.035 139.041 601.645C137.029 598.131 137.546 596.483 138.023 591.251C138.41 587.003 144.489 567.51 144.489 567.51L135.666 565.956C135.666 565.956 133.009 581.476 130.081 583.866C128.515 585.139 126.763 585.156 125.26 586.1C125.154 586.167 125.048 586.233 124.945 586.303C124.092 586.887 123.22 587.485 122.532 588.291Z" fill="#FFAE73"/>
<path d="M122.532 588.291C121.847 589.094 121.757 589.994 122.099 590.952C122.099 590.955 122.101 590.96 122.104 590.966C122.873 592.738 124.897 594.71 127.226 596.682C127.53 596.94 127.8 597.178 128.039 597.399C128.101 597.455 128.163 597.513 128.223 597.568C128.272 597.612 128.318 597.657 128.364 597.698C130.612 599.817 129.764 600.302 133.803 604.6C138.408 609.499 141.577 609.584 142.479 609.139C143.243 608.759 141.691 606.161 139.973 603.24C139.077 602.905 134.913 601.174 131.766 597.056C128.995 593.439 127.145 588.792 125.257 586.1C125.151 586.167 125.046 586.233 124.943 586.302C124.092 586.887 123.22 587.485 122.532 588.291Z" fill="#1D9294"/>
<path d="M193.678 582.658C194.223 585.441 198.104 584.979 202.444 583.893C206.783 582.807 205.751 584.098 211.924 583.4C218.097 582.702 219.966 580.348 220.156 579.409C220.324 578.576 217.274 578.282 214.002 577.897C213.59 577.85 213.178 577.798 212.764 577.745C209.069 577.272 206.366 574.835 203.01 572.832C199.832 570.935 195.09 563.212 195.09 563.212L186.625 563.898C186.625 563.898 191.067 570.797 192.784 573.796C193.795 575.56 193.741 577.892 193.616 579.695C193.548 580.675 193.486 581.675 193.678 582.658Z" fill="#FFAE73"/>
<path d="M202.444 583.893C206.78 582.81 205.751 584.098 211.924 583.4C218.097 582.702 219.966 580.348 220.156 579.41C220.324 578.576 217.274 578.282 214.002 577.897L213.972 577.961C213.972 577.961 210.269 580.645 205.131 580.769C200.943 580.875 196.506 579.648 193.613 579.695C193.548 580.675 193.486 581.675 193.678 582.655C194.225 585.441 198.107 584.976 202.444 583.893Z" fill="#1D9294"/>
<path d="M161.236 527.312L153.322 549.085L142.991 577.512C142.991 577.512 140.187 577.789 137.503 577C135.03 576.269 132.194 574.358 132.194 574.358C132.194 574.358 135.062 543.834 140.415 526.312C141.785 521.815 143.324 518.176 145.019 516.129C153.316 506.104 161.236 527.312 161.236 527.312Z" fill="#1D9294"/>
<path d="M153.189 492.734C148.005 491.025 133.218 493.219 118.363 496.193L115.254 490.948L83.1692 488.386C83.1692 488.386 72.581 512.391 78.3776 527.686C79.2281 529.935 80.921 531.375 83.8085 531.425C83.8085 531.428 84.2744 531.425 84.2771 531.425C84.2771 531.425 103.373 531.414 109.574 531.414C125.531 531.414 143.343 520.201 145.648 519.73C149.418 518.957 150.927 526.67 154.7 534.767C158.471 542.865 190.155 570.631 190.155 570.631C190.155 570.631 195.025 570.681 197.035 569.908C199.199 569.08 199.99 568.003 199.99 568.003C199.99 568.003 164.882 496.592 153.189 492.734Z" fill="#20A2A5"/>
<path d="M124.192 445.342C114.073 453.755 89.6944 468.336 89.559 468.272C89.559 468.272 81.7498 473.055 76.4218 470.709C67.54 466.796 60.7222 453.102 73.0062 437.948C79.1332 430.39 84.212 427.901 83.0202 417.853C81.7281 406.967 86.536 393.281 98.7902 392.707C99.814 392.66 106.02 391.813 110.448 393.234C121.735 396.856 140.612 439.767 124.192 445.342Z" fill="#3F2A0B"/>
<path d="M80.9778 491.947C81.6387 493.811 98.9852 495.473 108.856 494.803C111.99 494.595 114.379 494.144 115.227 493.396C118.748 490.269 118.396 497.146 118.878 464.246C119.111 448.197 105.559 433.904 105.559 433.904C105.559 433.904 104.478 440.759 91.0352 432.6C90.5584 432.315 85.2657 440.327 80.1706 450.197C74.5555 461.097 80.3006 490.031 80.9778 491.947Z" fill="#C3E5D9"/>
<path d="M153.322 549.085L142.991 577.512C142.991 577.512 140.187 577.789 137.503 577C135.03 576.269 132.194 574.358 132.194 574.358C132.194 574.358 135.062 543.834 140.415 526.313L153.322 549.085Z" fill="#20A2A5"/>
<path d="M105.559 433.902C105.559 433.902 117.83 436.981 121.012 442.387C124.888 448.972 144.218 478.663 144.218 478.663C144.218 478.663 125.162 485.553 121.914 482.232C118.667 478.912 110.614 451.423 110.614 451.423L105.559 433.902Z" fill="#C3E5D9"/>
<path d="M91.0054 432.619C90.954 432.628 95.9569 437.338 99.6218 438.698C101.057 439.233 103.441 439.82 103.441 439.82C103.441 439.82 105.353 437.84 105.383 437.812C107.084 436.189 105.375 435.718 105.632 432.65C105.646 432.506 105.657 432.356 105.673 432.207C106.017 428.77 106.987 425.009 107.049 424.766C107.052 424.757 107.052 424.754 107.052 424.754L95.1768 421.284L95.5587 421.955C94.8301 428.258 92.6171 432.437 91.0054 432.619Z" fill="#FFBD80"/>
<path d="M95.1796 421.284C96.3308 424.813 99.4729 429.545 105.879 430.567C106.496 426.782 106.989 425.009 107.052 424.766C107.054 424.757 107.054 424.754 107.054 424.754L95.1796 421.284Z" fill="#F99352"/>
<path d="M109.029 428.413C109.029 428.413 93.0235 427.325 93.8388 417.144C94.6541 406.964 93.14 399.966 103.392 400.232C113.648 400.498 115.319 404.546 115.852 408.014C116.391 411.478 113.214 428.432 109.029 428.413Z" fill="#FFBD80"/>
<path d="M111.906 400.049C111.906 400.049 107.929 411.979 98.4869 413.367C91.5987 414.378 88.8629 412.475 88.8629 412.475C88.8629 412.475 92.7065 408.739 94.7922 402.993C95.4071 401.298 96.859 400.066 98.6034 399.791C103.506 399.019 109.836 395.698 111.906 400.049Z" fill="#3F2A0B"/>
<path d="M108.514 402.162C108.514 402.162 111.372 403.342 113.366 407.704C114.455 410.088 115.243 415.765 114.571 418.102C114.571 418.102 119.173 407.216 115.841 402.312C112.307 397.108 108.514 402.162 108.514 402.162Z" fill="#3F2A0B"/>
<path d="M105.632 432.653C105.632 432.653 104.655 438.696 103.441 439.823C103.441 439.823 106.51 438.662 107.967 434.605C107.967 434.605 106.895 432.791 105.632 432.653Z" fill="#79C7C9"/>
<path d="M117.049 453.201C117.049 453.201 125.988 464.163 124.886 468.134C123.786 472.105 117.597 472.105 117.597 472.105C117.597 472.105 118.753 463.647 117.597 459.244C116.443 454.841 115.717 452.941 117.049 453.201Z" fill="#8AAFF7"/>
<path d="M96.9835 484.789C96.9835 484.789 84.1091 476.766 84.277 472.105C84.445 467.444 84.2716 458.893 83.0635 460.089C81.8581 461.288 78.0389 470.895 78.4045 473.614C78.7729 476.334 91.772 495.329 93.3837 495.285C104.863 494.955 96.9835 484.789 96.9835 484.789Z" fill="#79C7C9"/>
<path d="M91.0264 432.62C91.0264 432.62 78.328 433.471 75.1534 438.533C71.9788 443.598 61.7833 472.441 63.4329 481.27C65.0852 490.099 95.2845 500.694 95.2845 500.694C95.2845 500.694 96.6199 499.509 96.6199 496.346C96.6199 494.449 95.6528 492.613 95.6528 492.613C95.6528 492.613 77.1227 476.783 78.3985 473.629C83.1089 461.987 91.0264 432.62 91.0264 432.62Z" fill="#C3E5D9"/>
<path d="M93.5 429.82C93.5 429.82 100.532 438.862 103.441 439.823C103.441 439.823 95.1794 439.823 89.3449 432.772C89.3449 432.772 91.2952 429.85 93.5 429.82Z" fill="#79C7C9"/>
<path d="M94.0294 481.722C90.4054 463.673 101.778 446.039 119.431 442.334C137.084 438.629 154.332 450.256 157.956 468.304C161.58 486.353 150.207 503.987 132.554 507.692C114.901 511.397 97.6533 499.77 94.0294 481.722Z" fill="#EAB726"/>
<path d="M96.9508 482.044C93.1683 464.03 104.385 446.293 122.003 442.426C139.622 438.558 156.971 450.026 160.753 468.039C164.536 486.052 153.319 503.79 135.701 507.657C118.082 511.524 100.733 500.057 96.9508 482.044Z" fill="#FFEB4D"/>
<path d="M128.862 505.803C136.804 505.803 144.269 502.64 149.884 496.899C155.499 491.158 158.593 483.526 158.593 475.406C158.593 467.286 155.499 459.654 149.884 453.913C144.269 448.172 136.804 445.01 128.862 445.01C120.92 445.01 113.455 448.172 107.84 453.913C102.225 459.654 99.1316 467.286 99.1316 475.406C99.1316 483.526 102.225 491.158 107.84 496.899C113.455 502.64 120.92 505.803 128.862 505.803ZM128.862 446.823C144.277 446.823 156.819 459.646 156.819 475.406C156.819 491.166 144.277 503.989 128.862 503.989C113.447 503.989 100.906 491.166 100.906 475.406C100.906 459.646 113.447 446.823 128.862 446.823Z" fill="#EAB726"/>
<path d="M134.061 484.063C134.046 483.403 133.942 482.824 133.75 482.325C133.558 481.826 133.249 481.374 132.827 480.974C132.406 480.574 131.862 480.204 131.201 479.871C130.539 479.537 129.734 479.212 128.783 478.896C127.148 478.342 125.661 477.756 124.324 477.144C122.987 476.53 121.835 475.814 120.874 474.999C119.914 474.181 119.16 473.22 118.613 472.113C118.066 471.006 117.777 469.684 117.744 468.143C117.715 466.808 117.921 465.585 118.359 464.479C118.799 463.373 119.439 462.404 120.281 461.572C121.123 460.74 122.139 460.06 123.329 459.529C124.519 458.999 125.855 458.652 127.344 458.485L127.234 453.443L131.207 453.378L131.317 458.49C132.746 458.656 134.043 459.019 135.215 459.581C136.386 460.143 137.388 460.88 138.22 461.794C139.051 462.708 139.699 463.793 140.166 465.05C140.632 466.308 140.882 467.722 140.916 469.291L133.741 469.41C133.699 467.526 133.259 466.122 132.421 465.201C131.58 464.28 130.473 463.832 129.101 463.853C128.356 463.867 127.716 463.983 127.183 464.202C126.65 464.424 126.213 464.722 125.874 465.096C125.534 465.47 125.286 465.913 125.132 466.418C124.978 466.923 124.908 467.466 124.92 468.049C124.932 468.629 125.027 469.155 125.203 469.623C125.377 470.091 125.675 470.522 126.088 470.918C126.503 471.311 127.049 471.68 127.726 472.022C128.405 472.365 129.243 472.716 130.245 473.078C131.863 473.665 133.338 474.269 134.668 474.89C135.999 475.512 137.143 476.237 138.105 477.06C139.067 477.886 139.821 478.85 140.365 479.957C140.912 481.065 141.201 482.381 141.233 483.902C141.263 485.285 141.055 486.53 140.607 487.637C140.158 488.745 139.515 489.706 138.67 490.522C137.826 491.337 136.802 491.999 135.598 492.506C134.391 493.014 133.046 493.351 131.56 493.517L131.661 498.205L127.713 498.27L127.612 493.604C126.234 493.487 124.901 493.201 123.608 492.751C122.316 492.301 121.163 491.641 120.149 490.769C119.137 489.897 118.316 488.791 117.691 487.452C117.065 486.11 116.733 484.498 116.691 482.614L123.866 482.494C123.892 483.609 124.064 484.539 124.388 485.279C124.709 486.021 125.133 486.611 125.656 487.05C126.178 487.489 126.767 487.794 127.425 487.963C128.083 488.132 128.751 488.213 129.43 488.2C130.207 488.188 130.889 488.074 131.472 487.86C132.054 487.645 132.542 487.354 132.931 486.987C133.321 486.62 133.608 486.186 133.796 485.688C133.986 485.183 134.073 484.643 134.061 484.063Z" fill="#EAB726"/>
<path d="M163.761 480.701C163.761 480.701 164.127 475.221 162.1 475.437C159.614 475.703 156.973 481.731 158.186 482.895C159.397 484.06 163.737 482.053 163.761 480.701Z" fill="#FFBD80"/>
<path d="M94.3721 493.385L97.395 491.532C97.395 491.532 99.2694 490.768 100.375 490.928C101.48 491.089 104.102 490.615 104.183 491.053C104.264 491.491 101.664 493.449 101.664 493.449C103.23 495.905 108.902 496.356 109.332 497.279C109.855 498.4 107.293 499.453 105.903 500.062C104.514 500.671 100.957 501.228 98.9065 499.635C97.4059 498.469 94.9409 496.935 94.9409 496.935L94.3721 493.385Z" fill="#FFBD80"/>
<path d="M599.539 710.507H-90.3534C-100.789 710.507 -109.248 706.735 -109.248 702.083C-109.248 697.432 -100.789 693.661 -90.3534 693.661H599.536C609.972 693.661 618.431 697.432 618.431 702.083C618.434 706.735 609.975 710.507 599.539 710.507Z" fill="#299B6F"/>
</g>
</svg>
