<svg width="668" height="766" viewBox="0 0 668 766" fill="none" xmlns="http://www.w3.org/2000/svg">
<mask id="mask0" mask-type="alpha" maskUnits="userSpaceOnUse" x="0" y="0" width="668" height="766">
<rect width="668" height="766" fill="#C4C4C4"/>
</mask>
<g mask="url(#mask0)">
<path d="M-72 18.3219L-71.9999 921.399C-71.9999 921.399 168.126 1068.37 328.766 989.985C489.414 911.605 376.015 797.121 492.068 787.577C495.998 787.25 499.884 787.512 503.68 787.512C504.585 787.515 505.477 787.501 506.365 787.461C573.015 784.528 616.089 747.843 640.872 699.434C641.674 697.872 642.454 696.298 643.212 694.713C680.301 617.514 672.67 513.133 640.782 466.923C586.523 388.302 521.216 388.793 542.76 226.442C564.299 64.0904 384.158 33.1262 292.379 75.3895C162.154 135.355 193.762 -58.5958 -72 18.3219Z" fill="#FFF7B8"/>
</g>
</svg>
