<svg width="90" height="90" viewBox="0 0 90 90" fill="none" xmlns="http://www.w3.org/2000/svg">
<circle cx="45" cy="45" r="45" fill="#0D8284"/>
<mask id="mask0_6291_46851" style="mask-type:alpha" maskUnits="userSpaceOnUse" x="0" y="0" width="90" height="90">
<circle cx="45" cy="45" r="45" fill="#C4C4C4"/>
</mask>
<g mask="url(#mask0_6291_46851)">
<path d="M55.7908 56.6558C55.7908 56.6558 51.3667 72.3607 57.212 77.6645C58.4269 78.7666 62.6676 80.2055 62.6676 80.2055L62.9886 81.4147C62.9886 81.4147 62.9504 79.6238 64.0812 80.7948C65.2121 81.9658 68.5894 82.5551 68.5894 82.5551L74.9313 86.0757C74.9313 86.0757 78.8817 88.2722 78.8817 89.1524C78.8817 90.0325 78.8817 90.0325 78.8817 90.0325H9.23462L15.7218 84.3154L20.6578 83.1444C20.6578 83.1444 22.3465 81.0933 23.1946 81.3841C24.0427 81.6749 24.0427 81.6749 24.0427 81.6749L25.5633 80.2437C25.5633 80.2437 32.0352 77.2665 33.5481 74.848C36.3981 70.2942 34.9693 58.7145 34.9693 58.7145L55.7908 56.6558Z" fill="#F0CCB9"/>
<path d="M55.8833 75.781C51.8795 70.1013 55.7908 56.6558 55.7908 56.6558L34.9693 58.7145C34.9693 58.7145 36.3982 70.2942 33.5481 74.848L55.8833 75.781Z" fill="#F0CCB9"/>
<path d="M29.4995 55.5C29.4995 55.5 28.2222 57.4824 37.6282 66.2226C38.4687 67.0033 40.3637 69.3835 41.2653 69.7356C44.5662 71.0061 46.3618 70.1489 48.2109 69.5978C49.6856 69.1616 51.6799 66.8349 51.6799 66.8349C51.6799 66.8349 59.5042 60.8193 59.6417 57.7503C59.7793 54.6812 60.7497 53.6786 60.7497 53.6786C60.7497 53.6786 60.9636 53.273 61.7506 53.648C63.126 54.3062 63.9283 51.6581 64.1804 48.7498C64.3715 46.5226 64.2637 44.6944 62.4995 43.5C61.0859 43.6301 61.7353 43 61.7353 43C61.7201 42.8393 61.0094 41.3642 60.4822 39.3054C59.6799 36.1752 59.764 32.3331 56.379 30.3356C52.9941 28.338 49.8308 24.7409 47.7524 25.4067C45.6741 26.0726 40.165 29.9299 37.483 28.9962C34.8011 28.0625 33.0284 32.6316 32.1267 34.4684C31.0188 36.7185 29.8543 42.9005 29.9995 44.5C30.137 46.0996 29.9995 45 29.9995 45C29.9995 45 29.5899 43.5378 28.7418 43.2699C27.8937 43.002 26.3425 43.002 26.6253 46.2088C26.908 49.408 26.0828 47.3186 28.4591 52.8827C29.8497 56.1277 29.4995 55.5 29.4995 55.5Z" fill="#F0CCB9"/>
<path d="M58.4731 52.8673C58.4731 52.8673 58.5113 53.028 58.5495 53.2959C58.6641 54.0842 58.7864 55.8292 57.9612 57.3293C56.8532 59.3421 54.2859 61.9596 54.2859 61.9596C54.2859 61.9596 50.6106 71.9244 54.2859 74.5419C57.9612 77.1671 64.3719 79.2641 64.3719 79.2641C64.3719 79.2641 64.1121 74.5419 65.8237 72.7969C67.5353 71.052 69.8428 69.5595 69.8428 69.5595C69.8428 69.5595 73.0062 66.2379 71.3786 65.5415C69.7588 64.845 72.3185 63.8807 72.3185 63.8807L70.5229 62.5719C70.5229 62.5719 73.2583 61.9596 72.3185 60.6509C71.3786 59.3422 75.0539 54.972 75.0539 54.972C75.0539 54.972 76.6738 52.9592 73.946 48.3288C71.2106 43.6985 72.2344 39.5044 72.2344 39.5044C72.2344 39.5044 71.2946 35.9226 70.0109 31.8126C68.7272 27.7027 65.8237 22.9882 63.264 20.9753C60.7043 18.9625 58.3509 14.424 54.2477 13.8959C52.8035 13.7122 50.1063 14.2479 50.1063 14.2479C50.1063 14.2479 43.0002 10.8039 38.6067 12.4417C34.2132 14.0796 27.3745 18.4267 21.9036 25.246C16.4327 32.0652 19.9399 34.5985 19.9399 34.5985C19.9399 34.5985 18.6562 35.0347 18.1443 32.5015C18.1443 32.5015 16.8071 35.1266 18.1443 37.2236C18.1443 37.2236 11.2216 44.8312 13.1853 48.7574C15.149 52.6913 14.9809 50.158 14.9809 50.158C14.9809 50.158 10.2894 54.7042 11.5655 58.2018C11.9475 59.258 11.191 59.9697 11.489 60.5744C12.0086 61.6305 12.9332 62.4112 14.0411 62.7479L15.2789 66.3145C16.5932 70.0953 19.3363 73.1796 22.897 74.871L32.1578 79.2565C32.1578 79.2565 30.8741 76.1951 33.0135 72.7893C35.153 69.3835 36.4138 64.3399 34.7633 62.3423C32.0049 59.0054 28.9562 54.9567 29.3383 50.8545C29.5216 48.8569 28.5436 48.0456 28.6124 45.6731C28.6964 42.7954 30.11 46.2012 30.3163 45.2139C30.6983 43.3694 30.8588 39.9483 31.8139 39.0528C34.9773 36.0833 33.6783 38.2645 37.2848 35.0347C42.1521 30.6646 38.4844 34.4225 42.1521 30.6646C45.6211 27.1211 49.2429 25.422 49.2429 25.422C49.2429 25.422 50.9468 28.9196 56.2496 30.4886C59.39 31.4147 54.3929 43.5148 58.6412 43.775C58.8246 43.7827 58.9774 43.2469 59.5505 43.0097C61.7969 42.0912 62.156 44.2648 62.4388 46.7675C62.6221 48.3977 62.3241 50.0432 61.5753 51.4897C61.5677 51.5127 61.5524 51.528 61.5448 51.5509C60.9335 52.7296 58.3814 52.1173 58.4731 52.8673Z" fill="#404041"/>
<path d="M79.9929 90.2134C80.2822 87.4034 71.6405 84.0035 68.5322 82.4586C65.4239 80.9137 63.0849 79.5148 61.7985 78.9796C60.506 78.4444 57.7424 77.5503 57.7424 77.5503V78.9796C57.7424 78.9796 55.6255 88.5001 43.5 88.5001C34.846 88.5001 29.4167 77.8057 29.4167 77.8057C26.6901 78.5782 20.5104 81.2969 19.384 82.3187C18.2638 83.3405 17.0143 83.9852 15.6356 83.8758C14.0475 83.7541 8.28025 89.2038 7 90.2073H79.9929V90.2134Z" fill="#ECECEC"/>
</g>
</svg>
