<?xml version="1.0" encoding="utf-8"?>
<!-- Generator: Adobe Illustrator 25.2.0, SVG Export Plug-In . SVG Version: 6.00 Build 0)  -->
<svg version="1.1" id="Capa_1" xmlns="http://www.w3.org/2000/svg" xmlns:xlink="http://www.w3.org/1999/xlink" x="0px" y="0px"
	 viewBox="0 0 450.5 450.5" style="enable-background:new 0 0 450.5 450.5;" xml:space="preserve">
<style type="text/css">
	.st0{display:none;}
	.st1{clip-path:url(#SVGID_2_);}
	.st2{clip-path:url(#SVGID_4_);}
	.st3{fill:#4C322C;}
	.st4{fill:#69BEA0;}
	.st5{fill:#FFB27D;}
	.st6{fill:#ED975D;}
	.st7{fill:none;stroke:#664640;stroke-width:3.2691;stroke-linecap:round;stroke-linejoin:round;stroke-miterlimit:10;}
</style>
<g id="Background_Complete">
</g>
<g id="Background_Simple" class="st0">
</g>
<g id="Floor">
</g>
<g id="Screens">
</g>
<g id="Rocket">
</g>
<g id="Plant">
</g>
<g id="Chart">
</g>
<g id="Gears">
</g>
<g id="Character">
	<g>
		<g>
			<defs>
				<rect id="SVGID_1_" x="-0.6" y="0" width="450.5" height="450.5"/>
			</defs>
			<clipPath id="SVGID_2_">
				<use xlink:href="#SVGID_1_"  style="overflow:visible;"/>
			</clipPath>
			<g class="st1">
				<g>
					<g>
						<g>
							<defs>
								<rect id="SVGID_3_" x="-96.4" y="-19.7" width="643.4" height="643.4"/>
							</defs>
							<clipPath id="SVGID_4_">
								<use xlink:href="#SVGID_3_"  style="overflow:visible;"/>
							</clipPath>
							<g class="st2">
								<g>
									<path class="st3" d="M270.5,91.3c-22.1-19.8-44.4-15.6-54.9-12.6c-66,19.1-92.1,99-93.1,185.8
										c-0.9,74.9-45.7,91.8-85.6,151.8c-8.4,12.6-14.2,24.4-17.8,35.3l339.7-1.1C317.6,327,325.9,140.8,270.5,91.3z"/>
									<path class="st3" d="M424.2,451.6c-5.6-19.7-9.5-26.2-14.6-36.1c-33.4-64.3-66.1-80.8-58.2-160.9
										c8.5-86.7-24.4-186.9-119.1-178.5c-6.8-0.4-12.3,32.5-24,61.6c-68.6,170.8-145.9,260.9-135,314
										C73.3,451.6,426.4,459.5,424.2,451.6z"/>
									<path class="st4" d="M269,396.5c0,0-27.3,62.4-106.1,3.7c-1.6-1.1-26.1,50.1,14.6,51C357.5,454.8,269,396.5,269,396.5z"/>
									<path class="st4" d="M210.7,392.6c0,0-114-15.8-175.3,57.9c-2,2.5,151.2,0,151.2,0l8.9-19.7L210.7,392.6z"/>
									<path class="st4" d="M225.3,392.6c0,0,114-15.8,175.3,57.9c2,2.5-158-1.7-158-1.7L225.3,392.6z"/>
									<path class="st5" d="M165.8,396.5c-2.9,11.4,13.9,40,50.2,41.1c28,0.8,47.7-7.5,55.4-15c13.1-12.9,1.2-11.4,1.6-68.8
										c0.1-14.7,6.5-36.5,7-38.6c0-0.1,0-0.1,0-0.1l-86.5-29.6l-11.3,9.1C178.2,379,169.2,382.9,165.8,396.5z"/>
									<path class="st6" d="M172.3,277.5c17.3,66.8,38.4,76.8,61.4,76.7c27.9-0.1,45.7-34.8,46.2-37c0-0.1,0-0.1,0-0.1
										L172.3,277.5z"/>
									<path class="st5" d="M236.2,341.2c-26.8,1.6-64.4-32-70.1-81.5c-9.3-80.8-22.4-135.1,52-142.4c74.4-7.4,90.6,23.1,97.9,50
										C323.5,194.1,312.3,336.6,236.2,341.2z"/>
									<path class="st3" d="M283.6,94.2c0,0-22.7,87.2-89.6,106.9c-48.8,14.4-64.5,12.5-64.5,12.5s24-33.1,33.3-80.4
										c2.7-13.9,12-25,24.3-28.8C221.8,93.8,264.2,61.8,283.6,94.2z"/>
									<path class="st3" d="M257.1,127.7c0,0,21.9,6.7,40.7,39.3c10.3,17.8,21.7,61.9,19.2,81.1c0,0,22.3-90.2-6.7-125.9
										C279.5,84.3,257.1,127.7,257.1,127.7z"/>
								</g>
							</g>
						</g>
					</g>
				</g>
				<g>
					<path class="st3" d="M298.1,215.4c-7.2-10.4-18.4-9.8-26-10.4c-3.8-0.3-5.1-3.2-1.5-4.4c12-3.9,28.9,4.5,30.7,13.3
						C301.8,216.5,299.1,216.8,298.1,215.4z"/>
				</g>
				<g>
					<path class="st3" d="M202.5,210.2c8.1-9.2,18.7-7,27-7.5c3.8-0.2,5.4-2.6,2-4.2c-11.5-5.2-29.3,1.3-32,9.8
						C198.7,210.9,201.3,211.5,202.5,210.2z"/>
				</g>
				<path class="st7" d="M241.1,236.8c0,0-4.4,11.9,0.4,20.3c2.5,4.4,5,9.4,5,14.2c-0.1,4.3-4.4,12-17.4,7.7"/>
				<path class="st7" d="M258.9,299.4c0,0-6.8,9.9-24.2,9.8c-9.1,0-18.2-6.2-22.5-14.3"/>
				
					<ellipse transform="matrix(0.3153 -0.949 0.949 0.3153 -27.8683 418.6712)" class="st3" cx="276.2" cy="228.6" rx="9.3" ry="7.6"/>
				
					<ellipse transform="matrix(8.690148e-02 -0.9962 0.9962 8.690148e-02 -28.6372 422.9446)" class="st3" cx="216.4" cy="227.1" rx="9.3" ry="7.5"/>
			</g>
		</g>
	</g>
</g>
</svg>
