<svg width="91" height="91" viewBox="0 0 91 91" fill="none" xmlns="http://www.w3.org/2000/svg">
<circle cx="45.1206" cy="45.4336" r="45" fill="#E9F7F6"/>
<mask id="mask0_6133_47295" style="mask-type:alpha" maskUnits="userSpaceOnUse" x="0" y="0" width="91" height="91">
<circle cx="45.1206" cy="45.4336" r="45" fill="white"/>
</mask>
<g mask="url(#mask0_6133_47295)">
<mask id="mask1_6133_47295" style="mask-type:alpha" maskUnits="userSpaceOnUse" x="0" y="1" width="91" height="91">
<circle cx="45.1206" cy="46.4336" r="45" fill="white"/>
</mask>
<g mask="url(#mask1_6133_47295)">
<path d="M60.4283 82.3492C49.8697 78.6094 39.1987 78.7427 28.5559 82.3492V72.3718C39.2689 69.6354 49.8837 69.8108 60.4283 72.3718V82.3492Z" fill="url(#paint0_linear_6133_47295)"/>
<path d="M55.9424 63.875C55.1421 63.868 56.5812 73.9856 57.3184 76.4133C58.3012 79.6479 64.437 82.1598 70.7412 84.0682C73.6336 84.9453 78.9831 88.8043 79.7203 90.2988C80.1415 91.1548 80.1204 91.253 80.1204 91.253H10.1206L14.5294 87.0221C15.8913 85.7171 17.5622 84.7839 19.3875 84.3138L21.5357 83.7595L24.1613 82.5246C24.6668 82.2861 25.1441 81.9984 25.5864 81.6616L30.978 77.5781C30.978 77.5781 32.6699 75.4661 32.5295 72.2736C32.3891 69.0812 32.3891 63.889 32.3891 63.889H55.9424V63.875Z" fill="#F0CCB9"/>
<path d="M70.7412 84.0685C64.437 82.16 58.3012 79.6481 57.3184 76.4136C55.4162 78.163 51.2061 81.8345 49.5829 82.5249C47.554 83.3879 42.4817 83.7598 40.3514 82.5249C38.6471 81.537 33.3924 78.8155 30.978 77.5783L25.5864 81.6619C25.1441 81.9986 24.6668 82.2863 24.1613 82.5249L21.5357 83.7598L19.3875 84.3141C17.5622 84.7842 15.8913 85.7173 14.5294 87.0224L10.1206 91.2533H80.1204C80.1204 91.2533 80.1415 91.1551 79.7203 90.2991C78.9831 88.8046 73.6336 84.9455 70.7412 84.0685Z" fill="#ECECEC"/>
<path d="M40.4766 91.169H48.5851L46.2192 88.187H42.9337L40.4766 91.169Z" fill="#676767"/>
<path d="M43.762 81.1284L39.29 85.5979C39.29 85.5979 40.1816 89.3025 42.1824 88.9307C42.372 88.8956 42.1684 89.1061 43.074 89.513C44.0358 89.941 45.2503 89.499 46.1629 89.3727C47.3213 89.2113 48.3393 88.5237 48.929 87.5133L50.0241 85.647L45.7698 81.3108L43.762 81.1284Z" fill="#676767"/>
<path d="M26.45 81.0862C26.45 81.0862 33.8143 87.1343 38.9813 87.7447C39.3955 87.7938 40.4696 87.8289 40.6451 87.5693L44.6958 81.3037L29.6021 76.3501L26.45 81.0862Z" fill="url(#paint1_radial_6133_47295)"/>
<path d="M63.012 81.1775C63.012 81.1775 55.6476 87.2256 50.4807 87.8361C50.0665 87.8852 48.9924 87.9203 48.8169 87.6606L44.7661 81.395L59.8599 76.4414L63.012 81.1775Z" fill="url(#paint2_radial_6133_47295)"/>
<path d="M28.0153 54.5786C28.0153 54.5786 30.2478 65.5171 35.8641 68.9131C44.6325 74.2175 50.6559 69.72 50.6559 69.72C50.6559 69.72 57.6552 63.4543 58.7995 59.7637C59.8245 56.466 60.1825 54.5786 60.1825 54.5786C60.1825 54.5786 61.1092 54.5786 61.72 53.8138C62.3378 53.049 62.4922 48.1726 62.9486 46.7974C63.4119 45.4221 63.7208 43.1348 62.1763 43.2892C60.6389 43.4435 59.8666 46.0326 59.8666 46.0326C59.8666 46.0326 62.773 36.0623 61.8464 33.3118C60.9197 30.5684 60.014 30.1685 56.3214 27.8811C52.6287 25.5938 50.7893 23.7835 48.5218 24.5413C46.2542 25.3061 35.6675 25.7832 32.747 24.7167C29.8196 23.6502 27.0746 32.5962 26.6113 34.8835C26.1479 37.1709 27.8469 44.1943 28.0013 46.0256C28.1557 47.8568 28.1557 47.8568 28.1557 47.8568C28.1557 47.8568 27.0816 42.9804 26.155 42.6717C25.2283 42.37 23.5364 42.37 23.8453 46.0256C24.1542 49.6881 24.5262 46.8535 25.8461 53.6524C26.6323 57.6237 28.0153 54.5786 28.0153 54.5786Z" fill="#F0CCB9"/>
<path d="M28.5351 72.4419C28.5351 72.4419 27.1942 80.3283 26.3307 80.5458C25.4742 80.7704 35.8643 85.8783 39.6904 86.3695C39.6904 86.3695 41.9861 82.3982 44.5625 81.1984C44.5625 81.2054 29.0686 75.9571 28.5351 72.4419Z" fill="#F9F7F7"/>
<path d="M60.4565 72.3721C60.4565 72.3721 61.8676 80.2445 62.717 80.455C63.5665 80.6655 53.3449 85.8927 49.5679 86.4259C49.5679 86.4259 47.2582 82.4827 44.6958 81.311C44.7028 81.304 59.9721 75.8873 60.4565 72.3721Z" fill="#F9F7F7"/>
<path d="M28.1137 45.4851C28.1137 45.4851 26.836 41.4647 27.1168 39.451C27.4046 37.4373 25.9795 29.2561 30.8165 27.8178C35.6535 26.3794 39.6341 27.9581 40.9188 27.6774C42.1965 27.3898 47.209 25.0603 49.0273 25.5234C51.0842 26.0426 58.1327 31.6978 59.8386 31.6978C59.8386 31.6978 60.5617 35.9358 60.99 36.6514C61.4182 37.3671 60.5477 43.1907 60.5477 44.0467C60.5477 44.9097 60.5477 45.3377 60.8355 46.2008C60.8355 46.2008 61.2637 44.6221 61.4042 43.6187C61.5446 42.6154 63.2505 40.0263 63.2505 40.0263C63.2505 40.0263 64.6756 31.4102 64.3878 30.8348C64.1 30.2595 65.8129 29.5438 63.2505 24.8007C60.6881 20.0646 49.3081 13.1675 44.6115 12.5992C39.9149 12.0238 33.3719 12.5992 30.6691 20.0646C30.6691 20.0646 23.5575 21.6433 22.5606 29.1088C21.5637 36.5742 27.1098 41.8927 27.1098 44.187C27.1098 46.4814 28.1208 47.9336 28.1208 47.9336L28.1137 45.4851Z" fill="#404041"/>
<path d="M40.9117 44.0961C40.9117 44.0961 36.7907 42.9595 30.9217 43.9207C28.1557 44.3768 31.4482 49.618 31.5325 49.7022C31.6167 49.7864 36.3555 50.4881 40.3851 49.618C41.6628 49.3444 42.1402 44.0119 40.9117 44.0961Z" fill="#EAEAEA" fill-opacity="0.8"/>
<path fill-rule="evenodd" clip-rule="evenodd" d="M61.1204 44.9337C61.2467 45.2845 59.1857 45.5273 59.1857 45.5273C59.1857 45.5273 57.5921 50.2213 56.7356 50.4598C55.8791 50.6914 47.4968 50.7545 46.9282 50.0318C46.507 49.5056 45.8962 47.541 45.5943 46.5306C44.3307 45.7659 43.1864 46.1939 42.379 46.7832C42.0631 47.8427 41.5085 49.5407 41.1224 50.0318C40.5467 50.7545 32.1644 50.6984 31.315 50.4598C30.4585 50.2283 28.8649 45.5273 28.8649 45.5273C28.8649 45.5273 27.5521 46.0886 27.6784 45.7378C27.889 45.1554 27.3695 44.0539 26.9553 43.3522C27.6644 43.9907 28.6613 43.8644 28.6613 43.8644C28.6613 43.8644 29.0614 43.0926 30.3742 43.0505C30.7833 43.0377 31.2313 43.0196 31.7087 43.0003C35.1556 42.861 40.1378 42.6597 43.1161 43.9416C44.1546 44.0899 44.364 44.0504 44.8766 43.9538L44.9414 43.9416C47.9197 42.6597 52.902 42.861 56.3489 43.0003C56.8263 43.0196 57.2742 43.0377 57.6834 43.0505C58.9891 43.0926 59.3963 43.8644 59.3963 43.8644C59.3963 43.8644 60.4002 43.9907 61.1023 43.3522C60.7346 43.9486 60.8564 44.2574 61.0315 44.7014C61.0603 44.7746 61.0906 44.8514 61.1204 44.9337ZM40.9116 44.0959C40.9116 44.0959 36.7906 42.9593 30.9216 43.9205C28.1556 44.3766 31.4482 49.6178 31.5324 49.702C31.6167 49.7862 36.3554 50.4879 40.3851 49.6178C41.6628 49.3442 42.1401 44.0117 40.9116 44.0959ZM57.1707 43.9205C51.3017 42.9593 47.1808 44.0959 47.1808 44.0959C45.9522 44.0117 46.4366 49.3442 47.7073 49.6178C51.737 50.4879 56.4757 49.7862 56.56 49.702C56.6442 49.6178 59.9367 44.3766 57.1707 43.9205Z" fill="#404041"/>
<path d="M47.1809 44.0961C47.1809 44.0961 51.3018 42.9595 57.1708 43.9207C59.9368 44.3768 56.6443 49.618 56.56 49.7022C56.4758 49.7864 51.7371 50.4881 47.7074 49.618C46.4367 49.3444 45.9523 44.0119 47.1809 44.0961Z" fill="#EAEAEA" fill-opacity="0.8"/>
<path d="M60.9549 42.8328C60.8426 43.0433 60.7092 43.2117 60.5618 43.345C60.8707 42.8258 61.1164 42.5311 60.9549 42.8328Z" fill="#A8A8A8"/>
<path d="M26.4218 43.3521C26.2744 43.2188 26.141 43.0504 26.0287 42.8399C25.8672 42.5312 26.1129 42.8259 26.4218 43.3521Z" fill="#A8A8A8"/>
</g>
</g>
<defs>
<linearGradient id="paint0_linear_6133_47295" x1="28.5539" y1="76.3681" x2="60.4268" y2="76.3681" gradientUnits="userSpaceOnUse">
<stop stop-color="#A1A1A1"/>
<stop offset="0.0577997" stop-color="#B2B2B2"/>
<stop offset="0.1872" stop-color="#D4D4D4"/>
<stop offset="0.3108" stop-color="#ECECEC"/>
<stop offset="0.4253" stop-color="#FAFAFA"/>
<stop offset="0.5215" stop-color="white"/>
<stop offset="0.6449" stop-color="#FCFCFB"/>
<stop offset="0.7549" stop-color="#F1F1F1"/>
<stop offset="0.8598" stop-color="#DFDFDE"/>
<stop offset="0.9609" stop-color="#C6C6C5"/>
<stop offset="1" stop-color="#BABAB9"/>
</linearGradient>
<radialGradient id="paint1_radial_6133_47295" cx="0" cy="0" r="1" gradientUnits="userSpaceOnUse" gradientTransform="translate(37.389 81.3102) scale(8.39017 8.3906)">
<stop stop-color="#8A8A8A"/>
<stop offset="0.0928131" stop-color="#A0A0A0"/>
<stop offset="0.2404" stop-color="#BEBEBE"/>
<stop offset="0.3971" stop-color="#D5D5D5"/>
<stop offset="0.5649" stop-color="#E5E5E5"/>
<stop offset="0.7517" stop-color="#EFEFEF"/>
<stop offset="0.995" stop-color="#F2F2F2"/>
</radialGradient>
<radialGradient id="paint2_radial_6133_47295" cx="0" cy="0" r="1" gradientUnits="userSpaceOnUse" gradientTransform="translate(50.9945 80.7374) scale(8.74088 8.74134)">
<stop stop-color="#8A8A8A"/>
<stop offset="0.0928131" stop-color="#A0A0A0"/>
<stop offset="0.2404" stop-color="#BEBEBE"/>
<stop offset="0.3971" stop-color="#D5D5D5"/>
<stop offset="0.5649" stop-color="#E5E5E5"/>
<stop offset="0.7517" stop-color="#EFEFEF"/>
<stop offset="0.995" stop-color="#F2F2F2"/>
</radialGradient>
</defs>
</svg>
