<svg width="1336" height="766" viewBox="0 0 1336 766" fill="none" xmlns="http://www.w3.org/2000/svg">
<mask id="mask0" mask-type="alpha" maskUnits="userSpaceOnUse" x="0" y="72" width="421" height="768">
<rect width="421" height="767.83" transform="matrix(1 0 0 -1 0 839.83)" fill="#C4C4C4"/>
</mask>
<g mask="url(#mask0)">
<path d="M-511.118 428.365L-319.758 1267.05C-319.758 1267.05 -82.1246 1356.2 39.4059 1251.74C160.944 1147.27 39.1691 1063.31 136.945 1031.57C140.255 1030.49 143.652 1029.96 146.917 1029.22C147.695 1029.04 148.459 1028.85 149.214 1028.64C205.908 1012.78 235.175 970.215 246.229 920.372C246.587 918.763 246.924 917.148 247.241 915.527C262.776 836.519 234.096 741.086 196.883 704.457C133.564 642.139 77.5093 655.47 61.6333 500.448C45.7537 345.426 -115.716 352.184 -185.684 409.527C-284.962 490.891 -298.879 304.538 -511.118 428.365Z" fill="#FFF394"/>
</g>
<mask id="mask1" mask-type="alpha" maskUnits="userSpaceOnUse" x="915" y="0" width="421" height="768">
<rect width="421" height="767.83" transform="matrix(-1 0 0 1 1336 0)" fill="#C4C4C4"/>
</mask>
<g mask="url(#mask1)">
<path d="M1865.98 349.101L1565.29 -169.888C1565.29 -169.888 1360.9 -163.85 1283 -58.2633C1205.09 47.3267 1304.68 39.1091 1268.68 94.3432C1262.26 104.184 1257.54 108.157 1250.85 114.322C1250.85 114.322 1242.03 120.88 1235.45 125.059C1193.28 151.864 1177.61 189.18 1177.68 226.34C1177.68 227.541 1177.7 228.739 1177.74 229.935C1179.43 288.279 1219.12 345.39 1255.16 359.928C1316.46 384.662 1358.58 359.767 1398.69 461.188C1438.8 562.607 1565.73 512.51 1611.08 453.632C1675.42 370.091 1719.53 493.465 1865.98 349.101Z" fill="#FFF394"/>
</g>
<path d="M1240.7 103.142C1253.74 94.3473 1257.41 76.4708 1248.89 63.2136C1240.38 49.9565 1222.9 46.3389 1209.86 55.1335C1196.82 63.9282 1193.15 81.8047 1201.67 95.0618C1210.18 108.319 1227.66 111.937 1240.7 103.142Z" fill="#EAB726"/>
<path d="M1243.03 103.648C1256.06 94.8384 1259.73 76.9424 1251.23 63.676C1242.73 50.4095 1225.28 46.7962 1212.25 55.6055C1199.22 64.4148 1195.54 82.3108 1204.04 95.5773C1212.54 108.844 1230 112.457 1243.03 103.648Z" fill="#FFEB4D"/>
<path d="M1206.06 94.6052C1202.29 88.7586 1200.98 81.7364 1202.38 74.8354C1203.78 67.9344 1207.72 61.9803 1213.47 58.0696C1219.22 54.1585 1226.09 52.757 1232.82 54.1258C1239.54 55.4947 1245.32 59.4685 1249.09 65.3168C1252.86 71.1633 1254.16 78.1856 1252.76 85.0848C1251.36 91.984 1247.42 97.9399 1241.68 101.852C1235.93 105.763 1229.06 107.165 1222.33 105.796C1215.6 104.428 1209.82 100.452 1206.06 94.6052ZM1203.89 75.1431C1201.17 88.5382 1209.58 101.599 1222.64 104.256C1235.7 106.913 1248.54 98.1759 1251.26 84.7809C1253.98 71.3858 1245.56 58.3255 1232.5 55.6684C1219.44 53.0114 1206.61 61.7463 1203.89 75.1431Z" fill="#EAB726"/>
<path d="M1229.53 88.1564C1229.71 87.6124 1229.79 87.1084 1229.78 86.6448C1229.76 86.1807 1229.64 85.7239 1229.41 85.2758C1229.18 84.8257 1228.84 84.3703 1228.4 83.9075C1227.95 83.4447 1227.39 82.9486 1226.7 82.4188C1225.53 81.498 1224.48 80.5927 1223.56 79.7083C1222.65 78.8222 1221.91 77.908 1221.36 76.9648C1220.81 76.0212 1220.47 75.0194 1220.35 73.9581C1220.22 72.8968 1220.36 71.7319 1220.78 70.4634C1221.14 69.3637 1221.65 68.4242 1222.33 67.6448C1223.01 66.8654 1223.81 66.2569 1224.74 65.8179C1225.67 65.3807 1226.69 65.1148 1227.82 65.0219C1228.94 64.929 1230.13 65.0266 1231.39 65.3179L1232.75 61.1629L1236.02 62.2473L1234.64 66.4597C1235.76 67.0031 1236.71 67.6724 1237.51 68.4674C1238.31 69.2625 1238.91 70.1524 1239.33 71.1374C1239.74 72.1221 1239.96 73.1964 1239.98 74.3568C1240 75.5186 1239.8 76.7459 1239.38 78.0397L1233.48 76.082C1233.99 74.5297 1234.03 73.2564 1233.61 72.2614C1233.19 71.2685 1232.41 70.5836 1231.29 70.2094C1230.68 70.0062 1230.12 69.9189 1229.62 69.9475C1229.12 69.9745 1228.68 70.0936 1228.3 70.3022C1227.91 70.5122 1227.58 70.8006 1227.31 71.169C1227.04 71.5372 1226.83 71.9622 1226.67 72.4401C1226.51 72.9179 1226.44 73.3749 1226.45 73.8088C1226.46 74.2428 1226.57 74.6789 1226.8 75.1207C1227.02 75.5608 1227.36 76.0187 1227.82 76.4928C1228.28 76.967 1228.86 77.4942 1229.57 78.0765C1230.73 79.0195 1231.76 79.9362 1232.67 80.8262C1233.57 81.7158 1234.3 82.6358 1234.85 83.5863C1235.4 84.5365 1235.74 85.5417 1235.87 86.603C1235.99 87.6644 1235.85 88.8227 1235.44 90.0777C1235.07 91.2161 1234.54 92.1754 1233.86 92.9517C1233.17 93.7297 1232.37 94.3306 1231.45 94.7561C1230.53 95.1815 1229.5 95.4291 1228.37 95.4971C1227.24 95.5672 1226.04 95.4562 1224.78 95.1665L1223.52 99.0295L1220.27 97.9531L1221.53 94.1088C1220.44 93.6175 1219.43 93.0027 1218.5 92.2639C1217.58 91.5251 1216.82 90.6559 1216.25 89.6532C1215.67 88.6506 1215.32 87.5129 1215.19 86.2362C1215.07 84.9608 1215.26 83.5461 1215.77 81.9939L1221.66 83.9516C1221.36 84.8703 1221.24 85.679 1221.29 86.377C1221.34 87.0751 1221.51 87.6799 1221.82 88.1876C1222.12 88.697 1222.51 89.1153 1223 89.4414C1223.49 89.7689 1224.01 90.0244 1224.57 90.2094C1225.21 90.4218 1225.8 90.5246 1226.33 90.5163C1226.87 90.5083 1227.35 90.4091 1227.78 90.2194C1228.2 90.0298 1228.56 89.7587 1228.86 89.4047C1229.15 89.0531 1229.37 88.636 1229.53 88.1564Z" fill="#EAB726"/>
<path d="M216.397 639.74C231.358 619.656 227.501 590.899 207.783 575.509C188.066 560.118 159.954 563.923 144.994 584.006C130.033 604.09 133.89 632.847 153.608 648.237C173.325 663.628 201.437 659.823 216.397 639.74Z" fill="#EAB726"/>
<path d="M220.159 639.266C235.096 619.166 231.235 590.377 211.535 574.965C191.836 559.552 163.757 563.352 148.821 583.452C133.884 603.552 137.745 632.341 157.444 647.754C177.144 663.166 205.222 659.366 220.159 639.266Z" fill="#FFEB4D"/>
<path d="M159.913 645.052C151.23 638.254 145.627 628.412 144.142 617.341C142.658 606.271 145.467 595.297 152.054 586.442C158.638 577.586 168.213 571.905 179.011 570.45C189.809 568.995 200.537 571.938 209.221 578.738C217.904 585.536 223.507 595.379 224.991 606.447C226.475 617.514 223.667 628.491 217.08 637.349C210.496 646.204 200.921 651.886 190.126 653.34C179.328 654.795 168.599 651.85 159.913 645.052ZM146.556 617.019C149.438 638.507 168.835 653.693 189.794 650.869C210.754 648.044 225.462 628.263 222.581 606.774C219.699 585.286 200.302 570.1 179.343 572.925C158.384 575.749 143.675 595.528 146.556 617.019Z" fill="#EAB726"/>
<path d="M191.761 623.172C191.744 622.264 191.604 621.466 191.343 620.777C191.08 620.089 190.66 619.467 190.083 618.914C189.504 618.358 188.763 617.85 187.857 617.386C186.95 616.923 185.847 616.472 184.544 616.034C182.303 615.263 180.265 614.449 178.432 613.598C176.599 612.745 175.024 611.755 173.711 610.625C172.395 609.496 171.365 608.17 170.622 606.644C169.88 605.118 169.489 603.296 169.451 601.177C169.417 599.341 169.705 597.663 170.315 596.142C170.925 594.62 171.809 593.291 172.969 592.152C174.13 591.014 175.528 590.083 177.163 589.36C178.799 588.637 180.636 588.163 182.676 587.946L182.551 581.007L188.004 580.938L188.131 587.973C190.088 588.208 191.869 588.714 193.474 589.494C195.08 590.273 196.45 591.294 197.587 592.554C198.722 593.816 199.607 595.314 200.241 597.044C200.874 598.777 201.212 600.722 201.25 602.882L191.402 603.008C191.355 600.416 190.759 598.482 189.609 597.209C188.462 595.938 186.944 595.314 185.06 595.338C184.039 595.351 183.16 595.509 182.428 595.811C181.696 596.11 181.094 596.519 180.628 597.031C180.159 597.547 179.818 598.15 179.604 598.843C179.388 599.536 179.29 600.284 179.303 601.083C179.317 601.881 179.444 602.605 179.682 603.251C179.921 603.898 180.323 604.491 180.89 605.037C181.457 605.58 182.204 606.09 183.134 606.565C184.064 607.039 185.213 607.526 186.585 608.029C188.802 608.845 190.824 609.684 192.647 610.548C194.468 611.411 196.037 612.413 197.354 613.554C198.669 614.695 199.7 616.026 200.442 617.552C201.185 619.078 201.576 620.889 201.615 622.984C201.649 624.885 201.357 626.598 200.736 628.118C200.115 629.641 199.224 630.959 198.064 632.077C196.903 633.194 195.493 634.099 193.834 634.788C192.178 635.48 190.327 635.936 188.288 636.156L188.405 642.607L182.988 642.676L182.872 636.256C180.981 636.087 179.151 635.688 177.379 635.061C175.607 634.434 174.028 633.521 172.644 632.316C171.26 631.111 170.14 629.588 169.29 627.737C168.438 625.889 167.989 623.668 167.942 621.076L177.791 620.951C177.817 622.485 178.052 623.763 178.489 624.784C178.927 625.805 179.505 626.621 180.221 627.226C180.937 627.834 181.744 628.257 182.647 628.492C183.548 628.73 184.465 628.841 185.396 628.829C186.465 628.815 187.399 628.664 188.199 628.373C189.001 628.081 189.668 627.684 190.204 627.179C190.741 626.674 191.138 626.081 191.399 625.395C191.653 624.716 191.774 623.974 191.761 623.172Z" fill="#EAB726"/>
<path d="M146.764 530.783C150.548 517.671 143.079 503.756 130.082 499.702C117.086 495.648 103.483 502.991 99.6994 516.103C95.9159 529.214 103.385 543.13 116.381 547.183C129.378 551.237 142.981 543.895 146.764 530.783Z" fill="#EAB726"/>
<path d="M148.591 529.808C152.36 516.693 144.883 502.762 131.891 498.694C118.9 494.625 105.313 501.959 101.544 515.075C97.776 528.19 105.253 542.121 118.245 546.189C131.236 550.258 144.823 542.924 148.591 529.808Z" fill="#FFEB4D"/>
<path d="M118.868 544.415C113.121 542.579 108.375 538.594 105.509 533.194C102.642 527.794 101.997 521.627 103.692 515.827C105.386 510.027 109.218 505.288 114.481 502.484C119.743 499.681 125.807 499.148 131.555 500.985C137.302 502.821 142.047 506.806 144.913 512.205C147.779 517.603 148.425 523.772 146.73 529.573C145.036 535.373 141.204 540.112 135.943 542.915C130.68 545.718 124.616 546.25 118.868 544.415ZM106.686 532.569C112.249 543.05 125.088 547.151 135.303 541.709C145.518 536.268 149.302 523.313 143.739 512.832C138.175 502.351 125.337 498.25 115.122 503.691C104.906 509.133 101.121 522.086 106.686 532.569Z" fill="#EAB726"/>
<path d="M131.061 527.107C130.879 526.645 130.654 526.263 130.389 525.96C130.122 525.657 129.788 525.419 129.386 525.245C128.982 525.071 128.504 524.951 127.95 524.886C127.395 524.821 126.742 524.8 125.989 524.823C124.689 524.854 123.486 524.824 122.382 524.736C121.277 524.648 120.278 524.44 119.387 524.111C118.495 523.783 117.713 523.299 117.04 522.659C116.367 522.019 115.819 521.16 115.395 520.083C115.028 519.149 114.856 518.235 114.879 517.34C114.902 516.446 115.103 515.597 115.483 514.793C115.863 513.991 116.404 513.248 117.107 512.567C117.81 511.886 118.664 511.295 119.671 510.796L118.284 507.267L121.074 506.196L122.481 509.774C123.532 509.522 124.545 509.444 125.519 509.538C126.493 509.632 127.391 509.894 128.217 510.324C129.041 510.754 129.781 511.353 130.438 512.118C131.093 512.885 131.638 513.817 132.07 514.916L127.03 516.851C126.512 515.532 125.837 514.656 125.003 514.222C124.171 513.789 123.271 513.758 122.307 514.128C121.784 514.329 121.363 514.577 121.044 514.87C120.725 515.162 120.493 515.486 120.351 515.837C120.208 516.19 120.148 516.563 120.17 516.959C120.192 517.355 120.284 517.757 120.443 518.163C120.602 518.569 120.805 518.916 121.051 519.201C121.297 519.487 121.617 519.714 122.013 519.886C122.408 520.057 122.889 520.176 123.458 520.242C124.026 520.309 124.71 520.34 125.512 520.336C126.807 520.333 128.007 520.379 129.109 520.475C130.21 520.571 131.207 520.786 132.102 521.12C132.995 521.454 133.779 521.94 134.452 522.58C135.125 523.221 135.672 524.073 136.091 525.139C136.471 526.106 136.648 527.038 136.618 527.935C136.59 528.832 136.383 529.676 136 530.469C135.616 531.261 135.064 531.992 134.342 532.661C133.622 533.33 132.758 533.914 131.751 534.414L133.042 537.695L130.27 538.759L128.986 535.494C127.981 535.767 126.964 535.91 125.934 535.926C124.903 535.941 123.917 535.774 122.976 535.42C122.034 535.065 121.168 534.498 120.378 533.712C119.588 532.928 118.933 531.876 118.414 530.558L123.454 528.623C123.76 529.404 124.125 530.013 124.545 530.453C124.964 530.893 125.417 531.2 125.901 531.374C126.385 531.549 126.88 531.613 127.389 531.561C127.898 531.512 128.391 531.395 128.867 531.212C129.414 531.002 129.865 530.747 130.221 530.446C130.578 530.145 130.845 529.814 131.024 529.454C131.204 529.094 131.295 528.714 131.299 528.314C131.3 527.918 131.22 527.515 131.061 527.107Z" fill="#EAB726"/>
</svg>
