<svg width="259" height="89" viewBox="0 0 259 89" fill="none" xmlns="http://www.w3.org/2000/svg">
<g clip-path="url(#clip0)">
<path d="M61.792 84.2432C83.1386 75.0775 93.2025 49.8564 84.2704 27.9103C75.3383 5.96423 50.7927 -4.39633 29.4462 4.76937C8.09969 13.9351 -1.96421 39.1562 6.96784 61.1023C15.8999 83.0484 40.4455 93.4089 61.792 84.2432Z" fill="#EAB726"/>
<path d="M48.7428 87.5346C48.146 87.6311 47.5452 87.718 46.9401 87.7896C46.7351 87.813 46.5301 87.8364 46.327 87.8552C45.8619 87.9028 45.3995 87.9435 44.9345 87.9778C22.7567 89.5025 3.09077 72.8462 0.519121 49.9034C-1.93547 28.0205 12.0294 8.09294 32.3679 3.11665C33.9903 2.7185 35.6522 2.41747 37.3496 2.21716C37.9578 2.1442 38.5673 2.08782 39.1722 2.04291C39.7609 1.99924 40.3496 1.96892 40.9359 1.95102C42.7315 1.89673 44.5055 1.96197 46.2553 2.1403C48.8563 2.40181 51.3983 2.90918 53.8554 3.64878C61.4754 5.93766 68.2746 10.4079 73.4825 16.4339C79.009 22.8251 82.7451 30.9641 83.7683 40.1025C86.3457 63.1094 70.7832 83.9549 48.7428 87.5346Z" fill="#FFEB4D"/>
<path d="M28.0045 81.2366C24.7626 79.8682 21.6905 78.0219 18.8709 75.7193C11.0151 69.3074 6.05718 60.138 4.9096 49.899C3.76203 39.6599 6.56247 29.5755 12.7957 21.5057C19.029 13.4358 27.9471 8.34613 37.9083 7.17349C58.4746 4.75143 77.1321 19.9795 79.5002 41.1182C81.8682 62.2569 67.0668 81.4239 46.5014 83.8437C40.1139 84.5921 33.7895 83.6784 28.0045 81.2366ZM56.0023 10.7578C50.4897 8.43095 44.3504 7.45867 38.0221 8.20257C28.329 9.34368 19.6509 14.2961 13.5858 22.1474C7.52062 29.9987 4.79682 39.8126 5.91355 49.7759C7.03027 59.7392 11.8545 68.6618 19.4975 74.9009C27.1405 81.1399 36.6907 83.946 46.3838 82.8049C66.3943 80.4484 80.7984 61.8 78.4923 41.2316C76.9165 27.1689 67.9273 15.7913 56.0023 10.7578Z" fill="#EAB726"/>
<path d="M38.1396 25.9033L38.1526 63.5276C38.1538 66.8802 35.5178 69.5913 32.2569 69.5913C28.9959 69.5913 26.3581 66.8802 26.3569 63.5276L26.3439 25.9033C26.3427 22.5507 28.9787 19.8396 32.2397 19.8396C35.5006 19.8396 38.1385 22.5507 38.1396 25.9033Z" fill="#EAB726"/>
<path d="M43.7034 50.0548L39.0307 42.3148L39.0304 41.4249C40.9222 40.4936 42.5121 39.4174 43.9006 38.1964L43.7034 50.0548Z" fill="#EAB726"/>
<path d="M43.801 38.2171C47.6848 34.7816 49.7565 30.1873 51.3446 24.1442C52.008 21.5987 54.2417 19.8396 56.7981 19.8396C60.6428 19.8396 63.3616 23.6889 62.1954 27.4555C59.5212 35.982 55.8792 40.1831 51.7941 43.4323L62.9719 60.8992C65.3484 64.6244 62.7535 69.5913 58.4055 69.5913C56.5134 69.5913 54.7618 68.5772 53.7749 66.9423L43.5837 50.0548L43.801 38.2171Z" fill="#EAB726"/>
</g>
<path d="M105 49.9103H151.373V57.2712H105V49.9103ZM105 31.6442H151.373V39.0052H105V31.6442Z" fill="#0D8284"/>
<path d="M213.539 87.514C237.538 87.514 257.432 68.0875 257.972 44.1237C258.512 20.1599 239.494 0.733414 215.494 0.733414C191.495 0.733414 171.601 20.1599 171.061 44.1237C170.521 68.0875 189.539 87.514 213.539 87.514Z" fill="#EAB726"/>
<path d="M211.454 87.5782C235.453 87.5782 255.39 68.1533 255.985 44.1914C256.58 20.2295 237.607 0.804489 213.607 0.804489C189.608 0.804489 169.671 20.2295 169.076 44.1914C168.482 68.1533 187.455 87.5782 211.454 87.5782Z" fill="#FFEB4D"/>
<path d="M219.243 55.9262C219.268 55.0566 219.171 54.2866 218.954 53.6159C218.733 52.9455 218.36 52.3314 217.834 51.7764C217.305 51.2189 216.619 50.6992 215.773 50.215C214.927 49.7308 213.892 49.2496 212.665 48.7715C210.555 47.9336 208.643 47.0624 206.928 46.1661C205.212 45.267 203.75 44.2491 202.546 43.1091C201.339 41.9694 200.414 40.6543 199.773 39.161C199.133 37.6678 198.844 35.9071 198.905 33.8789C198.957 32.1208 199.311 30.5279 199.965 29.1002C200.619 27.6725 201.526 26.4409 202.689 25.4027C203.853 24.3671 205.234 23.5389 206.833 22.9208C208.432 22.3027 210.212 21.9328 212.175 21.8165L212.376 15.1729L217.599 15.353L217.395 22.0884C219.257 22.4009 220.939 22.9662 222.439 23.7842C223.94 24.6022 225.204 25.64 226.234 26.8975C227.262 28.1551 228.04 29.6284 228.568 31.3119C229.093 32.9983 229.326 34.8743 229.264 36.943L219.831 36.6189C219.906 34.1371 219.425 32.261 218.383 30.9911C217.344 29.7236 215.92 29.0579 214.116 28.9962C213.137 28.9626 212.289 29.0738 211.574 29.3297C210.86 29.583 210.265 29.947 209.795 30.416C209.322 30.888 208.968 31.4494 208.731 32.1028C208.493 32.7565 208.364 33.468 208.34 34.2324C208.315 34.9968 208.404 35.6948 208.602 36.324C208.801 36.9533 209.158 37.5391 209.676 38.0868C210.193 38.6318 210.884 39.1537 211.753 39.6494C212.621 40.1452 213.698 40.6631 214.989 41.2058C217.073 42.0863 218.969 42.9804 220.675 43.8884C222.378 44.7966 223.833 45.8259 225.041 46.9763C226.246 48.127 227.172 49.4474 227.812 50.9407C228.452 52.4339 228.743 54.1837 228.683 56.1903C228.628 58.0105 228.27 59.6362 227.605 61.0621C226.94 62.4908 226.027 63.7121 224.864 64.7287C223.702 65.7453 222.311 66.5474 220.69 67.1324C219.073 67.7198 217.281 68.0719 215.318 68.1909L215.132 74.3671L209.944 74.1895L210.13 68.0428C208.328 67.795 206.595 67.3312 204.927 66.6516C203.26 65.972 201.791 65.0274 200.522 63.8122C199.253 62.597 198.251 61.0893 197.524 59.2803C196.794 57.4743 196.466 55.3291 196.541 52.8472L205.973 53.1712C205.928 54.6405 206.094 55.8732 206.465 56.87C206.837 57.8667 207.353 58.6731 208.01 59.2841C208.667 59.8978 209.42 60.3389 210.274 60.6042C211.125 60.8725 211.998 61.0204 212.889 61.0508C213.913 61.0859 214.814 60.9835 215.593 60.7409C216.374 60.4981 217.031 60.1475 217.568 59.6889C218.104 59.2302 218.512 58.6803 218.794 58.0364C219.068 57.3985 219.219 56.6932 219.243 55.9262Z" fill="#EAB726"/>
<path d="M185.002 72.994C177.629 65.4346 173.573 55.3795 173.587 44.6851C173.601 33.9907 177.679 23.9368 185.074 16.3749C192.466 8.813 202.29 4.64465 212.733 4.64286C223.175 4.64106 232.986 8.80336 240.359 16.3654C247.732 23.9248 251.788 33.98 251.774 44.6716C251.761 55.3633 247.682 65.4199 240.287 72.9845C232.895 80.5464 223.071 84.7148 212.631 84.7166C202.189 84.7184 192.378 80.5534 185.002 72.994ZM175.921 44.6874C175.895 65.4456 192.365 82.3322 212.634 82.3287C232.903 82.3252 249.416 65.433 249.443 44.6747C249.469 23.9165 232.999 7.02993 212.73 7.03341C192.46 7.03688 175.947 23.9264 175.921 44.6874Z" fill="#EAB726"/>
<defs>
<clipPath id="clip0">
<rect width="87.8684" height="87.92" fill="white" transform="matrix(1 0 0.000345594 1 0 0.733398)"/>
</clipPath>
</defs>
</svg>
