<svg width="141" height="107" viewBox="0 0 141 107" fill="none" xmlns="http://www.w3.org/2000/svg">
<g filter="url(#filter0_d_6182_49449)">
<rect x="13.8291" y="7.959" width="105.347" height="65.3412" rx="10.545" fill="white" stroke="#0D8284" stroke-width="0.602571"/>
<path d="M16.1891 9.96442C17.6212 8.67555 19.4781 7.95965 21.4047 7.95357L111.187 7.67035C113.702 7.66241 116.068 8.86243 117.547 10.8963L117.634 11.016L118.855 13.153L13.8335 13.4583L15.36 10.7107L16.1891 9.96442Z" fill="#0D8284"/>
<rect x="22.321" y="19.3811" width="33.4115" height="33.4115" fill="#C4C4C4"/>
<path d="M45.332 49.3505C41.218 47.8934 37.0602 47.9453 32.9133 49.3505V45.463C37.0875 44.3968 41.2235 44.4651 45.332 45.463V49.3505Z" fill="url(#paint0_linear_6182_49449)"/>
<path d="M43.5842 42.1523C43.2723 42.1496 43.8331 46.0918 44.1203 47.0378C44.5032 48.2981 46.894 49.2768 49.3504 50.0204C50.4773 50.3621 52.5617 51.8658 52.8489 52.4481C53.0131 52.7816 53.0049 52.8199 53.0049 52.8199H25.7302L27.4481 51.1714C27.9787 50.6629 28.6297 50.2993 29.3409 50.1161L30.178 49.9001L31.201 49.419C31.398 49.326 31.584 49.2139 31.7563 49.0827L33.8571 47.4916C33.8571 47.4916 34.5163 46.6687 34.4616 45.4248C34.4069 44.1809 34.4069 42.1578 34.4069 42.1578H43.5842V42.1523Z" fill="#F0CCB9"/>
<path d="M49.3504 50.0202C46.894 49.2766 44.5032 48.2979 44.1203 47.0376C43.3791 47.7192 41.7387 49.1498 41.1063 49.4188C40.3157 49.7551 38.3394 49.9 37.5093 49.4188C36.8452 49.0339 34.7978 47.9735 33.8571 47.4914L31.7563 49.0825C31.584 49.2138 31.398 49.3258 31.201 49.4188L30.178 49.9L29.3409 50.1159C28.6297 50.2991 27.9787 50.6627 27.4481 51.1712L25.7302 52.8197H53.0049C53.0049 52.8197 53.0131 52.7814 52.8489 52.4479C52.5617 51.8656 50.4773 50.362 49.3504 50.0202Z" fill="#ECECEC"/>
<path d="M37.5588 52.7869H40.7182L39.7964 51.625H38.5162L37.5588 52.7869Z" fill="#676767"/>
<path d="M38.8386 48.8748L37.0962 50.6162C37.0962 50.6162 37.4436 52.0597 38.2232 51.9148C38.297 51.9011 38.2177 51.9832 38.5706 52.1417C38.9453 52.3085 39.4185 52.1363 39.7741 52.087C40.2255 52.0242 40.6221 51.7562 40.8519 51.3626L41.2786 50.6354L39.621 48.9458L38.8386 48.8748Z" fill="#676767"/>
<path d="M32.0928 48.8583C32.0928 48.8583 34.9622 51.2149 36.9755 51.4527C37.1368 51.4719 37.5554 51.4855 37.6237 51.3844L39.2021 48.943L33.321 47.0129L32.0928 48.8583Z" fill="url(#paint1_radial_6182_49449)"/>
<path d="M46.3378 48.8939C46.3378 48.8939 43.4684 51.2505 41.4551 51.4884C41.2937 51.5075 40.8752 51.5212 40.8068 51.42L39.2285 48.9787L45.1096 47.0486L46.3378 48.8939Z" fill="url(#paint2_radial_6182_49449)"/>
<path d="M32.7023 38.53C32.7023 38.53 33.5721 42.792 35.7605 44.1152C39.177 46.182 41.5239 44.4296 41.5239 44.4296C41.5239 44.4296 44.2511 41.9883 44.697 40.5503C45.0964 39.2654 45.2359 38.53 45.2359 38.53C45.2359 38.53 45.5969 38.53 45.8349 38.232C46.0756 37.934 46.1358 36.0339 46.3136 35.4981C46.4942 34.9623 46.6145 34.071 46.0127 34.1312C45.4137 34.1913 45.1128 35.2001 45.1128 35.2001C45.1128 35.2001 46.2452 31.3153 45.8842 30.2436C45.5231 29.1747 45.1702 29.0188 43.7314 28.1276C42.2926 27.2364 41.5759 26.531 40.6924 26.8263C39.8088 27.1243 35.6839 27.3102 34.5459 26.8946C33.4053 26.4791 32.3357 29.9648 32.1552 30.856C31.9747 31.7472 32.6366 34.4838 32.6968 35.1974C32.757 35.9109 32.757 35.9109 32.757 35.9109C32.757 35.9109 32.3385 34.0109 31.9774 33.8906C31.6163 33.773 30.9571 33.773 31.0775 35.1974C31.1978 36.6244 31.3428 35.52 31.8571 38.1691C32.1634 39.7164 32.7023 38.53 32.7023 38.53Z" fill="#F0CCB9"/>
<path d="M32.905 45.4902C32.905 45.4902 32.3825 48.5631 32.0461 48.6478C31.7124 48.7353 35.7607 50.7256 37.2515 50.9169C37.2515 50.9169 38.146 49.3696 39.1499 48.9021C39.1499 48.9048 33.1129 46.8599 32.905 45.4902Z" fill="#F9F7F7"/>
<path d="M45.3426 45.4629C45.3426 45.4629 45.8924 48.5303 46.2234 48.6123C46.5544 48.6943 42.5717 50.731 41.1 50.9388C41.1 50.9388 40.2001 49.4024 39.2017 48.9458C39.2044 48.9431 45.1539 46.8326 45.3426 45.4629Z" fill="#F9F7F7"/>
<path d="M32.7512 35.0417C32.7512 35.0417 32.2534 33.4752 32.3628 32.6906C32.4749 31.906 31.9196 28.7183 33.8043 28.1578C35.689 27.5974 37.24 28.2125 37.7406 28.1032C38.2384 27.9911 40.1915 27.0834 40.8999 27.2639C41.7014 27.4662 44.4477 29.6697 45.1124 29.6697C45.1124 29.6697 45.3942 31.3209 45.5611 31.5998C45.7279 31.8786 45.3887 34.1477 45.3887 34.4813C45.3887 34.8175 45.3887 34.9843 45.5009 35.3206C45.5009 35.3206 45.6677 34.7054 45.7224 34.3145C45.7772 33.9236 46.4419 32.9148 46.4419 32.9148C46.4419 32.9148 46.9971 29.5576 46.885 29.3334C46.7728 29.1092 47.4403 28.8304 46.4419 26.9823C45.4434 25.1369 41.0094 22.4495 39.1794 22.2281C37.3494 22.0039 34.8 22.2281 33.7469 25.1369C33.7469 25.1369 30.9759 25.752 30.5875 28.6609C30.1991 31.5697 32.36 33.642 32.36 34.5359C32.36 35.4299 32.754 35.9957 32.754 35.9957L32.7512 35.0417Z" fill="#404041"/>
<path d="M37.7272 34.4456C37.7272 34.4456 36.1215 34.0027 33.8347 34.3772C32.757 34.5549 34.0399 36.5971 34.0727 36.6299C34.1055 36.6627 35.9519 36.9361 37.522 36.5971C38.0199 36.4905 38.2059 34.4128 37.7272 34.4456Z" fill="#EAEAEA" fill-opacity="0.8"/>
<path fill-rule="evenodd" clip-rule="evenodd" d="M45.6013 34.7719C45.6506 34.9086 44.8475 35.0032 44.8475 35.0032C44.8475 35.0032 44.2266 36.8322 43.8929 36.9251C43.5591 37.0153 40.2931 37.0399 40.0715 36.7583C39.9074 36.5533 39.6694 35.7878 39.5518 35.3941C39.0594 35.0962 38.6135 35.2629 38.299 35.4926C38.1759 35.9054 37.9598 36.567 37.8093 36.7583C37.585 37.0399 34.319 37.0181 33.988 36.9251C33.6543 36.8349 33.0333 35.0032 33.0333 35.0032C33.0333 35.0032 32.5218 35.2219 32.5711 35.0852C32.6531 34.8583 32.4507 34.4291 32.2893 34.1557C32.5656 34.4045 32.954 34.3553 32.954 34.3553C32.954 34.3553 33.1099 34.0546 33.6214 34.0381C33.7808 34.0332 33.9554 34.0261 34.1414 34.0186C35.4844 33.9643 37.4257 33.8859 38.5862 34.3853C38.9908 34.4431 39.0724 34.4277 39.2721 34.3901L39.2974 34.3853C40.4579 33.8859 42.3991 33.9643 43.7422 34.0186C43.9282 34.0261 44.1027 34.0332 44.2621 34.0381C44.7709 34.0546 44.9296 34.3553 44.9296 34.3553C44.9296 34.3553 45.3207 34.4045 45.5943 34.1557C45.451 34.3881 45.4985 34.5084 45.5667 34.6814L45.5667 34.6814C45.5779 34.7099 45.5897 34.7398 45.6013 34.7719ZM37.7276 34.4455C37.7276 34.4455 36.1219 34.0026 33.8351 34.3772C32.7574 34.5549 34.0403 36.5971 34.0731 36.6299C34.1059 36.6627 35.9523 36.9361 37.5224 36.5971C38.0203 36.4905 38.2063 34.4127 37.7276 34.4455ZM44.063 34.3772C41.7762 34.0026 40.1705 34.4455 40.1705 34.4455C39.6918 34.4127 39.8806 36.4905 40.3757 36.5971C41.9458 36.9361 43.7922 36.6627 43.825 36.6299C43.8579 36.5971 45.1408 34.5549 44.063 34.3772Z" fill="#404041"/>
<path d="M40.171 34.4456C40.171 34.4456 41.7767 34.0027 44.0634 34.3772C45.1412 34.5549 43.8583 36.5971 43.8255 36.6299C43.7926 36.6627 41.9463 36.9361 40.3761 36.5971C39.881 36.4905 39.6923 34.4128 40.171 34.4456Z" fill="#EAEAEA" fill-opacity="0.8"/>
<path d="M45.5366 33.9532C45.4929 34.0352 45.4409 34.1008 45.3835 34.1527C45.5038 33.9505 45.5995 33.8358 45.5366 33.9532Z" fill="#A8A8A8"/>
<path d="M32.0809 34.1555C32.0235 34.1036 31.9716 34.0381 31.9279 33.9561C31.865 33.8359 31.9607 33.9506 32.0809 34.1555Z" fill="#A8A8A8"/>
<rect x="62.7666" y="19.8208" width="15.3869" height="4.39625" fill="#C4C4C4"/>
<rect x="62.7666" y="34.3284" width="22.4209" height="4.39625" fill="#C4C4C4"/>
<rect x="62.7666" y="40.9226" width="35.17" height="4.39625" fill="#C4C4C4"/>
<rect x="62.7666" y="48.3962" width="41.3248" height="4.39625" fill="#C4C4C4"/>
<rect x="62.7666" y="26.8547" width="31.2134" height="4.39625" fill="#C4C4C4"/>
<rect x="63.0679" y="55.7317" width="43.7996" height="9.94843" fill="#C4C4C4" stroke="#CACACA" stroke-width="0.602571"/>
<rect x="22.6218" y="55.7317" width="32.8089" height="9.94843" fill="#C4C4C4" stroke="#CACACA" stroke-width="0.602571"/>
<rect x="99.3402" y="21.6647" width="11.6581" height="10.6471" rx="2.54756" fill="#C4C4C4" stroke="black" stroke-width="0.170664"/>
<line x1="99.2542" y1="23.1277" x2="111.083" y2="23.1277" stroke="black" stroke-width="0.138573"/>
<line x1="99.2542" y1="30.5081" x2="111.083" y2="30.5081" stroke="black" stroke-width="0.138573"/>
<line x1="107.747" y1="25.4529" x2="111.083" y2="25.4529" stroke="black" stroke-width="0.138573"/>
<line x1="99.2542" y1="25.4529" x2="102.894" y2="25.4529" stroke="black" stroke-width="0.138573"/>
<line x1="99.2542" y1="28.0816" x2="102.894" y2="28.0816" stroke="black" stroke-width="0.138573"/>
<line x1="107.747" y1="28.0816" x2="111.083" y2="28.0816" stroke="black" stroke-width="0.138573"/>
<line x1="102.824" y1="32.3972" x2="102.824" y2="21.5794" stroke="black" stroke-width="0.138573"/>
<line x1="107.677" y1="32.3972" x2="107.677" y2="21.5794" stroke="black" stroke-width="0.138573"/>
</g>
<circle cx="67.9082" cy="86.1335" r="20.1523" fill="#E5F5EC"/>
<path d="M65.3377 96.678C64.6824 96.678 64.0617 96.3722 63.664 95.845L58.2815 88.7331C58.1151 88.5134 57.9936 88.2632 57.924 87.9965C57.8544 87.7299 57.838 87.4522 57.8758 87.1792C57.9135 86.9063 58.0047 86.6435 58.1441 86.4058C58.2836 86.1681 58.4685 85.9602 58.6883 85.794C58.908 85.6271 59.1585 85.5053 59.4254 85.4354C59.6923 85.3655 59.9704 85.349 60.2437 85.3867C60.517 85.4245 60.7802 85.5159 61.0182 85.6556C61.2561 85.7952 61.4641 85.9805 61.6303 86.2008L65.172 90.8767L74.0766 76.5776C74.3719 76.1055 74.8424 75.7698 75.3849 75.6441C75.9274 75.5184 76.4976 75.6131 76.9704 75.9072C77.9541 76.5189 78.2569 77.8144 77.6423 78.7996L67.1213 95.6868C66.9417 95.9764 66.6942 96.2177 66.4001 96.3899C66.1061 96.5622 65.7745 96.66 65.4341 96.675C65.401 96.678 65.3708 96.678 65.3377 96.678Z" fill="#0D8284"/>
<defs>
<filter id="filter0_d_6182_49449" x="0.974278" y="0.125583" width="139.426" height="99.42" filterUnits="userSpaceOnUse" color-interpolation-filters="sRGB">
<feFlood flood-opacity="0" result="BackgroundImageFix"/>
<feColorMatrix in="SourceAlpha" type="matrix" values="0 0 0 0 0 0 0 0 0 0 0 0 0 0 0 0 0 0 127 0" result="hardAlpha"/>
<feOffset dx="4.18452" dy="9.20594"/>
<feGaussianBlur stdDeviation="8.36904"/>
<feComposite in2="hardAlpha" operator="out"/>
<feColorMatrix type="matrix" values="0 0 0 0 0 0 0 0 0 0 0 0 0 0 0 0 0 0 0.06 0"/>
<feBlend mode="normal" in2="BackgroundImageFix" result="effect1_dropShadow_6182_49449"/>
<feBlend mode="normal" in="SourceGraphic" in2="effect1_dropShadow_6182_49449" result="shape"/>
</filter>
<linearGradient id="paint0_linear_6182_49449" x1="32.9126" y1="47.0201" x2="45.3315" y2="47.0201" gradientUnits="userSpaceOnUse">
<stop stop-color="#A1A1A1"/>
<stop offset="0.0577997" stop-color="#B2B2B2"/>
<stop offset="0.1872" stop-color="#D4D4D4"/>
<stop offset="0.3108" stop-color="#ECECEC"/>
<stop offset="0.4253" stop-color="#FAFAFA"/>
<stop offset="0.5215" stop-color="white"/>
<stop offset="0.6449" stop-color="#FCFCFB"/>
<stop offset="0.7549" stop-color="#F1F1F1"/>
<stop offset="0.8598" stop-color="#DFDFDE"/>
<stop offset="0.9609" stop-color="#C6C6C5"/>
<stop offset="1" stop-color="#BABAB9"/>
</linearGradient>
<radialGradient id="paint1_radial_6182_49449" cx="0" cy="0" r="1" gradientUnits="userSpaceOnUse" gradientTransform="translate(36.3551 48.9456) scale(3.26913 3.2693)">
<stop stop-color="#8A8A8A"/>
<stop offset="0.0928131" stop-color="#A0A0A0"/>
<stop offset="0.2404" stop-color="#BEBEBE"/>
<stop offset="0.3971" stop-color="#D5D5D5"/>
<stop offset="0.5649" stop-color="#E5E5E5"/>
<stop offset="0.7517" stop-color="#EFEFEF"/>
<stop offset="0.995" stop-color="#F2F2F2"/>
</radialGradient>
<radialGradient id="paint2_radial_6182_49449" cx="0" cy="0" r="1" gradientUnits="userSpaceOnUse" gradientTransform="translate(41.6553 48.7225) scale(3.40578 3.40596)">
<stop stop-color="#8A8A8A"/>
<stop offset="0.0928131" stop-color="#A0A0A0"/>
<stop offset="0.2404" stop-color="#BEBEBE"/>
<stop offset="0.3971" stop-color="#D5D5D5"/>
<stop offset="0.5649" stop-color="#E5E5E5"/>
<stop offset="0.7517" stop-color="#EFEFEF"/>
<stop offset="0.995" stop-color="#F2F2F2"/>
</radialGradient>
</defs>
</svg>
