<svg width="118" height="105" viewBox="0 0 118 105" fill="none" xmlns="http://www.w3.org/2000/svg">
<g filter="url(#filter0_f_6182_49498)">
<rect x="5.00002" y="4.959" width="107.581" height="66.7317" rx="10.545" fill="white" stroke="#0D8284" stroke-width="0.602571"/>
<path d="M7.46221 6.97085C8.89429 5.68199 10.7511 4.96609 12.6778 4.96001L104.501 4.67035C107.016 4.66241 109.381 5.86243 110.861 7.89633L110.999 8.08677L112.246 10.2689L5.01001 10.5806L6.56867 7.77504L7.46221 6.97085Z" fill="#0D8284"/>
<rect x="13.677" y="16.6282" width="34.116" height="34.116" fill="#C4C4C4"/>
<path d="M37.1705 47.2296C32.9698 45.7417 28.7243 45.7947 24.49 47.2296V43.26C28.7522 42.1714 32.9753 42.2411 37.1705 43.26V47.2296Z" fill="url(#paint0_linear_6182_49498)"/>
<path d="M35.3869 39.8794C35.0685 39.8766 35.6411 43.902 35.9343 44.8678C36.3254 46.1547 38.7665 47.1541 41.2747 47.9134C42.4254 48.2623 44.5538 49.7976 44.847 50.3922C45.0146 50.7328 45.0062 50.7719 45.0062 50.7719H17.1565L18.9105 49.0886C19.4524 48.5694 20.1172 48.1981 20.8434 48.0111L21.698 47.7905L22.7426 47.2992C22.9437 47.2043 23.1337 47.0899 23.3096 46.9559L25.4547 45.3312C25.4547 45.3312 26.1278 44.491 26.072 43.2208C26.0161 41.9507 26.0161 39.885 26.0161 39.885H35.3869V39.8794Z" fill="#F0CCB9"/>
<path d="M41.2747 47.9132C38.7665 47.1539 36.3254 46.1546 35.9343 44.8677C35.1775 45.5637 33.5025 47.0244 32.8568 47.2991C32.0495 47.6424 30.0315 47.7904 29.1839 47.2991C28.5059 46.906 26.4153 45.8233 25.4547 45.3311L23.3096 46.9557C23.1337 47.0897 22.9437 47.2042 22.7426 47.2991L21.698 47.7904L20.8434 48.0109C20.1172 48.198 19.4524 48.5692 18.9105 49.0884L17.1565 50.7717H45.0062C45.0062 50.7717 45.0146 50.7326 44.847 50.3921C44.5538 49.7975 42.4254 48.2622 41.2747 47.9132Z" fill="#ECECEC"/>
<path d="M29.2344 50.7384H32.4604L31.5191 49.552H30.212L29.2344 50.7384Z" fill="#676767"/>
<path d="M30.5411 46.7437L28.762 48.5218C28.762 48.5218 29.1167 49.9958 29.9127 49.8478C29.9881 49.8339 29.9071 49.9176 30.2674 50.0795C30.6501 50.2498 31.1333 50.0739 31.4964 50.0237C31.9572 49.9595 32.3622 49.6859 32.5968 49.2839L33.0326 48.5414L31.34 46.8162L30.5411 46.7437Z" fill="#676767"/>
<path d="M23.6531 46.727C23.6531 46.727 26.583 49.1333 28.6387 49.3762C28.8035 49.3957 29.2308 49.4097 29.3007 49.3064L30.9123 46.8136L24.9072 44.8428L23.6531 46.727Z" fill="url(#paint1_radial_6182_49498)"/>
<path d="M38.1984 46.7634C38.1984 46.7634 35.2685 49.1697 33.2128 49.4126C33.048 49.4321 32.6206 49.4461 32.5508 49.3428L30.9392 46.85L36.9443 44.8792L38.1984 46.7634Z" fill="url(#paint2_radial_6182_49498)"/>
<path d="M24.2759 36.1808C24.2759 36.1808 25.1641 40.5327 27.3986 41.8838C30.8871 43.9942 33.2836 42.2048 33.2836 42.2048C33.2836 42.2048 36.0683 39.712 36.5235 38.2437C36.9313 36.9317 37.0738 36.1808 37.0738 36.1808C37.0738 36.1808 37.4425 36.1808 37.6855 35.8765C37.9313 35.5722 37.9927 33.6321 38.1743 33.085C38.3586 32.5378 38.4815 31.6278 37.867 31.6892C37.2553 31.7506 36.9481 32.7807 36.9481 32.7807C36.9481 32.7807 38.1044 28.814 37.7357 27.7197C37.3671 26.6282 37.0067 26.4691 35.5376 25.5591C34.0684 24.649 33.3366 23.9288 32.4345 24.2303C31.5323 24.5346 27.3204 24.7244 26.1584 24.3001C24.9937 23.8758 23.9016 27.435 23.7173 28.345C23.533 29.255 24.2089 32.0493 24.2703 32.7779C24.3318 33.5065 24.3318 33.5065 24.3318 33.5065C24.3318 33.5065 23.9044 31.5664 23.5358 31.4436C23.1671 31.3235 22.4939 31.3235 22.6168 32.7779C22.7397 34.2351 22.8878 33.1073 23.4129 35.8123C23.7257 37.3923 24.2759 36.1808 24.2759 36.1808Z" fill="#F0CCB9"/>
<path d="M24.4831 43.2878C24.4831 43.2878 23.9496 46.4255 23.6061 46.512C23.2653 46.6014 27.3991 48.6336 28.9213 48.829C28.9213 48.829 29.8346 47.249 30.8597 46.7716C30.8597 46.7744 24.6954 44.6864 24.4831 43.2878Z" fill="#F9F7F7"/>
<path d="M37.1818 43.26C37.1818 43.26 37.7432 46.3921 38.0812 46.4758C38.4192 46.5596 34.3524 48.6392 32.8498 48.8514C32.8498 48.8514 31.9308 47.2826 30.9114 46.8164C30.9142 46.8136 36.9891 44.6586 37.1818 43.26Z" fill="#F9F7F7"/>
<path d="M24.3247 32.6189C24.3247 32.6189 23.8163 31.0194 23.928 30.2182C24.0426 29.4171 23.4756 26.1622 25.4 25.5899C27.3244 25.0176 28.9081 25.6457 29.4192 25.5341C29.9276 25.4196 31.9218 24.4928 32.6452 24.6771C33.4636 24.8836 36.2678 27.1336 36.9466 27.1336C36.9466 27.1336 37.2342 28.8197 37.4046 29.1044C37.575 29.3891 37.2287 31.7061 37.2287 32.0467C37.2287 32.39 37.2287 32.5603 37.3432 32.9037C37.3432 32.9037 37.5136 32.2756 37.5694 31.8764C37.6253 31.4772 38.304 30.4471 38.304 30.4471C38.304 30.4471 38.871 27.0192 38.7565 26.7902C38.642 26.5613 39.3235 26.2766 38.304 24.3896C37.2845 22.5053 32.757 19.7612 30.8884 19.5351C29.0198 19.3062 26.4167 19.5351 25.3413 22.5053C25.3413 22.5053 22.512 23.1334 22.1153 26.1035C21.7187 29.0737 23.9252 31.1897 23.9252 32.1025C23.9252 33.0153 24.3275 33.5931 24.3275 33.5931L24.3247 32.6189Z" fill="#404041"/>
<path d="M29.4077 32.01C29.4077 32.01 27.7682 31.5578 25.4332 31.9402C24.3327 32.1217 25.6426 34.2069 25.6762 34.2404C25.7097 34.2739 27.595 34.5531 29.1982 34.2069C29.7066 34.098 29.8965 31.9765 29.4077 32.01Z" fill="#EAEAEA" fill-opacity="0.8"/>
<path fill-rule="evenodd" clip-rule="evenodd" d="M37.4479 32.3433C37.4982 32.4829 36.6782 32.5795 36.6782 32.5795C36.6782 32.5795 36.0442 34.447 35.7034 34.5419C35.3627 34.634 32.0278 34.6592 31.8015 34.3716C31.6339 34.1623 31.3909 33.3807 31.2708 32.9787C30.7681 32.6744 30.3128 32.8447 29.9916 33.0792C29.8659 33.5007 29.6453 34.1762 29.4916 34.3716C29.2626 34.6592 25.9277 34.6368 25.5897 34.5419C25.249 34.4498 24.6149 32.5795 24.6149 32.5795C24.6149 32.5795 24.0926 32.8028 24.1429 32.6632C24.2267 32.4315 24.02 31.9933 23.8552 31.7141C24.1373 31.9682 24.5339 31.9179 24.5339 31.9179C24.5339 31.9179 24.6931 31.6108 25.2155 31.5941C25.3782 31.589 25.5564 31.5818 25.7464 31.5741C27.1177 31.5187 29.1 31.4386 30.2849 31.9486C30.698 32.0076 30.7813 31.9919 30.9853 31.9535L31.0111 31.9486C32.196 31.4386 34.1782 31.5187 35.5496 31.5741C35.7395 31.5818 35.9177 31.589 36.0805 31.5941C36.6 31.6108 36.762 31.9179 36.762 31.9179C36.762 31.9179 37.1614 31.9682 37.4407 31.7141C37.2944 31.9514 37.3429 32.0743 37.4126 32.2509C37.424 32.28 37.4361 32.3106 37.4479 32.3433ZM29.4076 32.0101C29.4076 32.0101 27.7681 31.5578 25.4331 31.9403C24.3326 32.1217 25.6425 34.207 25.6761 34.2405C25.7096 34.274 27.5949 34.5531 29.1981 34.207C29.7065 34.0981 29.8964 31.9766 29.4076 32.0101ZM35.8779 31.9403C33.5429 31.5578 31.9034 32.0101 31.9034 32.0101C31.4146 31.9766 31.6073 34.0981 32.1129 34.207C33.7161 34.5531 35.6014 34.274 35.635 34.2405C35.6685 34.207 36.9784 32.1217 35.8779 31.9403Z" fill="#404041"/>
<path d="M31.9027 32.01C31.9027 32.01 33.5422 31.5578 35.8772 31.9402C36.9777 32.1217 35.6677 34.2069 35.6342 34.2404C35.6007 34.2739 33.7154 34.5531 32.1121 34.2069C31.6066 34.098 31.4139 31.9765 31.9027 32.01Z" fill="#EAEAEA" fill-opacity="0.8"/>
<path d="M37.3814 31.5077C37.3367 31.5914 37.2837 31.6583 37.2251 31.7113C37.3479 31.5049 37.4456 31.3878 37.3814 31.5077Z" fill="#A8A8A8"/>
<path d="M23.6419 31.714C23.5833 31.661 23.5303 31.594 23.4857 31.5104C23.4215 31.3876 23.5191 31.5048 23.6419 31.714Z" fill="#A8A8A8"/>
<rect x="54.9761" y="17.0771" width="15.7113" height="4.48895" fill="#C4C4C4"/>
<rect x="54.9761" y="31.8906" width="22.8936" height="4.48895" fill="#C4C4C4"/>
<rect x="54.9761" y="38.624" width="35.9116" height="4.48895" fill="#C4C4C4"/>
<rect x="54.9761" y="46.2551" width="42.1961" height="4.48895" fill="#C4C4C4"/>
<rect x="54.9761" y="24.2593" width="31.8715" height="4.48895" fill="#C4C4C4"/>
<rect x="55.2774" y="53.7388" width="44.7358" height="10.1709" fill="#C4C4C4" stroke="#CACACA" stroke-width="0.602571"/>
<rect x="13.978" y="53.7388" width="33.5134" height="10.1709" fill="#C4C4C4" stroke="#CACACA" stroke-width="0.602571"/>
<rect x="92.3195" y="18.9579" width="11.9075" height="10.8752" rx="2.54756" fill="#C4C4C4" stroke="black" stroke-width="0.170664"/>
<line x1="92.2334" y1="20.4549" x2="104.312" y2="20.4549" stroke="black" stroke-width="0.138573"/>
<line x1="92.2334" y1="27.991" x2="104.312" y2="27.991" stroke="black" stroke-width="0.138573"/>
<line x1="100.905" y1="22.8294" x2="104.311" y2="22.8294" stroke="black" stroke-width="0.138573"/>
<line x1="92.2334" y1="22.8294" x2="95.9498" y2="22.8294" stroke="black" stroke-width="0.138573"/>
<line x1="92.2334" y1="25.5135" x2="95.9498" y2="25.5135" stroke="black" stroke-width="0.138573"/>
<line x1="100.905" y1="25.5135" x2="104.311" y2="25.5135" stroke="black" stroke-width="0.138573"/>
<line x1="95.8812" y1="29.9185" x2="95.8811" y2="18.8726" stroke="black" stroke-width="0.138573"/>
<line x1="100.835" y1="29.9185" x2="100.835" y2="18.8726" stroke="black" stroke-width="0.138573"/>
</g>
<circle cx="55.4952" cy="83.5414" r="20.5772" fill="#FFCDCD"/>
<path d="M64.9484 74.089C64.653 73.7936 64.2523 73.6277 63.8346 73.6277C63.4168 73.6277 63.0162 73.7936 62.7207 74.089L55.4957 81.314L48.2707 74.089C47.9753 73.7936 47.5746 73.6277 47.1569 73.6277C46.7391 73.6277 46.3385 73.7936 46.0431 74.089C45.7477 74.3844 45.5818 74.785 45.5818 75.2028C45.5818 75.6205 45.7477 76.0212 46.0431 76.3166L53.2681 83.5416L46.0431 90.7666C45.7477 91.0621 45.5818 91.4627 45.5818 91.8805C45.5818 92.2982 45.7477 92.6989 46.0431 92.9943C46.3385 93.2897 46.7391 93.4556 47.1569 93.4556C47.5746 93.4556 47.9753 93.2897 48.2707 92.9943L55.4957 85.7693L62.7207 92.9943C63.0162 93.2897 63.4168 93.4556 63.8346 93.4556C64.2523 93.4556 64.653 93.2897 64.9484 92.9943C65.2438 92.6989 65.4097 92.2982 65.4097 91.8805C65.4097 91.4627 65.2438 91.0621 64.9484 90.7666L57.7234 83.5416L64.9484 76.3166C65.2438 76.0212 65.4097 75.6205 65.4097 75.2028C65.4097 74.785 65.2438 74.3844 64.9484 74.089Z" fill="#FF4B55"/>
<defs>
<filter id="filter0_f_6182_49498" x="0.514213" y="0.473197" width="116.553" height="75.7033" filterUnits="userSpaceOnUse" color-interpolation-filters="sRGB">
<feFlood flood-opacity="0" result="BackgroundImageFix"/>
<feBlend mode="normal" in="SourceGraphic" in2="BackgroundImageFix" result="shape"/>
<feGaussianBlur stdDeviation="2.09226" result="effect1_foregroundBlur_6182_49498"/>
</filter>
<linearGradient id="paint0_linear_6182_49498" x1="24.4892" y1="44.85" x2="37.17" y2="44.85" gradientUnits="userSpaceOnUse">
<stop stop-color="#A1A1A1"/>
<stop offset="0.0577997" stop-color="#B2B2B2"/>
<stop offset="0.1872" stop-color="#D4D4D4"/>
<stop offset="0.3108" stop-color="#ECECEC"/>
<stop offset="0.4253" stop-color="#FAFAFA"/>
<stop offset="0.5215" stop-color="white"/>
<stop offset="0.6449" stop-color="#FCFCFB"/>
<stop offset="0.7549" stop-color="#F1F1F1"/>
<stop offset="0.8598" stop-color="#DFDFDE"/>
<stop offset="0.9609" stop-color="#C6C6C5"/>
<stop offset="1" stop-color="#BABAB9"/>
</linearGradient>
<radialGradient id="paint1_radial_6182_49498" cx="0" cy="0" r="1" gradientUnits="userSpaceOnUse" gradientTransform="translate(28.0052 46.8162) scale(3.33807 3.33824)">
<stop stop-color="#8A8A8A"/>
<stop offset="0.0928131" stop-color="#A0A0A0"/>
<stop offset="0.2404" stop-color="#BEBEBE"/>
<stop offset="0.3971" stop-color="#D5D5D5"/>
<stop offset="0.5649" stop-color="#E5E5E5"/>
<stop offset="0.7517" stop-color="#EFEFEF"/>
<stop offset="0.995" stop-color="#F2F2F2"/>
</radialGradient>
<radialGradient id="paint2_radial_6182_49498" cx="0" cy="0" r="1" gradientUnits="userSpaceOnUse" gradientTransform="translate(33.4172 46.5883) scale(3.4776 3.47778)">
<stop stop-color="#8A8A8A"/>
<stop offset="0.0928131" stop-color="#A0A0A0"/>
<stop offset="0.2404" stop-color="#BEBEBE"/>
<stop offset="0.3971" stop-color="#D5D5D5"/>
<stop offset="0.5649" stop-color="#E5E5E5"/>
<stop offset="0.7517" stop-color="#EFEFEF"/>
<stop offset="0.995" stop-color="#F2F2F2"/>
</radialGradient>
</defs>
</svg>
