<svg width="170" height="108" viewBox="0 0 170 108" fill="none" xmlns="http://www.w3.org/2000/svg">
<rect width="170" height="108" rx="20" fill="#D2ECED"/>
<rect x="2.5" y="2.5" width="165" height="103" rx="17.5" stroke="#0D8284" stroke-width="5"/>
<rect x="21" y="84" width="125" height="4" rx="2" fill="#0D8284"/>
<rect x="21" y="52" width="51" height="4" rx="2" fill="#0D8284"/>
<rect x="21" y="68" width="51" height="4" rx="2" fill="#0D8284"/>
<rect x="21" y="36" width="51" height="4" rx="2" fill="#0D8284"/>
<rect x="21" y="20" width="51" height="4" rx="2" fill="#0D8284"/>
<rect x="84" y="16" width="61" height="61" rx="10" fill="#F0F8F5"/>
<g clip-path="url(#clip0)">
<path d="M104.451 64.9988C104.068 64.9987 103.697 64.8733 103.392 64.6417C103.088 64.4101 102.867 64.0851 102.765 63.7165C102.663 63.3479 102.684 62.9559 102.826 62.6006C102.968 62.2453 103.222 61.9462 103.55 61.7491C109.75 58.0251 109.75 50.0276 109.75 45.2501C109.75 43.8577 110.303 42.5223 111.288 41.5378C112.272 40.5532 113.608 40.0001 115 40.0001C116.392 40.0001 117.728 40.5532 118.712 41.5378C119.697 42.5223 120.25 43.8577 120.25 45.2501C120.25 45.7142 120.066 46.1593 119.737 46.4875C119.409 46.8157 118.964 47.0001 118.5 47.0001C118.036 47.0001 117.591 46.8157 117.263 46.4875C116.934 46.1593 116.75 45.7142 116.75 45.2501C116.75 44.786 116.566 44.3408 116.237 44.0127C115.909 43.6845 115.464 43.5001 115 43.5001C114.536 43.5001 114.091 43.6845 113.763 44.0127C113.434 44.3408 113.25 44.786 113.25 45.2501C113.25 50.4073 113.25 60.0096 105.351 64.7503C105.079 64.9131 104.768 64.999 104.451 64.9988ZM113.136 67.4856C117.13 63.4606 119.462 57.8011 120.068 50.6488C120.088 50.4194 120.063 50.1882 119.994 49.9685C119.925 49.7488 119.813 49.5449 119.665 49.3685C119.517 49.192 119.336 49.0466 119.131 48.9405C118.927 48.8344 118.703 48.7697 118.474 48.7501C118.244 48.7265 118.012 48.7495 117.791 48.8175C117.571 48.8855 117.366 48.9972 117.19 49.1459C117.013 49.2947 116.868 49.4775 116.764 49.6834C116.66 49.8892 116.598 50.114 116.582 50.3443C116.038 56.7441 114.099 61.5443 110.653 65.0111C110.326 65.3404 110.143 65.7862 110.144 66.2504C110.146 66.7146 110.332 67.1593 110.661 67.4865C110.99 67.8137 111.436 67.9967 111.9 67.9952C112.364 67.9937 112.809 67.8079 113.136 67.4786V67.4856ZM122.236 67.1601C123.298 65.3963 124.182 63.5316 124.875 61.5933C125.02 61.1598 124.99 60.6868 124.791 60.2755C124.591 59.8641 124.239 59.547 123.809 59.392C123.379 59.237 122.905 59.2564 122.49 59.446C122.074 59.6357 121.748 59.9805 121.583 60.4068C120.967 62.1255 120.183 63.7791 119.242 65.3436C119.123 65.5402 119.043 65.7584 119.008 65.9857C118.973 66.2129 118.984 66.4449 119.038 66.6682C119.093 66.8916 119.191 67.102 119.327 67.2874C119.463 67.4729 119.634 67.6297 119.831 67.749C120.228 67.9898 120.704 68.0631 121.156 67.9527C121.379 67.898 121.589 67.7999 121.775 67.6639C121.96 67.5279 122.117 67.3567 122.236 67.1601ZM126.375 56.0843C127.023 52.5106 127.316 48.8815 127.25 45.2501C127.248 42.7709 126.494 40.3505 125.088 38.3088C123.682 36.2672 121.689 34.7003 119.373 33.8153C117.057 32.9303 114.527 32.7689 112.117 33.3523C109.708 33.9357 107.532 35.2365 105.877 37.0828C105.716 37.2526 105.591 37.453 105.508 37.672C105.426 37.8911 105.388 38.1245 105.398 38.3584C105.407 38.5923 105.464 38.8219 105.563 39.0336C105.663 39.2453 105.804 39.4349 105.979 39.5911C106.153 39.7473 106.357 39.8669 106.578 39.9429C106.8 40.0189 107.034 40.0497 107.268 40.0335C107.501 40.0173 107.729 39.9544 107.938 39.8486C108.146 39.7427 108.332 39.5961 108.483 39.4173C109.665 38.0983 111.219 37.1689 112.94 36.752C114.661 36.3351 116.468 36.4503 118.123 37.0823C119.777 37.7144 121.201 38.8335 122.205 40.2919C123.21 41.7502 123.749 43.4791 123.75 45.2501C123.815 48.657 123.544 52.062 122.941 55.4158C122.853 55.8711 122.949 56.3429 123.208 56.7274C123.468 57.112 123.869 57.3779 124.324 57.4668C124.435 57.4891 124.548 57.5002 124.662 57.5001C125.067 57.499 125.46 57.3573 125.772 57.0991C126.084 56.8409 126.298 56.4822 126.375 56.0843ZM106.25 45.2501C106.249 44.7617 106.29 44.274 106.371 43.7923C106.423 43.5604 106.427 43.3203 106.384 43.0867C106.34 42.853 106.25 42.6306 106.117 42.4332C105.985 42.2357 105.814 42.0673 105.614 41.9382C105.414 41.8091 105.191 41.722 104.956 41.6823C104.722 41.6425 104.482 41.6509 104.251 41.707C104.02 41.7631 103.803 41.8656 103.613 42.0084C103.423 42.1511 103.264 42.3311 103.145 42.5373C103.027 42.7435 102.952 42.9717 102.925 43.2078C102.809 43.8825 102.751 44.5656 102.75 45.2501C102.75 53.3788 100.395 57.5001 95.75 57.5001C95.2859 57.5001 94.8408 57.6845 94.5126 58.0127C94.1844 58.3408 94 58.786 94 59.2501C94 59.7142 94.1844 60.1593 94.5126 60.4875C94.8408 60.8157 95.2859 61.0001 95.75 61.0001C102.521 61.0001 106.25 55.4001 106.25 45.2501ZM130.225 66.9746C133.105 60.1043 134.478 52.6961 134.25 45.2501C134.258 42.3432 133.6 39.4732 132.325 36.8606C132.224 36.6538 132.084 36.4688 131.912 36.3161C131.74 36.1635 131.54 36.0463 131.322 35.9711C131.105 35.896 130.875 35.8644 130.645 35.8781C130.416 35.8919 130.191 35.9507 129.984 36.0512C129.778 36.1518 129.593 36.2921 129.44 36.4641C129.287 36.6361 129.17 36.8366 129.095 37.0539C129.02 37.2712 128.988 37.5013 129.002 37.7308C129.016 37.9604 129.074 38.185 129.175 38.3918C130.216 40.5278 130.755 42.8738 130.75 45.2501C130.97 52.1954 129.706 59.1078 127.042 65.5256C126.947 65.7352 126.894 65.9614 126.887 66.1913C126.88 66.4212 126.918 66.6503 126.999 66.8655C127.08 67.0807 127.203 67.2778 127.361 67.4454C127.518 67.6131 127.707 67.748 127.917 67.8426C128.143 67.9468 128.39 68.0006 128.639 68.0001C128.974 67.9987 129.301 67.9013 129.582 67.7195C129.863 67.5378 130.086 67.2792 130.225 66.9746ZM99.25 50.5001V45.2501C99.2546 41.0744 100.915 37.071 103.868 34.1183C106.821 31.1656 110.824 29.5047 115 29.5001C118.41 29.4887 121.729 30.5952 124.45 32.6501C124.821 32.9286 125.288 33.0481 125.747 32.9825C126.207 32.9169 126.622 32.6714 126.9 32.3001C127.178 31.9288 127.298 31.4621 127.232 31.0026C127.167 30.5431 126.921 30.1286 126.55 29.8501C123.224 27.3396 119.167 25.9873 115 26.0001C109.896 26.0061 105.004 28.0362 101.395 31.6449C97.7861 35.2537 95.756 40.1465 95.75 45.2501V50.5001C95.75 50.9642 95.9344 51.4093 96.2626 51.7375C96.5908 52.0657 97.0359 52.2501 97.5 52.2501C97.9641 52.2501 98.4092 52.0657 98.7374 51.7375C99.0656 51.4093 99.25 50.9642 99.25 50.5001Z" fill="#676767"/>
</g>
<defs>
<clipPath id="clip0">
<rect width="42" height="42" fill="white" transform="translate(94 26)"/>
</clipPath>
</defs>
</svg>
