<svg width="40" height="40" viewBox="0 0 40 40" fill="none" xmlns="http://www.w3.org/2000/svg">
<path d="M2.60919 2.77708C-0.525114 6.03206 0.11637 9.48975 0.11637 19.9941C0.11637 28.7172 -1.40591 37.462 6.56113 39.5206C9.04897 40.1603 31.0921 40.1603 33.5766 39.5173C36.8937 38.6616 39.5926 35.9716 39.9616 31.281C40.0131 30.6264 40.0131 9.37344 39.9599 8.7055C39.5677 3.70921 36.4916 0.82974 32.4382 0.246535C31.5093 0.11195 31.3231 0.0720723 26.5569 0.0637645C9.65057 0.0720723 5.94458 -0.680611 2.60919 2.77708Z" fill="#28D467"/>
<g clip-path="url(#clip0)">
<path d="M30.5945 9.40552C27.7536 6.56464 23.991 5 20 5C11.7401 5 5 11.741 5 20C5 22.444 5.60013 24.8566 6.73882 27.0015L5.02586 33.9096C4.95171 34.2085 5.0396 34.5246 5.25749 34.7425C5.47401 34.9593 5.78964 35.0488 6.09039 34.9741L12.9985 33.261C15.1434 34.3996 17.556 35 20 35C23.991 35 27.7536 33.4354 30.5945 30.5945C33.4354 27.7534 35 23.991 35 20C35 16.009 33.4354 12.2464 30.5945 9.40552ZM20 33.2422C17.7386 33.2422 15.5084 32.6601 13.5499 31.5594C13.3549 31.4498 13.1253 31.4187 12.9076 31.4725L7.08305 32.9169L8.5273 27.0921C8.58131 26.8749 8.55019 26.6451 8.44055 26.4499C7.33963 24.4916 6.75781 22.2614 6.75781 20C6.75781 12.6982 12.6982 6.75781 20 6.75781C27.3018 6.75781 33.2422 12.6982 33.2422 20C33.2422 27.3018 27.3018 33.2422 20 33.2422Z" fill="white"/>
<path d="M27.9305 22.6688C27.348 22.0861 26.7067 21.4978 25.9658 21.1406C24.8587 20.607 23.8024 20.7599 22.9912 21.5711C22.622 21.9403 22.1142 22.6681 21.8219 23.0261C21.0679 22.9 19.5617 21.6299 18.9636 21.0339C18.3678 20.4358 17.0987 18.9293 16.9726 18.177C17.3285 17.8863 18.0588 17.3764 18.4278 17.0076C19.2389 16.1965 19.3918 15.14 18.8583 14.0331C18.501 13.292 17.9128 12.6509 17.3305 12.0686C16.1445 10.8576 14.315 10.7683 12.736 12.3476C11.5558 13.5275 10.5046 15.7149 12.1965 19.4354C13.1976 21.6363 14.811 23.583 15.6064 24.3863L15.6125 24.3925C16.4159 25.1881 18.3626 26.8015 20.5635 27.8024C23.0491 28.9328 25.7133 29.2011 27.6515 27.2631C29.2544 25.6601 29.1193 23.8329 27.9305 22.6688ZM26.4084 26.0201C25.2638 27.1647 23.5422 27.2261 21.2911 26.2023C19.3149 25.3035 17.5255 23.8123 16.8524 23.1465C16.1866 22.4731 14.6954 20.6839 13.7966 18.7078C12.7728 16.4567 12.8341 14.7351 13.9788 13.5904C14.6469 12.9223 15.4159 12.6259 16.0747 13.2986L16.0872 13.3114C17.6475 14.8717 17.5368 15.4126 17.1847 15.7646C16.8723 16.077 15.9488 16.7041 15.6503 17.0026C14.9497 17.703 15.0802 18.7879 16.0378 20.2269C16.6093 21.0859 17.3642 21.9194 17.7203 22.2765L17.7221 22.2786C18.0794 22.6347 18.9128 23.3895 19.7718 23.9611C21.211 24.9187 22.2957 25.0489 22.996 24.3486C23.2947 24.0499 23.9216 23.1266 24.2341 22.8141C24.4721 22.5761 24.7067 22.4852 25.2022 22.7242C25.7767 23.0011 26.3917 23.6161 26.6874 23.9116L26.7003 23.9242C27.3782 24.5882 27.0768 25.3518 26.4084 26.0201Z" fill="white"/>
</g>
<defs>
<clipPath id="clip0">
<rect width="30" height="30" fill="white" transform="translate(5 5)"/>
</clipPath>
</defs>
</svg>
