<svg width="37" height="38" viewBox="0 0 37 38" fill="none" xmlns="http://www.w3.org/2000/svg">
<path fill-rule="evenodd" clip-rule="evenodd" d="M2.02963 0.599976H34.7687C35.89 0.599694 36.7994 1.50852 36.8 2.6296V35.3687V35.3695C36.7997 36.4911 35.8903 37.4003 34.7687 37.4H25.8628V23.4037H30.6604L31.3792 17.8334H25.8628V14.2857C25.8628 12.6767 26.3095 11.5803 28.6168 11.5803H31.5409V6.61165C31.0322 6.54398 29.2867 6.39265 27.2556 6.39265C23.015 6.39265 20.1128 8.98015 20.1128 13.734V17.8334H15.3331V23.4037H20.1128V37.4H2.03131C0.909948 37.4003 0.000560749 36.4914 6.54234e-08 35.3703V2.63129C-0.000281536 1.50992 0.908544 0.600536 2.02963 0.599976Z" fill="#3B5998"/>
</svg>
