<svg width="37" height="38" viewBox="0 0 37 38" fill="none" xmlns="http://www.w3.org/2000/svg">
<path d="M33.4711 0.599976H3.32886C1.4904 0.599976 0 2.09038 0 3.92883V34.071C0 35.9096 1.4904 37.4 3.32886 37.4H33.471C35.3096 37.4 36.8 35.9096 36.8 34.071V3.92883C36.8 2.09038 35.3096 0.599976 33.4711 0.599976ZM11.3875 32.3755C11.3875 32.9106 10.9538 33.3443 10.4187 33.3443H6.29502C5.75997 33.3443 5.32627 32.9106 5.32627 32.3755V15.0891C5.32627 14.554 5.75997 14.1203 6.29502 14.1203H10.4187C10.9538 14.1203 11.3875 14.554 11.3875 15.0891V32.3755ZM8.35688 12.4908C6.19329 12.4908 4.43931 10.7368 4.43931 8.57324C4.43931 6.40966 6.19329 4.65568 8.35688 4.65568C10.5205 4.65568 12.2744 6.40966 12.2744 8.57324C12.2744 10.7368 10.5206 12.4908 8.35688 12.4908ZM32.9379 32.4536C32.9379 32.9454 32.5391 33.3443 32.0472 33.3443H27.6222C27.1303 33.3443 26.7314 32.9454 26.7314 32.4536V24.3452C26.7314 23.1356 27.0862 19.0448 23.5704 19.0448C20.8433 19.0448 20.2901 21.8448 20.179 23.1014V32.4536C20.179 32.9454 19.7803 33.3443 19.2883 33.3443H15.0085C14.5166 33.3443 14.1178 32.9454 14.1178 32.4536V15.011C14.1178 14.5191 14.5166 14.1203 15.0085 14.1203H19.2883C19.7802 14.1203 20.179 14.5191 20.179 15.011V16.5192C21.1902 15.0016 22.6931 13.8302 25.8928 13.8302C32.9785 13.8302 32.9379 20.45 32.9379 24.0872V32.4536Z" fill="#0E76A8"/>
</svg>
