<svg width="38" height="40" viewBox="0 0 38 40" fill="none" xmlns="http://www.w3.org/2000/svg">
<circle cx="18.7134" cy="20.7641" r="16.4438" fill="#25D366"/>
<path fill-rule="evenodd" clip-rule="evenodd" d="M32.4496 6.46857C28.8854 2.88623 24.1332 0.918213 19.0726 0.918213C8.65203 0.918213 0.163246 9.40699 0.154177 19.8275C0.154177 23.165 1.02482 26.4118 2.67542 29.2867L0 39.0905L10.0305 36.4604C12.7967 37.9659 15.9074 38.764 19.0726 38.764H19.0816C29.5021 38.764 37.9909 30.2752 38 19.8457C37.9909 14.7941 36.0229 10.0418 32.4496 6.46857ZM19.0726 35.5626C16.243 35.5626 13.4768 34.8008 11.0644 33.3678L10.4931 33.0232L4.54368 34.5831L6.13079 28.7788L5.75895 28.1803C4.18091 25.6772 3.35561 22.7841 3.35561 19.8184C3.35561 11.1664 10.4115 4.11058 19.0816 4.11058C23.2807 4.11058 27.2258 5.7521 30.2005 8.71773C33.1661 11.6924 34.7986 15.6375 34.7986 19.8366C34.7895 28.5158 27.7337 35.5626 19.0726 35.5626ZM27.6974 23.7908C27.2258 23.555 24.9041 22.4122 24.4687 22.249C24.0334 22.0948 23.716 22.0132 23.4076 22.4848C23.0902 22.9564 22.1833 24.0266 21.9112 24.3349C21.6391 24.6523 21.358 24.6886 20.8864 24.4528C20.4148 24.217 18.8912 23.7182 17.0864 22.1039C15.6807 20.8523 14.7375 19.3015 14.4563 18.8299C14.1842 18.3583 14.4291 18.1044 14.6649 17.8686C14.8735 17.66 15.1365 17.3153 15.3723 17.0433C15.6081 16.7712 15.6897 16.5717 15.8439 16.2542C15.9981 15.9368 15.9255 15.6648 15.8076 15.429C15.6897 15.1932 14.7465 12.8624 14.3475 11.9192C13.9666 10.9941 13.5766 11.1211 13.2864 11.112C13.0143 11.0939 12.6969 11.0939 12.3795 11.0939C12.0621 11.0939 11.5542 11.2118 11.1189 11.6834C10.6835 12.155 9.46826 13.2977 9.46826 15.6285C9.46826 17.9593 11.1642 20.1994 11.4 20.5168C11.6358 20.8342 14.7284 25.6046 19.4716 27.6542C20.5962 28.144 21.4759 28.4342 22.1652 28.6519C23.2988 29.0146 24.3236 28.9602 25.1399 28.8423C26.0468 28.7063 27.9332 27.6996 28.3322 26.5931C28.7222 25.4867 28.7222 24.5435 28.6043 24.344C28.4864 24.1445 28.169 24.0266 27.6974 23.7908Z" fill="white"/>
<path d="M3.68359 35.5069L6.23522 28.7025L10.4879 32.9552L3.68359 35.5069Z" fill="#25D366"/>
</svg>
